<?xml version="1.0" encoding="utf-8"?>
<!-- Generator: Adobe Illustrator 24.0.3, SVG Export Plug-In . SVG Version: 6.00 Build 0)  -->
<svg version="1.1" id="Layer_1" xmlns="http://www.w3.org/2000/svg" xmlns:xlink="http://www.w3.org/1999/xlink" x="0px" y="0px"
	 viewBox="0 0 204.27 207.59" style="enable-background:new 0 0 204.27 207.59;" xml:space="preserve">
<style type="text/css">
	.st0{display:none;}
	.st1{display:inline;fill:#FFFFFF;stroke:#000000;stroke-miterlimit:10;}
	.st2{display:inline;fill:none;stroke:#000000;stroke-miterlimit:10;}
	.st3{display:inline;fill:none;stroke:#000000;stroke-width:0.25;stroke-miterlimit:10;}
	
		.st4{display:inline;fill:none;stroke:#000000;stroke-width:0.25;stroke-linecap:round;stroke-linejoin:round;stroke-miterlimit:10;}
	.st5{display:inline;}
	.st6{fill:#FFFFFF;stroke:#000000;stroke-width:0.25;stroke-linecap:round;stroke-linejoin:round;stroke-miterlimit:10;}
	.st7{fill:#FFFFFF;stroke:#000000;stroke-width:0.25;stroke-miterlimit:10;}
	.st8{fill:none;stroke:#000000;stroke-width:0.25;stroke-miterlimit:10;}
	.st9{display:inline;fill:none;stroke:#000000;stroke-width:0.5;stroke-miterlimit:10;}
	.st10{fill:none;stroke:#000000;stroke-width:0.25;stroke-linecap:round;stroke-linejoin:round;stroke-miterlimit:10;}
	.st11{font-family:'OpenSans-Bold';}
	.st12{font-size:5.9998px;}
	.st13{font-size:3px;}
	.st14{font-size:3.0002px;}
	.st15{fill:#FFFFFF;stroke:#000000;stroke-linecap:round;stroke-linejoin:round;stroke-miterlimit:10;}
	.st16{fill:none;stroke:#000000;stroke-linecap:round;stroke-linejoin:round;stroke-miterlimit:10;}
	.st17{fill:#FFFFFF;stroke:#000000;stroke-width:0.5;stroke-linecap:round;stroke-linejoin:round;stroke-miterlimit:10;}
	.st18{fill:#FFFFFF;}
	.st19{fill:none;stroke:#000000;stroke-width:0.5;stroke-linecap:round;stroke-linejoin:round;stroke-miterlimit:10;}
	.st20{fill:none;stroke:#000000;stroke-width:0.5;stroke-linecap:round;stroke-linejoin:round;stroke-miterlimit:9.9995;}
	.st21{fill:none;stroke:#000000;stroke-width:1.5;stroke-linecap:round;stroke-linejoin:round;stroke-miterlimit:10;}
	.st22{fill:none;stroke:#000000;stroke-width:0.5;stroke-linecap:round;stroke-linejoin:round;stroke-miterlimit:10.0003;}
	.st23{fill:none;stroke:#FFFFFF;stroke-width:4;stroke-linecap:round;stroke-linejoin:round;stroke-miterlimit:10;}
	.st24{fill:none;stroke:#007481;stroke-linecap:round;stroke-linejoin:round;stroke-miterlimit:10;}
</style>
<g id="Layer_1_1_">
	<g class="st0">
		<path class="st1" d="M109.84,4.48c-18.61,10.75-62.8,36.26-68.43,39.51c-7.16,4.13-7.16,4.13-7.16,12.2c0,6.81,0,92.24,0,98.54
			s0.74,6.73,4.69,9c3.95,2.28,62.59,36.16,69.85,40.33c7.26,4.17,12.18,3.67,17.26,0.74c5.08-2.93,62.49-35.46,68.62-39.61
			c6.13-4.16,7.2-4.16,7.21-12.22c0-24.01,0-93.69,0-98.74c0-6.1-1.16-6.78-6.13-9.65c-3.98-2.3-51.37-29.66-70.12-40.48
			C120.96,1.4,114.9,1.56,109.84,4.48z"/>
		<path class="st2" d="M34.26,54.22"/>
		<path class="st3" d="M34.26,54.22c0,0,66.78,38.88,72.29,42.28c7.25,4.47,15.25,4.72,23.5,0c5.94-3.39,71.82-42.29,71.82-42.29"/>
		<path class="st3" d="M38.42,45.75c0,0,61.56,35.84,67.07,39.24c7.25,4.47,15.25,4.72,23.5,0c5.94-3.39,67.71-39.86,67.71-39.86"/>
		<path class="st3" d="M113.3,206.05c-1.5-1.5-1.5-2.44-1.5-6.58c0-22.64,0-96.15,0-99.75c0-4.25,0.5-9.27,3-11.29"/>
		<path class="st3" d="M122.8,206.31c0.98-1.16,1.41-2.47,1.41-6.84c0-22.85,0-94.46,0-99.44c0-5.93-1.84-10.13-3.67-11.9"/>
		<path class="st3" d="M34.26,154.72c0,0,73.79,42.75,77.54,44.75s10.01,1.25,12.42,0s77.63-44.75,77.63-44.75"/>
		<polygon class="st4" points="86.51,156.66 86.51,178.49 105.57,189.28 105.41,167.57 		"/>
		<path class="st3" d="M98.2,196.05l-41.63-24.2c-0.92-0.54-1.67-1.72-1.66-2.64l0,0c0.01-0.91,0.77-1.22,1.69-0.68l41.63,24.2
			c0.92,0.54,1.67,1.72,1.66,2.64l0,0C99.89,196.28,99.13,196.59,98.2,196.05z"/>
		<g class="st5">
			<polyline class="st6" points="62.21,173.15 63.44,172.5 81.81,183.27 79.08,184.71 			"/>
			<g>
				<path class="st7" d="M77.65,184.83l-14.58-8.46c-0.78-0.45-1.43-1.48-1.44-2.29l0,0c-0.01-0.81,0.61-1.1,1.4-0.64l14.58,8.46
					c0.78,0.45,1.43,1.48,1.44,2.29l0,0C79.06,184.99,78.43,185.28,77.65,184.83z"/>
				<g>
					<line class="st8" x1="64.15" y1="174.09" x2="64.2" y2="177.03"/>
					<line class="st8" x1="67.09" y1="175.79" x2="67.13" y2="178.73"/>
					<line class="st8" x1="70.02" y1="177.5" x2="70.07" y2="180.43"/>
					<line class="st8" x1="72.96" y1="179.2" x2="73" y2="182.13"/>
					<line class="st8" x1="75.89" y1="180.9" x2="75.94" y2="183.84"/>
				</g>
			</g>
			<line class="st8" x1="78.31" y1="182.5" x2="79.56" y2="181.95"/>
		</g>
		<ellipse class="st9" cx="50.03" cy="140.86" rx="1.8" ry="3.18"/>
		<path class="st3" d="M84.44,184.71c0-6.22,0-10.24,0-18.59c0-13.16,2.99-16.27,11.6-10.9c7.94,4.95,12.51,8.75,12.51,25.45v16.96"
			/>
		<g class="st5">
			<path class="st10" d="M103.68,171.43l-3.07-1.74v-1.41c0-0.69-0.46-1.48-1.03-1.74c-0.57-0.27-1.03,0.08-1.03,0.78v1.2L95.81,167
				v-1.46c0-0.69-0.46-1.48-1.03-1.74c-0.57-0.27-1.03,0.08-1.03,0.78v1.25l-5.49-3.2v11.68l5.49,3.28v0.94
				c0,0.69,0.46,1.48,1.03,1.74c0.57,0.27,1.03-0.08,1.03-0.78v-0.71l2.74,1.57v0.92c0,0.69,0.46,1.48,1.03,1.74
				c0.57,0.27,1.03-0.08,1.03-0.78v-0.69l3.08,1.78L103.68,171.43L103.68,171.43z"/>
			<polygon class="st10" points="95.96,168.23 95.96,177.85 98.36,179.23 98.36,169.61 			"/>
			<line class="st10" x1="98.36" y1="179.23" x2="103.68" y2="175.97"/>
			<line class="st10" x1="98.36" y1="169.61" x2="100.61" y2="168.28"/>
			<line class="st10" x1="95.96" y1="168.23" x2="96.98" y2="167.65"/>
			<line class="st10" x1="93.73" y1="165.82" x2="95.59" y2="164.68"/>
			<line class="st10" x1="88.24" y1="174.3" x2="95.96" y2="169.84"/>
			<line class="st10" x1="93.73" y1="177.58" x2="95.96" y2="176.34"/>
			<line class="st10" x1="95.79" y1="178.77" x2="96.82" y2="178.34"/>
			<line class="st10" x1="98.53" y1="180.35" x2="103.68" y2="177.38"/>
			<line class="st10" x1="100.6" y1="181.54" x2="103.68" y2="179.79"/>
		</g>
		<g class="st5">
			<line class="st10" x1="57.8" y1="164.78" x2="57.8" y2="168.28"/>
			<line class="st10" x1="62.6" y1="167.54" x2="62.6" y2="171.04"/>
			<line class="st10" x1="67.4" y1="170.31" x2="67.4" y2="173.81"/>
			<line class="st10" x1="72.2" y1="173.07" x2="72.2" y2="176.57"/>
			<line class="st10" x1="77.01" y1="175.83" x2="77.01" y2="179.33"/>
			<line class="st10" x1="81.81" y1="178.6" x2="81.81" y2="182.1"/>
		</g>
		<g class="st5">
			<line class="st10" x1="59.93" y1="167.02" x2="59.93" y2="169.52"/>
			<line class="st10" x1="64.79" y1="169.85" x2="64.79" y2="172.35"/>
			<line class="st10" x1="69.65" y1="172.68" x2="69.65" y2="175.18"/>
			<line class="st10" x1="74.51" y1="175.51" x2="74.51" y2="178.01"/>
			<line class="st10" x1="79.38" y1="178.34" x2="79.38" y2="180.84"/>
		</g>
		<path class="st4" d="M84.44,178.56l3.8,2.12c0.56,1.63,2.84,4.56,6,6.48s7.54,1.98,8.82,1.89l5.44,3.25"/>
		<text transform="matrix(0.8536 0.4712 0.0503 0.9987 92.1055 150.1873)" class="st5 st11 st12">USB</text>
		<text transform="matrix(0.714 0.4214 0.0602 0.9982 57.43 163.5343)" class="st5 st11 st13">0</text>
		<text transform="matrix(0.7152 0.4193 0.0631 0.998 64.2169 167.4657)" class="st5 st11 st13">30</text>
		<text transform="matrix(0.7122 0.4243 0.0561 0.9984 73.8884 173.6266)" class="st5 st11 st13">70</text>
		<text transform="matrix(0.7009 0.4428 0.03 0.9995 80.1354 177.016)" class="st5 st11 st14">100</text>
		<polygon class="st5" points="64.7,172.34 63.54,168.82 66.66,170.65 		"/>
	</g>
	<g>
		<path class="st15" d="M130.06,204.98c6.92-3.81,54.42-31.22,60.62-34.85c7.53-4.4,10.69-9.16,11.69-12.98s1.38-5.9,1.38-15.35
			c0-27.05,0-51.5-2.69-88.09c-0.44-6.01-0.75-8.5-6.85-12.03c-6.11-3.52-65.07-38.21-68.4-39.42s-7.79-2.44-12.27-1.32
			c-4.48,1.12-8.91,2.34-13.05,4.72c-4.14,2.37-56.3,32.62-60.58,34.96s-6.19,5.33-6.19,9.77s0,92.7,0,96.97s-1.54,10.03,3.16,12.74
			s72.2,41.68,78,44.89C120.69,208.19,125.75,207.35,130.06,204.98z"/>
		<g>
			<path class="st16" d="M84.12,179.16c1.86,1.08,2.72,1.13,2.72-0.56s-0.01-2.26,0-3.74c0.01-0.99,0.58-1,1.15-1.28
				c0.68-0.34,1.69-0.77,2.3-1.06s1.76,0.01,2.54,0.46c0.78,0.45,1.67,0.74,2.11,1.67c0.43,0.93,4.91,6.31,7.8,7.58
				s4.99,1.95,6.95,1.74c1.96-0.21,3.45,1.43,3.45,1.43"/>
			<path class="st16" d="M86.92,174.36c1.06-0.21,2.95,0.07,4.13,0.73c1,0.56,0.79,0.88,1,1.23c1.31,2.16,3.71,5.14,6.96,7.25
				c3.17,2.05,5.83,2.71,8.3,2.13c0.96-0.22,1.44-0.39,2.28,0c1.68,0.79,2.95,1.11,2.95,2.64c0,1.65,0,4.23,0,5.07
				s0.08,3.1,1.81,3.94"/>
			<line class="st10" x1="92.04" y1="176.32" x2="94.94" y2="174.64"/>
			<line class="st10" x1="91.05" y1="175.09" x2="93.69" y2="173.47"/>
			<line class="st10" x1="107.3" y1="185.7" x2="109.69" y2="183.96"/>
			<line class="st10" x1="108.47" y1="185.54" x2="110.52" y2="183.96"/>
		</g>
		<g>
			<path class="st17" d="M86.89,160.3c0,7.56,0,11.5,0,11.5c0.72,0.84,1.84,1.74,3.52,2.2l4.15-2.39v-15.2"/>
			<path class="st18" d="M113.11,176.09l-4.09-3.07c0,2.04,0,9.61,0,10.61s0.25,1.68,1.21,2.15s3.03,1.38,3.03,1.38L113.11,176.09z"
				/>
			<g>
				<path class="st19" d="M113.27,187.16c0,0-0.17-0.08-0.44-0.2c-0.63-0.29-1.82-0.83-2.6-1.18c-1.11-0.5-1.21-1.3-1.21-2.15
					s0-13.89,0-16.29s-0.76-3.42-2.64-4.57s-13.37-7.57-14.24-8.01s-1.72-0.46-1.72,1.08c0,1.54,0,18.15,0,18.15"/>
				<polyline class="st10" points="94.59,156.13 94.59,172.55 109.02,180.76 				"/>
				<polygon class="st10" points="95.3,159.64 95.3,168.91 99.04,171.14 100.25,173.09 101.71,173.86 101.71,173.1 106,175.65 
					106,176.56 107.55,177.55 107.55,165.79 106.08,164.83 106.08,165.67 101.93,163.26 101.81,162.1 100.09,161.13 99.07,161.7 
									"/>
				<polyline class="st10" points="107.55,172.25 105.57,173.4 101.66,171.14 101.6,163.18 101.85,163.04 				"/>
				<line class="st10" x1="105.57" y1="173.4" x2="105.57" y2="165.37"/>
				<polyline class="st10" points="101.62,164.82 104.38,166.36 104.38,172.71 				"/>
				<line class="st10" x1="104.38" y1="166.36" x2="105.57" y2="165.57"/>
				<line class="st10" x1="95.3" y1="168.91" x2="101.6" y2="165.37"/>
				<line class="st10" x1="99.04" y1="171.14" x2="101.62" y2="169.7"/>
				<line class="st10" x1="100.25" y1="173.09" x2="102.49" y2="171.72"/>
				<line class="st10" x1="101.71" y1="173.1" x2="103.31" y2="172.21"/>
				<line class="st10" x1="106" y1="175.65" x2="107.55" y2="174.86"/>
			</g>
		</g>
		<path class="st16" d="M33.72,147.35c-0.11,2.55,1.09,3.34,3.14,4.53c2.06,1.19,45.4,26.21,47.26,27.28
			c1.86,1.08,2.03-0.21,2.03-1.51c0-1.3,0-13.21,0-17.03s3.71-11.52,13.39-6.24c9.69,5.29,13.6,17.63,13.6,22.48s0,15.76,0,17.3
			c0,1.53,0,2.58,1.68,3.56s10.17,3.03,15.25,0c5.07-3.03,56.49-32.93,60.39-34.96c5.74-2.98,10.17-7.67,11.74-12.45
			c1.57-4.78,1.1-2.36,1.57-4.78"/>
		<g>
			<path class="st19" d="M33.75,49.52c0,2.19,0.46,3.72,3.11,5.25s74.57,43.05,78.02,45.04c4.5,2.6,10.79,2.53,15.18,0
				c4.39-2.53,57.57-33.09,60.48-34.91c2.9-1.82,6.51-4.09,9.41-8.18c1.12-1.58,1.11-3,1.11-3"/>
			<path class="st19" d="M38.71,41.31c1.19-0.7,3.15-1.19,5.74,0.31c2.59,1.5,73.57,42.36,78.02,45.04
				c3.57,2.15,7.59,7.22,7.59,13.15c0,4.83,0,105.17,0,105.17"/>
			<path class="st19" d="M114.88,204.98c0,0,0-100.41,0-105.17s3.47-10.77,7.59-13.15s57.23-32.72,60.48-34.91
				c3.24-2.19,6.04-4.23,7.06-6.14c0.91-1.7,0.1-2.65-1.17-3.4c-2.36-1.4-66.2-38.21-67.39-38.9c-1.56-0.91-3.34-1.05-5.89-0.68
				c-2.96,0.44-8.73,2.98-10.63,4.07c-1.9,1.1-56.82,32.7-60.48,34.91c-3.66,2.21-7.59,7.41-7.59,13.15s0,105.33,0,105.33"/>
			<path class="st19" d="M182.95,51.75c4.51,2.33,7.59,8.13,7.59,13.15c0,5.01,0,105.24,0,105.24"/>
			<path class="st19" d="M190,45.61c6.18,1.33,9.34,6.41,9.94,11.1c0.61,4.69,2.16,14.69,2.16,19.81s0.26,80.63,0.26,80.63"/>
			<path class="st19" d="M188.83,42.21c0.92-0.56,3.06-2.01,5.37-0.53"/>
			<path class="st19" d="M121.44,3.31c0.64-1.1,3.32-1.52,5.37-0.53"/>
			<path class="st19" d="M115.56,2.63c0.01-0.98-1.07-1.38-2.02-1.7"/>
			<path class="st19" d="M100.49,5.66c1.85-0.37,3.67,0.06,4.44,1.05"/>
			<line class="st10" x1="90.41" y1="156.4" x2="92.82" y2="155.13"/>
		</g>
		<g>
			<g>
				
					<ellipse transform="matrix(0.8892 -0.4574 0.4574 0.8892 -57.241 57.4932)" class="st20" cx="90.11" cy="146.95" rx="2.16" ry="3.82"/>
				<line class="st21" x1="90.25" y1="145.05" x2="90.25" y2="148.97"/>
				<line class="st21" x1="88.61" y1="145.96" x2="91.61" y2="147.78"/>
			</g>
			<g>
				
					<ellipse transform="matrix(0.8892 -0.4574 0.4574 0.8892 -71.7014 61.1494)" class="st20" cx="90.43" cy="178.64" rx="2.16" ry="3.82"/>
				<line class="st21" x1="90.57" y1="176.74" x2="90.57" y2="180.66"/>
				<line class="st21" x1="88.93" y1="177.65" x2="91.94" y2="179.47"/>
			</g>
			<g>
				
					<ellipse transform="matrix(0.8892 -0.4574 0.4574 0.8892 -74.4716 70.7501)" class="st20" cx="108.87" cy="189.17" rx="2.16" ry="3.82"/>
				<line class="st21" x1="109.01" y1="187.25" x2="109.01" y2="191.18"/>
				<line class="st21" x1="107.38" y1="188.16" x2="110.38" y2="189.99"/>
			</g>
			<g>
				
					<ellipse transform="matrix(0.8892 -0.4574 0.4574 0.8892 -60.2031 67.4023)" class="st20" cx="109.09" cy="158.03" rx="2.16" ry="3.82"/>
				<line class="st21" x1="109.23" y1="156.12" x2="109.23" y2="160.04"/>
				<line class="st21" x1="107.59" y1="157.02" x2="110.6" y2="158.85"/>
			</g>
		</g>
		<g>
			<path class="st16" d="M52.36,162.54c-1.97-1.14-2.54,0.53-2.72,1.35c-0.45,2.13,0.58,2.32,1.76,2.99
				c2.96,1.67,46.55,26.9,48.08,27.8s2.05-0.21,2.05-1.08c0-1.56-0.42-3.06-1.88-3.9C98.19,188.85,54.86,163.99,52.36,162.54z"/>
			<line class="st10" x1="99.28" y1="194.41" x2="101.48" y2="193.17"/>
		</g>
		<g>
			
				<ellipse transform="matrix(0.8892 -0.4574 0.4574 0.8892 -50.7796 35.6421)" class="st20" cx="48.21" cy="122.69" rx="2.16" ry="3.82"/>
			<path class="st10" d="M48.56,119.72c-0.12,1.43,0.7,3.24,2.28,4.39"/>
			<line class="st10" x1="48.85" y1="121.48" x2="49.85" y2="121.07"/>
		</g>
		
			<ellipse transform="matrix(0.3887 -0.9214 0.9214 0.3887 -49.8929 272.1032)" class="st22" cx="180.11" cy="173.65" rx="2.99" ry="1.43"/>
		<g>
			<polyline class="st15" points="48.77,164.02 52.67,162.04 70.05,172.07 64.68,175.35 			"/>
			<line class="st10" x1="63.41" y1="171.71" x2="66.45" y2="169.99"/>
			<line class="st10" x1="49.91" y1="164.07" x2="53.24" y2="162.37"/>
			<path class="st15" d="M50.31,164.27c-1.23-0.75-2.18-0.19-2.18,0.82c0,1.05-0.18,1.58,1.05,2.33c1.14,0.7,12.89,7.45,13.99,8.07
				c1.1,0.63,1.77-0.14,1.82-0.67s0.4-1.96-1.58-3.11C61.42,170.57,52.32,165.49,50.31,164.27z"/>
			<g>
				<ellipse class="st10" cx="49.93" cy="165.98" rx="0.93" ry="1.61"/>
				<ellipse class="st10" cx="52.98" cy="167.74" rx="0.93" ry="1.61"/>
				<ellipse class="st10" cx="56.04" cy="169.51" rx="0.93" ry="1.61"/>
				<ellipse class="st10" cx="59.1" cy="171.28" rx="0.93" ry="1.61"/>
				<ellipse class="st10" cx="62.16" cy="173.04" rx="0.93" ry="1.61"/>
			</g>
		</g>
		<g>
			<g>
				<line class="st10" x1="54.05" y1="158.22" x2="54.05" y2="162.14"/>
				<line class="st10" x1="59.77" y1="161.32" x2="59.77" y2="165.24"/>
				<line class="st10" x1="65.49" y1="164.42" x2="65.49" y2="168.34"/>
				<line class="st10" x1="71.22" y1="167.52" x2="71.22" y2="171.45"/>
				<line class="st10" x1="76.94" y1="170.62" x2="76.94" y2="174.55"/>
				<line class="st10" x1="82.66" y1="173.72" x2="82.66" y2="177.65"/>
			</g>
			<g>
				<line class="st10" x1="56.58" y1="160.72" x2="56.58" y2="163.53"/>
				<line class="st10" x1="62.38" y1="163.9" x2="62.38" y2="166.71"/>
				<line class="st10" x1="68.17" y1="167.08" x2="68.17" y2="169.88"/>
				<line class="st10" x1="73.97" y1="170.26" x2="73.97" y2="173.06"/>
				<line class="st10" x1="79.77" y1="173.43" x2="79.77" y2="176.24"/>
			</g>
			<g>
				<path d="M54.91,156.38c0.03,0.42-0.01,0.7-0.1,0.84c-0.09,0.14-0.25,0.15-0.46,0.03s-0.38-0.31-0.5-0.58s-0.19-0.6-0.22-1.01
					c-0.03-0.42,0-0.71,0.1-0.85c0.09-0.14,0.24-0.16,0.46-0.04c0.21,0.12,0.38,0.31,0.5,0.58
					C54.81,155.63,54.88,155.97,54.91,156.38z M54.01,155.88c0.02,0.29,0.05,0.52,0.1,0.66c0.05,0.15,0.12,0.25,0.21,0.3
					c0.09,0.05,0.15,0.02,0.18-0.09s0.04-0.31,0.02-0.6c-0.02-0.29-0.05-0.52-0.1-0.67c-0.05-0.15-0.12-0.25-0.21-0.3
					c-0.09-0.05-0.15-0.02-0.18,0.08C54,155.38,54,155.59,54.01,155.88z"/>
			</g>
			<g>
				<path d="M62.9,160.06c0.01,0.15-0.02,0.26-0.08,0.32c-0.06,0.07-0.15,0.09-0.28,0.06v0.01c0.15,0.11,0.26,0.23,0.35,0.36
					c0.08,0.13,0.13,0.28,0.14,0.44c0.02,0.23-0.04,0.38-0.15,0.43c-0.12,0.06-0.3,0.02-0.53-0.11c-0.2-0.11-0.38-0.25-0.54-0.42
					l-0.03-0.43c0.07,0.09,0.15,0.17,0.24,0.24c0.09,0.08,0.17,0.14,0.26,0.18c0.13,0.07,0.22,0.09,0.28,0.07s0.08-0.1,0.07-0.22
					c-0.01-0.11-0.05-0.21-0.12-0.3c-0.07-0.09-0.19-0.17-0.34-0.26l-0.14-0.08L62,159.96l0.14,0.08c0.14,0.08,0.24,0.11,0.31,0.1
					c0.06-0.01,0.09-0.08,0.08-0.2c-0.01-0.18-0.1-0.32-0.28-0.42c-0.06-0.03-0.12-0.05-0.18-0.06s-0.13,0-0.2,0.02l-0.2-0.45
					c0.16-0.06,0.35-0.03,0.58,0.09c0.19,0.1,0.34,0.24,0.46,0.4S62.89,159.88,62.9,160.06z"/>
				<path d="M64.46,161.56c0.03,0.42,0,0.7-0.09,0.84c-0.09,0.14-0.25,0.15-0.46,0.04c-0.21-0.12-0.38-0.31-0.5-0.57
					c-0.12-0.27-0.19-0.6-0.22-1.01c-0.03-0.42,0-0.71,0.09-0.85s0.24-0.16,0.46-0.04c0.21,0.12,0.38,0.31,0.5,0.58
					C64.36,160.82,64.44,161.15,64.46,161.56z M63.57,161.06c0.02,0.29,0.05,0.52,0.1,0.66c0.05,0.15,0.12,0.25,0.21,0.3
					c0.09,0.05,0.15,0.02,0.18-0.09s0.04-0.31,0.02-0.6c-0.02-0.29-0.05-0.52-0.1-0.67c-0.05-0.15-0.12-0.25-0.21-0.3
					c-0.09-0.05-0.15-0.02-0.18,0.08S63.55,160.77,63.57,161.06z"/>
			</g>
			<g>
				<path d="M73.49,168.33l0.57-1.59l-0.9-0.5l-0.03-0.43l1.31,0.73l0.02,0.32l-0.56,1.69L73.49,168.33z"/>
				<path d="M75.95,168.55c0.02,0.42-0.01,0.7-0.1,0.84c-0.09,0.14-0.25,0.15-0.46,0.03s-0.37-0.31-0.49-0.58s-0.19-0.6-0.22-1.01
					c-0.03-0.42,0.01-0.71,0.1-0.85s0.25-0.15,0.46-0.03s0.37,0.31,0.49,0.58C75.86,167.81,75.93,168.15,75.95,168.55z
					 M75.06,168.05c0.02,0.29,0.05,0.52,0.1,0.67c0.05,0.15,0.12,0.25,0.21,0.3s0.15,0.02,0.18-0.08s0.04-0.31,0.02-0.6
					c-0.02-0.29-0.05-0.52-0.1-0.67c-0.05-0.15-0.12-0.25-0.21-0.3s-0.15-0.02-0.18,0.08C75.05,167.56,75.05,167.76,75.06,168.05z"
					/>
			</g>
			<g>
				<path d="M81.7,172.57l-0.38-0.22l-0.04-1.39v-0.23v-0.25c-0.06,0.05-0.1,0.08-0.13,0.09l-0.2,0.1l-0.19-0.42l0.56-0.27
					l0.31,0.19L81.7,172.57z"/>
				<path d="M83.4,172.4c0.01,0.42-0.03,0.7-0.12,0.84s-0.25,0.15-0.46,0.02c-0.21-0.12-0.37-0.32-0.48-0.59
					c-0.11-0.27-0.17-0.61-0.19-1.02c-0.01-0.42,0.03-0.71,0.12-0.85c0.1-0.14,0.25-0.15,0.46-0.02c0.21,0.12,0.37,0.32,0.48,0.59
					C83.32,171.66,83.39,172,83.4,172.4z M82.52,171.88c0.01,0.29,0.03,0.52,0.08,0.67c0.04,0.15,0.11,0.25,0.2,0.31
					c0.09,0.05,0.15,0.02,0.18-0.08c0.04-0.11,0.05-0.3,0.04-0.6c-0.01-0.29-0.04-0.52-0.08-0.67c-0.04-0.15-0.11-0.25-0.2-0.31
					c-0.09-0.05-0.15-0.03-0.19,0.08C82.53,171.39,82.52,171.59,82.52,171.88z"/>
				<path d="M84.83,173.25c0.01,0.42-0.03,0.7-0.12,0.84s-0.25,0.15-0.46,0.02c-0.21-0.12-0.37-0.32-0.48-0.59
					c-0.11-0.27-0.17-0.61-0.19-1.01c-0.01-0.42,0.03-0.71,0.12-0.85c0.1-0.14,0.25-0.15,0.46-0.02c0.21,0.12,0.37,0.32,0.48,0.59
					C84.75,172.51,84.82,172.85,84.83,173.25z M83.96,172.73c0.01,0.29,0.03,0.52,0.08,0.67c0.04,0.15,0.11,0.25,0.2,0.31
					c0.09,0.05,0.15,0.03,0.18-0.08c0.04-0.11,0.05-0.3,0.04-0.6c-0.01-0.29-0.04-0.52-0.08-0.67c-0.04-0.15-0.11-0.25-0.2-0.31
					c-0.09-0.05-0.15-0.03-0.19,0.08C83.96,172.24,83.95,172.44,83.96,172.73z"/>
			</g>
			<polygon points="62.27,166.7 60.88,162.75 64.6,164.8 			"/>
		</g>
		<g>
			<path d="M98.52,147.24l0.14,2.77c0.02,0.32-0.03,0.56-0.14,0.73c-0.11,0.17-0.27,0.26-0.5,0.26c-0.22,0-0.49-0.08-0.8-0.26
				c-0.47-0.26-0.84-0.6-1.12-1.03c-0.27-0.43-0.42-0.88-0.45-1.37l-0.14-2.76l0.77,0.43l0.13,2.62c0.02,0.33,0.09,0.6,0.21,0.82
				s0.31,0.4,0.57,0.54c0.25,0.14,0.43,0.16,0.54,0.07c0.11-0.09,0.15-0.3,0.13-0.64l-0.13-2.61L98.52,147.24z"/>
			<path d="M101.73,152.02c0.02,0.39-0.08,0.62-0.31,0.72c-0.23,0.09-0.55,0.02-0.97-0.21c-0.39-0.22-0.74-0.49-1.05-0.83
				l-0.04-0.84c0.25,0.27,0.47,0.47,0.64,0.62s0.33,0.26,0.47,0.34c0.17,0.09,0.3,0.13,0.39,0.1s0.13-0.11,0.12-0.26
				c0-0.08-0.03-0.17-0.07-0.26s-0.1-0.18-0.19-0.29c-0.08-0.1-0.24-0.29-0.49-0.55c-0.23-0.25-0.4-0.46-0.52-0.63
				s-0.21-0.36-0.29-0.54c-0.07-0.19-0.12-0.38-0.13-0.58c-0.02-0.38,0.08-0.62,0.28-0.71c0.21-0.09,0.51-0.04,0.89,0.18
				c0.19,0.1,0.37,0.23,0.55,0.38c0.17,0.15,0.36,0.32,0.55,0.52l-0.21,0.57c-0.2-0.2-0.36-0.36-0.49-0.46
				c-0.13-0.11-0.26-0.2-0.38-0.26c-0.15-0.08-0.26-0.1-0.33-0.07c-0.07,0.04-0.11,0.12-0.1,0.25c0,0.08,0.02,0.16,0.06,0.24
				s0.09,0.16,0.16,0.26c0.07,0.09,0.24,0.28,0.51,0.57c0.35,0.38,0.6,0.7,0.73,0.96C101.64,151.47,101.72,151.74,101.73,152.02z"/>
			<path d="M102.24,149.3l1.14,0.63c0.52,0.29,0.9,0.58,1.14,0.88c0.24,0.3,0.37,0.64,0.39,1.02c0.01,0.26-0.03,0.44-0.12,0.54
				s-0.23,0.13-0.39,0.07v0.03c0.23,0.19,0.41,0.39,0.52,0.62c0.11,0.22,0.17,0.47,0.19,0.75c0.02,0.39-0.09,0.63-0.32,0.71
				s-0.55,0.01-0.96-0.21l-1.37-0.76L102.24,149.3z M103.1,151.42l0.45,0.25c0.21,0.12,0.36,0.16,0.45,0.14
				c0.09-0.02,0.13-0.12,0.12-0.3c-0.01-0.16-0.07-0.31-0.17-0.44c-0.11-0.13-0.27-0.25-0.49-0.38l-0.41-0.23L103.1,151.42z
				 M103.14,152.14l0.06,1.12l0.51,0.28c0.21,0.12,0.37,0.16,0.47,0.12s0.14-0.16,0.13-0.35c-0.02-0.35-0.24-0.65-0.68-0.89
				L103.14,152.14z"/>
		</g>
	</g>
</g>
<g id="Layer_2_1_">
	<g>
		<line class="st23" x1="70.34" y1="96.53" x2="8.54" y2="96.53"/>
		<line class="st24" x1="70.34" y1="96.53" x2="8.54" y2="96.53"/>
	</g>
	<g>
		<line class="st23" x1="45.86" y1="122.53" x2="8.54" y2="122.53"/>
		<line class="st24" x1="45.86" y1="122.53" x2="8.54" y2="122.53"/>
	</g>
	<g>
		<line class="st23" x1="93.49" y1="160.73" x2="8.54" y2="160.73"/>
		<line class="st24" x1="93.49" y1="160.73" x2="8.54" y2="160.73"/>
	</g>
	<g>
		<line class="st23" x1="57.8" y1="172.68" x2="8.54" y2="172.68"/>
		<line class="st24" x1="57.8" y1="172.68" x2="8.54" y2="172.68"/>
	</g>
	<g>
		<path d="M3.96,99.55H2.45v-4.13l0.01-0.68L2.48,94c-0.25,0.25-0.42,0.42-0.52,0.49l-0.82,0.66l-0.73-0.91l2.3-1.83h1.24
			L3.96,99.55L3.96,99.55z"/>
	</g>
	<g>
		<path d="M5.22,125.7H0.23v-1.05l1.79-1.81c0.53-0.54,0.88-0.92,1.04-1.13s0.28-0.4,0.35-0.58s0.11-0.36,0.11-0.56
			c0-0.29-0.08-0.5-0.24-0.64s-0.37-0.21-0.63-0.21c-0.28,0-0.55,0.06-0.81,0.19s-0.53,0.31-0.82,0.54l-0.82-0.97
			c0.35-0.3,0.64-0.51,0.87-0.63s0.48-0.22,0.76-0.29c0.27-0.07,0.58-0.1,0.92-0.1c0.45,0,0.84,0.08,1.18,0.24s0.61,0.39,0.8,0.68
			s0.28,0.63,0.28,1.01c0,0.33-0.06,0.64-0.17,0.93s-0.29,0.58-0.54,0.89s-0.67,0.73-1.28,1.29l-0.92,0.86v0.07h3.11v1.27H5.22z"/>
	</g>
	<g>
		<path d="M4.94,157.82c0,0.45-0.14,0.83-0.41,1.14s-0.65,0.53-1.14,0.64v0.03c0.58,0.07,1.01,0.25,1.31,0.53s0.44,0.65,0.44,1.12
			c0,0.69-0.25,1.22-0.75,1.6s-1.21,0.57-2.13,0.57c-0.77,0-1.46-0.13-2.06-0.39v-1.28c0.28,0.14,0.58,0.25,0.91,0.34
			s0.66,0.13,0.99,0.13c0.5,0,0.87-0.08,1.1-0.25c0.24-0.17,0.36-0.44,0.36-0.82c0-0.33-0.14-0.57-0.41-0.71
			c-0.27-0.14-0.71-0.21-1.31-0.21H1.3v-1.16h0.55c0.55,0,0.96-0.07,1.21-0.22c0.26-0.15,0.38-0.39,0.38-0.75
			c0-0.54-0.34-0.81-1.02-0.81c-0.23,0-0.47,0.04-0.72,0.12s-0.51,0.21-0.81,0.41l-0.7-1.04c0.65-0.47,1.43-0.7,2.33-0.7
			c0.74,0,1.32,0.15,1.75,0.45C4.73,156.87,4.94,157.28,4.94,157.82z"/>
	</g>
	<g>
		<path d="M5.38,173.83H4.52v1.48H3.05v-1.48H0v-1.05l3.13-4.61h1.39v4.49h0.86V173.83z M3.05,172.66v-1.21
			c0-0.2,0.01-0.49,0.02-0.88c0.02-0.38,0.03-0.61,0.04-0.67H3.07c-0.12,0.27-0.27,0.53-0.43,0.78l-1.31,1.98H3.05z"/>
	</g>
</g>
</svg>
