<?xml version="1.0" encoding="utf-8"?>
<!-- Generator: Adobe Illustrator 24.0.3, SVG Export Plug-In . SVG Version: 6.00 Build 0)  -->
<svg version="1.1" id="Layer_1" xmlns="http://www.w3.org/2000/svg" xmlns:xlink="http://www.w3.org/1999/xlink" x="0px" y="0px"
	 viewBox="0 0 180.31 311.24" style="enable-background:new 0 0 180.31 311.24;" xml:space="preserve">
<style type="text/css">
	.st0{display:none;}
	.st1{display:inline;opacity:0.3;}
	.st2{fill:none;stroke:#6ABD45;stroke-miterlimit:10;}
	.st3{fill:#FFFFFF;stroke:#010101;stroke-width:0.5;stroke-linecap:round;stroke-linejoin:round;stroke-miterlimit:10;}
	.st4{fill:none;stroke:#010101;stroke-width:0.25;stroke-linecap:round;stroke-linejoin:round;stroke-miterlimit:10;}
	.st5{fill:none;stroke:#010101;stroke-width:0.25;stroke-linecap:round;stroke-linejoin:round;stroke-miterlimit:9.9998;}
	.st6{fill:#FFFFFF;stroke:#010101;stroke-linecap:round;stroke-linejoin:round;stroke-miterlimit:10;}
	.st7{fill:none;stroke:#010101;stroke-width:0.5;stroke-linecap:round;stroke-linejoin:round;stroke-miterlimit:10;}
	.st8{fill:none;stroke:#010101;stroke-width:0.2308;stroke-linecap:round;stroke-linejoin:round;stroke-miterlimit:10;}
	.st9{fill:#FFFFFF;stroke:#000000;stroke-width:0.5;stroke-linecap:round;stroke-linejoin:round;stroke-miterlimit:10.0005;}
	.st10{fill:#FFFFFF;stroke:#000000;stroke-width:0.3169;stroke-linecap:round;stroke-linejoin:round;stroke-miterlimit:10;}
	.st11{fill:none;stroke:#000000;stroke-width:0.3169;stroke-linecap:round;stroke-linejoin:round;stroke-miterlimit:10;}
	.st12{fill:#FFFFFF;stroke:#000000;stroke-width:0.3169;stroke-linecap:round;stroke-linejoin:round;stroke-miterlimit:10.0003;}
	.st13{fill:#FFFFFF;stroke:#000000;stroke-width:0.5;stroke-linecap:round;stroke-linejoin:round;stroke-miterlimit:10;}
	.st14{fill:#FFFFFF;stroke:#000000;stroke-width:0.25;stroke-linecap:round;stroke-linejoin:round;stroke-miterlimit:10;}
	.st15{fill:none;stroke:#000000;stroke-width:0.25;stroke-linecap:round;stroke-linejoin:round;stroke-miterlimit:10;}
	.st16{fill:none;stroke:#000000;stroke-width:0.2421;stroke-linecap:round;stroke-linejoin:round;stroke-miterlimit:10;}
	.st17{display:inline;fill:#FFFFFF;stroke:#000000;stroke-miterlimit:10;}
	.st18{display:inline;fill:none;stroke:#000000;stroke-linecap:round;stroke-linejoin:round;stroke-miterlimit:10;}
	.st19{display:inline;fill:#FFFFFF;stroke:#000000;stroke-linecap:round;stroke-linejoin:round;stroke-miterlimit:10;}
	
		.st20{display:inline;fill:none;stroke:#000000;stroke-width:0.25;stroke-linecap:round;stroke-linejoin:round;stroke-miterlimit:10;}
	.st21{fill:#FFFFFF;stroke:#000000;stroke-linecap:round;stroke-linejoin:round;stroke-miterlimit:10;}
	.st22{fill:none;stroke:#000000;stroke-width:0.5;stroke-linecap:round;stroke-linejoin:round;stroke-miterlimit:10;}
	.st23{fill:none;stroke:#000000;stroke-linecap:round;stroke-linejoin:round;stroke-miterlimit:10;}
	.st24{fill:none;stroke:#000000;stroke-width:1.0043;stroke-linecap:round;stroke-linejoin:round;stroke-miterlimit:10;}
	.st25{display:inline;fill:none;stroke:#000000;stroke-miterlimit:10;}
	.st26{display:inline;fill:none;stroke:#000000;stroke-width:0.25;stroke-miterlimit:10;}
	.st27{display:inline;}
	.st28{fill:#FFFFFF;stroke:#000000;stroke-width:0.25;stroke-miterlimit:10;}
	.st29{fill:none;stroke:#000000;stroke-width:0.25;stroke-miterlimit:10;}
	.st30{display:inline;fill:none;stroke:#000000;stroke-width:0.5;stroke-miterlimit:10;}
	.st31{font-family:'OpenSans-Bold';}
	.st32{font-size:2.2543px;}
	.st33{font-size:1.1272px;}
	.st34{font-size:1.1273px;}
	.st35{fill:#FFFFFF;}
	.st36{fill:none;stroke:#000000;stroke-width:0.25;stroke-linecap:round;stroke-linejoin:round;stroke-miterlimit:9.9995;}
	.st37{fill:none;stroke:#000000;stroke-width:0.5;stroke-linecap:round;stroke-linejoin:round;stroke-miterlimit:9.9995;}
	.st38{fill:none;stroke:#000000;stroke-width:0.5;stroke-linecap:round;stroke-linejoin:round;stroke-miterlimit:10.0003;}
	.st39{display:none;fill:none;stroke:#000000;stroke-width:3;stroke-linecap:round;stroke-linejoin:round;stroke-miterlimit:10;}
	
		.st40{display:inline;fill:none;stroke:#000000;stroke-width:0.5;stroke-linecap:round;stroke-linejoin:round;stroke-miterlimit:10;}
	.st41{fill:#FFFFFF;stroke:#000000;stroke-width:0.5;stroke-linecap:round;stroke-linejoin:round;stroke-miterlimit:9.9998;}
	.st42{fill:#FFFFFF;stroke:#000000;stroke-width:0.3;stroke-linecap:round;stroke-linejoin:round;stroke-miterlimit:10;}
	.st43{fill:#FFFFFF;stroke:#000000;stroke-width:0.075;stroke-linecap:round;stroke-linejoin:round;stroke-miterlimit:10;}
	.st44{fill:none;stroke:#000000;stroke-width:0.075;stroke-linecap:round;stroke-linejoin:round;stroke-miterlimit:10;}
	.st45{fill:#FFFFFF;stroke:#000000;stroke-width:0.3;stroke-linecap:round;stroke-linejoin:round;stroke-miterlimit:10.0003;}
	.st46{fill:none;stroke:#FFFFFF;stroke-width:4;stroke-linecap:round;stroke-linejoin:round;stroke-miterlimit:10;}
	.st47{fill:none;stroke:#007481;stroke-linecap:round;stroke-linejoin:round;stroke-miterlimit:10;stroke-dasharray:3,3;}
	.st48{fill:none;stroke:#007481;stroke-linecap:round;stroke-linejoin:round;}
	.st49{fill:none;stroke:#007481;stroke-linecap:round;stroke-linejoin:round;stroke-dasharray:2.8467,2.8467;}
	.st50{fill:none;stroke:#007481;stroke-linecap:round;stroke-linejoin:round;stroke-dasharray:2.9942,2.9942;}
	.st51{fill:none;stroke:#007481;stroke-linecap:round;stroke-linejoin:round;stroke-dasharray:3.4007,3.4007;}
	.st52{fill:none;stroke:#007481;stroke-linecap:round;stroke-linejoin:round;stroke-dasharray:2.8518,2.8518;}
	.st53{fill:none;stroke:#007481;stroke-linecap:round;stroke-linejoin:round;stroke-dasharray:2.6286,2.6286;}
	.st54{fill:none;stroke:#007481;stroke-linecap:round;stroke-linejoin:round;stroke-dasharray:3.1462,3.1462;}
	.st55{fill:none;stroke:#007481;stroke-linecap:round;stroke-linejoin:round;stroke-dasharray:2.5051,2.5051;}
	.st56{fill:none;stroke:#007481;stroke-linecap:round;stroke-linejoin:round;stroke-dasharray:2.8408,2.8408;}
	.st57{fill:none;stroke:#007481;stroke-linecap:round;stroke-linejoin:round;stroke-dasharray:2.5218,2.5218;}
	.st58{fill:none;stroke:#007481;stroke-linecap:round;stroke-linejoin:round;stroke-dasharray:2.6923,2.6923;}
	.st59{fill:none;stroke:#007481;stroke-linecap:round;stroke-linejoin:round;stroke-dasharray:2.5075,2.5075;}
	.st60{fill:none;stroke:#000000;stroke-miterlimit:10;}
	.st61{display:none;fill:none;stroke:#000000;stroke-miterlimit:10;}
</style>
<g id="Grid" class="st0">
	<g class="st1">
		<polygon class="st2" points="106.26,-148.6 539.27,101.4 106.26,351.4 -326.75,101.4 		"/>
		<line class="st2" x1="-312.78" y1="93.34" x2="120.23" y2="343.34"/>
		<line class="st2" x1="-298.81" y1="85.27" x2="134.2" y2="335.27"/>
		<line class="st2" x1="-284.84" y1="77.21" x2="148.17" y2="327.21"/>
		<line class="st2" x1="-270.88" y1="69.14" x2="162.14" y2="319.14"/>
		<line class="st2" x1="-256.91" y1="61.08" x2="176.1" y2="311.08"/>
		<line class="st2" x1="-242.94" y1="53.01" x2="190.07" y2="303.01"/>
		<line class="st2" x1="-228.97" y1="44.95" x2="204.04" y2="294.95"/>
		<line class="st2" x1="-215" y1="36.89" x2="218.01" y2="286.89"/>
		<line class="st2" x1="-201.04" y1="28.82" x2="231.98" y2="278.82"/>
		<line class="st2" x1="-187.07" y1="20.76" x2="245.94" y2="270.76"/>
		<line class="st2" x1="-173.1" y1="12.69" x2="259.91" y2="262.69"/>
		<line class="st2" x1="-159.13" y1="4.63" x2="273.88" y2="254.63"/>
		<line class="st2" x1="-145.16" y1="-3.44" x2="287.85" y2="246.56"/>
		<line class="st2" x1="-131.2" y1="-11.5" x2="301.82" y2="238.5"/>
		<line class="st2" x1="-117.23" y1="-19.57" x2="315.79" y2="230.43"/>
		<line class="st2" x1="-103.26" y1="-27.63" x2="329.75" y2="222.37"/>
		<line class="st2" x1="-89.29" y1="-35.69" x2="343.72" y2="214.31"/>
		<line class="st2" x1="-75.32" y1="-43.76" x2="357.69" y2="206.24"/>
		<line class="st2" x1="-61.36" y1="-51.82" x2="371.66" y2="198.18"/>
		<line class="st2" x1="-47.39" y1="-59.89" x2="385.63" y2="190.11"/>
		<line class="st2" x1="-33.42" y1="-67.95" x2="399.59" y2="182.05"/>
		<line class="st2" x1="-19.45" y1="-76.02" x2="413.56" y2="173.98"/>
		<line class="st2" x1="-5.48" y1="-84.08" x2="427.53" y2="165.92"/>
		<line class="st2" x1="8.49" y1="-92.15" x2="441.5" y2="157.85"/>
		<line class="st2" x1="22.45" y1="-100.21" x2="455.47" y2="149.79"/>
		<line class="st2" x1="36.42" y1="-108.27" x2="469.43" y2="141.73"/>
		<line class="st2" x1="50.39" y1="-116.34" x2="483.4" y2="133.66"/>
		<line class="st2" x1="64.36" y1="-124.4" x2="497.37" y2="125.6"/>
		<line class="st2" x1="78.33" y1="-132.47" x2="511.34" y2="117.53"/>
		<line class="st2" x1="92.29" y1="-140.53" x2="525.31" y2="109.47"/>
		<line class="st2" x1="525.31" y1="93.34" x2="92.3" y2="343.34"/>
		<line class="st2" x1="511.34" y1="85.27" x2="78.33" y2="335.27"/>
		<line class="st2" x1="497.37" y1="77.21" x2="64.36" y2="327.21"/>
		<line class="st2" x1="483.4" y1="69.15" x2="50.39" y2="319.14"/>
		<line class="st2" x1="469.43" y1="61.08" x2="36.42" y2="311.08"/>
		<line class="st2" x1="455.47" y1="53.02" x2="22.46" y2="303.01"/>
		<line class="st2" x1="441.5" y1="44.95" x2="8.49" y2="294.95"/>
		<line class="st2" x1="427.53" y1="36.89" x2="-5.48" y2="286.89"/>
		<line class="st2" x1="413.56" y1="28.82" x2="-19.45" y2="278.82"/>
		<line class="st2" x1="399.59" y1="20.76" x2="-33.42" y2="270.76"/>
		<line class="st2" x1="385.62" y1="12.69" x2="-47.39" y2="262.69"/>
		<line class="st2" x1="371.66" y1="4.63" x2="-61.35" y2="254.63"/>
		<line class="st2" x1="357.69" y1="-3.44" x2="-75.32" y2="246.56"/>
		<line class="st2" x1="343.72" y1="-11.5" x2="-89.29" y2="238.5"/>
		<line class="st2" x1="329.75" y1="-19.56" x2="-103.26" y2="230.43"/>
		<line class="st2" x1="315.78" y1="-27.63" x2="-117.23" y2="222.37"/>
		<line class="st2" x1="301.82" y1="-35.69" x2="-131.19" y2="214.3"/>
		<line class="st2" x1="287.85" y1="-43.76" x2="-145.16" y2="206.24"/>
		<line class="st2" x1="273.88" y1="-51.82" x2="-159.13" y2="198.18"/>
		<line class="st2" x1="259.91" y1="-59.89" x2="-173.1" y2="190.11"/>
		<line class="st2" x1="245.94" y1="-67.95" x2="-187.07" y2="182.05"/>
		<line class="st2" x1="231.97" y1="-76.02" x2="-201.04" y2="173.98"/>
		<line class="st2" x1="218.01" y1="-84.08" x2="-215" y2="165.92"/>
		<line class="st2" x1="204.04" y1="-92.15" x2="-228.97" y2="157.85"/>
		<line class="st2" x1="190.07" y1="-100.21" x2="-242.94" y2="149.79"/>
		<line class="st2" x1="176.1" y1="-108.27" x2="-256.91" y2="141.72"/>
		<line class="st2" x1="162.13" y1="-116.34" x2="-270.88" y2="133.66"/>
		<line class="st2" x1="148.17" y1="-124.4" x2="-284.84" y2="125.6"/>
		<line class="st2" x1="134.2" y1="-132.47" x2="-298.81" y2="117.53"/>
		<line class="st2" x1="120.23" y1="-140.53" x2="-312.78" y2="109.47"/>
	</g>
</g>
<g id="Microscope">
	<g>
		<g>
			<path class="st3" d="M62.16,240.31c0,0-30.31,7.19-31.5,7.5s-1,4.94-0.69,6.94s1.81,7.81,4.56,7.44s31.5-5.38,31.5-5.38
				L62.16,240.31z"/>
			<line class="st4" x1="29.97" y1="254.74" x2="62.66" y2="248.24"/>
			<line class="st4" x1="58.77" y1="241.11" x2="59.5" y2="248.87"/>
			<path class="st4" d="M40.23,252.7c-1.94,1.23-4.83,6.57,2.89,8.05"/>
			
				<ellipse transform="matrix(0.9858 -0.1678 0.1678 0.9858 -42.039 11.9722)" class="st5" cx="49.82" cy="254.74" rx="4.84" ry="2.38"/>
			<path class="st4" d="M52.42,250.28c3.16-0.63,9.12,4.46,0.45,8.81"/>
		</g>
		<g>
			<path class="st3" d="M83.47,238.87c0,0-18.06,0-19.37,0c-1.31,0-1.72,0.85-1.94,1.44c-0.38,1-0.31,3.44,0.5,7.94
				c0.74,4.1,2.69,7.88,3.38,8.56c0.69,0.69,1.56,0.5,2.69,0c1.12-0.5,15.69-8.43,16.25-8.74
				C85.53,247.74,83.47,238.87,83.47,238.87z"/>
			<path class="st4" d="M80.91,238.87c-0.12,1.44-0.36,6.96,1.88,10.39"/>
			<path class="st4" d="M77.22,238.87c-0.5,3-0.41,8.06,2.54,12.03"/>
			<polyline class="st4" points="62.29,240 80.83,240.31 83.58,239.34 			"/>
			<circle class="st4" cx="78.53" cy="245.24" r="1.23"/>
		</g>
		<path class="st6" d="M94.26,161.1c3.5-2.33,15.63-9.89,18.33-11.5c1.96-1.17,2.83-0.83,4.17,0c1.33,0.83,51.17,28.33,54.17,30
			s2.48,3.02,3.35,4.58s2.19,6.19,2.38,11.19s0.69,31.81,0.69,31.81c1.56,1.12,2.19,1.94,2.19,3.75s0,19.75,0,21.06
			c0,0.69-0.43,1.16-1.19,1.62c-1,0.61-23.5,13.12-24.69,13.75s-1.44,0.75-2.75,0.75s-9.06,0-10.44,0s-2.17,0.13-3,0.75
			c-1.31,0.98-6.75,5.07-8.44,6.19c-4.02,2.67-15.44,2.06-20.62,0.69s-16.56-5.69-15.62-15.62c-5.31-3.75-9-9.87-9.31-13.56
			s0-8.5,0-10.19s1.56-4.88,7-6.69c0-2.31,0-3.06,0-3.94s0.69-2,2-2.25c0-1.19,0-6.44,0-6.44c-1.25,0.06-2.94-1.94-2.94-3.5
			s-0.01-43.25,0-45.19C89.56,165.06,90.76,163.51,94.26,161.1z"/>
		<path class="st4" d="M125.24,154.33c-6.13,3.22-18.54,10.35-21.65,12.26c-2.75,1.7-3.67,4.67-3.67,7.5s0,5,0,7.5"/>
		<path class="st4" d="M112.6,149.6c1.58,0.4,2.06,0.62,3,1.17c1.31,0.77,7.85,4.53,7.85,4.53"/>
		<path class="st4" d="M123.44,155.29c0,0,43.84,24.32,45.4,25.2s3,2.56,3,4.31c1.44,0.44,3.81,6.38,3.81,11.62l-1.31,0.62
			l0.25,3.88l1.06-0.38v14.31c0.56,0.31,0.5,3.88,0.5,5.69s0,7.32,0,7.32"/>
		<ellipse class="st7" cx="114.07" cy="189.46" rx="19.78" ry="11.41"/>
		<ellipse class="st4" cx="114.14" cy="189.67" rx="17.83" ry="9.83"/>
		<ellipse class="st4" cx="114.22" cy="191.24" rx="16.75" ry="8.25"/>
		<ellipse class="st4" cx="113.97" cy="192.52" rx="14.31" ry="6.97"/>
		<path class="st4" d="M94.28,189.46c0,3.34,0,5.66,0,7.41s1.44,10.62,20.94,10.62c13.06,0,18.62-8.38,18.62-10.25
			c0-1.19,0-6.75,0-8.44"/>
		<ellipse class="st8" cx="109.14" cy="191.24" rx="5.42" ry="2.81"/>
		<ellipse class="st4" cx="118.35" cy="196.45" rx="5.58" ry="2.48"/>
		<path class="st8" d="M94.26,161.1l9.33,5.5c0,0,3.42,2.25,4.67,3s2.83,2.42,2.83,3.42s0,5.04,0,5.04"/>
		<polyline class="st8" points="104.63,175.84 99.93,174.1 89.53,168.37 		"/>
		<path class="st8" d="M109.14,170.23c-4.52,1.96-4.52,4.29-4.52,9.2"/>
		<path class="st8" d="M111.1,173.01c-1.42,0.75-4.61,1.05-4.61,5.91"/>
		<path class="st8" d="M159.02,173.01c-1.34,0.42-2.35,0.71-2.35,0.71l-23.18,13.55"/>
		<path class="st8" d="M171.34,179.84l-2.5,0.65l-30.74,18.44c-1.5,1.58-5.28,5.38-10.18,5.19"/>
		<path class="st8" d="M174.28,184.18c-0.94,0.17-1.52,0.25-2.44,0.62c-0.92,0.38-28.83,16.71-31.58,18.29s-8.17,2.91-13,1.42"/>
		<path class="st8" d="M94.28,196.87c-0.77,1.4-1.35,3.4-1.35,6.23s-0.46,13.96-0.46,13.96"/>
		<path class="st8" d="M127.26,204.51c2.33,0.65,1.92,20.97,1.92,32.14"/>
		<path class="st8" d="M174.35,197.06c0,0-34.13,19.74-36.17,20.88c-3.58,2-4.33,4.58-4.33,7.5s0,8.67,0,8.67"/>
		<path class="st8" d="M174.6,200.93c0,0-32.13,18.53-35.5,20.58c-1.09,0.66-1.58,2.42-1.58,3.5s0,7.8,0,7.8"/>
		<path class="st8" d="M175.66,214.87c0,0-23.4,13.65-24.4,14.23s-1.46,2-1.46,3.17"/>
		<polyline class="st8" points="176.16,220.56 153.51,233.6 151.26,234.1 		"/>
		<path class="st8" d="M138.18,217.93c0.83,1,1.17,2.42,0.92,3.58c0,0,10.83,6.75,12.17,7.58c1.33,0.83,2.24,1.74,2.25,4.5
			c0.01,2.25,0,7.5,0,7.5c0.33,1,0,21.96,0,26.27"/>
		<path class="st8" d="M133.85,225.43c1-0.42,2.75-0.75,3.67-0.42s11.25,6.5,12.29,7.25c0.62,0.45,1.46,0.98,1.46,1.83
			c0,1.58,0,6.58,0,7.5c-0.35,0.71,0,22.62,0,26.52"/>
		<polyline class="st8" points="177.35,227.18 153.51,241.1 151.26,241.6 141.41,241.6 		"/>
		<path class="st4" d="M181.47,226.71"/>
		<path class="st4" d="M133.85,191.98c2.25,1.32,3.75,4.07,4.25,6.95l2.17,4.17"/>
		<line class="st8" x1="99.93" y1="197.44" x2="99.93" y2="204.38"/>
		<path class="st8" d="M92.06,223.61c-1.14,0.87-1.09,2.46-0.91,4.52c0.5,5.56,11.95,14.99,27.95,12.18
			c2.73-0.48,5.31-2.31,9.44-1.44v8.81c-2.12-0.31-4.96,0.42-9.31,1.31c-7.31,1.5-15.25-0.12-21.12-3.44
			c-5.28-2.98-7.56-6.21-7.56-9.88c0-2.38,0-6,0-6"/>
		<line class="st8" x1="119.1" y1="240.31" x2="119.1" y2="248.99"/>
		<path class="st8" d="M124.85,238.75c2.56-1.01,7.87-4.05,9-4.65s2.71-1.89,5.5-1.04c2.06,0.62,2.06,2.3,2.06,3.56s0,4.99,0,4.99
			l-1.62,0.33V249c0.94,0.62,0.94,1.06,0.94,1.69s0,2.06,0,2.81s-0.19,1.88-2.81,3.56c-2.62,1.69-8.94,6.29-10.25,7
			c-3,1.62-7.27,1.38-10.52,1.56s-10.42-0.06-13.98-1.06s-6.75-2.44-10.38-4.44"/>
		<path class="st8" d="M128.53,242.31c2.19-1.44,5.75-3.81,6.75-4.38s1.75-0.19,1.75,1.25s0,8.31,0,8.31s-11.44,6.33-12.81,7.19
			c-2.81,1.75-14.45,1.71-16.76-0.11c-1.86-1.46-3.71-1.76-6.92-2.46c-8.31-1.81-13.54-8.04-15.12-10.52
			c-1.44-2.25-1.83-9.29,2.81-10.98"/>
		<path class="st8" d="M139.78,248.99c-1.38-0.73-2.12-0.26-3.62,0.62s-10.35,6.06-11.81,6.75c-4.5,2.12-14.27,2.28-17,0.06
			c-2.31-1.88-6.93-2.41-8.5-2.81c-6.38-1.62-12.03-6.99-13.78-9.56c-1-1.46-1.65-3.44-1.65-5.57"/>
		<polyline class="st8" points="103.4,252.76 103.4,254.58 103.4,264.56 		"/>
		<polyline class="st8" points="106.55,253.94 106.55,255.88 106.55,265.19 		"/>
		<line class="st8" x1="108.54" y1="255.11" x2="108.54" y2="257.09"/>
		<line class="st8" x1="124.22" y1="254.68" x2="124.22" y2="256.37"/>
		<line class="st8" x1="136.23" y1="247.94" x2="136.23" y2="249.61"/>
		<path class="st8" d="M139.78,247.49c0-0.19-2.75-1.5-2.75-1.5l-9.06,5.06v-3.43"/>
		<polyline class="st8" points="128.53,247.31 137.03,242.43 139.78,241.93 		"/>
		<path class="st8" d="M137.03,238.49c1-0.75,2.5-2.14,4.38-1.88"/>
		<path class="st8" d="M134.98,238.11c0.3-1.49,1.18-4.72,2.93-5.29"/>
		<path class="st8" d="M134.4,233.78c-0.18,1.02-0.15,3.33-0.04,4.71"/>
		<path class="st8" d="M107.03,265.25c0.5-2.51,3.06-6.64,8.81-6.64s8.5,1.45,10.44,5.95"/>
		<line class="st8" x1="124.87" y1="256.1" x2="124.87" y2="261.93"/>
		<path class="st8" d="M127.97,263.87c-0.02,0.01,0.26,7.62,0.26,7.62"/>
		<line class="st8" x1="131.16" y1="269.74" x2="124.87" y2="273.62"/>
		<ellipse class="st4" cx="89.31" cy="252.36" rx="1.71" ry="2.74"/>
		<ellipse class="st4" cx="99.25" cy="258.27" rx="2.6" ry="3.16"/>
		<g>
			
				<ellipse transform="matrix(0.4206 -0.9073 0.9073 0.4206 -107.9719 251.883)" class="st9" cx="143.21" cy="210.47" rx="8.37" ry="5.31"/>
			<path class="st10" d="M154.29,209.58c0,0-7.17-3.96-7.95-4.27c-1.88-0.75-3.62,0.21-5.25,2.54s-2.67,5.88-1.12,6.96
				c1.54,1.08,8.86,5.09,8.86,5.09"/>
			<line class="st11" x1="142.92" y1="205.87" x2="151.44" y2="210.29"/>
			<line class="st11" x1="141.54" y1="207.25" x2="150.05" y2="211.71"/>
			<line class="st11" x1="139.9" y1="210.04" x2="148.54" y2="214.38"/>
			<line class="st11" x1="139.31" y1="212" x2="147.93" y2="216.76"/>
			
				<ellipse transform="matrix(0.4517 -0.8922 0.8922 0.4517 -108.4748 253.129)" class="st12" cx="151.7" cy="214.82" rx="5.85" ry="3.06"/>
		</g>
		<g>
			
				<ellipse transform="matrix(0.4206 -0.9073 0.9073 0.4206 -161.2968 278.8353)" class="st9" cx="137.65" cy="265.7" rx="8.37" ry="5.31"/>
			<path class="st10" d="M148.73,264.81c0,0-7.17-3.96-7.95-4.27c-1.88-0.75-3.62,0.21-5.25,2.54c-1.62,2.33-2.67,5.88-1.12,6.96
				c1.54,1.08,8.86,5.09,8.86,5.09"/>
			<line class="st11" x1="137.35" y1="261.09" x2="145.87" y2="265.52"/>
			<line class="st11" x1="135.98" y1="262.47" x2="144.48" y2="266.94"/>
			<line class="st11" x1="134.34" y1="265.27" x2="142.97" y2="269.61"/>
			<line class="st11" x1="133.74" y1="267.23" x2="142.36" y2="271.99"/>
			
				<ellipse transform="matrix(0.4517 -0.8922 0.8922 0.4517 -160.804 278.4471)" class="st12" cx="146.13" cy="270.05" rx="5.85" ry="3.06"/>
		</g>
		<g>
			<path class="st13" d="M115.72,258.81c4.62,0,5.75,2.12,5.75,5.5c1.25,2.38,4.01,9.2,4.88,11.62c1.25,3.5-0.12,6.62-8.25,7
				s-10.88-0.62-10.12-5.25s2.38-12.38,2.38-12.38C109.35,264.43,109.85,258.81,115.72,258.81z"/>
			<path class="st14" d="M110.35,265.31c2.12-1.25,3.88-2,5.75-2s4,0.12,5.38,1"/>
			<path class="st14" d="M109.98,263.31c1.49-1.12,3.36-2.5,5.93-2.5s3.46,0.25,5.32,1.25"/>
			<path class="st15" d="M107.97,277.68c0.5-2.87,3.69-5,9.28-5.25s7.59,1.75,9.09,3.5"/>
			<polyline class="st14" points="115.72,258.81 115.91,260.81 116.1,263.31 117.25,272.43 			"/>
		</g>
		<g>
			<path class="st13" d="M116.95,273.68c3.18-0.22,7.66,1.95,7.79,4.73s1.59,23.65,1.84,26.77s-1.32,5.12-5.23,5.5
				s-7.66-0.25-8.16-4.25s-2.77-25.38-3.02-27.75S113.27,273.93,116.95,273.68z"/>
			<ellipse class="st13" cx="120.02" cy="306.87" rx="6.59" ry="3.91"/>
			<ellipse class="st16" cx="120.02" cy="306.35" rx="6.83" ry="4.43"/>
			<path class="st16" d="M110.24,279.23c1.08-1.43,4.08-2.55,6.54-2.68s5.58,0.26,7.96,1.86"/>
			<path class="st16" d="M110.46,278.1c1.2-2.38,4.16-2.94,6.41-3.05s4.88,0,7.58,2.24"/>
		</g>
	</g>
</g>
<g id="Ring">
	<g class="st0">
		<path class="st17" d="M100.89,118.75l10.18-5.72c3.72-0.6,10.15-1.71,17.04,4.41l1.63-4.5c-5.05-4.85-12.45-7.64-19.85-6.13
			c-7.4,1.52-10.06,3.76-10.97,7.52C98.19,117.29,100.89,118.75,100.89,118.75z"/>
		<path class="st18" d="M96.2,114.71c0,5.66,8.08,10.24,18.05,10.24s18.05-4.59,18.05-10.24"/>
		<path class="st19" d="M131.86,112.44c-1.27,3.44-3.69,6.07-6.75,7.81s-6.54,2.07-11.41,2.15s-9.43-1.74-11.34-2.81
			s-4.55-5.46-5.43-7.76l-2.22,5.11c0,0-0.47,1.3-0.45,2.39c0.1,6.22,8.92,11.26,19.93,11.26c11.01,0,19.89-5.04,19.93-11.26
			c0.01-1.34-0.7-2.97-0.7-2.97L131.86,112.44z"/>
		<path class="st17" d="M132.3,114.63c-0.07-5.62-8.12-10.16-18.05-10.16c-9.82,0-17.8,4.45-18.04,9.99c0,0.08-0.01,0.17-0.01,0.25
			c0,5.66,8.08,10.24,18.05,10.24s18.05-4.59,18.05-10.24C132.3,114.68,132.3,114.66,132.3,114.63z M114.23,121.27
			c-7.66,0-13.87-3.07-13.87-6.86c0-3.79,6.21-6.86,13.87-6.86s13.87,3.07,13.87,6.86C128.11,118.2,121.9,121.27,114.23,121.27z"/>
		<path class="st18" d="M127.36,116.64c-5.19-4.86-11.61-4.16-15.82-3.7l-8.85,5.27"/>
		<line class="st20" x1="111.53" y1="109.67" x2="111.53" y2="107.72"/>
		<path class="st20" d="M101.79,117.44c-1.96-3.89,3.44-6.87,9.75-7.78c5.05-0.72,12.55-0.08,16.57,4.75"/>
		<line class="st20" x1="111.53" y1="112.95" x2="107.51" y2="110.57"/>
	</g>
	<g>
		<polygon class="st21" points="98.39,126.98 99.35,126.41 98.56,125.79 98.17,126.39 		"/>
		<path class="st21" d="M134.81,118.29c-0.01-1.32-0.6-3.07-2.37-4.84c-0.78-5.48-8.76-9.6-17.68-9.6c-8.92,0-17.35,3.45-18.42,9.42
			c-5.82,6.51,0,12.78,2.06,13.71v-0.75l0.17-0.44c0.4,0.37,1.86,1.48,3.24,1.87l-0.2,0.51v0.68c1.18,0.48,7.58,3.15,14.36,2.54
			C135.57,129.63,134.83,120.01,134.81,118.29z M114.37,124.23c-2.87-0.01-4.23-0.26-5.19-0.46l-10.48-6.12
			c0.9-2.82,4.13-4.53,4.92-4.91c1.51-0.73,4.94-2.27,9.53-2.36c0.93-0.02,1.4,0.07,2.04,0.44s5.59,3.23,5.59,3.23l0.93-0.54
			l2.31,1.34v1.07l5.44,3.14C126.84,121.34,122.97,124.27,114.37,124.23z"/>
		<path class="st15" d="M96.33,113.27c-0.43,3.9,0.39,6.92,4.85,9.52s8.09,3.18,14.25,3.27s13.63-3.49,15.73-6.5
			c1.58-2.26,1.58-4.2,1.28-6.12"/>
		<path class="st22" d="M98.39,126.23c-5.32-3.78-4.55-7.61-4.14-9.46"/>
		<path class="st22" d="M101.61,128.17c6.2,2.62,10.4,2.58,12.96,2.58c4.48,0,12.57-1.29,16.6-5.06c2.77-2.59,3.28-3.8,3.65-6.63"/>
		<path class="st23" d="M96.33,113.27c-0.2,2.35,0.81,5.84,4.63,8.08s9,3.94,16.99,3.21c7.35-0.67,10.97-4.03,12.07-4.99
			c0.84-0.73,3.21-3.73,2.29-6.72"/>
		<ellipse class="st24" cx="114.37" cy="114.29" rx="17.19" ry="9.93"/>
		<path class="st23" d="M97.38,115.82c0.92-2.89,3.53-4.75,5.13-5.52s5.61-2.97,12.9-2.72c5.55,0.19,9.46,1.98,11.12,2.89
			c1.54,0.85,3.32,1.96,4.81,5.44"/>
		<path class="st23" d="M109.18,123.77c0,0-9.46-5.56-10.09-5.83s-0.82-1.02-0.63-1.66s0.92-3.18,4-5.01s6.7-2.89,10.68-3.03
			c0.72-0.02,1.16-0.07,2.04,0.44s14,8.02,14.42,8.33c0.43,0.31,0.68,0.56,0.77,0.9"/>
		<line class="st15" x1="129.61" y1="117.01" x2="129.61" y2="118.93"/>
		<line class="st15" x1="113.15" y1="108.25" x2="113.15" y2="110.38"/>
		<line class="st15" x1="115.19" y1="108.69" x2="115.19" y2="110.81"/>
		<path class="st23" d="M120.78,114.04c0-0.13,0-1.07,0-1.07l0.93,0.54"/>
		<ellipse class="st22" cx="119.07" cy="109" rx="1.02" ry="0.58"/>
		<ellipse class="st22" cx="129.09" cy="114.78" rx="1.02" ry="0.58"/>
		<path class="st22" d="M99.86,119.63c0.26,0.02,0.5,0.1,0.67,0.22c0.19,0.14,0.24,0.31,0.18,0.47"/>
	</g>
</g>
<g id="Camera">
	<g class="st0">
		<path class="st17" d="M113.57,1.75c-6.99,4.04-23.6,13.62-25.71,14.84c-2.69,1.55-2.69,1.55-2.69,4.58c0,2.56,0,34.66,0,37.02
			s0.28,2.53,1.76,3.38s23.52,13.59,26.25,15.15c2.73,1.57,4.58,1.38,6.49,0.28s23.48-13.32,25.78-14.88s2.71-1.56,2.71-4.59
			c0-9.02,0-35.2,0-37.1c0-2.29-0.44-2.55-2.3-3.62c-1.5-0.86-19.3-11.14-26.35-15.21C117.75,0.59,115.47,0.65,113.57,1.75z"/>
		<path class="st25" d="M85.17,20.44"/>
		<path class="st26" d="M85.17,20.44c0,0,25.09,14.61,27.16,15.89c2.72,1.68,5.73,1.77,8.83,0c2.23-1.28,26.99-15.89,26.99-15.89"/>
		<path class="st26" d="M86.73,17.26c0,0,23.13,13.47,25.2,14.74c2.72,1.68,5.73,1.77,8.83,0c2.23-1.28,25.44-14.98,25.44-14.98"/>
		<path class="st26" d="M114.87,77.49c-0.56-0.56-0.56-0.92-0.56-2.47c0-8.51,0-36.13,0-37.48c0-1.6,0.19-3.48,1.13-4.24"/>
		<path class="st26" d="M118.44,77.58c0.37-0.44,0.53-0.93,0.53-2.57c0-8.59,0-35.49,0-37.36c0-2.23-0.69-3.81-1.38-4.47"/>
		<path class="st26" d="M85.17,58.2c0,0,27.72,16.06,29.13,16.81s3.76,0.47,4.67,0s29.17-16.81,29.17-16.81"/>
		<polygon class="st20" points="104.8,58.93 104.8,67.13 111.96,71.19 111.91,63.03 		"/>
		<path class="st26" d="M109.2,73.73l-15.64-9.09c-0.35-0.2-0.63-0.65-0.62-0.99l0,0c0-0.34,0.29-0.46,0.64-0.26l15.64,9.09
			c0.35,0.2,0.63,0.65,0.62,0.99l0,0C109.83,73.82,109.54,73.93,109.2,73.73z"/>
		<g class="st27">
			<polyline class="st14" points="95.67,65.12 96.13,64.88 103.03,68.93 102.01,69.47 			"/>
			<g>
				<path class="st28" d="M101.47,69.51l-5.48-3.18c-0.29-0.17-0.54-0.56-0.54-0.86l0,0c0-0.3,0.23-0.41,0.52-0.24l5.48,3.18
					c0.29,0.17,0.54,0.56,0.54,0.86l0,0C102,69.57,101.77,69.68,101.47,69.51z"/>
				<g>
					<line class="st29" x1="96.4" y1="65.48" x2="96.42" y2="66.58"/>
					<line class="st29" x1="97.5" y1="66.12" x2="97.52" y2="67.22"/>
					<line class="st29" x1="98.61" y1="66.76" x2="98.62" y2="67.86"/>
					<line class="st29" x1="99.71" y1="67.4" x2="99.73" y2="68.5"/>
					<line class="st29" x1="100.81" y1="68.04" x2="100.83" y2="69.14"/>
				</g>
			</g>
			<line class="st29" x1="101.72" y1="68.64" x2="102.19" y2="68.43"/>
		</g>
		<ellipse class="st30" cx="91.09" cy="52.99" rx="0.68" ry="1.19"/>
		<path class="st26" d="M104.02,69.47c0-2.34,0-3.85,0-6.99c0-4.95,1.12-6.11,4.36-4.09c2.98,1.86,4.7,3.29,4.7,9.56v6.37"/>
		<g class="st27">
			<path class="st15" d="M111.25,64.48l-1.15-0.65V63.3c0-0.26-0.17-0.55-0.39-0.65s-0.39,0.03-0.39,0.29v0.45l-1.03-0.57v-0.55
				c0-0.26-0.17-0.55-0.39-0.65c-0.21-0.1-0.39,0.03-0.39,0.29v0.47l-2.06-1.2v4.39l2.06,1.23v0.35c0,0.26,0.17,0.55,0.39,0.65
				c0.21,0.1,0.39-0.03,0.39-0.29v-0.27l1.03,0.59v0.34c0,0.26,0.17,0.55,0.39,0.65c0.21,0.1,0.39-0.03,0.39-0.29v-0.26l1.16,0.67
				v-4.46H111.25z"/>
			<polygon class="st15" points="108.35,63.27 108.35,66.89 109.25,67.41 109.25,63.79 			"/>
			<line class="st15" x1="109.25" y1="67.41" x2="111.25" y2="66.18"/>
			<line class="st15" x1="109.25" y1="63.79" x2="110.1" y2="63.29"/>
			<line class="st15" x1="108.35" y1="63.27" x2="108.74" y2="63.06"/>
			<line class="st15" x1="107.52" y1="62.37" x2="108.22" y2="61.94"/>
			<line class="st15" x1="105.45" y1="65.56" x2="108.35" y2="63.88"/>
			<line class="st15" x1="107.51" y1="66.79" x2="108.35" y2="66.32"/>
			<line class="st15" x1="108.29" y1="67.24" x2="108.68" y2="67.08"/>
			<line class="st15" x1="109.32" y1="67.83" x2="111.25" y2="66.71"/>
			<line class="st15" x1="110.1" y1="68.28" x2="111.25" y2="67.62"/>
		</g>
		<g class="st27">
			<line class="st15" x1="94.02" y1="61.98" x2="94.02" y2="63.29"/>
			<line class="st15" x1="95.82" y1="63.02" x2="95.82" y2="64.33"/>
			<line class="st15" x1="97.62" y1="64.06" x2="97.62" y2="65.37"/>
			<line class="st15" x1="99.43" y1="65.09" x2="99.43" y2="66.41"/>
			<line class="st15" x1="101.23" y1="66.13" x2="101.23" y2="67.45"/>
			<line class="st15" x1="103.03" y1="67.17" x2="103.03" y2="68.49"/>
		</g>
		<g class="st27">
			<line class="st15" x1="94.81" y1="62.82" x2="94.81" y2="63.76"/>
			<line class="st15" x1="96.64" y1="63.88" x2="96.64" y2="64.82"/>
			<line class="st15" x1="98.47" y1="64.95" x2="98.47" y2="65.89"/>
			<line class="st15" x1="100.29" y1="66.01" x2="100.29" y2="66.95"/>
			<line class="st15" x1="102.12" y1="67.08" x2="102.12" y2="68.01"/>
		</g>
		<path class="st20" d="M104.02,67.16l1.43,0.8c0.21,0.61,1.07,1.72,2.25,2.44c1.19,0.72,2.83,0.74,3.31,0.71l2.04,1.22"/>
		<text transform="matrix(0.8536 0.4712 0.0503 0.9987 106.9035 56.4953)" class="st27 st31 st32">USB</text>
		<text transform="matrix(0.714 0.4214 0.0602 0.9982 93.8922 61.523)" class="st27 st31 st33">0</text>
		<text transform="matrix(0.7152 0.4193 0.0631 0.998 96.4117 62.977)" class="st27 st31 st33">30</text>
		<text transform="matrix(0.7122 0.4243 0.0561 0.9984 100.058 65.3254)" class="st27 st31 st33">70</text>
		<text transform="matrix(0.7009 0.4428 0.03 0.9995 102.4167 66.5868)" class="st27 st31 st34">100</text>
		<polygon class="st27" points="96.61,64.82 96.17,63.5 97.34,64.18 		"/>
	</g>
	<g>
		<path class="st21" d="M121.86,78.23c2.63-1.45,20.63-11.84,22.99-13.21c2.86-1.67,4.05-3.47,4.43-4.92s0.52-2.24,0.52-5.82
			c0-10.26,0-19.53-1.02-33.4c-0.17-2.28-0.28-3.22-2.6-4.56S121.5,1.83,120.24,1.37c-1.26-0.46-2.95-0.93-4.65-0.5
			c-1.7,0.43-3.38,0.89-4.95,1.79S89.29,15.03,87.67,15.92s-2.35,2.02-2.35,3.71s0,35.15,0,36.77s-0.59,3.8,1.2,4.83
			c1.78,1.03,27.38,15.8,29.58,17.02C118.3,79.45,120.22,79.13,121.86,78.23z"/>
		<g>
			<path class="st23" d="M104.44,68.44c0.71,0.41,1.03,0.43,1.03-0.21c0-0.64,0-0.86,0-1.42c0-0.37,0.22-0.38,0.44-0.49
				c0.26-0.13,0.64-0.29,0.87-0.4c0.23-0.11,0.67,0,0.96,0.17c0.3,0.17,0.63,0.28,0.8,0.63c0.16,0.35,1.86,2.39,2.96,2.87
				s1.89,0.74,2.64,0.66c0.74-0.08,1.31,0.54,1.31,0.54"/>
			<path class="st23" d="M105.5,66.62c0.4-0.08,1.12,0.02,1.57,0.28c0.38,0.21,0.3,0.33,0.38,0.47c0.5,0.82,1.41,1.95,2.64,2.75
				c1.2,0.78,2.21,1.03,3.15,0.81c0.36-0.09,0.55-0.15,0.86,0c0.64,0.3,1.12,0.42,1.12,1c0,0.63,0,1.6,0,1.92s0.03,1.18,0.69,1.5"/>
			<line class="st15" x1="107.44" y1="67.36" x2="108.54" y2="66.72"/>
			<line class="st15" x1="107.06" y1="66.89" x2="108.07" y2="66.28"/>
			<line class="st15" x1="113.23" y1="70.92" x2="114.13" y2="70.26"/>
			<line class="st15" x1="113.67" y1="70.85" x2="114.45" y2="70.26"/>
		</g>
		<g>
			<path class="st13" d="M105.49,61.29c0,2.87,0,4.36,0,4.36c0.27,0.32,0.7,0.66,1.34,0.83l1.58-0.91v-5.76"/>
			<path class="st35" d="M115.43,67.27l-1.55-1.16c0,0.77,0,3.64,0,4.02s0.1,0.64,0.46,0.82s1.15,0.52,1.15,0.52L115.43,67.27z"/>
			<g>
				<path class="st22" d="M115.49,71.47c0,0-0.06-0.03-0.17-0.08c-0.24-0.11-0.69-0.31-0.99-0.45c-0.42-0.19-0.46-0.49-0.46-0.82
					c0-0.32,0-5.27,0-6.18s-0.29-1.3-1-1.73c-0.71-0.43-5.07-2.87-5.4-3.04s-0.65-0.17-0.65,0.41s0,6.88,0,6.88"/>
				<polyline class="st15" points="108.41,59.7 108.41,65.93 113.88,69.04 				"/>
				<polygon class="st15" points="108.68,61.04 108.68,64.55 110.09,65.39 110.55,66.14 111.11,66.43 111.11,66.14 112.73,67.11 
					112.73,67.45 113.32,67.83 113.32,63.37 112.76,63 112.76,63.32 111.19,62.41 111.15,61.97 110.5,61.6 110.11,61.82 				"/>
				<polyline class="st15" points="113.32,65.82 112.57,66.25 111.09,65.4 111.07,62.38 111.16,62.32 				"/>
				<line class="st15" x1="112.57" y1="66.25" x2="112.57" y2="63.21"/>
				<polyline class="st15" points="111.07,63 112.12,63.58 112.12,65.99 				"/>
				<line class="st15" x1="112.12" y1="63.58" x2="112.57" y2="63.28"/>
				<line class="st15" x1="108.68" y1="64.55" x2="111.07" y2="63.21"/>
				<line class="st15" x1="110.09" y1="65.39" x2="111.07" y2="64.85"/>
				<line class="st15" x1="110.55" y1="66.14" x2="111.4" y2="65.62"/>
				<line class="st15" x1="111.11" y1="66.14" x2="111.71" y2="65.8"/>
				<line class="st15" x1="112.73" y1="67.11" x2="113.32" y2="66.81"/>
			</g>
		</g>
		<path class="st23" d="M85.32,56.37c-0.04,0.97,0.41,1.27,1.19,1.72s17.21,9.94,17.92,10.35c0.71,0.41,0.77-0.08,0.77-0.57
			c0-0.49,0-5.01,0-6.46c0-1.45,1.41-4.37,5.08-2.37c3.67,2,5.16,6.68,5.16,8.52s0,5.98,0,6.56s0,0.98,0.64,1.35s3.86,1.15,5.78,0
			s21.42-12.49,22.9-13.26c2.18-1.13,3.86-2.91,4.45-4.72c0.59-1.81,0.42-0.9,0.59-1.81"/>
		<g>
			<path class="st22" d="M85.34,19.28c0,0.83,0.17,1.41,1.18,1.99s28.28,16.32,29.59,17.08c1.71,0.99,4.09,0.96,5.76,0
				c1.66-0.96,21.83-12.55,22.93-13.24s2.47-1.55,3.57-3.1c0.43-0.6,0.42-1.14,0.42-1.14"/>
			<path class="st22" d="M87.22,16.16c0.45-0.27,1.19-0.45,2.18,0.12c0.98,0.57,27.9,16.06,29.59,17.08
				c1.35,0.81,2.88,2.74,2.88,4.98c0,1.83,0,39.88,0,39.88"/>
			<path class="st22" d="M116.1,78.23c0,0,0-38.08,0-39.88c0-1.8,1.32-4.08,2.88-4.98s21.7-12.41,22.93-13.24s2.29-1.61,2.68-2.33
				c0.34-0.64,0.04-1-0.44-1.29c-0.89-0.53-25.1-14.49-25.55-14.75c-0.59-0.34-1.27-0.4-2.23-0.26c-1.12,0.17-3.31,1.13-4.03,1.54
				c-0.72,0.42-21.55,12.4-22.93,13.24c-1.39,0.84-2.88,2.81-2.88,4.98c0,2.18,0,39.94,0,39.94"/>
			<path class="st22" d="M141.91,20.12c1.71,0.88,2.88,3.08,2.88,4.98c0,1.9,0,39.91,0,39.91"/>
			<path class="st22" d="M144.59,17.79c2.34,0.51,3.54,2.43,3.77,4.21c0.23,1.78,0.82,5.57,0.82,7.51s0.1,30.57,0.1,30.57"/>
			<path class="st22" d="M144.15,16.51c0.35-0.21,1.16-0.76,2.04-0.2"/>
			<path class="st22" d="M118.59,1.75c0.24-0.42,1.26-0.58,2.03-0.2"/>
			<path class="st22" d="M116.36,1.5c0-0.37-0.41-0.52-0.77-0.64"/>
			<path class="st22" d="M110.65,2.64c0.7-0.14,1.39,0.02,1.68,0.4"/>
			<line class="st15" x1="106.82" y1="59.81" x2="107.74" y2="59.33"/>
		</g>
		<g>
			<g>
				
					<ellipse transform="matrix(0.8892 -0.4574 0.4574 0.8892 -13.9068 55.0324)" class="st36" cx="106.69" cy="56.23" rx="0.82" ry="1.45"/>
				<line class="st15" x1="106.76" y1="55.5" x2="106.76" y2="56.99"/>
				<line class="st15" x1="106.14" y1="55.85" x2="107.28" y2="56.54"/>
			</g>
			<g>
				
					<ellipse transform="matrix(0.8892 -0.4574 0.4574 0.8892 -19.3881 56.4162)" class="st36" cx="106.81" cy="68.25" rx="0.82" ry="1.45"/>
				<line class="st15" x1="106.88" y1="67.52" x2="106.88" y2="69.01"/>
				<line class="st15" x1="106.26" y1="67.86" x2="107.4" y2="68.56"/>
			</g>
			<g>
				
					<ellipse transform="matrix(0.8892 -0.4574 0.4574 0.8892 -20.4366 60.0597)" class="st36" cx="113.81" cy="72.23" rx="0.82" ry="1.45"/>
				<line class="st15" x1="113.88" y1="71.51" x2="113.88" y2="72.99"/>
				<line class="st15" x1="113.26" y1="71.85" x2="114.4" y2="72.54"/>
			</g>
			<g>
				
					<ellipse transform="matrix(0.8892 -0.4574 0.4574 0.8892 -15.0264 58.7885)" class="st36" cx="113.89" cy="60.43" rx="0.82" ry="1.45"/>
				<line class="st15" x1="113.96" y1="59.7" x2="113.96" y2="61.19"/>
				<line class="st15" x1="113.34" y1="60.04" x2="114.48" y2="60.73"/>
			</g>
		</g>
		<g>
			<path class="st23" d="M92.39,62.14c-0.75-0.43-0.96,0.2-1.03,0.51c-0.17,0.81,0.22,0.88,0.67,1.13
				c1.12,0.63,17.65,10.2,18.23,10.54c0.58,0.34,0.78-0.08,0.78-0.41c0-0.59-0.16-1.16-0.71-1.48S93.34,62.68,92.39,62.14z"/>
			<line class="st15" x1="110.19" y1="74.22" x2="111.02" y2="73.75"/>
		</g>
		<g>
			
				<ellipse transform="matrix(0.8892 -0.4574 0.4574 0.8892 -11.4546 46.7438)" class="st37" cx="90.8" cy="47.03" rx="0.82" ry="1.45"/>
			<path class="st15" d="M90.95,45.9c-0.05,0.54,0.27,1.23,0.87,1.67"/>
			<line class="st15" x1="91.06" y1="46.56" x2="91.44" y2="46.41"/>
		</g>
		
			<ellipse transform="matrix(0.3887 -0.9214 0.9214 0.3887 24.9675 170.3177)" class="st38" cx="140.84" cy="66.34" rx="1.13" ry="0.54"/>
		<g>
			<polyline class="st21" points="91.03,62.7 92.51,61.95 99.1,65.75 97.07,66.99 			"/>
			<line class="st15" x1="96.58" y1="65.61" x2="97.74" y2="64.96"/>
			<line class="st15" x1="91.47" y1="62.71" x2="92.73" y2="62.07"/>
			<path class="st21" d="M91.62,62.79c-0.47-0.28-0.83-0.07-0.83,0.31c0,0.4-0.07,0.6,0.4,0.88c0.43,0.26,4.89,2.82,5.3,3.06
				c0.42,0.24,0.67-0.05,0.69-0.25s0.15-0.74-0.6-1.18S92.38,63.25,91.62,62.79z"/>
			<g>
				<ellipse class="st15" cx="91.47" cy="63.44" rx="0.35" ry="0.61"/>
				<ellipse class="st15" cx="92.63" cy="64.11" rx="0.35" ry="0.61"/>
				<ellipse class="st15" cx="93.79" cy="64.78" rx="0.35" ry="0.61"/>
				<ellipse class="st15" cx="94.95" cy="65.45" rx="0.35" ry="0.61"/>
				<ellipse class="st15" cx="96.11" cy="66.12" rx="0.35" ry="0.61"/>
			</g>
		</g>
		<g>
			<g>
				<line class="st15" x1="93.03" y1="60.49" x2="93.03" y2="61.98"/>
				<line class="st15" x1="95.2" y1="61.67" x2="95.2" y2="63.16"/>
				<line class="st15" x1="97.37" y1="62.85" x2="97.37" y2="64.34"/>
				<line class="st15" x1="99.54" y1="64.02" x2="99.54" y2="65.51"/>
				<line class="st15" x1="101.72" y1="65.2" x2="101.72" y2="66.69"/>
				<line class="st15" x1="103.89" y1="66.37" x2="103.89" y2="67.86"/>
			</g>
			<g>
				<line class="st15" x1="94" y1="61.45" x2="94" y2="62.51"/>
				<line class="st15" x1="96.19" y1="62.65" x2="96.19" y2="63.71"/>
				<line class="st15" x1="98.39" y1="63.86" x2="98.39" y2="64.92"/>
				<line class="st15" x1="100.59" y1="65.06" x2="100.59" y2="66.12"/>
				<line class="st15" x1="102.79" y1="66.27" x2="102.79" y2="67.33"/>
			</g>
			<g>
				<path d="M93.37,59.79c0.01,0.16,0,0.27-0.04,0.32c-0.03,0.05-0.09,0.06-0.18,0.01c-0.08-0.04-0.14-0.12-0.19-0.22
					c-0.04-0.1-0.07-0.23-0.08-0.38c-0.01-0.16,0-0.27,0.04-0.32c0.03-0.05,0.09-0.06,0.17-0.01c0.08,0.04,0.14,0.12,0.19,0.22
					S93.36,59.64,93.37,59.79z M93.03,59.61c0.01,0.11,0.02,0.2,0.04,0.25c0.02,0.06,0.04,0.09,0.08,0.11s0.06,0.01,0.07-0.03
					s0.01-0.12,0.01-0.23c-0.01-0.11-0.02-0.2-0.04-0.25c-0.02-0.06-0.04-0.1-0.08-0.11s-0.06-0.01-0.07,0.03
					C93.03,59.42,93.02,59.5,93.03,59.61z"/>
			</g>
			<g>
				<path d="M96.41,61.17c0,0.06-0.01,0.1-0.03,0.12s-0.06,0.03-0.1,0.02l0,0c0.06,0.04,0.1,0.09,0.13,0.14
					c0.03,0.05,0.05,0.11,0.05,0.17c0.01,0.09-0.01,0.14-0.06,0.16s-0.11,0.01-0.2-0.04c-0.08-0.04-0.14-0.09-0.2-0.16l-0.01-0.16
					c0.03,0.03,0.06,0.06,0.09,0.09s0.07,0.05,0.1,0.07c0.05,0.03,0.08,0.04,0.1,0.03c0.02-0.01,0.03-0.04,0.03-0.08
					c0-0.04-0.02-0.08-0.05-0.11s-0.07-0.06-0.13-0.1l-0.05-0.03l-0.01-0.15l0.05,0.03c0.05,0.03,0.09,0.04,0.12,0.04
					c0.02,0,0.03-0.03,0.03-0.07c0-0.07-0.04-0.12-0.11-0.16c-0.02-0.01-0.04-0.02-0.07-0.02s-0.05,0-0.07,0.01l-0.08-0.17
					c0.06-0.02,0.13-0.01,0.22,0.04c0.07,0.04,0.13,0.09,0.17,0.15C96.38,61.04,96.4,61.1,96.41,61.17z"/>
				<path d="M97,61.74c0.01,0.16,0,0.27-0.04,0.32c-0.04,0.05-0.09,0.06-0.18,0.01c-0.08-0.04-0.14-0.12-0.19-0.22
					s-0.07-0.23-0.08-0.38c-0.01-0.16,0-0.27,0.04-0.32c0.03-0.05,0.09-0.06,0.17-0.01c0.08,0.04,0.14,0.12,0.19,0.22
					C96.96,61.46,96.99,61.59,97,61.74z M96.66,61.55c0.01,0.11,0.02,0.2,0.04,0.25c0.02,0.06,0.04,0.09,0.08,0.11
					c0.03,0.02,0.06,0.01,0.07-0.03s0.01-0.12,0.01-0.23c-0.01-0.11-0.02-0.2-0.04-0.25c-0.02-0.06-0.04-0.1-0.08-0.11
					s-0.06-0.01-0.07,0.03C96.66,61.37,96.65,61.44,96.66,61.55z"/>
			</g>
			<g>
				<path d="M100.4,64.35l0.21-0.6l-0.34-0.19l-0.01-0.16l0.5,0.28l0.01,0.12l-0.21,0.64L100.4,64.35z"/>
				<path d="M101.33,64.43c0.01,0.16,0,0.27-0.04,0.32c-0.03,0.05-0.09,0.06-0.18,0.01c-0.08-0.04-0.14-0.12-0.19-0.22
					c-0.04-0.1-0.07-0.23-0.08-0.38c-0.01-0.16,0-0.27,0.04-0.32c0.04-0.05,0.09-0.06,0.17-0.01c0.08,0.04,0.14,0.12,0.19,0.22
					C101.3,64.15,101.32,64.28,101.33,64.43z M101,64.24c0.01,0.11,0.02,0.2,0.04,0.25c0.02,0.06,0.04,0.09,0.08,0.11
					c0.03,0.02,0.06,0.01,0.07-0.03s0.01-0.12,0.01-0.23c-0.01-0.11-0.02-0.2-0.04-0.25c-0.02-0.06-0.04-0.1-0.08-0.11
					c-0.03-0.02-0.06-0.01-0.07,0.03C100.99,64.05,100.99,64.13,101,64.24z"/>
			</g>
			<g>
				<path d="M103.52,65.94l-0.14-0.08l-0.02-0.53v-0.09v-0.09c-0.02,0.02-0.04,0.03-0.05,0.03l-0.08,0.04l-0.07-0.16l0.21-0.1
					l0.12,0.07L103.52,65.94z"/>
				<path d="M104.16,65.88c0,0.16-0.01,0.27-0.05,0.32c-0.04,0.05-0.1,0.06-0.18,0.01s-0.14-0.12-0.18-0.22
					c-0.04-0.1-0.07-0.23-0.07-0.39c-0.01-0.16,0.01-0.27,0.05-0.32c0.04-0.05,0.09-0.06,0.17-0.01c0.08,0.05,0.14,0.12,0.18,0.22
					C104.13,65.6,104.16,65.73,104.16,65.88z M103.83,65.68c0,0.11,0.01,0.2,0.03,0.25c0.02,0.06,0.04,0.1,0.08,0.12
					c0.03,0.02,0.06,0.01,0.07-0.03s0.02-0.12,0.02-0.23c0-0.11-0.01-0.2-0.03-0.25s-0.04-0.1-0.07-0.12s-0.06-0.01-0.07,0.03
					C103.83,65.49,103.83,65.57,103.83,65.68z"/>
				<path d="M104.7,66.2c0,0.16-0.01,0.27-0.05,0.32c-0.04,0.05-0.1,0.06-0.18,0.01s-0.14-0.12-0.18-0.22
					c-0.04-0.1-0.07-0.23-0.07-0.38c-0.01-0.16,0.01-0.27,0.05-0.32c0.04-0.05,0.09-0.06,0.17-0.01c0.08,0.05,0.14,0.12,0.18,0.22
					C104.68,65.92,104.7,66.05,104.7,66.2z M104.37,66c0,0.11,0.01,0.2,0.03,0.25c0.02,0.06,0.04,0.1,0.08,0.12
					c0.03,0.02,0.06,0.01,0.07-0.03s0.02-0.12,0.02-0.23c0-0.11-0.01-0.2-0.03-0.25s-0.04-0.1-0.07-0.12s-0.06-0.01-0.07,0.03
					C104.37,65.82,104.37,65.89,104.37,66z"/>
			</g>
			<polygon points="96.15,63.71 95.63,62.21 97.04,62.99 			"/>
		</g>
		<g>
			<path d="M109.88,56.34l0.05,1.05c0.01,0.12-0.01,0.21-0.05,0.28c-0.04,0.06-0.1,0.1-0.19,0.1c-0.08,0-0.19-0.03-0.3-0.1
				c-0.18-0.1-0.32-0.23-0.42-0.39s-0.16-0.33-0.17-0.52l-0.05-1.05l0.29,0.16l0.05,0.99c0.01,0.13,0.03,0.23,0.08,0.31
				s0.12,0.15,0.22,0.21c0.1,0.05,0.16,0.06,0.2,0.03c0.04-0.04,0.06-0.12,0.05-0.24l-0.05-0.99L109.88,56.34z"/>
			<path d="M111.1,58.15c0.01,0.15-0.03,0.24-0.12,0.27c-0.09,0.04-0.21,0.01-0.37-0.08c-0.15-0.08-0.28-0.19-0.4-0.31l-0.02-0.32
				c0.1,0.1,0.18,0.18,0.24,0.23s0.13,0.1,0.18,0.13c0.06,0.04,0.11,0.05,0.15,0.04c0.03-0.01,0.05-0.04,0.04-0.1
				c0-0.03-0.01-0.06-0.03-0.1c-0.02-0.03-0.04-0.07-0.07-0.11c-0.03-0.04-0.09-0.11-0.19-0.21c-0.09-0.09-0.15-0.17-0.2-0.24
				c-0.04-0.07-0.08-0.13-0.11-0.21c-0.03-0.07-0.04-0.14-0.05-0.22c-0.01-0.14,0.03-0.23,0.11-0.27c0.08-0.04,0.19-0.01,0.34,0.07
				c0.07,0.04,0.14,0.09,0.21,0.14c0.07,0.06,0.14,0.12,0.21,0.2l-0.08,0.21c-0.08-0.08-0.14-0.13-0.19-0.18
				c-0.05-0.04-0.1-0.07-0.14-0.1c-0.06-0.03-0.1-0.04-0.13-0.03s-0.04,0.05-0.04,0.09c0,0.03,0.01,0.06,0.02,0.09
				s0.03,0.06,0.06,0.1s0.09,0.11,0.19,0.22c0.13,0.14,0.23,0.27,0.28,0.37C111.07,57.94,111.1,58.04,111.1,58.15z"/>
			<path d="M111.29,57.11l0.43,0.24c0.2,0.11,0.34,0.22,0.43,0.33s0.14,0.24,0.15,0.39c0,0.1-0.01,0.17-0.05,0.21
				c-0.04,0.04-0.08,0.05-0.15,0.03v0.01c0.09,0.07,0.15,0.15,0.2,0.23c0.04,0.08,0.07,0.18,0.07,0.28
				c0.01,0.15-0.03,0.24-0.12,0.27s-0.21,0.01-0.37-0.08l-0.52-0.29L111.29,57.11z M111.62,57.92l0.17,0.09
				c0.08,0.04,0.14,0.06,0.17,0.05s0.05-0.05,0.05-0.11s-0.02-0.12-0.06-0.17c-0.04-0.05-0.1-0.1-0.19-0.14l-0.15-0.09L111.62,57.92
				z M111.63,58.19l0.02,0.42l0.19,0.11c0.08,0.04,0.14,0.06,0.18,0.04c0.04-0.01,0.05-0.06,0.05-0.13
				c-0.01-0.13-0.09-0.25-0.26-0.34L111.63,58.19z"/>
		</g>
	</g>
</g>
<g id="Camera_Cable">
	<line class="st39" x1="38.28" y1="74.04" x2="24.61" y2="66.15"/>
	<g class="st0">
		<g class="st27">
			<polygon class="st13" points="68.37,85.15 74.08,88.42 74.09,92.17 70.86,94.06 65.14,90.78 65.14,86.97 			"/>
			<polyline class="st15" points="65.14,86.97 70.86,90.15 74.08,88.42 			"/>
			<line class="st15" x1="70.86" y1="90.15" x2="70.86" y2="94.06"/>
		</g>
		<path class="st19" d="M37.13,74.25l3.67-2.13c0,0,28.19,15.75,30.46,17.06c2.87,1.66,2.31,4.93,0.8,6.07
			c-0.99,0.75-0.73,0.57-1.88,1.32c-0.77,0.51-2.04,0.73-3.37,0c-0.46-0.25-4.11-2.35-8.71-4.99c-2.87-1.65-0.69-2.39-4.1-4.36
			c-7.85-4.53-16.85-9.93-16.85-9.93L37.13,74.25z"/>
		<path class="st40" d="M37.13,74.25c0,0,29.8,16.67,31.27,17.47s2.03,4.33-0.7,5.22"/>
		<line class="st20" x1="68.39" y1="91.72" x2="71.86" y2="89.6"/>
		<g class="st27">
			<path class="st14" d="M53.71,75.75l2.16-1.22c0.68-0.11,1.52,0.53,1.2,1.18l-1.81,1.02L53.71,75.75z"/>
			<path class="st21" d="M51.88,74.7l1.35-0.78c1.22,0.03,2.21,0.23,2.89,1.35c0.57,0.94-0.03,2.57-0.66,2.98
				c0.29,1.21-1.09,2.46-0.33,3.02l-1.75,1.01l-9.26-5.45L46,75.84l3.76,2.2l1.49-0.85C51,75.94,51.59,75.11,51.88,74.7z"/>
			<path class="st15" d="M51.88,74.7c1.29,0.13,4.24,0.76,2.29,4.18"/>
			<path class="st22" d="M55.43,78.15l-1.35,0.78c-1.66,0.17-2.65-0.54-2.84-1.75"/>
			<path class="st15" d="M52.4,75.35c1.34,0,2.15,1.05,1.44,2.75C52.25,78.23,51.6,76.65,52.4,75.35z"/>
			<path class="st15" d="M52.4,75.35c-0.32,0-0.46-0.04-0.92,0"/>
			<path class="st15" d="M53.84,78.1c0.36-0.02,0.51-0.13,0.76-0.27"/>
		</g>
	</g>
	<g>
		<polyline class="st21" points="5.23,57.87 36.78,76.08 35.16,79.13 4.2,61.2 		"/>
		<g>
			<path class="st21" d="M65.89,86.88c0,0,3.53-2.05,3.72-2.16s0.35-0.14,0.59,0c0.24,0.14,1.21,0.75,1.21,0.75s0.11-0.07,0.21-0.14
				c0.13-0.09,0.13-0.09,0.32,0.02c0.18,0.1,1.85,1.06,2.06,1.16c0.21,0.1,0.26,0.24,0.26,0.46c0,0.21,0,0.71,0,0.71l-0.18,0.1v2.03
				l0.18-0.11c0,0,0,0.36,0,0.5s0.04,0.31-0.08,0.38s-4.43,2.51-4.43,2.51l-3.87-2.76L65.89,86.88L65.89,86.88z"/>
			<path class="st23" d="M71.42,85.46c-0.09,0.05-4.05,2.31-4.05,2.31"/>
			<path class="st15" d="M74.02,86.5c-0.09,0.05-4.43,2.51-4.43,2.51"/>
			<line class="st15" x1="74.28" y1="86.96" x2="69.85" y2="89.52"/>
			<path class="st15" d="M70.8,86.32L70.8,86.32c-0.1,0.06-0.09,0.16,0.03,0.23l0.98,0.58c0.12,0.07,0.3,0.08,0.4,0.02l0,0
				c0.1-0.06,0.09-0.16-0.03-0.23l-0.98-0.58C71.09,86.27,70.9,86.26,70.8,86.32z"/>
		</g>
		<g>
			<path class="st21" d="M38.9,81.93c0,0-2.39-1.36-3.25-1.82c-0.86-0.46-0.44-1.99,0.13-2.91s1.54-1.5,2.17-1.21
				s1.09,0.52,1.09,0.52L38.9,81.93z"/>
			<path class="st15" d="M36.25,80.46c-0.3-0.57-0.25-1.92,0.41-2.79c0.62-0.82,1.2-1.29,1.96-1.39"/>
			<path class="st15" d="M36.69,80.69c-0.3-0.57-0.25-1.92,0.41-2.79c0.62-0.82,1.2-1.29,1.96-1.39"/>
			<path class="st15" d="M37.58,81.17c-0.3-0.57-0.25-1.92,0.41-2.79c0.34-0.45,0.66-0.79,1.01-1.02"/>
			<path class="st15" d="M38.05,81.43c-0.3-0.57-0.25-1.92,0.41-2.79c0.19-0.25,0.37-0.46,0.55-0.65"/>
		</g>
		<g>
			<path class="st21" d="M38.93,84.21c0-1.24,0-7.57,0-8.7c0-1.14,0.86-1.5,1.39-1.83s5.22-3.06,5.77-3.36
				c0.62-0.34,1.73-0.12,2.32,0.31c0.64,0.47,2.37,2.14,2.37,4.3c0,2.48,0,6.13,0,6.13s9.03,5.21,9.68,5.59
				c0.65,0.37,1.51,0.72,2.22,0.21c0.72-0.5,0.94-0.57,1.26-0.82c0.32-0.24,0.5-0.03,0.78,0.13s4.18,2.51,4.61,2.77
				c0.42,0.25,0.45,0.44,0.45,0.77c0,0.34,0,3.92,0,4.23c0,0.46-0.03,0.53-0.29,0.68c-0.25,0.15-5.76,3.27-6.31,3.61
				c-0.2,0.12-0.48,0.2-0.94,0s-22.48-12.91-22.8-13.09S38.93,84.74,38.93,84.21z"/>
			<g>
				<path class="st15" d="M69.77,89.72c0,0-6.32,3.66-6.65,3.84c-0.32,0.18-0.59,0.17-0.89,0S44.8,83.48,44.35,83.24
					C43.9,83,43.46,82.5,43.46,81.7s0-0.95,0-2.9c0-1.95-1.61-3.6-2.24-3.87c-0.55-0.24-2.29-1.01-2.29,1.71"/>
				<path class="st15" d="M39.77,73.97c0.76-0.43,1.73-0.06,2.33,0.49c0.6,0.54,2.24,2.21,2.24,4.25s0,2.52,0,2.99
					s0.19,0.62,0.45,0.77s17.88,10.32,17.88,10.32l6.65-3.84"/>
				<path class="st15" d="M62.23,98.23c0,0,0-4.31,0-4.68s0.12-0.58,0.45-0.77c0.46,0.22,0.45,0.57,0.45,0.77s0,4.68,0,4.68"/>
				<path class="st15" d="M43.45,81.69c0.14,0.17,0.6,0.16,0.88,0s3.7-2.14,4.02-2.32c0.36-0.2,0.53-0.18,0.76,0.05
					c0.17,0.17,0.13,0.49,0.13,0.76"/>
				<path class="st15" d="M48.58,79.29c0,0.24,0.05,0.54,0.45,0.77c0.4,0.23,3.35,1.93,3.35,1.93"/>
				<path class="st15" d="M44.34,83.23c-0.02-0.25,0.11-0.58,0.45-0.77s4.17-2.41,4.17-2.41"/>
				<path class="st15" d="M43.45,78.79c0.08,0.13,0.49,0.29,0.88,0.04c0.39-0.26,6.43-3.69,6.43-3.69"/>
			</g>
			<ellipse transform="matrix(0.866 -0.5 0.5 0.866 -33.1904 31.0049)" class="st41" cx="41.26" cy="77.43" rx="1.02" ry="1.8"/>
		</g>
	</g>
	<path class="st22" d="M6.94,56.36c-1.97,0.15-3.09,1.71-2.9,3.49c0.21,1.98-1.27,3.17-3.55,3.41"/>
	<g>
		<path class="st42" d="M7.99,94.87l6.84-3.95c0.49-0.21,1.21-0.28,1.63,0.3s0.47,1.28-0.59,1.89l-6.51,3.76"/>
		<g>
			<path class="st43" d="M14.82,90.94c-0.05-0.32,0.07-0.61,0.72,0.04c0.42,0.42,0.75,0.89,1.04,1.53c0.27,0.6-0.07,0.64-0.23,0.46"
				/>
			<path class="st43" d="M13.98,91.41c-0.05-0.32,0.07-0.61,0.72,0.04c0.42,0.42,0.75,0.89,1.04,1.53c0.27,0.6-0.07,0.64-0.23,0.46"
				/>
			<path class="st43" d="M13.13,91.89c-0.05-0.32,0.07-0.61,0.72,0.04c0.42,0.42,0.75,0.89,1.04,1.53c0.27,0.6-0.07,0.64-0.23,0.46"
				/>
			<path class="st43" d="M12.29,92.36c-0.05-0.32,0.07-0.61,0.72,0.04c0.42,0.42,0.75,0.89,1.04,1.53c0.27,0.6-0.07,0.64-0.23,0.46"
				/>
			<path class="st43" d="M11.45,92.83c-0.05-0.32,0.07-0.61,0.72,0.04c0.42,0.42,0.75,0.89,1.04,1.53c0.27,0.6-0.07,0.64-0.23,0.46"
				/>
			<path class="st43" d="M10.61,93.3c-0.05-0.32,0.07-0.61,0.72,0.04c0.42,0.42,0.75,0.89,1.04,1.53c0.27,0.6-0.07,0.64-0.23,0.46"
				/>
			<path class="st43" d="M9.77,93.78c-0.05-0.32,0.07-0.61,0.72,0.04c0.42,0.42,0.75,0.89,1.04,1.53c0.27,0.6-0.07,0.64-0.23,0.46"
				/>
			<path class="st43" d="M8.93,94.25C8.88,93.93,9,93.64,9.65,94.29c0.42,0.42,0.75,0.89,1.04,1.53c0.27,0.6-0.07,0.64-0.23,0.46"/>
			<path class="st43" d="M8.09,94.72c-0.05-0.32,0.07-0.61,0.72,0.04c0.42,0.42,0.75,0.89,1.04,1.53c0.27,0.6-0.07,0.64-0.23,0.46"
				/>
		</g>
		<g>
			<path class="st42" d="M5.51,95.15l1.39-0.82c0.68-0.02,1.54,0.35,2.12,1.16s0.97,1.97,0.56,2.91l-1.36,0.79"/>
			<line class="st44" x1="6.35" y1="95.06" x2="7.54" y2="94.38"/>
			<line class="st44" x1="8.51" y1="98.45" x2="9.73" y2="97.75"/>
			<line class="st44" x1="6.74" y1="95.25" x2="7.93" y2="94.57"/>
			<line class="st44" x1="7.12" y1="95.49" x2="8.3" y2="94.81"/>
			<line class="st44" x1="7.45" y1="95.75" x2="8.63" y2="95.08"/>
			<line class="st44" x1="7.71" y1="96.09" x2="8.9" y2="95.42"/>
			<line class="st44" x1="7.91" y1="96.43" x2="9.09" y2="95.75"/>
			<line class="st44" x1="8.14" y1="96.77" x2="9.32" y2="96.09"/>
			<line class="st44" x1="8.3" y1="97.16" x2="9.49" y2="96.49"/>
			<line class="st44" x1="8.46" y1="97.55" x2="9.65" y2="96.87"/>
			<line class="st44" x1="8.52" y1="97.93" x2="9.71" y2="97.26"/>
		</g>
		
			<ellipse transform="matrix(0.835 -0.5503 0.5503 0.835 -52.3826 19.7886)" class="st45" cx="6.8" cy="97.23" rx="1.37" ry="2.42"/>
	</g>
</g>
<g id="Screws">
	<g>
		<ellipse class="st13" cx="154.28" cy="121.44" rx="1.67" ry="0.88"/>
		<polyline class="st13" points="152.62,121.44 153.34,119.85 155.42,119.85 155.95,121.44 		"/>
		<polyline class="st13" points="153.34,119.85 153.34,115.27 155.4,115.27 155.4,119.85 		"/>
		<g>
			<path class="st15" d="M153.18,119.47c-0.43,0.42,3.16,0.16,2.18-0.57"/>
			<path class="st15" d="M153.18,119c-0.43,0.42,3.16,0.17,2.18-0.56"/>
			<path class="st15" d="M153.18,118.53c-0.43,0.42,3.17,0.17,2.19-0.56"/>
			<path class="st15" d="M153.19,118.06c-0.43,0.42,3.17,0.18,2.19-0.55"/>
			<path class="st15" d="M153.19,117.59c-0.43,0.42,3.18,0.19,2.2-0.54"/>
			<path class="st15" d="M153.2,117.12c-0.43,0.42,3.18,0.19,2.2-0.54"/>
			<path class="st15" d="M153.2,116.66c-0.43,0.42,3.19,0.2,2.21-0.53"/>
			<path class="st15" d="M153.21,116.19c-0.43,0.42,3.2,0.21,2.22-0.52"/>
			<path class="st15" d="M153.21,115.72c-0.43,0.42,3.2,0.21,2.22-0.52"/>
		</g>
	</g>
	<g>
		<ellipse class="st13" cx="164.05" cy="126.54" rx="1.67" ry="0.88"/>
		<polyline class="st13" points="162.38,126.54 163.1,124.95 165.19,124.95 165.71,126.54 		"/>
		<polyline class="st13" points="163.1,124.95 163.1,120.36 165.17,120.36 165.17,124.95 		"/>
		<g>
			<path class="st15" d="M162.94,124.57c-0.43,0.42,3.16,0.16,2.18-0.57"/>
			<path class="st15" d="M162.94,124.1c-0.43,0.42,3.16,0.17,2.18-0.56"/>
			<path class="st15" d="M162.95,123.63c-0.43,0.42,3.17,0.17,2.19-0.56"/>
			<path class="st15" d="M162.95,123.16c-0.43,0.42,3.17,0.18,2.19-0.55"/>
			<path class="st15" d="M162.96,122.69c-0.43,0.42,3.18,0.19,2.2-0.54"/>
			<path class="st15" d="M162.96,122.22c-0.43,0.42,3.18,0.19,2.2-0.54"/>
			<path class="st15" d="M162.97,121.75c-0.43,0.42,3.19,0.2,2.21-0.53"/>
			<path class="st15" d="M162.97,121.28c-0.43,0.42,3.2,0.21,2.22-0.52"/>
			<path class="st15" d="M162.98,120.82c-0.43,0.42,3.2,0.21,2.22-0.52"/>
		</g>
	</g>
	<g>
		<ellipse class="st13" cx="65.89" cy="172.53" rx="1.67" ry="0.88"/>
		<polyline class="st13" points="64.23,172.53 64.95,170.94 67.03,170.94 67.56,172.53 		"/>
		<polyline class="st13" points="64.95,170.94 64.95,166.36 67.01,166.36 67.01,170.94 		"/>
		<g>
			<path class="st15" d="M64.79,170.56c-0.43,0.42,3.16,0.16,2.18-0.57"/>
			<path class="st15" d="M64.79,170.09c-0.43,0.42,3.16,0.17,2.18-0.56"/>
			<path class="st15" d="M64.8,169.62c-0.43,0.42,3.17,0.17,2.19-0.56"/>
			<path class="st15" d="M64.8,169.16c-0.43,0.42,3.17,0.18,2.19-0.55"/>
			<path class="st15" d="M64.81,168.69c-0.43,0.42,3.18,0.19,2.2-0.54"/>
			<path class="st15" d="M64.81,168.22c-0.43,0.42,3.18,0.19,2.2-0.54"/>
			<path class="st15" d="M64.81,167.75c-0.43,0.42,3.19,0.2,2.21-0.53"/>
			<path class="st15" d="M64.82,167.28c-0.43,0.42,3.2,0.21,2.22-0.52"/>
			<path class="st15" d="M64.82,166.81c-0.43,0.42,3.2,0.21,2.22-0.52"/>
		</g>
	</g>
	<g>
		<ellipse class="st13" cx="72.69" cy="176.43" rx="1.67" ry="0.88"/>
		<polyline class="st13" points="71.03,176.43 71.75,174.84 73.83,174.84 74.36,176.43 		"/>
		<polyline class="st13" points="71.75,174.84 71.75,170.25 73.81,170.25 73.81,174.84 		"/>
		<g>
			<path class="st15" d="M71.58,174.46c-0.43,0.42,3.16,0.16,2.18-0.57"/>
			<path class="st15" d="M71.59,173.99c-0.43,0.42,3.16,0.17,2.18-0.56"/>
			<path class="st15" d="M71.59,173.52c-0.43,0.42,3.17,0.17,2.19-0.56"/>
			<path class="st15" d="M71.6,173.05c-0.43,0.42,3.17,0.18,2.19-0.55"/>
			<path class="st15" d="M71.6,172.58c-0.43,0.42,3.18,0.19,2.2-0.54"/>
			<path class="st15" d="M71.61,172.11c-0.43,0.42,3.18,0.19,2.2-0.54"/>
			<path class="st15" d="M71.61,171.65c-0.43,0.42,3.19,0.2,2.21-0.53"/>
			<path class="st15" d="M71.62,171.18c-0.43,0.42,3.2,0.21,2.22-0.52"/>
			<path class="st15" d="M71.62,170.71c-0.43,0.42,3.2,0.21,2.22-0.52"/>
		</g>
	</g>
</g>
<g id="Leader_Lines">
	<g>
		<line class="st46" x1="113.08" y1="134.55" x2="113.08" y2="189.67"/>
		<line class="st47" x1="113.08" y1="134.55" x2="113.08" y2="189.67"/>
	</g>
	<g>
		<line class="st46" x1="111.14" y1="119.63" x2="111.2" y2="78.96"/>
		<line class="st47" x1="111.14" y1="119.63" x2="111.2" y2="78.96"/>
	</g>
	<g>
		<line class="st46" x1="101.18" y1="75.13" x2="101.18" y2="114.97"/>
		<line class="st47" x1="101.18" y1="75.13" x2="101.18" y2="114.97"/>
	</g>
	<g>
		<line class="st46" x1="129.09" y1="111.37" x2="129.09" y2="78.23"/>
		<line class="st47" x1="129.09" y1="111.37" x2="129.09" y2="78.23"/>
	</g>
	<g>
		<line class="st46" x1="119.07" y1="106.34" x2="119.07" y2="81.99"/>
		<line class="st47" x1="119.07" y1="106.34" x2="119.07" y2="81.99"/>
	</g>
	<g>
		<line class="st46" x1="53.54" y1="70.02" x2="88.22" y2="50.06"/>
		<g>
			<line class="st48" x1="53.54" y1="70.02" x2="54.84" y2="69.27"/>
			<line class="st49" x1="57.31" y1="67.85" x2="85.68" y2="51.52"/>
			<line class="st48" x1="86.92" y1="50.81" x2="88.22" y2="50.06"/>
		</g>
	</g>
	<g>
		<line class="st46" x1="76.73" y1="84.25" x2="107.74" y2="66.09"/>
		<g>
			<line class="st48" x1="76.73" y1="84.25" x2="78.03" y2="83.49"/>
			<line class="st50" x1="80.61" y1="81.98" x2="105.16" y2="67.6"/>
			<line class="st48" x1="106.45" y1="66.85" x2="107.74" y2="66.09"/>
		</g>
	</g>
	<g>
		<line class="st46" x1="20.49" y1="89.52" x2="37.83" y2="79.54"/>
		<g>
			<line class="st48" x1="20.49" y1="89.52" x2="21.79" y2="88.77"/>
			<line class="st51" x1="24.74" y1="87.07" x2="35.05" y2="81.13"/>
			<line class="st48" x1="36.53" y1="80.29" x2="37.83" y2="79.54"/>
		</g>
	</g>
	<g>
		<g>
			<polyline class="st48" points="100.74,129.63 100.74,132.29 99.43,133.03 			"/>
			<line class="st52" x1="96.95" y1="134.44" x2="68.44" y2="150.64"/>
			<polyline class="st48" points="67.2,151.34 65.89,152.08 65.89,153.58 			"/>
			<line class="st53" x1="65.89" y1="156.21" x2="65.89" y2="160.15"/>
			<line class="st48" x1="65.89" y1="161.47" x2="65.89" y2="162.97"/>
		</g>
	</g>
	<g>
		<g>
			<line class="st48" x1="110.81" y1="132.9" x2="110.82" y2="134.4"/>
			<polyline class="st48" points="110.82,134.58 110.83,136.08 109.53,136.82 			"/>
			<line class="st54" x1="106.8" y1="138.38" x2="75.38" y2="156.33"/>
			<polyline class="st48" points="74.01,157.11 72.71,157.85 72.71,159.35 			"/>
			<line class="st55" x1="72.7" y1="161.86" x2="72.7" y2="165.62"/>
			<line class="st48" x1="72.7" y1="166.87" x2="72.69" y2="168.37"/>
		</g>
	</g>
	<g>
		<g>
			<line class="st48" x1="134.26" y1="124.73" x2="135.56" y2="123.99"/>
			<line class="st56" x1="138.03" y1="122.58" x2="161.48" y2="109.22"/>
			<polyline class="st48" points="162.71,108.52 164.02,107.77 164.02,109.27 			"/>
			<line class="st57" x1="164.03" y1="111.8" x2="164.04" y2="115.58"/>
			<line class="st48" x1="164.04" y1="116.84" x2="164.05" y2="118.34"/>
		</g>
	</g>
	<g>
		<g>
			<line class="st48" x1="135.3" y1="112.56" x2="136.6" y2="111.82"/>
			<line class="st58" x1="138.94" y1="110.48" x2="151.81" y2="103.15"/>
			<polyline class="st48" points="152.98,102.49 154.28,101.74 154.28,103.24 			"/>
			<line class="st59" x1="154.28" y1="105.75" x2="154.28" y2="109.51"/>
			<line class="st48" x1="154.28" y1="110.77" x2="154.28" y2="112.27"/>
		</g>
	</g>
	<g>
		<g>
			<line class="st48" x1="119.07" y1="114.78" x2="119.07" y2="116.28"/>
			<polyline class="st48" points="119.07,120.31 119.07,121.81 120.37,121.07 			"/>
			<line class="st48" x1="123.94" y1="119.04" x2="125.24" y2="118.29"/>
		</g>
	</g>
	<line class="st60" x1="129.26" y1="119.99" x2="129.26" y2="126.94"/>
	<line class="st61" x1="79.27" y1="144.49" x2="169.4" y2="93.13"/>
	<line class="st61" x1="81.09" y1="150.68" x2="171.22" y2="99.33"/>
</g>
</svg>
