<?xml version="1.0" encoding="utf-8"?>
<!-- Generator: Adobe Illustrator 24.0.3, SVG Export Plug-In . SVG Version: 6.00 Build 0)  -->
<svg version="1.1" id="Layer_1" xmlns="http://www.w3.org/2000/svg" xmlns:xlink="http://www.w3.org/1999/xlink" x="0px" y="0px"
	 viewBox="0 0 384.27 251" style="enable-background:new 0 0 384.27 251;" xml:space="preserve">
<style type="text/css">
	.st0{fill:#FFFFFF;stroke:#000000;stroke-width:0.9861;stroke-linecap:round;stroke-linejoin:round;stroke-miterlimit:10;}
	.st1{fill:none;stroke:#000000;stroke-width:0.2465;stroke-linecap:round;stroke-linejoin:round;stroke-miterlimit:10;}
	.st2{fill:none;stroke:#000000;stroke-width:0.9861;stroke-linecap:round;stroke-linejoin:round;stroke-miterlimit:10;}
	.st3{fill:none;stroke:#000000;stroke-width:0.4931;stroke-linecap:round;stroke-linejoin:round;stroke-miterlimit:10;}
	.st4{fill:#FFFFFF;stroke:#000000;stroke-width:0.4931;stroke-linecap:round;stroke-linejoin:round;stroke-miterlimit:10;}
	.st5{fill:#FFFFFF;stroke:#010101;stroke-width:0.9861;stroke-miterlimit:10;}
	.st6{fill:#FFFFFF;stroke:#000000;stroke-width:0.2465;stroke-linecap:round;stroke-linejoin:round;stroke-miterlimit:10;}
	.st7{display:none;}
	.st8{display:inline;}
	.st9{fill:#FFFFFF;stroke:#000000;stroke-width:0.5;stroke-linecap:round;stroke-linejoin:round;stroke-miterlimit:10;}
	.st10{fill:none;stroke:#000000;stroke-width:0.25;stroke-linecap:round;stroke-linejoin:round;stroke-miterlimit:10;}
	.st11{fill:#FFFFFF;stroke:#000000;stroke-linecap:round;stroke-linejoin:round;stroke-miterlimit:10;}
	.st12{fill:none;stroke:#000000;stroke-width:0.5;stroke-linecap:round;stroke-linejoin:round;stroke-miterlimit:10;}
	.st13{display:inline;fill:#FFFFFF;stroke:#000000;stroke-linecap:round;stroke-linejoin:round;stroke-miterlimit:10;}
	
		.st14{display:inline;fill:none;stroke:#000000;stroke-width:0.25;stroke-linecap:round;stroke-linejoin:round;stroke-miterlimit:10;}
	.st15{fill:none;stroke:#000000;stroke-linecap:round;stroke-linejoin:round;stroke-miterlimit:10;}
	.st16{display:inline;fill:none;stroke:#000000;stroke-linecap:round;stroke-linejoin:round;stroke-miterlimit:10;}
	.st17{fill:#FFFFFF;stroke:#000000;stroke-width:0.6413;stroke-linecap:round;stroke-linejoin:round;stroke-miterlimit:10;}
	.st18{fill:none;stroke:#000000;stroke-width:0.3207;stroke-linecap:round;stroke-linejoin:round;stroke-miterlimit:10;}
	.st19{fill:none;stroke:#000000;stroke-width:0.6413;stroke-linecap:round;stroke-linejoin:round;stroke-miterlimit:10;}
	.st20{fill:#FFFFFF;stroke:#000000;stroke-width:0.25;stroke-linecap:round;stroke-linejoin:round;stroke-miterlimit:10;}
	.st21{fill:#FFFFFF;stroke:#000000;stroke-width:0.1378;stroke-linecap:round;stroke-linejoin:round;stroke-miterlimit:10;}
	.st22{fill:#FFFFFF;}
	.st23{fill:none;stroke:#010101;stroke-width:0.0533;stroke-linecap:round;stroke-linejoin:round;stroke-miterlimit:10;}
	.st24{fill:#010101;}
	.st25{fill:#FFFFFF;stroke:#010101;stroke-width:8.683735e-03;stroke-miterlimit:10;}
	.st26{fill:#FFFFFF;stroke:#010101;stroke-width:9.609092e-03;stroke-miterlimit:10;}
	.st27{fill:none;stroke:#007481;stroke-width:0.75;stroke-linecap:round;stroke-linejoin:round;stroke-miterlimit:10;}
	.st28{fill:none;stroke:#007481;stroke-width:1.1667;stroke-linecap:round;stroke-linejoin:round;stroke-miterlimit:10;}
	.st29{fill:none;stroke:#007481;stroke-width:1.5833;stroke-linecap:round;stroke-linejoin:round;stroke-miterlimit:10;}
	.st30{fill:none;stroke:#007481;stroke-width:2;stroke-linecap:round;stroke-linejoin:round;stroke-miterlimit:10;}
	.st31{fill:none;stroke:#007481;stroke-width:3;stroke-linecap:round;stroke-linejoin:round;stroke-miterlimit:10;}
	.st32{fill:#007481;}
</style>
<g id="Layer_1_1_">
	<g>
		<g>
			<path class="st0" d="M42.96,90.33c-0.22,0.97-1.13,1.62-2.38,1.62c-1.24,0-6.37,0-7.59,0h-0.31c-1.22,0-6.35,0-7.59,0
				s-2.16-0.65-2.38-1.62"/>
			<path class="st0" d="M49.87,90.33H15.38c-0.54,0-0.99-0.44-0.99-0.99v-6.56c0-0.54,0.44-0.99,0.99-0.99h34.49
				c0.54,0,0.99,0.44,0.99,0.99v6.56C50.85,89.89,50.41,90.33,49.87,90.33z"/>
			<line class="st1" x1="14.39" y1="82.46" x2="50.85" y2="82.46"/>
			<line class="st1" x1="15.05" y1="81.8" x2="15.05" y2="90.33"/>
			<line class="st1" x1="50.21" y1="81.8" x2="50.21" y2="90.33"/>
			<line class="st1" x1="14.39" y1="86.66" x2="50.85" y2="86.66"/>
			<path class="st1" d="M22.12,81.8c0.65,0.66,0.59,3.67,0.59,4.86s0,3.67,0,3.67"/>
			<line class="st1" x1="23.23" y1="82.46" x2="23.23" y2="90.33"/>
			<path class="st1" d="M42.75,90.33c0,0,0-2.48,0-3.67s-0.05-4.2,0.59-4.86"/>
			<line class="st1" x1="42.23" y1="82.46" x2="42.23" y2="90.33"/>
		</g>
		<g>
			<path class="st0" d="M53.43,93.73c0.56-0.8,0.39-3.12-0.36-3.12s-0.75,0.59-0.75,1.78h-19.6h-0.01h-19.6c0-1.19,0-1.78-0.75-1.78
				s-0.93,2.32-0.36,3.12"/>
			<line class="st2" x1="13.1" y1="92.39" x2="11.65" y2="92.39"/>
			<line class="st2" x1="52.32" y1="92.39" x2="53.76" y2="92.39"/>
		</g>
		<g>
			<polyline class="st0" points="62.48,227.92 60.2,240.61 32.92,240.61 32.66,240.61 5.38,240.61 3.1,227.92 			"/>
			<path class="st1" d="M6.27,227.92c0.36,4.02,1.66,10.5,2.63,12.69"/>
			<path class="st1" d="M14.99,227.92c-0.07,2.79-0.07,2.75,0,4s1.2,6.79,1.79,8.7"/>
			<path class="st1" d="M17.43,228.18c2.41,1.15,3.53,3,4.04,5.04c0.5,2.03,0.89,5.63,1.02,7.4"/>
			<path class="st1" d="M3.82,231.91c2.96,0,8.21,0,11.17,0c2.95,0,5.14-0.04,6.48,1.3"/>
			<path class="st1" d="M5.18,239.5c0,0,8.45,0,11.29,0s5.21,0.06,5.9-0.29"/>
		</g>
		<path class="st0" d="M32.69,237.85h9.87c0-9.45,5.29-9.94,7.83-9.94c2.54,0,13.97,0,13.97,0c0.45,0,0.67-0.27,0.51-0.86
			s-9.8-28.97-12.64-49.1c-1.8-12.71-1.51-21.07,0-29.6s4.26-40.58,1.3-51.75c-0.35-1.32,0.22-1.35,0.22-2s-0.16-1.03-1.13-1.03
			s-11.34,0-11.34,0v-0.92h-1.51c-0.27-0.7-0.19-2.05-7.06-2.05s-6.79,1.35-7.06,2.05h-1.51v0.92c0,0-10.37,0-11.34,0
			s-1.13,0.38-1.13,1.03s0.57,0.68,0.22,2c-2.96,11.17-0.22,43.21,1.3,51.75c1.51,8.53,1.8,16.89,0,29.6
			c-2.84,20.13-12.48,48.51-12.64,49.1s0.05,0.86,0.51,0.86c0,0,11.43,0,13.97,0s7.83,0.49,7.83,9.94H32.69z"/>
		<path class="st1" d="M2.4,227.88c1.57-5.96,5.77-16.94,9.92-37.36c4.02-19.75,2.99-28.72,2.88-31.58s-0.32-8.43-0.38-10.86
			s-1.46-39.45-1.46-48.24"/>
		<path class="st1" d="M63.09,227.88c-1.57-5.96-5.77-16.94-9.92-37.36c-4.02-19.75-2.99-28.72-2.88-31.58s0.32-8.43,0.38-10.86
			s3.79-39.95,1.77-52.88"/>
		<line class="st3" x1="13.15" y1="148.35" x2="52.23" y2="148.35"/>
		<path class="st1" d="M13.43,150.04c0.19-9.5-0.89-29.24-1.04-36.22c-0.14-6.99,0.05-14.84,0.53-18.62h37.17
			c1.51,26.36-1.51,54.88-1.8,57.37c-0.3,2.48-0.79,3.24-2.73,3.24s-22.2,0-24.58,0s-3.64-0.19-3.94-3.02
			c-1.17-10.9-1.73-30.68-1.64-57.58"/>
		<path class="st3" d="M23.99,95.2c-0.22,7.81,0.36,26.97,0.58,29.21c0.22,2.23,0.65,3.17,3.17,3.46s7.8,0.25,9.76,0.1
			c2.8-0.22,3.13-2.03,3.27-3.49s1.09-22.97,0.51-29.27"/>
		<path class="st1" d="M24.11,93.25c0.31,0.04,17.15,0,17.15,0"/>
		<line class="st1" x1="25.99" y1="91.88" x2="39.2" y2="91.88"/>
		<path class="st4" d="M32.71,144.53c1.26,0,1.72-0.07,1.72-0.77c0-0.32,0.13-0.59,1.03-0.59c5.67,0,14.58-1.51,15.88-2
			c0.73-0.28,1.89,0.03,1.67,1.85c-0.23,1.82-0.37,2.15-1.67,2.58s-8.69,2.75-18.63,2.75s-17.34-2.32-18.63-2.75
			s-1.44-0.76-1.67-2.58c-0.23-1.82,0.93-2.12,1.67-1.85c1.3,0.49,10.21,2,15.88,2c0.9,0,1.03,0.27,1.03,0.59
			C30.99,144.46,31.44,144.53,32.71,144.53"/>
		<path class="st1" d="M12.35,142.54c6.85,3.05,11.69,3.38,20.34,3.38c8.66,0,13.52-0.37,20.31-2.91"/>
		<path class="st1" d="M12.52,143.82c7.91,3.37,13.48,3.45,20.16,3.45c6.68,0,13.65-0.73,20.13-3.04"/>
		<path class="st1" d="M24.22,142.82c-0.48-1.55-0.54-5.87,2.06-5.87s10.53,0,12.59,0s3.46,2.97,2.05,5.89"/>
		<path class="st1" d="M36.69,143.14c0.21-1.33,0.05-2.41-1.35-2.41s-2.62,0-2.62,0h-0.05c0,0-1.21,0-2.62,0s-1.57,1.08-1.35,2.41"
			/>
		<path class="st1" d="M38.6,136.95c0,1.32-0.29,1.32-5.88,1.32H32.7c-5.59,0-5.88,0-5.88-1.32"/>
		<g>
			<path class="st1" d="M24.12,139.18c0.07,0.99,0.12,1.31,8.58,1.31"/>
			<path class="st1" d="M41.3,139.18c-0.07,0.99-0.12,1.31-8.58,1.31"/>
		</g>
		<line class="st1" x1="23.96" y1="140.73" x2="41.48" y2="140.73"/>
		<g>
			<path class="st1" d="M28.63,148.35c0,0,0,3.28,0,3.96s0.44,2.74,4.09,2.74"/>
			<path class="st1" d="M36.82,148.35c0,0,0,3.28,0,3.96s-0.44,2.74-4.09,2.74"/>
		</g>
		<line class="st1" x1="32.66" y1="91.88" x2="32.66" y2="240.61"/>
		<path class="st1" d="M12.78,96.49c0,0,0.53,0,1.07,0c0.54,0,0.7,0.11,0.7,0.6c0,0.49,0,1.73,0,2.16s-0.22,0.59-0.59,0.59
			c-0.38,0-1.4,0-1.4,0"/>
		<path class="st1" d="M14.33,159.04l4.01,0.22c2.3,22.69,2.19,43.43,2.19,70.71"/>
		<path class="st1" d="M17.72,159.23c2.09,19.94,2.12,55.91,2.12,70.1"/>
		<path class="st1" d="M51.09,159.04l-4.01,0.22c-2.3,22.69-2.19,43.43-2.19,70.71"/>
		<path class="st1" d="M47.7,159.23c-2.09,19.94-2.12,55.91-2.12,70.1"/>
		<line class="st1" x1="50.09" y1="95.2" x2="53.74" y2="95.2"/>
		<g>
			<polyline class="st3" points="2.4,221.18 6.27,221.18 8.36,227.92 			"/>
			<polyline class="st3" points="63.02,221.15 59.15,221.15 57.06,227.88 			"/>
			<line class="st1" x1="7.55" y1="225.3" x2="57.86" y2="225.3"/>
		</g>
		<g>
			<path class="st3" d="M32.66,205.34c9.44,0,10.27,0.76,11.46,2.65v20.09c-0.49,1.24-2.18,3.84-11.46,3.84
				c-9.28,0-10.97-2.59-11.46-3.84v-20.09C22.39,206.09,23.21,205.34,32.66,205.34z"/>
			<path class="st1" d="M43.31,229.33v-21.19c-0.92-1.14-0.88-2.16-10.65-2.16c-9.77,0-9.73,1.02-10.65,2.16v21.19"/>
			<line class="st1" x1="23.14" y1="207" x2="23.14" y2="229.97"/>
			<line class="st1" x1="42.18" y1="207" x2="42.18" y2="229.97"/>
			<g>
				<rect x="23.84" y="207.66" class="st1" width="8.05" height="0.92"/>
				<rect x="24.28" y="209.63" class="st1" width="7.62" height="0.92"/>
				<rect x="24.71" y="211.6" class="st1" width="7.18" height="0.92"/>
			</g>
			<g>
				<rect x="33.49" y="207.66" class="st1" width="8.05" height="0.92"/>
				<rect x="33.49" y="209.63" class="st1" width="7.62" height="0.92"/>
				<rect x="33.49" y="211.6" class="st1" width="7.18" height="0.92"/>
			</g>
		</g>
		<path class="st1" d="M42.92,229.76c-0.55,1.72-1.52,3.94-1.52,6.91h-8.7H24c0-2.97-0.97-5.19-1.52-6.91"/>
		<g>
			<path class="st1" d="M25.09,231.91h3.67c0,0,0,1.78,0,2.65c0,0.86-1.03,1.3-1.84,1.3s-1.84-0.52-1.84-1.28
				C25.09,233.82,25.09,231.91,25.09,231.91z"/>
			<line class="st1" x1="25.09" y1="234.58" x2="28.76" y2="234.58"/>
		</g>
		<g>
			<path class="st1" d="M36.52,231.91h3.67c0,0,0,1.78,0,2.65c0,0.86-1.03,1.3-1.84,1.3s-1.84-0.52-1.84-1.28
				C36.52,233.82,36.52,231.91,36.52,231.91z"/>
			<line class="st1" x1="36.52" y1="234.58" x2="40.19" y2="234.58"/>
		</g>
		<g>
			<path class="st5" d="M32.66,226.08c0,0,20.78,0,21.4,0s0.76-0.38,0.76-0.86c0-0.49-1.03-4.42-3.16-5.48
				c-0.64-0.32-1.04-0.41-1.74-0.41s-17.26,0-17.26,0s-16.56,0-17.26,0s-1.09,0.08-1.74,0.41c-2.13,1.06-3.16,5-3.16,5.48
				c0,0.49,0.14,0.86,0.76,0.86S32.66,226.08,32.66,226.08z"/>
			<line class="st1" x1="11.58" y1="222.08" x2="53.74" y2="222.08"/>
		</g>
		<g>
			<path class="st1" d="M59.31,227.92c-0.36,4.02-1.66,10.5-2.63,12.69"/>
			<path class="st1" d="M50.59,227.92c0.07,2.79,0.07,2.75,0,4s-1.2,6.79-1.79,8.7"/>
			<path class="st1" d="M48.15,228.18c-2.41,1.15-3.53,3-4.04,5.04c-0.5,2.03-0.89,5.63-1.02,7.4"/>
			<path class="st1" d="M61.76,231.91c-2.96,0-8.21,0-11.17,0s-5.14-0.04-6.48,1.3"/>
			<path class="st1" d="M60.4,239.5c0,0-8.45,0-11.29,0s-5.21,0.06-5.9-0.29"/>
		</g>
		<g>
			<g>
				<path class="st6" d="M23.56,157.93h-4.87c0.73,0.65,1.05,1.11,1.85,1.11s3.03,0,3.03,0v-1.11H23.56z"/>
				<line class="st1" x1="20.53" y1="157.93" x2="20.53" y2="159.04"/>
			</g>
			<g>
				<path class="st6" d="M23.56,160.08h-4.55c0.68,0.61,0.98,1.04,1.72,1.04s2.83,0,2.83,0V160.08z"/>
				<line class="st1" x1="20.73" y1="160.08" x2="20.73" y2="161.12"/>
			</g>
			<g>
				<path class="st6" d="M23.56,162.23h-4.23c0.64,0.56,0.91,0.97,1.6,0.97s2.63,0,2.63,0L23.56,162.23L23.56,162.23z"/>
				<line class="st1" x1="20.93" y1="162.23" x2="20.93" y2="163.2"/>
			</g>
			<g>
				<path class="st6" d="M23.56,164.38h-3.91c0.59,0.52,0.84,0.89,1.48,0.89s2.43,0,2.43,0L23.56,164.38L23.56,164.38z"/>
				<line class="st1" x1="21.13" y1="164.38" x2="21.13" y2="165.28"/>
			</g>
			<g>
				<path class="st6" d="M23.56,166.53h-3.59c0.54,0.48,0.77,0.82,1.36,0.82s2.23,0,2.23,0V166.53z"/>
				<line class="st1" x1="21.33" y1="166.53" x2="21.33" y2="167.35"/>
			</g>
		</g>
		<g>
			<g>
				<path class="st6" d="M41.59,158h4.87c-0.73,0.65-1.05,1.11-1.85,1.11s-3.03,0-3.03,0V158H41.59z"/>
				<line class="st1" x1="44.62" y1="158" x2="44.62" y2="159.12"/>
			</g>
			<g>
				<path class="st6" d="M41.59,160.15h4.55c-0.68,0.61-0.98,1.04-1.72,1.04s-2.83,0-2.83,0V160.15z"/>
				<line class="st1" x1="44.42" y1="160.15" x2="44.42" y2="161.19"/>
			</g>
			<g>
				<path class="st6" d="M41.59,162.3h4.23c-0.64,0.56-0.91,0.97-1.6,0.97s-2.63,0-2.63,0L41.59,162.3L41.59,162.3z"/>
				<line class="st1" x1="44.22" y1="162.3" x2="44.22" y2="163.27"/>
			</g>
			<g>
				<path class="st6" d="M41.59,164.46h3.91c-0.59,0.52-0.84,0.89-1.48,0.89s-2.43,0-2.43,0L41.59,164.46L41.59,164.46z"/>
				<line class="st1" x1="44.02" y1="164.46" x2="44.02" y2="165.35"/>
			</g>
			<g>
				<path class="st6" d="M41.59,166.61h3.59c-0.54,0.48-0.77,0.82-1.36,0.82s-2.23,0-2.23,0V166.61z"/>
				<line class="st1" x1="43.82" y1="166.61" x2="43.82" y2="167.43"/>
			</g>
		</g>
		<g>
			<line class="st1" x1="26.19" y1="158" x2="26.19" y2="167.43"/>
			<line class="st1" x1="27" y1="158" x2="27" y2="167.43"/>
			<line class="st1" x1="27.81" y1="158" x2="27.81" y2="167.43"/>
			<line class="st1" x1="28.62" y1="158" x2="28.62" y2="167.43"/>
			<line class="st1" x1="29.44" y1="158" x2="29.44" y2="167.43"/>
			<line class="st1" x1="30.25" y1="158" x2="30.25" y2="167.43"/>
			<line class="st1" x1="31.06" y1="158" x2="31.06" y2="167.43"/>
			<line class="st1" x1="31.87" y1="158" x2="31.87" y2="167.43"/>
			<line class="st1" x1="32.69" y1="158" x2="32.69" y2="167.43"/>
			<line class="st1" x1="33.5" y1="158" x2="33.5" y2="167.43"/>
			<line class="st1" x1="34.31" y1="158" x2="34.31" y2="167.43"/>
			<line class="st1" x1="35.12" y1="158" x2="35.12" y2="167.43"/>
			<line class="st1" x1="35.94" y1="158" x2="35.94" y2="167.43"/>
			<line class="st1" x1="36.75" y1="158" x2="36.75" y2="167.43"/>
			<line class="st1" x1="37.56" y1="158" x2="37.56" y2="167.43"/>
			<line class="st1" x1="38.38" y1="158" x2="38.38" y2="167.43"/>
			<line class="st1" x1="39.19" y1="158" x2="39.19" y2="167.43"/>
		</g>
		<g>
			<line class="st1" x1="26.19" y1="158" x2="39.19" y2="158"/>
			<line class="st1" x1="26.18" y1="158.59" x2="39.19" y2="158.59"/>
			<line class="st1" x1="26.18" y1="159.18" x2="39.18" y2="159.18"/>
			<line class="st1" x1="26.18" y1="159.77" x2="39.18" y2="159.77"/>
			<line class="st1" x1="26.18" y1="160.36" x2="39.18" y2="160.36"/>
			<line class="st1" x1="26.18" y1="160.95" x2="39.18" y2="160.95"/>
			<line class="st1" x1="26.17" y1="161.54" x2="39.18" y2="161.54"/>
			<line class="st1" x1="26.17" y1="162.13" x2="39.18" y2="162.13"/>
			<line class="st1" x1="26.17" y1="162.71" x2="39.17" y2="162.71"/>
			<line class="st1" x1="26.17" y1="163.3" x2="39.17" y2="163.3"/>
			<line class="st1" x1="26.17" y1="163.89" x2="39.17" y2="163.89"/>
			<line class="st1" x1="26.17" y1="164.48" x2="39.17" y2="164.48"/>
			<line class="st1" x1="26.16" y1="165.07" x2="39.17" y2="165.07"/>
			<line class="st1" x1="26.16" y1="165.66" x2="39.16" y2="165.66"/>
			<line class="st1" x1="26.16" y1="166.25" x2="39.16" y2="166.25"/>
			<line class="st1" x1="26.16" y1="166.84" x2="39.16" y2="166.84"/>
			<line class="st1" x1="26.16" y1="167.43" x2="39.16" y2="167.43"/>
		</g>
		<circle class="st1" cx="46.86" cy="150.73" r="0.83"/>
		<circle class="st1" cx="18.78" cy="150.73" r="0.83"/>
		<path class="st1" d="M22.74,103.09L22.74,103.09c-0.66,0.66-1.74,0.66-2.4,0l-2.77-2.77c-0.66-0.66-0.66-1.74,0-2.4l0,0
			c0.66-0.66,1.74-0.66,2.4,0l2.77,2.77C23.4,101.35,23.4,102.43,22.74,103.09z"/>
		<path class="st1" d="M22.74,103.09L22.74,103.09c-0.66,0.66-1.74,0.66-2.4,0l-2.77-2.77c-0.66-0.66-0.66-1.74,0-2.4l0,0
			c0.66-0.66,1.74-0.66,2.4,0l2.77,2.77C23.4,101.35,23.4,102.43,22.74,103.09z"/>
		<path class="st1" d="M22.74,112.97L22.74,112.97c-0.66,0.66-1.74,0.66-2.4,0l-2.77-2.77c-0.66-0.66-0.66-1.74,0-2.4l0,0
			c0.66-0.66,1.74-0.66,2.4,0l2.77,2.77C23.4,111.23,23.4,112.31,22.74,112.97z"/>
		<path class="st1" d="M23.43,125.79L23.43,125.79c-0.66,0.66-1.74,0.66-2.4,0l-2.77-2.77c-0.66-0.66-0.66-1.74,0-2.4l0,0
			c0.66-0.66,1.74-0.66,2.4,0l2.77,2.77C24.09,124.05,24.09,125.13,23.43,125.79z"/>
		<path class="st1" d="M42.6,103.09L42.6,103.09c0.66,0.66,1.74,0.66,2.4,0l2.77-2.77c0.66-0.66,0.66-1.74,0-2.4l0,0
			c-0.66-0.66-1.74-0.66-2.4,0l-2.77,2.77C41.94,101.35,41.94,102.43,42.6,103.09z"/>
		<circle class="st1" cx="18.88" cy="99.23" r="0.9"/>
		<circle class="st1" cx="21.43" cy="101.78" r="0.9"/>
		<circle class="st1" cx="20.05" cy="110.37" r="1.11"/>
		<circle class="st1" cx="19.32" cy="121.67" r="0.82"/>
		<circle class="st1" cx="22.39" cy="124.71" r="0.79"/>
		<g>
			<circle class="st1" cx="46.34" cy="107.18" r="1.79"/>
			<circle class="st1" cx="46.35" cy="107.18" r="0.95"/>
		</g>
		<g>
			<circle class="st1" cx="44.1" cy="113.95" r="1.79"/>
			<circle class="st1" cx="44.12" cy="113.95" r="0.95"/>
		</g>
		<g>
			<circle class="st1" cx="46.19" cy="124.42" r="1.79"/>
			<circle class="st1" cx="46.2" cy="124.42" r="0.95"/>
		</g>
		<g>
			<rect x="3.86" y="235.72" class="st0" width="4.8" height="10.45"/>
			<path class="st4" d="M8.52,238.72v2.32c-0.38,0.84-0.96,1.22-2.25,1.22s-1.87-0.38-2.25-1.22v-2.32"/>
			<path class="st1" d="M4.56,231.26c0.54,0.54,0.62,3.35,0.62,4.46"/>
			<path class="st1" d="M7.99,231.26c-0.54,0.54-0.62,3.35-0.62,4.46"/>
			<path class="st0" d="M6.27,246.17H4.09c0,0,0-0.27,0-1.34s0.7-1.41,1.67-1.41v-4.32c-2-2.32-2.59-3.51-2.59-7.83h3.1h3.1
				c0,4.32-0.59,5.51-2.59,7.83v4.32c0.97,0,1.67,0.34,1.67,1.41s0,1.34,0,1.34H6.27z"/>
			<g>
				<path class="st0" d="M2.55,248.23L2.55,248.23c-0.72,0-1.31-0.59-1.31-1.31v-13.48c0-0.72,0.59-1.31,1.31-1.31l0,0
					c0.72,0,1.31,0.59,1.31,1.31v13.48C3.86,247.64,3.27,248.23,2.55,248.23z"/>
				<line class="st1" x1="1.81" y1="232.22" x2="1.81" y2="248.13"/>
				<line class="st1" x1="3.28" y1="248.13" x2="3.28" y2="232.22"/>
			</g>
			<g>
				<path class="st0" d="M9.97,248.23L9.97,248.23c-0.72,0-1.31-0.59-1.31-1.31v-13.48c0-0.72,0.59-1.31,1.31-1.31l0,0
					c0.72,0,1.31,0.59,1.31,1.31v13.48C11.28,247.64,10.69,248.23,9.97,248.23z"/>
				<line class="st1" x1="9.23" y1="232.22" x2="9.23" y2="248.13"/>
				<line class="st1" x1="10.7" y1="248.13" x2="10.7" y2="232.22"/>
			</g>
			<path class="st4" d="M6.27,238.72h3.57c-0.41-0.95-1.25-1.22-3.57-1.22s-3.17,0.27-3.57,1.22H6.27z"/>
		</g>
		<g>
			<rect x="56.71" y="235.72" class="st0" width="4.8" height="10.45"/>
			<path class="st4" d="M61.37,238.72v2.32c-0.38,0.84-0.96,1.22-2.25,1.22s-1.87-0.38-2.25-1.22v-2.32"/>
			<path class="st1" d="M57.41,231.26c0.54,0.54,0.62,3.35,0.62,4.46"/>
			<path class="st1" d="M60.84,231.26c-0.54,0.54-0.62,3.35-0.62,4.46"/>
			<path class="st0" d="M59.12,246.17h-2.18c0,0,0-0.27,0-1.34s0.7-1.41,1.67-1.41v-4.32c-2-2.32-2.59-3.51-2.59-7.83h3.1h3.1
				c0,4.32-0.59,5.51-2.59,7.83v4.32c0.97,0,1.67,0.34,1.67,1.41s0,1.34,0,1.34H59.12z"/>
			<g>
				<path class="st0" d="M55.4,248.23L55.4,248.23c-0.72,0-1.31-0.59-1.31-1.31v-13.48c0-0.72,0.59-1.31,1.31-1.31l0,0
					c0.72,0,1.31,0.59,1.31,1.31v13.48C56.71,247.64,56.12,248.23,55.4,248.23z"/>
				<line class="st1" x1="54.67" y1="232.22" x2="54.67" y2="248.13"/>
				<line class="st1" x1="56.14" y1="248.13" x2="56.14" y2="232.22"/>
			</g>
			<g>
				<path class="st0" d="M62.82,248.23L62.82,248.23c-0.72,0-1.31-0.59-1.31-1.31v-13.48c0-0.72,0.59-1.31,1.31-1.31l0,0
					c0.72,0,1.31,0.59,1.31,1.31v13.48C64.13,247.64,63.54,248.23,62.82,248.23z"/>
				<line class="st1" x1="62.09" y1="232.22" x2="62.09" y2="248.13"/>
				<line class="st1" x1="63.56" y1="248.13" x2="63.56" y2="232.22"/>
			</g>
			<path class="st4" d="M59.12,238.72h3.57c-0.41-0.95-1.25-1.22-3.57-1.22s-3.17,0.27-3.57,1.22H59.12z"/>
		</g>
		<g>
			<path class="st0" d="M59.04,82.23H6.3c-1.08,0-1.97-0.89-1.97-1.97V37.2c0-1.08,0.89-1.97,1.97-1.97h52.74
				c1.08,0,1.97,0.89,1.97,1.97v43.06C61.01,81.34,60.12,82.23,59.04,82.23z"/>
			<rect x="8.18" y="39.02" class="st3" width="49.16" height="39.16"/>
			<rect x="30.76" y="36" class="st1" width="3.89" height="2.05"/>
			<rect x="31.73" y="79.42" class="st1" width="2.92" height="1.84"/>
		</g>
	</g>
	<g class="st7">
		<g class="st8">
			<path class="st9" d="M324.2,235.67c-0.33,0-1.22-0.12-1.22,0.85s0,11.37,0,11.76s0.35,0.71,1.14,0.71c0.78,0,0.96-0.38,0.96-0.73
				s0-12.59,0-12.59H324.2z"/>
			<path class="st9" d="M329.86,235.68c0.33,0,1.22-0.12,1.22,0.85s0,11.37,0,11.76s-0.35,0.71-1.14,0.71s-0.96-0.38-0.96-0.73
				s0-12.59,0-12.59H329.86z"/>
			<path class="st9" d="M325.07,247.28c0.31-0.11,0.6-0.73,0.66-1.19s0.38-0.82,0.66-0.86v1.94l0.52,0.52l0.46-0.47v-2.05
				c0.35,0.21,0.73,0.47,0.86,1.18c0.07,0.4,0.32,0.79,0.75,1.04v-5.95h-3.92v5.84H325.07z"/>
			<rect x="325.6" y="232.07" class="st9" width="3.16" height="0.49"/>
			<rect x="323.75" y="231.67" class="st9" width="6.98" height="0.39"/>
			<g>
				<path class="st9" d="M325.28,232.55c-0.62,0-1.09,0.26-1.09,1.09s0,2.82,0,3.49s0.37,1.53,0.54,1.92
					c0.18,0.39,0.24,1.86,0.24,2.28c0,0.43,0.72,1.27,1.4,1.27s1.24,0,1.63,0c0.6,0,1.09-0.6,1.09-1.28s0.37-1.74,0.54-2.31
					c0.18-0.57,0.35-1.14,0.35-1.81s0-2.98,0-3.44s-0.11-1.21-0.75-1.21S326.25,232.55,325.28,232.55z"/>
				<path class="st10" d="M324.2,233.64c0.83,0.4,2.02,0.44,2.9,0.44s2.29-0.07,2.9-0.32"/>
			</g>
			<path class="st11" d="M321.97,249.16L321.97,249.16c-0.47,0-0.85-0.38-0.85-0.85v-10.93c0-0.47,0.38-0.85,0.85-0.85l0,0
				c0.47,0,0.85,0.38,0.85,0.85v10.93C322.82,248.78,322.44,249.16,321.97,249.16z"/>
			<path class="st11" d="M332.12,249.16L332.12,249.16c-0.47,0-0.85-0.38-0.85-0.85v-10.93c0-0.47,0.38-0.85,0.85-0.85l0,0
				c0.47,0,0.85,0.38,0.85,0.85v10.93C332.97,248.78,332.59,249.16,332.12,249.16z"/>
		</g>
		<g class="st8">
			<path class="st9" d="M332.44,230.49c0.43,0,0.45,0.05,0.45,0.28c0,0.24-0.01,0.19-0.01,0.4s0.09,0.33-0.22,0.33s-12.29,0-12.29,0
				c-0.41,0.17-0.59,0.8-0.59,1.28s0,5.86,0,6.67s-0.07,1.76-2.2,1.76s-25.21,0-25.21,0v-1.16c0,0,17.49,0,18.06,0
				c0.97,0,1.32-0.47,1.32-1.32c0-1.52,0-4.37,0-5.89c0-1.99,0.88-2.34,2.85-2.34C315.93,230.49,332.44,230.49,332.44,230.49z"/>
			<path class="st12" d="M320.36,231.51c0,0-4.93,0-5.88,0c-1.31,0-1.67,0.56-1.67,1.5c0,0.64,0,5.43,0,6.26s-0.28,1.94-2.39,1.94"
				/>
		</g>
		<g class="st8">
			<path class="st9" d="M252.29,230.49c-0.43,0-0.45,0.05-0.45,0.28c0,0.24,0.01,0.19,0.01,0.4s-0.09,0.33,0.22,0.33
				s12.29,0,12.29,0c0.41,0.17,0.59,0.8,0.59,1.28s0,5.86,0,6.67s0.07,1.76,2.2,1.76s25.21,0,25.21,0v-1.16c0,0-17.49,0-18.06,0
				c-0.97,0-1.32-0.47-1.32-1.32c0-1.52,0-4.37,0-5.89c0-1.99-0.88-2.34-2.85-2.34C268.8,230.49,252.29,230.49,252.29,230.49z"/>
			<path class="st12" d="M264.36,231.51c0,0,4.93,0,5.88,0c1.31,0,1.67,0.56,1.67,1.5c0,0.64,0,5.43,0,6.26s0.28,1.94,2.39,1.94"/>
		</g>
		<g class="st8">
			<path class="st9" d="M254.51,235.67c-0.33,0-1.22-0.12-1.22,0.85s0,11.37,0,11.76s0.35,0.71,1.14,0.71
				c0.78,0,0.96-0.38,0.96-0.73s0-12.59,0-12.59H254.51z"/>
			<path class="st9" d="M260.18,235.68c0.33,0,1.22-0.12,1.22,0.85s0,11.37,0,11.76s-0.35,0.71-1.14,0.71s-0.96-0.38-0.96-0.73
				s0-12.59,0-12.59H260.18z"/>
			<path class="st9" d="M255.39,247.28c0.31-0.11,0.6-0.73,0.66-1.19c0.06-0.46,0.38-0.82,0.66-0.86v1.94l0.52,0.52l0.46-0.47v-2.05
				c0.35,0.21,0.73,0.47,0.86,1.18c0.07,0.4,0.32,0.79,0.75,1.04v-5.95h-3.92v5.84H255.39z"/>
			<rect x="255.92" y="232.07" class="st9" width="3.16" height="0.49"/>
			<rect x="254.06" y="231.67" class="st9" width="6.98" height="0.39"/>
			<g>
				<path class="st9" d="M255.6,232.55c-0.62,0-1.09,0.26-1.09,1.09s0,2.82,0,3.49s0.37,1.53,0.54,1.92
					c0.18,0.39,0.24,1.86,0.24,2.28c0,0.43,0.72,1.27,1.4,1.27s1.24,0,1.63,0c0.6,0,1.09-0.6,1.09-1.28s0.37-1.74,0.54-2.31
					c0.18-0.57,0.35-1.14,0.35-1.81s0-2.98,0-3.44s-0.11-1.21-0.75-1.21S256.57,232.55,255.6,232.55z"/>
				<path class="st10" d="M254.51,233.64c0.83,0.4,2.02,0.44,2.9,0.44s2.29-0.07,2.9-0.32"/>
			</g>
			<path class="st11" d="M252.29,249.16L252.29,249.16c-0.47,0-0.85-0.38-0.85-0.85v-10.93c0-0.47,0.38-0.85,0.85-0.85l0,0
				c0.47,0,0.85,0.38,0.85,0.85v10.93C253.14,248.78,252.76,249.16,252.29,249.16z"/>
			<path class="st11" d="M262.44,249.16L262.44,249.16c-0.47,0-0.85-0.38-0.85-0.85v-10.93c0-0.47,0.38-0.85,0.85-0.85l0,0
				c0.47,0,0.85,0.38,0.85,0.85v10.93C263.29,248.78,262.91,249.16,262.44,249.16z"/>
		</g>
		<g class="st8">
			<path class="st11" d="M323.15,135.74h-61.89c-1.2,0-2.18,0.98-2.18,2.18v72.47c0,1.2,0.98,2.18,2.18,2.18c0,0,7.26,0,10.29,0
				c1.58,0,2.86,1,2.86,2.93c0,1.24,0,22.14,0,22.14c0,1.2,0.98,2.18,2.18,2.18h31.63c1.2,0,2.18-0.98,2.18-2.18c0,0,0-20.32,0-22.5
				c0-1.58,0.98-2.57,2.9-2.58c1.44,0,9.85,0,9.85,0c1.2,0,2.18-0.98,2.18-2.18v-72.47C325.33,136.72,324.35,135.74,323.15,135.74z"
				/>
			<path class="st9" d="M320.59,138.57h-56.76c-2.09,0-2,0-2,2v67.12c0,2,0,2,2,2c0,0,5.42,0,8.2,0c3.12,0,4.92,1.99,4.92,5.16
				c0,1.14,0,20.17,0,20.17c0,2,0,2,2,2h26.81c2,0,2,0,2-2c0,0,0-18.12,0-20.12c0-3.24,2.27-5.2,5.11-5.2c1.32,0,7.73,0,7.73,0
				c2,0,2-0.03,2-2v-67.12C322.58,138.57,322.58,138.57,320.59,138.57z"/>
			<line class="st10" x1="274.41" y1="230.93" x2="310.4" y2="230.93"/>
			<line class="st10" x1="259.08" y1="152.48" x2="325.33" y2="152.48"/>
			<g>
				<path class="st9" d="M325.33,164.12c0.47,0,0.73,0.43,0.73,0.87h-0.73V164.12z"/>
				<path class="st9" d="M325.33,169.76c0.47,0,0.73,0.43,0.73,0.87h-0.73V169.76z"/>
				<path class="st9" d="M325.33,175.41c0.47,0,0.73,0.43,0.73,0.87h-0.73V175.41z"/>
				<path class="st9" d="M325.33,181.06c0.47,0,0.73,0.43,0.73,0.87h-0.73V181.06z"/>
				<path class="st9" d="M325.33,186.7c0.47,0,0.73,0.43,0.73,0.87h-0.73V186.7z"/>
				<path class="st9" d="M325.33,192.35c0.47,0,0.73,0.43,0.73,0.87h-0.73V192.35z"/>
				<path class="st9" d="M325.33,198c0.47,0,0.73,0.43,0.73,0.87h-0.73V198z"/>
			</g>
			<g>
				<path class="st9" d="M259.08,164.34c-0.47,0-0.73,0.43-0.73,0.87h0.73V164.34z"/>
				<path class="st9" d="M259.08,169.99c-0.47,0-0.73,0.43-0.73,0.87h0.73V169.99z"/>
				<path class="st9" d="M259.08,175.64c-0.47,0-0.73,0.43-0.73,0.87h0.73V175.64z"/>
				<path class="st9" d="M259.08,181.28c-0.47,0-0.73,0.43-0.73,0.87h0.73V181.28z"/>
				<path class="st9" d="M259.08,186.93c-0.47,0-0.73,0.43-0.73,0.87h0.73V186.93z"/>
				<path class="st9" d="M259.08,192.58c-0.47,0-0.73,0.43-0.73,0.87h0.73V192.58z"/>
				<path class="st9" d="M259.08,198.23c-0.47,0-0.73,0.43-0.73,0.87h0.73V198.23z"/>
			</g>
			<path class="st9" d="M300.58,148.08L300.58,148.08c0-0.78,0.64-1.42,1.42-1.42h3.31c0.78,0,1.42,0.64,1.42,1.42l0,0
				c0,0.78-0.64,1.42-1.42,1.42H302C301.22,149.49,300.58,148.86,300.58,148.08z"/>
		</g>
		<rect x="286.34" y="128.34" class="st13" width="11.73" height="113.04"/>
		<line class="st14" x1="286.34" y1="214.08" x2="298.07" y2="214.08"/>
		<line class="st14" x1="286.34" y1="230.74" x2="298.07" y2="230.74"/>
		<g class="st8">
			<polygon class="st11" points="298.07,228.8 300.08,228.94 300.2,229.84 300.2,237.2 300.2,241.39 298.07,241.39 			"/>
			<line class="st10" x1="300.2" y1="229.84" x2="298.07" y2="230.01"/>
			<line class="st10" x1="300.2" y1="237.2" x2="298.07" y2="237.32"/>
		</g>
		<g class="st8">
			<polygon class="st11" points="286.34,228.8 284.33,228.94 284.21,229.84 284.21,237.2 284.21,241.39 286.34,241.39 			"/>
			<line class="st10" x1="284.21" y1="229.84" x2="286.34" y2="230.01"/>
			<line class="st10" x1="284.21" y1="237.2" x2="286.34" y2="237.32"/>
		</g>
		<circle class="st14" cx="289.92" cy="237.07" r="0.41"/>
		<circle class="st14" cx="295.23" cy="237.07" r="0.41"/>
		<g class="st8">
			<path class="st11" d="M299.09,140.91c0,0,30.66,0,31.73,0s1.85,0.43,1.85,1.21s-0.85,1.7-2.13,1.7c-0.71,0-4.97,0-4.97,0v-0.45
				H299.1v-2.46H299.09z"/>
			<line class="st15" x1="325.57" y1="143.37" x2="331.83" y2="143.37"/>
			<path class="st10" d="M299.09,141.55c0,0,31.11,0,31.77,0c0.66,0,1.21-0.01,1.72,0.16"/>
			<path class="st10" d="M299.09,142.78c0,0,31.11,0,31.77,0c0.66,0,1.21,0.01,1.72-0.16"/>
			<path class="st10" d="M330.82,140.91c0.3,0.21,0.33,0.5,0.35,0.64c0.04,0.21,0.09,1.02,0,1.24s-0.16,0.4-0.35,0.59"/>
			<rect x="298.26" y="133.41" class="st11" width="0.83" height="16.89"/>
		</g>
		<g class="st8">
			<path class="st11" d="M285.68,140.91c0,0-30.66,0-31.73,0s-1.85,0.43-1.85,1.21s0.85,1.7,2.13,1.7c0.71,0,4.97,0,4.97,0v-0.45
				h26.47v-2.46H285.68z"/>
			<line class="st15" x1="259.2" y1="143.37" x2="252.94" y2="143.37"/>
			<path class="st10" d="M285.68,141.55c0,0-31.11,0-31.77,0s-1.21-0.01-1.72,0.16"/>
			<path class="st10" d="M285.68,142.78c0,0-31.11,0-31.77,0s-1.21,0.01-1.72-0.16"/>
			<path class="st10" d="M253.95,140.91c-0.3,0.21-0.33,0.5-0.35,0.64c-0.04,0.21-0.09,1.02,0,1.24s0.16,0.4,0.35,0.59"/>
			<rect x="285.67" y="133.41" class="st11" width="0.83" height="16.89"/>
		</g>
		<path class="st13" d="M354.23,128.91h-124.9c-0.55,0-1-0.45-1-1V55.25c0-0.55,0.45-1,1-1h124.91c0.55,0,1,0.45,1,1v72.66
			C355.23,128.46,354.78,128.91,354.23,128.91z"/>
		<rect x="229.94" y="56.04" class="st16" width="123.6" height="69.65"/>
		<circle class="st14" cx="351.9" cy="127.37" r="0.31"/>
	</g>
	<g>
		<g>
			<g>
				<path class="st17" d="M343.97,233.2c-0.42,0-1.56-0.15-1.56,1.09s0,14.58,0,15.08s0.46,0.91,1.46,0.91s1.23-0.49,1.23-0.94
					s0-16.14,0-16.14H343.97z"/>
				<path class="st17" d="M351.23,233.21c0.42,0,1.56-0.15,1.56,1.09s0,14.58,0,15.08s-0.46,0.91-1.46,0.91s-1.23-0.49-1.23-0.94
					s0-16.14,0-16.14L351.23,233.21L351.23,233.21z"/>
				<path class="st17" d="M345.09,248.09c0.39-0.14,0.77-0.94,0.85-1.53c0.08-0.59,0.49-1.05,0.85-1.11v2.49l0.67,0.67l0.59-0.61
					v-2.62c0.46,0.27,0.94,0.61,1.11,1.52c0.09,0.51,0.41,1.02,0.96,1.34v-7.63h-5.02v7.48H345.09z"/>
				<rect x="345.77" y="228.57" class="st17" width="4.05" height="0.62"/>
				<rect x="343.39" y="228.07" class="st17" width="8.95" height="0.5"/>
				<g>
					<path class="st17" d="M345.36,229.2c-0.79,0-1.4,0.33-1.4,1.4s0,3.61,0,4.48c0,0.86,0.47,1.96,0.7,2.46s0.3,2.38,0.3,2.93
						s0.93,1.62,1.79,1.62c0.86,0,1.59,0,2.09,0c0.77,0,1.4-0.77,1.4-1.64c0-0.86,0.47-2.23,0.7-2.96c0.23-0.73,0.46-1.46,0.46-2.32
						c0-0.86,0-3.82,0-4.42s-0.14-1.55-0.96-1.55S346.61,229.2,345.36,229.2z"/>
					<path class="st18" d="M343.97,230.59c1.06,0.52,2.59,0.56,3.72,0.56c1.12,0,2.94-0.09,3.72-0.41"/>
				</g>
				<path class="st11" d="M341.11,250.5L341.11,250.5c-0.6,0-1.09-0.49-1.09-1.09v-14.02c0-0.6,0.49-1.09,1.09-1.09l0,0
					c0.6,0,1.09,0.49,1.09,1.09v14.02C342.21,250.01,341.71,250.5,341.11,250.5z"/>
				<path class="st11" d="M354.13,250.5L354.13,250.5c-0.6,0-1.09-0.49-1.09-1.09v-14.02c0-0.6,0.49-1.09,1.09-1.09l0,0
					c0.6,0,1.09,0.49,1.09,1.09v14.02C355.22,250.01,354.73,250.5,354.13,250.5z"/>
			</g>
			<g>
				<path class="st17" d="M354.54,226.56c0.55,0,0.58,0.06,0.58,0.36s-0.02,0.24-0.02,0.52c0,0.27,0.12,0.42-0.29,0.42
					s-15.77,0-15.77,0c-0.53,0.21-0.76,1.02-0.76,1.64c0,0.61,0,7.52,0,8.55s-0.09,2.25-2.82,2.25s-32.33,0-32.33,0v-1.49
					c0,0,22.44,0,23.17,0c1.24,0,1.7-0.61,1.7-1.7c0-1.95,0-5.61,0-7.56c0-2.55,1.12-3,3.66-3
					C333.36,226.56,354.54,226.56,354.54,226.56z"/>
				<path class="st19" d="M339.05,227.86c0,0-6.33,0-7.54,0c-1.68,0-2.14,0.71-2.14,1.93c0,0.82,0,6.96,0,8.03
					c0,1.06-0.36,2.49-3.07,2.49"/>
			</g>
			<g>
				<path class="st17" d="M251.73,226.56c-0.55,0-0.58,0.06-0.58,0.36s0.02,0.24,0.02,0.52c0,0.27-0.12,0.42,0.29,0.42
					s15.77,0,15.77,0c0.53,0.21,0.76,1.02,0.76,1.64c0,0.61,0,7.52,0,8.55s0.09,2.25,2.82,2.25s32.33,0,32.33,0v-1.49
					c0,0-22.44,0-23.17,0c-1.24,0-1.7-0.61-1.7-1.7c0-1.95,0-5.61,0-7.56c0-2.55-1.12-3-3.66-3
					C272.91,226.56,251.73,226.56,251.73,226.56z"/>
				<path class="st19" d="M267.22,227.86c0,0,6.33,0,7.54,0c1.68,0,2.14,0.71,2.14,1.93c0,0.82,0,6.96,0,8.03
					c0,1.06,0.36,2.49,3.07,2.49"/>
			</g>
			<g>
				<path class="st17" d="M254.59,233.2c-0.42,0-1.56-0.15-1.56,1.09s0,14.58,0,15.08s0.46,0.91,1.46,0.91s1.23-0.49,1.23-0.94
					s0-16.14,0-16.14H254.59z"/>
				<path class="st17" d="M261.85,233.21c0.42,0,1.56-0.15,1.56,1.09s0,14.58,0,15.08s-0.46,0.91-1.46,0.91s-1.23-0.49-1.23-0.94
					s0-16.14,0-16.14L261.85,233.21L261.85,233.21z"/>
				<path class="st17" d="M255.71,248.09c0.39-0.14,0.77-0.94,0.85-1.53c0.08-0.59,0.49-1.05,0.85-1.11v2.49l0.67,0.67l0.59-0.61
					v-2.62c0.46,0.27,0.94,0.61,1.11,1.52c0.09,0.51,0.41,1.02,0.96,1.34v-7.63h-5.02v7.48H255.71z"/>
				<rect x="256.39" y="228.57" class="st17" width="4.05" height="0.62"/>
				<rect x="254.01" y="228.07" class="st17" width="8.95" height="0.5"/>
				<g>
					<path class="st17" d="M255.98,229.2c-0.79,0-1.4,0.33-1.4,1.4s0,3.61,0,4.48c0,0.86,0.47,1.96,0.7,2.46s0.3,2.38,0.3,2.93
						s0.93,1.62,1.79,1.62s1.59,0,2.09,0c0.77,0,1.4-0.77,1.4-1.64c0-0.86,0.47-2.23,0.7-2.96c0.23-0.73,0.46-1.46,0.46-2.32
						c0-0.86,0-3.82,0-4.42s-0.14-1.55-0.96-1.55S257.23,229.2,255.98,229.2z"/>
					<path class="st18" d="M254.59,230.59c1.06,0.52,2.59,0.56,3.72,0.56s2.94-0.09,3.72-0.41"/>
				</g>
				<path class="st11" d="M251.73,250.5L251.73,250.5c-0.6,0-1.09-0.49-1.09-1.09v-14.02c0-0.6,0.49-1.09,1.09-1.09l0,0
					c0.6,0,1.09,0.49,1.09,1.09v14.02C252.83,250.01,252.34,250.5,251.73,250.5z"/>
				<path class="st11" d="M264.75,250.5L264.75,250.5c-0.6,0-1.09-0.49-1.09-1.09v-14.02c0-0.6,0.49-1.09,1.09-1.09l0,0
					c0.6,0,1.09,0.49,1.09,1.09v14.02C265.85,250.01,265.35,250.5,264.75,250.5z"/>
			</g>
			<g>
				<path class="st11" d="M342.62,105.03h-79.38c-1.54,0-2.79,1.26-2.79,2.79v92.95c0,1.54,1.26,2.79,2.79,2.79c0,0,9.31,0,13.2,0
					c2.03,0,3.67,1.28,3.67,3.76c0,1.59,0,28.4,0,28.4c0,1.54,1.26,2.79,2.79,2.79h40.57c1.54,0,2.79-1.26,2.79-2.79
					c0,0,0-26.06,0-28.86c0-2.03,1.26-3.3,3.72-3.31c1.84-0.01,12.63,0,12.63,0c1.54,0,2.79-1.26,2.79-2.79v-92.95
					C345.42,106.28,344.16,105.03,342.62,105.03z"/>
				<path class="st9" d="M339.34,108.66h-72.8c-2.68,0-2.56,0-2.56,2.56v86.09c0,2.56,0,2.56,2.56,2.56c0,0,6.95,0,10.52,0
					c4.01,0,6.31,2.55,6.31,6.61c0,1.46,0,25.87,0,25.87c0,2.56,0,2.56,2.56,2.56h34.39c2.56,0,2.56,0,2.56-2.56
					c0,0,0-23.24,0-25.81c0-4.16,2.91-6.68,6.55-6.68c1.69,0,9.91,0,9.91,0c2.56,0,2.56-0.03,2.56-2.56v-86.09
					C341.9,108.66,341.9,108.66,339.34,108.66z"/>
				<line class="st18" x1="280.11" y1="227.12" x2="326.27" y2="227.12"/>
				<line class="st10" x1="260.45" y1="126.49" x2="345.42" y2="126.49"/>
				<g>
					<path class="st17" d="M345.42,141.42c0.6,0,0.94,0.55,0.94,1.12h-0.94V141.42z"/>
					<path class="st17" d="M345.42,148.66c0.6,0,0.94,0.55,0.94,1.12h-0.94V148.66z"/>
					<path class="st17" d="M345.42,155.9c0.6,0,0.94,0.55,0.94,1.12h-0.94V155.9z"/>
					<path class="st17" d="M345.42,163.15c0.6,0,0.94,0.55,0.94,1.12h-0.94V163.15z"/>
					<path class="st17" d="M345.42,170.39c0.6,0,0.94,0.55,0.94,1.12h-0.94V170.39z"/>
					<path class="st17" d="M345.42,177.63c0.6,0,0.94,0.55,0.94,1.12h-0.94V177.63z"/>
					<path class="st17" d="M345.42,184.88c0.6,0,0.94,0.55,0.94,1.12h-0.94V184.88z"/>
				</g>
				<g>
					<path class="st17" d="M260.45,141.71c-0.6,0-0.94,0.55-0.94,1.12h0.94V141.71z"/>
					<path class="st17" d="M260.45,148.95c-0.6,0-0.94,0.55-0.94,1.12h0.94V148.95z"/>
					<path class="st17" d="M260.45,156.19c-0.6,0-0.94,0.55-0.94,1.12h0.94V156.19z"/>
					<path class="st17" d="M260.45,163.44c-0.6,0-0.94,0.55-0.94,1.12h0.94V163.44z"/>
					<path class="st17" d="M260.45,170.68c-0.6,0-0.94,0.55-0.94,1.12h0.94V170.68z"/>
					<path class="st17" d="M260.45,177.92c-0.6,0-0.94,0.55-0.94,1.12h0.94V177.92z"/>
					<path class="st17" d="M260.45,185.17c-0.6,0-0.94,0.55-0.94,1.12h0.94V185.17z"/>
				</g>
				<path class="st17" d="M321.57,120.84L321.57,120.84c0,1-0.82,1.82-1.82,1.82h-4.25c-1,0-1.82-0.82-1.82-1.82l0,0
					c0-1,0.82-1.82,1.82-1.82h4.25C320.75,119.02,321.57,119.84,321.57,120.84z"/>
			</g>
			<rect x="295.41" y="95.53" class="st11" width="15.05" height="145"/>
			<line class="st18" x1="295.41" y1="205.51" x2="310.46" y2="205.51"/>
			<line class="st18" x1="295.41" y1="226.87" x2="310.46" y2="226.87"/>
			<g>
				<polygon class="st11" points="310.46,224.39 313.04,224.57 313.19,225.72 313.19,235.16 313.19,240.53 310.46,240.53 				"/>
				<line class="st18" x1="313.19" y1="225.72" x2="310.46" y2="225.93"/>
				<line class="st18" x1="313.19" y1="235.16" x2="310.46" y2="235.31"/>
			</g>
			<g>
				<polygon class="st11" points="295.41,224.39 292.83,224.57 292.68,225.72 292.68,235.16 292.68,240.53 295.41,240.53 				"/>
				<line class="st18" x1="292.68" y1="225.72" x2="295.41" y2="225.93"/>
				<line class="st18" x1="292.68" y1="235.16" x2="295.41" y2="235.31"/>
			</g>
			<circle class="st18" cx="300" cy="234.99" r="0.53"/>
			<circle class="st18" cx="306.81" cy="234.99" r="0.53"/>
			<g>
				<path class="st11" d="M311.76,111.65c0,0,39.33,0,40.69,0s2.37,0.55,2.37,1.55s-1.09,2.18-2.73,2.18c-0.91,0-6.37,0-6.37,0
					v-0.58h-33.96V111.65z"/>
				<line class="st15" x1="345.72" y1="114.8" x2="353.76" y2="114.8"/>
				<path class="st10" d="M311.76,112.47c0,0,39.91,0,40.76,0s1.55-0.02,2.2,0.2"/>
				<path class="st10" d="M311.76,114.05c0,0,39.91,0,40.76,0s1.55,0.02,2.2-0.2"/>
				<path class="st10" d="M352.46,111.65c0.39,0.27,0.42,0.64,0.46,0.82c0.05,0.27,0.11,1.3,0,1.59c-0.11,0.28-0.2,0.52-0.46,0.75"
					/>
				<rect x="310.7" y="102.03" class="st11" width="1.06" height="21.67"/>
			</g>
			<g>
				<path class="st11" d="M294.56,111.65c0,0-39.33,0-40.69,0s-2.37,0.55-2.37,1.55s1.09,2.18,2.73,2.18c0.91,0,6.37,0,6.37,0v-0.58
					h33.96V111.65z"/>
				<line class="st15" x1="260.6" y1="114.8" x2="252.56" y2="114.8"/>
				<path class="st10" d="M294.56,112.47c0,0-39.91,0-40.76,0s-1.55-0.02-2.2,0.2"/>
				<path class="st10" d="M294.56,114.05c0,0-39.91,0-40.76,0s-1.55,0.02-2.2-0.2"/>
				<path class="st10" d="M253.87,111.65c-0.39,0.27-0.42,0.64-0.46,0.82c-0.05,0.27-0.11,1.3,0,1.59c0.11,0.28,0.2,0.52,0.46,0.75"
					/>
				<rect x="294.56" y="102.02" class="st11" width="1.06" height="21.67"/>
			</g>
			<path class="st11" d="M382.49,96.26H222.28c-0.71,0-1.28-0.58-1.28-1.28V1.78c0-0.71,0.58-1.28,1.28-1.28h160.21
				c0.71,0,1.28,0.58,1.28,1.28v93.2C383.78,95.69,383.2,96.26,382.49,96.26z"/>
			<rect x="223.06" y="2.79" class="st12" width="158.53" height="89.34"/>
			<circle class="st18" cx="379.5" cy="94.29" r="0.39"/>
		</g>
		<g>
			<rect x="331.64" y="119.15" class="st20" width="0.95" height="2.15"/>
			<rect x="333.24" y="119.15" class="st20" width="0.95" height="2.15"/>
			<g>
				<polygon class="st21" points="333.47,122.18 332.64,122.18 332.06,122.76 332.06,123.59 332.64,124.18 333.47,124.18 
					334.06,123.59 334.06,122.76 				"/>
				<circle class="st20" cx="333.03" cy="123.17" r="0.69"/>
			</g>
			<g>
				<g>
					<g>
						<g>
							<path class="st22" d="M334.43,125.55c0.04-0.04,0.08-0.12,0.08-0.18v-0.23c0-0.06-0.05-0.11-0.11-0.11h-2.73
								c-0.06,0-0.11,0.05-0.11,0.11v0.23c0,0.06,0.04,0.14,0.08,0.18l0.35,0.3c0.04,0.04,0.13,0.07,0.19,0.07h1.74
								c0.06,0,0.14-0.03,0.19-0.07L334.43,125.55z"/>
							<path class="st23" d="M334.43,125.55c0.04-0.04,0.08-0.12,0.08-0.18v-0.23c0-0.06-0.05-0.11-0.11-0.11h-2.73
								c-0.06,0-0.11,0.05-0.11,0.11v0.23c0,0.06,0.04,0.14,0.08,0.18l0.35,0.3c0.04,0.04,0.13,0.07,0.19,0.07h1.74
								c0.06,0,0.14-0.03,0.19-0.07L334.43,125.55z"/>
						</g>
					</g>
				</g>
				<rect x="331.98" y="125.35" class="st24" width="2.09" height="0.17"/>
				<rect x="332.13" y="125.33" class="st25" width="0.08" height="0.03"/>
				<rect x="332.32" y="125.33" class="st25" width="0.08" height="0.03"/>
				<rect x="332.51" y="125.33" class="st25" width="0.08" height="0.03"/>
				<rect x="332.71" y="125.33" class="st25" width="0.08" height="0.03"/>
				<rect x="332.9" y="125.33" class="st25" width="0.08" height="0.03"/>
				<rect x="333.09" y="125.33" class="st25" width="0.08" height="0.03"/>
				<rect x="333.28" y="125.33" class="st25" width="0.08" height="0.03"/>
				<rect x="333.47" y="125.33" class="st25" width="0.08" height="0.03"/>
				<rect x="333.66" y="125.33" class="st25" width="0.08" height="0.03"/>
				<rect x="333.85" y="125.33" class="st25" width="0.08" height="0.03"/>
				<rect x="333.76" y="125.5" class="st26" width="0.09" height="0.04"/>
				<rect x="333.57" y="125.5" class="st26" width="0.09" height="0.04"/>
				<rect x="333.38" y="125.5" class="st26" width="0.09" height="0.04"/>
				<rect x="333.19" y="125.5" class="st26" width="0.09" height="0.04"/>
				<rect x="333" y="125.5" class="st26" width="0.09" height="0.04"/>
				<rect x="332.8" y="125.5" class="st26" width="0.09" height="0.04"/>
				<rect x="332.61" y="125.5" class="st26" width="0.09" height="0.04"/>
				<rect x="332.42" y="125.5" class="st26" width="0.09" height="0.04"/>
				<rect x="332.22" y="125.5" class="st26" width="0.09" height="0.04"/>
			</g>
		</g>
	</g>
</g>
<g id="Layer_2_1_">
	<g>
		<path class="st27" d="M64.99,149.56c0.98,0.61,1.64,1.7,1.64,2.94c0,1.23-0.65,2.31-1.62,2.92"/>
		<path class="st28" d="M68.77,159.45c1.99-1.66,3.26-4.16,3.26-6.96c0-2.81-1.28-5.31-3.27-6.97"/>
		<path class="st29" d="M72.53,163.48c3-2.71,4.89-6.63,4.89-10.99c0-4.37-1.9-8.29-4.9-11"/>
		<path class="st30" d="M76.28,167.5c4.02-3.75,6.53-9.1,6.53-15.03s-2.51-11.27-6.53-15.03"/>
	</g>
	<line class="st31" x1="93.35" y1="152.13" x2="219.67" y2="152.13"/>
	<g>
		<path class="st27" d="M246.15,155.41c-0.98-0.61-1.64-1.7-1.64-2.94c0-1.23,0.65-2.31,1.62-2.92"/>
		<path class="st28" d="M242.37,145.52c-1.99,1.66-3.26,4.16-3.26,6.96c0,2.81,1.28,5.31,3.27,6.97"/>
		<path class="st29" d="M238.61,141.49c-3,2.71-4.89,6.63-4.89,10.99c0,4.37,1.9,8.29,4.9,11"/>
		<path class="st30" d="M234.86,137.46c-4.02,3.75-6.53,9.1-6.53,15.03s2.51,11.27,6.53,15.03"/>
	</g>
	<polygon class="st32" points="163.99,152.49 149.03,145.3 149.03,159.68 	"/>
</g>
</svg>
