<?xml version="1.0" encoding="utf-8"?>
<!-- Generator: Adobe Illustrator 24.0.3, SVG Export Plug-In . SVG Version: 6.00 Build 0)  -->
<svg version="1.1" id="Layer_1" xmlns="http://www.w3.org/2000/svg" xmlns:xlink="http://www.w3.org/1999/xlink" x="0px" y="0px"
	 viewBox="0 0 407.97 251" style="enable-background:new 0 0 407.97 251;" xml:space="preserve">
<style type="text/css">
	.st0{display:none;}
	.st1{display:inline;}
	.st2{fill:#FFFFFF;stroke:#000000;stroke-width:0.5;stroke-linecap:round;stroke-linejoin:round;stroke-miterlimit:10;}
	.st3{fill:none;stroke:#000000;stroke-width:0.25;stroke-linecap:round;stroke-linejoin:round;stroke-miterlimit:10;}
	.st4{fill:#FFFFFF;stroke:#000000;stroke-linecap:round;stroke-linejoin:round;stroke-miterlimit:10;}
	.st5{fill:none;stroke:#000000;stroke-width:0.5;stroke-linecap:round;stroke-linejoin:round;stroke-miterlimit:10;}
	.st6{display:inline;fill:#FFFFFF;stroke:#000000;stroke-linecap:round;stroke-linejoin:round;stroke-miterlimit:10;}
	
		.st7{display:inline;fill:none;stroke:#000000;stroke-width:0.25;stroke-linecap:round;stroke-linejoin:round;stroke-miterlimit:10;}
	.st8{fill:none;stroke:#000000;stroke-linecap:round;stroke-linejoin:round;stroke-miterlimit:10;}
	.st9{display:inline;fill:none;stroke:#000000;stroke-linecap:round;stroke-linejoin:round;stroke-miterlimit:10;}
	.st10{fill:#FFFFFF;stroke:#000000;stroke-width:0.6413;stroke-linecap:round;stroke-linejoin:round;stroke-miterlimit:10;}
	.st11{fill:none;stroke:#000000;stroke-width:0.3207;stroke-linecap:round;stroke-linejoin:round;stroke-miterlimit:10;}
	.st12{fill:none;stroke:#000000;stroke-width:0.6413;stroke-linecap:round;stroke-linejoin:round;stroke-miterlimit:10;}
	.st13{fill:#FFFFFF;stroke:#000000;stroke-width:0.25;stroke-linecap:round;stroke-linejoin:round;stroke-miterlimit:10;}
	.st14{fill:#FFFFFF;stroke:#000000;stroke-width:0.1378;stroke-linecap:round;stroke-linejoin:round;stroke-miterlimit:10;}
	.st15{fill:#FFFFFF;}
	.st16{fill:none;stroke:#010101;stroke-width:0.0533;stroke-linecap:round;stroke-linejoin:round;stroke-miterlimit:10;}
	.st17{fill:#010101;}
	.st18{fill:#FFFFFF;stroke:#010101;stroke-width:8.683735e-03;stroke-miterlimit:10;}
	.st19{fill:#FFFFFF;stroke:#010101;stroke-width:9.609092e-03;stroke-miterlimit:10;}
	.st20{fill:none;stroke:#000000;stroke-miterlimit:10;}
	.st21{fill:none;stroke:#000000;stroke-width:0.25;stroke-miterlimit:10;}
	.st22{fill:#FFFFFF;stroke:#010101;stroke-width:0.2732;stroke-linecap:round;stroke-linejoin:round;stroke-miterlimit:10;}
	.st23{fill:none;stroke:#010101;stroke-width:0.1366;stroke-linecap:round;stroke-linejoin:round;stroke-miterlimit:10;}
	.st24{fill:#FFFFFF;stroke:#010101;stroke-width:0.1366;stroke-linecap:round;stroke-linejoin:round;stroke-miterlimit:10;}
	.st25{fill:#FFFFFF;stroke:#010101;stroke-width:0.2732;stroke-miterlimit:10;}
	.st26{fill:#FFFFFF;stroke:#010101;stroke-miterlimit:10;}
	.st27{fill:none;stroke:#010101;stroke-width:0.1366;stroke-miterlimit:10;}
	.st28{fill:none;stroke:#010101;stroke-width:0.0655;stroke-linecap:round;stroke-linejoin:round;stroke-miterlimit:10;}
	.st29{fill:#FFFFFF;stroke:#010101;stroke-width:0.0107;stroke-miterlimit:10;}
	.st30{fill:#FFFFFF;stroke:#010101;stroke-width:0.0118;stroke-miterlimit:10;}
	.st31{fill:none;stroke:#010101;stroke-width:0.2732;stroke-linecap:round;stroke-linejoin:round;stroke-miterlimit:10;}
	.st32{fill:#FFFFFF;stroke:#010101;stroke-width:0.5463;stroke-miterlimit:10;}
	.st33{fill:none;stroke:#010101;stroke-miterlimit:10;}
	.st34{fill:none;stroke:#010101;stroke-width:0.5463;stroke-miterlimit:10;}
	.st35{fill:none;stroke:#010101;stroke-width:0.2732;stroke-miterlimit:10;}
	.st36{fill:#FFFFFF;stroke:#010101;stroke-width:0.5;stroke-miterlimit:10;}
	.st37{fill:#FFFFFF;stroke:#010101;stroke-width:0.2733;stroke-linecap:round;stroke-linejoin:round;stroke-miterlimit:10;}
	.st38{fill:#FFFFFF;stroke:#010101;stroke-width:0.2733;stroke-miterlimit:10;}
	.st39{fill:none;stroke:#010101;stroke-width:0.0656;stroke-linecap:round;stroke-linejoin:round;stroke-miterlimit:10;}
	.st40{fill:none;stroke:#010101;stroke-width:0.2733;stroke-linecap:round;stroke-linejoin:round;stroke-miterlimit:10;}
	.st41{fill:#FFFFFF;stroke:#000000;stroke-width:0.5466;stroke-miterlimit:10;}
	.st42{fill:none;stroke:#000000;stroke-width:0.1366;stroke-miterlimit:10;}
	.st43{fill:none;stroke:#000000;stroke-width:0.2733;stroke-miterlimit:10;}
	.st44{fill:none;stroke:#000000;stroke-width:0.2733;stroke-linecap:round;stroke-linejoin:round;stroke-miterlimit:10;}
	.st45{fill:#FFFFFF;stroke:#000000;stroke-width:0.2733;stroke-linecap:round;stroke-linejoin:round;stroke-miterlimit:10;}
	.st46{fill:none;stroke:#010101;stroke-width:0.2733;stroke-miterlimit:10;}
	.st47{fill:#FFFFFF;stroke:#000000;stroke-width:0.2733;stroke-miterlimit:10;}
	.st48{fill:#FFFFFF;stroke:#010101;stroke-width:0.5466;stroke-miterlimit:10;}
	.st49{fill:none;stroke:#010101;stroke-width:0.5466;stroke-miterlimit:10;}
	.st50{fill:none;stroke:#FFFFFF;stroke-width:6;stroke-linecap:round;stroke-linejoin:round;stroke-miterlimit:10;}
	.st51{fill:none;stroke:#007481;stroke-width:3;stroke-linecap:round;stroke-linejoin:round;stroke-miterlimit:10;}
	.st52{fill:#007481;}
</style>
<g id="Layer_1_1_">
	<g class="st0">
		<g class="st1">
			<path class="st2" d="M357.88,235.48c-0.33,0-1.22-0.12-1.22,0.85s0,11.37,0,11.76s0.35,0.71,1.14,0.71s0.96-0.38,0.96-0.73
				s0-12.59,0-12.59H357.88z"/>
			<path class="st2" d="M363.54,235.48c0.33,0,1.22-0.12,1.22,0.85s0,11.37,0,11.76s-0.35,0.71-1.14,0.71
				c-0.78,0-0.96-0.38-0.96-0.73s0-12.59,0-12.59H363.54z"/>
			<path class="st2" d="M358.75,247.08c0.31-0.11,0.6-0.73,0.66-1.19s0.38-0.82,0.66-0.86v1.94l0.52,0.52l0.46-0.47v-2.05
				c0.35,0.21,0.73,0.47,0.86,1.18c0.07,0.4,0.32,0.79,0.75,1.04v-5.95h-3.92v5.84H358.75z"/>
			<rect x="359.28" y="231.87" class="st2" width="3.16" height="0.49"/>
			<rect x="357.43" y="231.48" class="st2" width="6.98" height="0.39"/>
			<g>
				<path class="st2" d="M358.96,232.35c-0.62,0-1.09,0.26-1.09,1.09s0,2.82,0,3.49s0.37,1.53,0.54,1.92
					c0.18,0.39,0.24,1.86,0.24,2.28s0.72,1.27,1.4,1.27s1.24,0,1.63,0c0.6,0,1.09-0.6,1.09-1.28s0.37-1.74,0.54-2.31
					c0.18-0.57,0.35-1.14,0.35-1.81s0-2.98,0-3.44s-0.11-1.21-0.75-1.21S359.93,232.35,358.96,232.35z"/>
				<path class="st3" d="M357.88,233.44c0.83,0.4,2.02,0.44,2.9,0.44s2.29-0.07,2.9-0.32"/>
			</g>
			<path class="st4" d="M355.65,248.96L355.65,248.96c-0.47,0-0.85-0.38-0.85-0.85v-10.93c0-0.47,0.38-0.85,0.85-0.85l0,0
				c0.47,0,0.85,0.38,0.85,0.85v10.93C356.5,248.58,356.12,248.96,355.65,248.96z"/>
			<path class="st4" d="M365.8,248.96L365.8,248.96c-0.47,0-0.85-0.38-0.85-0.85v-10.93c0-0.47,0.38-0.85,0.85-0.85l0,0
				c0.47,0,0.85,0.38,0.85,0.85v10.93C366.65,248.58,366.27,248.96,365.8,248.96z"/>
		</g>
		<g class="st1">
			<path class="st2" d="M366.12,230.29c0.43,0,0.45,0.05,0.45,0.28c0,0.24-0.01,0.19-0.01,0.4s0.09,0.33-0.22,0.33s-12.29,0-12.29,0
				c-0.41,0.17-0.59,0.8-0.59,1.28s0,5.86,0,6.67s-0.07,1.76-2.2,1.76s-25.21,0-25.21,0v-1.16c0,0,17.49,0,18.06,0
				c0.97,0,1.32-0.47,1.32-1.32c0-1.52,0-4.37,0-5.89c0-1.99,0.88-2.34,2.85-2.34C349.61,230.29,366.12,230.29,366.12,230.29z"/>
			<path class="st5" d="M354.04,231.31c0,0-4.93,0-5.88,0c-1.31,0-1.67,0.56-1.67,1.5c0,0.64,0,5.43,0,6.26
				c0,0.83-0.28,1.94-2.39,1.94"/>
		</g>
		<g class="st1">
			<path class="st2" d="M285.97,230.29c-0.43,0-0.45,0.05-0.45,0.28c0,0.24,0.01,0.19,0.01,0.4s-0.09,0.33,0.22,0.33
				s12.29,0,12.29,0c0.41,0.17,0.59,0.8,0.59,1.28s0,5.86,0,6.67s0.07,1.76,2.2,1.76s25.21,0,25.21,0v-1.16c0,0-17.49,0-18.06,0
				c-0.97,0-1.32-0.47-1.32-1.32c0-1.52,0-4.37,0-5.89c0-1.99-0.88-2.34-2.85-2.34C302.48,230.29,285.97,230.29,285.97,230.29z"/>
			<path class="st5" d="M298.04,231.31c0,0,4.93,0,5.88,0c1.31,0,1.67,0.56,1.67,1.5c0,0.64,0,5.43,0,6.26
				c0,0.83,0.28,1.94,2.39,1.94"/>
		</g>
		<g class="st1">
			<path class="st2" d="M288.19,235.48c-0.33,0-1.22-0.12-1.22,0.85s0,11.37,0,11.76s0.35,0.71,1.14,0.71
				c0.78,0,0.96-0.38,0.96-0.73s0-12.59,0-12.59H288.19z"/>
			<path class="st2" d="M293.86,235.48c0.33,0,1.22-0.12,1.22,0.85s0,11.37,0,11.76s-0.35,0.71-1.14,0.71s-0.96-0.38-0.96-0.73
				s0-12.59,0-12.59H293.86z"/>
			<path class="st2" d="M289.07,247.08c0.31-0.11,0.6-0.73,0.66-1.19s0.38-0.82,0.66-0.86v1.94l0.52,0.52l0.46-0.47v-2.05
				c0.35,0.21,0.73,0.47,0.86,1.18c0.07,0.4,0.32,0.79,0.75,1.04v-5.95h-3.92v5.84H289.07z"/>
			<rect x="289.6" y="231.87" class="st2" width="3.16" height="0.49"/>
			<rect x="287.74" y="231.48" class="st2" width="6.98" height="0.39"/>
			<g>
				<path class="st2" d="M289.28,232.35c-0.62,0-1.09,0.26-1.09,1.09s0,2.82,0,3.49s0.37,1.53,0.54,1.92
					c0.18,0.39,0.24,1.86,0.24,2.28s0.72,1.27,1.4,1.27s1.24,0,1.63,0c0.6,0,1.09-0.6,1.09-1.28s0.37-1.74,0.54-2.31
					c0.18-0.57,0.35-1.14,0.35-1.81s0-2.98,0-3.44s-0.11-1.21-0.75-1.21S290.25,232.35,289.28,232.35z"/>
				<path class="st3" d="M288.19,233.44c0.83,0.4,2.02,0.44,2.9,0.44s2.29-0.07,2.9-0.32"/>
			</g>
			<path class="st4" d="M285.97,248.96L285.97,248.96c-0.47,0-0.85-0.38-0.85-0.85v-10.93c0-0.47,0.38-0.85,0.85-0.85l0,0
				c0.47,0,0.85,0.38,0.85,0.85v10.93C286.82,248.58,286.44,248.96,285.97,248.96z"/>
			<path class="st4" d="M296.12,248.96L296.12,248.96c-0.47,0-0.85-0.38-0.85-0.85v-10.93c0-0.47,0.38-0.85,0.85-0.85l0,0
				c0.47,0,0.85,0.38,0.85,0.85v10.93C296.97,248.58,296.59,248.96,296.12,248.96z"/>
		</g>
		<g class="st1">
			<path class="st4" d="M356.83,135.55h-61.89c-1.2,0-2.18,0.98-2.18,2.18v72.47c0,1.2,0.98,2.18,2.18,2.18c0,0,7.26,0,10.29,0
				c1.58,0,2.86,1,2.86,2.93c0,1.24,0,22.14,0,22.14c0,1.2,0.98,2.18,2.18,2.18h31.63c1.2,0,2.18-0.98,2.18-2.18c0,0,0-20.32,0-22.5
				c0-1.58,0.98-2.57,2.9-2.58c1.44,0,9.85,0,9.85,0c1.2,0,2.18-0.98,2.18-2.18v-72.47C359.01,136.53,358.03,135.55,356.83,135.55z"
				/>
			<path class="st2" d="M354.27,138.38h-56.76c-2.09,0-2,0-2,2v67.12c0,2,0,2,2,2c0,0,5.42,0,8.2,0c3.12,0,4.92,1.99,4.92,5.16
				c0,1.14,0,20.17,0,20.17c0,2,0,2,2,2h26.81c2,0,2,0,2-2c0,0,0-18.12,0-20.12c0-3.24,2.27-5.2,5.11-5.2c1.32,0,7.73,0,7.73,0
				c2,0,2-0.03,2-2v-67.12C356.26,138.38,356.26,138.38,354.27,138.38z"/>
			<line class="st3" x1="308.09" y1="230.73" x2="344.08" y2="230.73"/>
			<line class="st3" x1="292.76" y1="152.28" x2="359.01" y2="152.28"/>
			<g>
				<path class="st2" d="M359.01,163.92c0.47,0,0.73,0.43,0.73,0.87h-0.73V163.92z"/>
				<path class="st2" d="M359.01,169.57c0.47,0,0.73,0.43,0.73,0.87h-0.73V169.57z"/>
				<path class="st2" d="M359.01,175.21c0.47,0,0.73,0.43,0.73,0.87h-0.73V175.21z"/>
				<path class="st2" d="M359.01,180.86c0.47,0,0.73,0.43,0.73,0.87h-0.73V180.86z"/>
				<path class="st2" d="M359.01,186.51c0.47,0,0.73,0.43,0.73,0.87h-0.73V186.51z"/>
				<path class="st2" d="M359.01,192.15c0.47,0,0.73,0.43,0.73,0.87h-0.73V192.15z"/>
				<path class="st2" d="M359.01,197.8c0.47,0,0.73,0.43,0.73,0.87h-0.73V197.8z"/>
			</g>
			<g>
				<path class="st2" d="M292.76,164.15c-0.47,0-0.73,0.43-0.73,0.87h0.73V164.15z"/>
				<path class="st2" d="M292.76,169.79c-0.47,0-0.73,0.43-0.73,0.87h0.73V169.79z"/>
				<path class="st2" d="M292.76,175.44c-0.47,0-0.73,0.43-0.73,0.87h0.73V175.44z"/>
				<path class="st2" d="M292.76,181.09c-0.47,0-0.73,0.43-0.73,0.87h0.73V181.09z"/>
				<path class="st2" d="M292.76,186.73c-0.47,0-0.73,0.43-0.73,0.87h0.73V186.73z"/>
				<path class="st2" d="M292.76,192.38c-0.47,0-0.73,0.43-0.73,0.87h0.73V192.38z"/>
				<path class="st2" d="M292.76,198.03c-0.47,0-0.73,0.43-0.73,0.87h0.73V198.03z"/>
			</g>
			<path class="st2" d="M337.34,150.95L337.34,150.95c-0.78,0-1.42-0.64-1.42-1.42v-3.31c0-0.78,0.64-1.42,1.42-1.42l0,0
				c0.78,0,1.42,0.64,1.42,1.42v3.31C338.76,150.31,338.12,150.95,337.34,150.95z"/>
		</g>
		<rect x="320.02" y="128.15" class="st6" width="11.73" height="113.04"/>
		<line class="st7" x1="320.02" y1="213.89" x2="331.75" y2="213.89"/>
		<line class="st7" x1="320.02" y1="230.54" x2="331.75" y2="230.54"/>
		<g class="st1">
			<polygon class="st4" points="331.75,228.6 333.76,228.75 333.88,229.64 333.88,237 333.88,241.19 331.75,241.19 			"/>
			<line class="st3" x1="333.88" y1="229.64" x2="331.75" y2="229.81"/>
			<line class="st3" x1="333.88" y1="237" x2="331.75" y2="237.12"/>
		</g>
		<g class="st1">
			<polygon class="st4" points="320.02,228.6 318.01,228.75 317.89,229.64 317.89,237 317.89,241.19 320.02,241.19 			"/>
			<line class="st3" x1="317.89" y1="229.64" x2="320.02" y2="229.81"/>
			<line class="st3" x1="317.89" y1="237" x2="320.02" y2="237.12"/>
		</g>
		<circle class="st7" cx="323.6" cy="236.87" r="0.41"/>
		<circle class="st7" cx="328.91" cy="236.87" r="0.41"/>
		<g class="st1">
			<path class="st4" d="M332.77,140.71c0,0,30.66,0,31.73,0s1.85,0.43,1.85,1.21s-0.85,1.7-2.13,1.7c-0.71,0-4.97,0-4.97,0v-0.45
				h-26.47v-2.46H332.77z"/>
			<line class="st8" x1="359.24" y1="143.17" x2="365.51" y2="143.17"/>
			<path class="st3" d="M332.77,141.35c0,0,31.11,0,31.77,0s1.21-0.01,1.72,0.16"/>
			<path class="st3" d="M332.77,142.58c0,0,31.11,0,31.77,0s1.21,0.01,1.72-0.16"/>
			<path class="st3" d="M364.5,140.71c0.3,0.21,0.33,0.5,0.35,0.64c0.04,0.21,0.09,1.02,0,1.24s-0.16,0.4-0.35,0.59"/>
			<rect x="331.94" y="133.21" class="st4" width="0.83" height="16.89"/>
		</g>
		<g class="st1">
			<path class="st4" d="M319.36,140.71c0,0-30.66,0-31.73,0c-1.06,0-1.85,0.43-1.85,1.21s0.85,1.7,2.13,1.7c0.71,0,4.97,0,4.97,0
				v-0.45h26.47v-2.46H319.36z"/>
			<line class="st8" x1="292.88" y1="143.17" x2="286.62" y2="143.17"/>
			<path class="st3" d="M319.36,141.35c0,0-31.11,0-31.77,0s-1.21-0.01-1.72,0.16"/>
			<path class="st3" d="M319.36,142.58c0,0-31.11,0-31.77,0s-1.21,0.01-1.72-0.16"/>
			<path class="st3" d="M287.63,140.71c-0.3,0.21-0.33,0.5-0.35,0.64c-0.04,0.21-0.09,1.02,0,1.24s0.16,0.4,0.35,0.59"/>
			<rect x="319.36" y="133.21" class="st4" width="0.83" height="16.89"/>
		</g>
		<path class="st6" d="M387.91,128.71h-124.9c-0.55,0-1-0.45-1-1V55.05c0-0.55,0.45-1,1-1h124.91c0.55,0,1,0.45,1,1v72.66
			C388.91,128.26,388.46,128.71,387.91,128.71z"/>
		<rect x="263.61" y="55.84" class="st9" width="123.6" height="69.65"/>
		<circle class="st7" cx="385.58" cy="127.18" r="0.31"/>
	</g>
	<g>
		<g>
			<g>
				<path class="st10" d="M367.67,233.2c-0.42,0-1.56-0.15-1.56,1.09s0,14.58,0,15.08s0.46,0.91,1.46,0.91s1.23-0.49,1.23-0.94
					s0-16.14,0-16.14L367.67,233.2L367.67,233.2z"/>
				<path class="st10" d="M374.93,233.2c0.42,0,1.56-0.15,1.56,1.09s0,14.58,0,15.08s-0.46,0.91-1.46,0.91s-1.23-0.49-1.23-0.94
					s0-16.14,0-16.14L374.93,233.2L374.93,233.2z"/>
				<path class="st10" d="M368.79,248.08c0.39-0.14,0.77-0.94,0.85-1.53c0.08-0.59,0.49-1.05,0.85-1.11v2.49l0.67,0.67l0.59-0.61
					v-2.62c0.46,0.27,0.94,0.61,1.11,1.52c0.09,0.51,0.41,1.02,0.96,1.34v-7.63h-5.02v7.48H368.79z"/>
				<rect x="369.47" y="228.57" class="st10" width="4.05" height="0.62"/>
				<rect x="367.09" y="228.07" class="st10" width="8.95" height="0.5"/>
				<g>
					<path class="st10" d="M369.06,229.19c-0.79,0-1.4,0.33-1.4,1.4c0,1.06,0,3.61,0,4.48s0.47,1.96,0.7,2.46s0.3,2.38,0.3,2.93
						s0.93,1.62,1.79,1.62c0.86,0,1.59,0,2.09,0c0.77,0,1.4-0.77,1.4-1.64c0-0.86,0.47-2.23,0.7-2.96c0.23-0.73,0.46-1.46,0.46-2.32
						c0-0.86,0-3.82,0-4.42c0-0.59-0.14-1.55-0.96-1.55C373.33,229.19,370.31,229.19,369.06,229.19z"/>
					<path class="st11" d="M367.67,230.59c1.06,0.52,2.59,0.56,3.72,0.56c1.12,0,2.94-0.09,3.72-0.41"/>
				</g>
				<path class="st4" d="M364.81,250.5L364.81,250.5c-0.6,0-1.09-0.49-1.09-1.09v-14.02c0-0.6,0.49-1.09,1.09-1.09l0,0
					c0.6,0,1.09,0.49,1.09,1.09v14.02C365.91,250,365.41,250.5,364.81,250.5z"/>
				<path class="st4" d="M377.83,250.5L377.83,250.5c-0.6,0-1.09-0.49-1.09-1.09v-14.02c0-0.6,0.49-1.09,1.09-1.09l0,0
					c0.6,0,1.09,0.49,1.09,1.09v14.02C378.92,250,378.43,250.5,377.83,250.5z"/>
			</g>
			<g>
				<path class="st10" d="M378.24,226.55c0.55,0,0.58,0.06,0.58,0.36s-0.02,0.24-0.02,0.52c0,0.27,0.12,0.42-0.29,0.42
					s-15.77,0-15.77,0c-0.53,0.21-0.76,1.02-0.76,1.64c0,0.61,0,7.52,0,8.55s-0.09,2.25-2.82,2.25s-32.33,0-32.33,0v-1.49
					c0,0,22.44,0,23.17,0c1.24,0,1.7-0.61,1.7-1.7c0-1.95,0-5.61,0-7.56c0-2.55,1.12-3,3.66-3
					C357.06,226.55,378.24,226.55,378.24,226.55z"/>
				<path class="st12" d="M362.75,227.86c0,0-6.33,0-7.54,0c-1.68,0-2.14,0.71-2.14,1.93c0,0.82,0,6.96,0,8.03s-0.36,2.49-3.07,2.49
					"/>
			</g>
			<g>
				<path class="st10" d="M275.43,226.55c-0.55,0-0.58,0.06-0.58,0.36s0.02,0.24,0.02,0.52c0,0.27-0.12,0.42,0.29,0.42
					s15.77,0,15.77,0c0.53,0.21,0.76,1.02,0.76,1.64c0,0.61,0,7.52,0,8.55s0.09,2.25,2.82,2.25s32.33,0,32.33,0v-1.49
					c0,0-22.44,0-23.17,0c-1.24,0-1.7-0.61-1.7-1.7c0-1.95,0-5.61,0-7.56c0-2.55-1.12-3-3.66-3
					C296.61,226.55,275.43,226.55,275.43,226.55z"/>
				<path class="st12" d="M290.92,227.86c0,0,6.33,0,7.54,0c1.68,0,2.14,0.71,2.14,1.93c0,0.82,0,6.96,0,8.03s0.36,2.49,3.07,2.49"
					/>
			</g>
			<g>
				<path class="st10" d="M278.29,233.2c-0.42,0-1.56-0.15-1.56,1.09s0,14.58,0,15.08s0.46,0.91,1.46,0.91s1.23-0.49,1.23-0.94
					s0-16.14,0-16.14L278.29,233.2L278.29,233.2z"/>
				<path class="st10" d="M285.56,233.2c0.42,0,1.56-0.15,1.56,1.09s0,14.58,0,15.08s-0.46,0.91-1.46,0.91s-1.23-0.49-1.23-0.94
					s0-16.14,0-16.14L285.56,233.2L285.56,233.2z"/>
				<path class="st10" d="M279.41,248.08c0.39-0.14,0.77-0.94,0.85-1.53c0.08-0.59,0.49-1.05,0.85-1.11v2.49l0.67,0.67l0.59-0.61
					v-2.62c0.46,0.27,0.94,0.61,1.11,1.52c0.09,0.51,0.41,1.02,0.96,1.34v-7.63h-5.02v7.48H279.41z"/>
				<rect x="280.09" y="228.57" class="st10" width="4.05" height="0.62"/>
				<rect x="277.71" y="228.07" class="st10" width="8.95" height="0.5"/>
				<g>
					<path class="st10" d="M279.68,229.19c-0.79,0-1.4,0.33-1.4,1.4c0,1.06,0,3.61,0,4.48s0.47,1.96,0.7,2.46s0.3,2.38,0.3,2.93
						s0.93,1.62,1.79,1.62c0.86,0,1.59,0,2.09,0c0.77,0,1.4-0.77,1.4-1.64c0-0.86,0.47-2.23,0.7-2.96c0.23-0.73,0.46-1.46,0.46-2.32
						c0-0.86,0-3.82,0-4.42c0-0.59-0.14-1.55-0.96-1.55S280.93,229.19,279.68,229.19z"/>
					<path class="st11" d="M278.29,230.59c1.06,0.52,2.59,0.56,3.72,0.56c1.12,0,2.94-0.09,3.72-0.41"/>
				</g>
				<path class="st4" d="M275.44,250.5L275.44,250.5c-0.6,0-1.09-0.49-1.09-1.09v-14.02c0-0.6,0.49-1.09,1.09-1.09l0,0
					c0.6,0,1.09,0.49,1.09,1.09v14.02C276.53,250,276.04,250.5,275.44,250.5z"/>
				<path class="st4" d="M288.45,250.5L288.45,250.5c-0.6,0-1.09-0.49-1.09-1.09v-14.02c0-0.6,0.49-1.09,1.09-1.09l0,0
					c0.6,0,1.09,0.49,1.09,1.09v14.02C289.55,250,289.05,250.5,288.45,250.5z"/>
			</g>
			<g>
				<path class="st4" d="M366.32,105.02h-79.38c-1.54,0-2.79,1.26-2.79,2.79v92.95c0,1.54,1.26,2.79,2.79,2.79c0,0,9.31,0,13.2,0
					c2.03,0,3.67,1.28,3.67,3.76c0,1.59,0,28.4,0,28.4c0,1.54,1.26,2.79,2.79,2.79h40.57c1.54,0,2.79-1.26,2.79-2.79
					c0,0,0-26.06,0-28.86c0-2.03,1.26-3.3,3.72-3.31c1.84-0.01,12.63,0,12.63,0c1.54,0,2.79-1.26,2.79-2.79V107.8
					C369.12,106.28,367.86,105.02,366.32,105.02z"/>
				<path class="st2" d="M363.04,108.65h-72.8c-2.68,0-2.56,0-2.56,2.56v86.09c0,2.56,0,2.56,2.56,2.56c0,0,6.95,0,10.52,0
					c4.01,0,6.31,2.55,6.31,6.61c0,1.46,0,25.87,0,25.87c0,2.56,0,2.56,2.56,2.56h34.39c2.56,0,2.56,0,2.56-2.56
					c0,0,0-23.24,0-25.81c0-4.16,2.91-6.68,6.55-6.68c1.69,0,9.91,0,9.91,0c2.56,0,2.56-0.03,2.56-2.56V111.2
					C365.6,108.65,365.6,108.65,363.04,108.65z"/>
				<line class="st11" x1="303.81" y1="227.11" x2="349.98" y2="227.11"/>
				<line class="st3" x1="284.15" y1="126.49" x2="369.12" y2="126.49"/>
				<g>
					<path class="st10" d="M369.12,141.42c0.6,0,0.94,0.55,0.94,1.12h-0.94V141.42z"/>
					<path class="st10" d="M369.12,148.66c0.6,0,0.94,0.55,0.94,1.12h-0.94V148.66z"/>
					<path class="st10" d="M369.12,155.9c0.6,0,0.94,0.55,0.94,1.12h-0.94V155.9z"/>
					<path class="st10" d="M369.12,163.15c0.6,0,0.94,0.55,0.94,1.12h-0.94V163.15z"/>
					<path class="st10" d="M369.12,170.39c0.6,0,0.94,0.55,0.94,1.12h-0.94V170.39z"/>
					<path class="st10" d="M369.12,177.63c0.6,0,0.94,0.55,0.94,1.12h-0.94V177.63z"/>
					<path class="st10" d="M369.12,184.88c0.6,0,0.94,0.55,0.94,1.12h-0.94V184.88z"/>
				</g>
				<g>
					<path class="st10" d="M284.15,141.71c-0.6,0-0.94,0.55-0.94,1.12h0.94V141.71z"/>
					<path class="st10" d="M284.15,148.95c-0.6,0-0.94,0.55-0.94,1.12h0.94V148.95z"/>
					<path class="st10" d="M284.15,156.19c-0.6,0-0.94,0.55-0.94,1.12h0.94V156.19z"/>
					<path class="st10" d="M284.15,163.44c-0.6,0-0.94,0.55-0.94,1.12h0.94V163.44z"/>
					<path class="st10" d="M284.15,170.68c-0.6,0-0.94,0.55-0.94,1.12h0.94V170.68z"/>
					<path class="st10" d="M284.15,177.92c-0.6,0-0.94,0.55-0.94,1.12h0.94V177.92z"/>
					<path class="st10" d="M284.15,185.17c-0.6,0-0.94,0.55-0.94,1.12h0.94V185.17z"/>
				</g>
				<path class="st10" d="M345.27,120.84L345.27,120.84c0,1-0.82,1.82-1.82,1.82h-4.25c-1,0-1.82-0.82-1.82-1.82l0,0
					c0-1,0.82-1.82,1.82-1.82h4.25C344.45,119.02,345.27,119.84,345.27,120.84z"/>
			</g>
			<rect x="319.11" y="95.53" class="st4" width="15.05" height="145"/>
			<line class="st11" x1="319.11" y1="205.51" x2="334.16" y2="205.51"/>
			<line class="st11" x1="319.11" y1="226.87" x2="334.16" y2="226.87"/>
			<g>
				<polygon class="st4" points="334.16,224.38 336.74,224.57 336.89,225.72 336.89,235.16 336.89,240.53 334.16,240.53 				"/>
				<line class="st11" x1="336.89" y1="225.72" x2="334.16" y2="225.93"/>
				<line class="st11" x1="336.89" y1="235.16" x2="334.16" y2="235.31"/>
			</g>
			<g>
				<polygon class="st4" points="319.11,224.38 316.53,224.57 316.38,225.72 316.38,235.16 316.38,240.53 319.11,240.53 				"/>
				<line class="st11" x1="316.38" y1="225.72" x2="319.11" y2="225.93"/>
				<line class="st11" x1="316.38" y1="235.16" x2="319.11" y2="235.31"/>
			</g>
			<circle class="st11" cx="323.71" cy="234.99" r="0.53"/>
			<circle class="st11" cx="330.51" cy="234.99" r="0.53"/>
			<g>
				<path class="st4" d="M335.46,111.65c0,0,39.33,0,40.69,0c1.37,0,2.37,0.55,2.37,1.55s-1.09,2.18-2.73,2.18
					c-0.91,0-6.37,0-6.37,0v-0.58h-33.96V111.65z"/>
				<line class="st8" x1="369.42" y1="114.8" x2="377.46" y2="114.8"/>
				<path class="st3" d="M335.46,112.47c0,0,39.91,0,40.76,0s1.55-0.02,2.2,0.2"/>
				<path class="st3" d="M335.46,114.05c0,0,39.91,0,40.76,0s1.55,0.02,2.2-0.2"/>
				<path class="st3" d="M376.16,111.65c0.39,0.27,0.42,0.64,0.46,0.82c0.05,0.27,0.11,1.3,0,1.59c-0.11,0.28-0.2,0.52-0.46,0.75"/>
				<rect x="334.4" y="102.03" class="st4" width="1.06" height="21.67"/>
			</g>
			<g>
				<path class="st4" d="M318.26,111.65c0,0-39.33,0-40.69,0s-2.37,0.55-2.37,1.55s1.09,2.18,2.73,2.18c0.91,0,6.37,0,6.37,0v-0.58
					h33.96V111.65z"/>
				<line class="st8" x1="284.3" y1="114.8" x2="276.26" y2="114.8"/>
				<path class="st3" d="M318.26,112.47c0,0-39.91,0-40.76,0s-1.55-0.02-2.2,0.2"/>
				<path class="st3" d="M318.26,114.05c0,0-39.91,0-40.76,0s-1.55,0.02-2.2-0.2"/>
				<path class="st3" d="M277.57,111.65c-0.39,0.27-0.42,0.64-0.46,0.82c-0.05,0.27-0.11,1.3,0,1.59c0.11,0.28,0.2,0.52,0.46,0.75"
					/>
				<rect x="318.27" y="102.02" class="st4" width="1.06" height="21.67"/>
			</g>
			<path class="st4" d="M406.19,96.26H245.98c-0.71,0-1.28-0.58-1.28-1.28V1.78c0-0.71,0.58-1.28,1.28-1.28h160.21
				c0.71,0,1.28,0.58,1.28,1.28v93.2C407.48,95.68,406.9,96.26,406.19,96.26z"/>
			<rect x="246.76" y="2.79" class="st5" width="158.53" height="89.34"/>
			<circle class="st11" cx="403.2" cy="94.29" r="0.39"/>
		</g>
		<g>
			<rect x="355.35" y="119.15" class="st13" width="0.95" height="2.15"/>
			<rect x="356.94" y="119.15" class="st13" width="0.95" height="2.15"/>
			<g>
				<polygon class="st14" points="357.17,122.17 356.34,122.17 355.76,122.76 355.76,123.59 356.34,124.17 357.17,124.17 
					357.76,123.59 357.76,122.76 				"/>
				<circle class="st13" cx="356.73" cy="123.17" r="0.69"/>
			</g>
			<g>
				<g>
					<g>
						<g>
							<path class="st15" d="M358.13,125.55c0.04-0.04,0.08-0.12,0.08-0.18v-0.23c0-0.06-0.05-0.11-0.11-0.11h-2.73
								c-0.06,0-0.11,0.05-0.11,0.11v0.23c0,0.06,0.04,0.14,0.08,0.18l0.35,0.3c0.04,0.04,0.13,0.07,0.19,0.07h1.74
								c0.06,0,0.14-0.03,0.19-0.07L358.13,125.55z"/>
							<path class="st16" d="M358.13,125.55c0.04-0.04,0.08-0.12,0.08-0.18v-0.23c0-0.06-0.05-0.11-0.11-0.11h-2.73
								c-0.06,0-0.11,0.05-0.11,0.11v0.23c0,0.06,0.04,0.14,0.08,0.18l0.35,0.3c0.04,0.04,0.13,0.07,0.19,0.07h1.74
								c0.06,0,0.14-0.03,0.19-0.07L358.13,125.55z"/>
						</g>
					</g>
				</g>
				<rect x="355.68" y="125.34" class="st17" width="2.09" height="0.17"/>
				<rect x="355.83" y="125.33" class="st18" width="0.08" height="0.03"/>
				<rect x="356.02" y="125.33" class="st18" width="0.08" height="0.03"/>
				<rect x="356.21" y="125.33" class="st18" width="0.08" height="0.03"/>
				<rect x="356.41" y="125.33" class="st18" width="0.08" height="0.03"/>
				<rect x="356.6" y="125.33" class="st18" width="0.08" height="0.03"/>
				<rect x="356.79" y="125.33" class="st18" width="0.08" height="0.03"/>
				<rect x="356.98" y="125.33" class="st18" width="0.08" height="0.03"/>
				<rect x="357.17" y="125.33" class="st18" width="0.08" height="0.03"/>
				<rect x="357.36" y="125.33" class="st18" width="0.08" height="0.03"/>
				<rect x="357.55" y="125.33" class="st18" width="0.08" height="0.03"/>
				<rect x="357.46" y="125.5" class="st19" width="0.09" height="0.04"/>
				<rect x="357.27" y="125.5" class="st19" width="0.09" height="0.04"/>
				<rect x="357.08" y="125.49" class="st19" width="0.09" height="0.04"/>
				<rect x="356.89" y="125.49" class="st19" width="0.09" height="0.04"/>
				<rect x="356.7" y="125.49" class="st19" width="0.09" height="0.04"/>
				<rect x="356.5" y="125.49" class="st19" width="0.09" height="0.04"/>
				<rect x="356.31" y="125.5" class="st19" width="0.09" height="0.04"/>
				<rect x="356.12" y="125.49" class="st19" width="0.09" height="0.04"/>
				<rect x="355.93" y="125.5" class="st19" width="0.09" height="0.04"/>
			</g>
		</g>
	</g>
</g>
<g id="Layer_2_1_" class="st0">
	<g class="st1">
		<g>
			<rect x="21.26" y="234.17" class="st4" width="2.43" height="0.28"/>
			<path class="st4" d="M21.26,234.45c-0.19,0.1-0.14,0.25-0.14,0.92h2.73c0-0.47,0.08-0.92-0.15-0.92"/>
			<g>
				<path class="st4" d="M21.11,235.38c0,0-0.61,0-0.78,0s-0.25,0.13-0.25,0.31s0,1.47,0,1.47h4.8c0,0,0-1.29,0-1.47
					s-0.03-0.31-0.33-0.31s-0.72,0-0.72,0H21.11z"/>
				<line class="st3" x1="20.08" y1="236.35" x2="24.88" y2="236.35"/>
				<line class="st3" x1="22.5" y1="236.35" x2="22.5" y2="236.8"/>
			</g>
			<g>
				<path class="st2" d="M20.42,237.26c0.49-0.39,1.42-0.46,2.01-0.46c0.59,0,1.65,0.13,2.13,0.46v10.75
					c-0.42-0.38-0.81-0.81-0.97-1.61c-0.1-0.51-0.64-0.72-1.1-0.72s-1.06,0.06-1.14,0.67c-0.11,0.78-0.35,1.21-0.75,1.67
					L20.42,237.26z"/>
				<path class="st3" d="M20.43,238.29c0.08,0,4.12,0,4.12,0"/>
				<path class="st3" d="M20.98,238.29c0.09-0.49,0.36-0.87,1.51-0.87s1.39,0.36,1.46,0.87"/>
				<path class="st3" d="M21.47,238.29c0.43,0.38,0.85,0.9,0.85,2.32h0.29c0.01-0.83,0.37-2.13,0.89-2.32"/>
				<path class="st3" d="M24.34,238.29c-0.29,0.29-0.83,1.38-0.83,3.07"/>
				<path class="st3" d="M20.56,238.29c0.29,0.29,0.83,1.38,0.83,3.07"/>
				<line class="st3" x1="21.15" y1="237.86" x2="20.42" y2="237.26"/>
				<line class="st3" x1="20.93" y1="237" x2="21.4" y2="237.63"/>
				<line class="st3" x1="23.82" y1="237.85" x2="24.56" y2="237.25"/>
				<line class="st3" x1="24.05" y1="236.99" x2="23.58" y2="237.63"/>
				<line class="st3" x1="21.4" y1="242" x2="21.4" y2="246.14"/>
				<line class="st3" x1="23.51" y1="246.18" x2="23.51" y2="241.84"/>
				<line class="st3" x1="22.49" y1="237.42" x2="22.49" y2="236.8"/>
			</g>
			<g>
				<path class="st4" d="M22.04,247.83h0.9c0,0,0-0.98,0-1.52s0.67-1.49,0.67-2.26c0-0.77,0-1.22,0-1.61s0.3-0.91,1-0.91
					c0.41,0,0.41-0.19,0.41-0.41s-0.18-0.45-0.6-0.56c-0.64-0.16-3.17-0.2-3.87,0.05c-0.35,0.12-0.62,0.16-0.62,0.45
					c0,0.39,0,0.49,0.71,0.49c0.7,0,0.85,0.45,0.85,0.85s0,1.15,0,1.64c0,0.49,0.56,1.8,0.56,2.29
					C22.04,246.82,22.04,247.83,22.04,247.83z"/>
				<path class="st3" d="M19.92,241.21c0.51-0.16,1.04-0.14,1.39-0.14c0.51,0,0.71,0.32,0.74,0.83c0.02,0.42,0.25,3.21,0.25,5.94"/>
				<path class="st3" d="M25.01,241.16c-0.51-0.16-1.04-0.14-1.39-0.14c-0.51,0-0.71,0.32-0.74,0.83c-0.02,0.42-0.25,3.21-0.25,5.94
					"/>
				<path class="st3" d="M21.75,241.19c0.27-0.09,1.13-0.11,1.36,0"/>
				<line class="st3" x1="22.05" y1="241.9" x2="22.88" y2="241.9"/>
				<line class="st3" x1="22.16" y1="243.56" x2="22.77" y2="243.56"/>
				<line class="st3" x1="22.21" y1="244.45" x2="22.73" y2="244.45"/>
				<path class="st3" d="M23.96,241.01c-0.59,0.36-0.59,0.19-0.59,4"/>
				<path class="st3" d="M21.11,241.07c0.64,0.42,0.59,0.19,0.59,4"/>
				<path class="st3" d="M21.95,240.43c-0.63,0.04-1.3,0.4-1.3,0.64"/>
				<path class="st3" d="M23.01,240.43c0.71,0.05,1.26,0.34,1.26,0.59"/>
			</g>
			<g>
				<path class="st4" d="M19.81,236.99c-0.36,0-1.01,0.09-1.01,0.36s0,11.06,0,11.28s0.4,0.38,1.01,0.38s0.88-0.16,0.88-0.33
					c0-0.16,0-11.13,0-11.34S20.23,236.99,19.81,236.99z"/>
				<line class="st3" x1="19.05" y1="237.09" x2="19.05" y2="248.91"/>
				<line class="st3" x1="20.41" y1="248.94" x2="20.41" y2="237.09"/>
			</g>
			<g>
				<path class="st4" d="M25.32,236.99c-0.36,0-1.01,0.09-1.01,0.36s0,11.06,0,11.28s0.4,0.38,1.01,0.38s0.88-0.16,0.88-0.33
					c0-0.16,0-11.13,0-11.34S25.74,236.99,25.32,236.99z"/>
				<line class="st3" x1="24.56" y1="237.09" x2="24.56" y2="248.91"/>
				<line class="st3" x1="25.92" y1="248.94" x2="25.92" y2="237.09"/>
			</g>
		</g>
		<g>
			<rect x="9.05" y="234.26" class="st4" width="2.43" height="0.28"/>
			<path class="st4" d="M9.05,234.54c-0.19,0.1-0.14,0.25-0.14,0.92h2.73c0-0.47,0.08-0.92-0.15-0.92"/>
			<g>
				<path class="st4" d="M8.9,235.46c0,0-0.61,0-0.78,0c-0.17,0-0.25,0.13-0.25,0.31s0,1.47,0,1.47h4.8c0,0,0-1.29,0-1.47
					s-0.03-0.31-0.33-0.31c-0.29,0-0.72,0-0.72,0H8.9z"/>
				<line class="st3" x1="7.87" y1="236.44" x2="12.67" y2="236.44"/>
				<line class="st3" x1="10.29" y1="236.44" x2="10.29" y2="236.89"/>
			</g>
			<g>
				<path class="st2" d="M8.21,237.35c0.49-0.39,1.42-0.46,2.01-0.46s1.65,0.13,2.13,0.46v10.75c-0.42-0.38-0.81-0.81-0.97-1.61
					c-0.1-0.51-0.64-0.72-1.1-0.72s-1.06,0.06-1.14,0.67c-0.11,0.78-0.35,1.21-0.75,1.67L8.21,237.35z"/>
				<path class="st3" d="M8.22,238.38c0.08,0,4.12,0,4.12,0"/>
				<path class="st3" d="M8.77,238.38c0.09-0.49,0.36-0.87,1.51-0.87c1.14,0,1.39,0.36,1.46,0.87"/>
				<path class="st3" d="M9.27,238.38c0.43,0.38,0.85,0.9,0.85,2.32h0.29c0.01-0.83,0.37-2.13,0.89-2.32"/>
				<path class="st3" d="M12.13,238.38c-0.29,0.29-0.83,1.38-0.83,3.07"/>
				<path class="st3" d="M8.36,238.38c0.29,0.29,0.83,1.38,0.83,3.07"/>
				<line class="st3" x1="8.94" y1="237.94" x2="8.21" y2="237.35"/>
				<line class="st3" x1="8.72" y1="237.09" x2="9.19" y2="237.72"/>
				<line class="st3" x1="11.62" y1="237.94" x2="12.35" y2="237.34"/>
				<line class="st3" x1="11.84" y1="237.08" x2="11.37" y2="237.71"/>
				<line class="st3" x1="9.19" y1="242.08" x2="9.19" y2="246.23"/>
				<line class="st3" x1="11.3" y1="246.27" x2="11.3" y2="241.92"/>
				<line class="st3" x1="10.28" y1="237.51" x2="10.28" y2="236.89"/>
			</g>
			<g>
				<path class="st4" d="M9.83,247.92h0.9c0,0,0-0.98,0-1.52s0.67-1.49,0.67-2.26c0-0.77,0-1.22,0-1.61s0.3-0.91,1-0.91
					c0.41,0,0.41-0.19,0.41-0.41s-0.18-0.45-0.6-0.56c-0.64-0.16-3.17-0.2-3.87,0.05c-0.35,0.12-0.62,0.16-0.62,0.45
					c0,0.39,0,0.49,0.71,0.49c0.7,0,0.85,0.45,0.85,0.85s0,1.15,0,1.64c0,0.49,0.56,1.8,0.56,2.29
					C9.83,246.91,9.83,247.92,9.83,247.92z"/>
				<path class="st3" d="M7.72,241.3c0.51-0.16,1.04-0.14,1.39-0.14c0.51,0,0.71,0.32,0.74,0.83c0.02,0.42,0.25,3.21,0.25,5.94"/>
				<path class="st3" d="M12.81,241.24c-0.51-0.16-1.04-0.14-1.39-0.14c-0.51,0-0.71,0.32-0.74,0.83c-0.02,0.42-0.25,3.21-0.25,5.94
					"/>
				<path class="st3" d="M9.55,241.28c0.27-0.09,1.13-0.11,1.36,0"/>
				<line class="st3" x1="9.84" y1="241.98" x2="10.68" y2="241.98"/>
				<line class="st3" x1="9.95" y1="243.65" x2="10.57" y2="243.65"/>
				<line class="st3" x1="10" y1="244.54" x2="10.52" y2="244.54"/>
				<path class="st3" d="M11.76,241.1c-0.59,0.36-0.59,0.19-0.59,4"/>
				<path class="st3" d="M8.9,241.16c0.64,0.42,0.59,0.19,0.59,4"/>
				<path class="st3" d="M9.74,240.52c-0.63,0.04-1.3,0.4-1.3,0.64"/>
				<path class="st3" d="M10.8,240.52c0.71,0.05,1.26,0.34,1.26,0.59"/>
			</g>
			<g>
				<path class="st4" d="M7.6,237.08c-0.36,0-1.01,0.09-1.01,0.36s0,11.06,0,11.28s0.4,0.38,1.01,0.38s0.88-0.16,0.88-0.33
					c0-0.16,0-11.13,0-11.34S8.02,237.08,7.6,237.08z"/>
				<line class="st3" x1="6.84" y1="237.18" x2="6.84" y2="249"/>
				<line class="st3" x1="8.2" y1="249.03" x2="8.2" y2="237.18"/>
			</g>
			<g>
				<path class="st4" d="M13.11,237.08c-0.36,0-1.01,0.09-1.01,0.36s0,11.06,0,11.28s0.4,0.38,1.01,0.38s0.88-0.16,0.88-0.33
					c0-0.16,0-11.13,0-11.34S13.53,237.08,13.11,237.08z"/>
				<line class="st3" x1="12.35" y1="237.18" x2="12.35" y2="249"/>
				<line class="st3" x1="13.71" y1="249.03" x2="13.71" y2="237.18"/>
			</g>
		</g>
		<g>
			<rect x="41.09" y="234.41" class="st4" width="2.43" height="0.28"/>
			<path class="st4" d="M41.09,234.7c-0.19,0.1-0.14,0.25-0.14,0.92h2.73c0-0.47,0.08-0.92-0.15-0.92"/>
			<g>
				<path class="st4" d="M40.95,235.62c0,0-0.61,0-0.78,0s-0.25,0.13-0.25,0.31s0,1.47,0,1.47h4.8c0,0,0-1.29,0-1.47
					c0-0.17-0.03-0.31-0.33-0.31s-0.72,0-0.72,0H40.95z"/>
				<line class="st3" x1="39.92" y1="236.59" x2="44.72" y2="236.59"/>
				<line class="st3" x1="42.33" y1="236.59" x2="42.33" y2="237.04"/>
			</g>
			<g>
				<path class="st2" d="M40.25,237.51c0.49-0.39,1.42-0.46,2.01-0.46s1.65,0.13,2.13,0.46v10.74c-0.42-0.38-0.81-0.81-0.97-1.61
					c-0.1-0.51-0.64-0.72-1.1-0.72s-1.06,0.06-1.14,0.67c-0.11,0.78-0.35,1.21-0.75,1.67L40.25,237.51z"/>
				<path class="st3" d="M40.27,238.53c0.08,0,4.12,0,4.12,0"/>
				<path class="st3" d="M40.82,238.53c0.09-0.49,0.36-0.87,1.51-0.87s1.39,0.36,1.46,0.87"/>
				<path class="st3" d="M41.31,238.53c0.43,0.38,0.85,0.9,0.85,2.32h0.29c0.01-0.83,0.37-2.13,0.89-2.32"/>
				<path class="st3" d="M44.18,238.53c-0.29,0.29-0.83,1.38-0.83,3.07"/>
				<path class="st3" d="M40.4,238.53c0.29,0.29,0.83,1.38,0.83,3.07"/>
				<line class="st3" x1="40.99" y1="238.1" x2="40.25" y2="237.51"/>
				<line class="st3" x1="40.77" y1="237.24" x2="41.24" y2="237.88"/>
				<line class="st3" x1="43.66" y1="238.09" x2="44.4" y2="237.5"/>
				<line class="st3" x1="43.88" y1="237.24" x2="43.41" y2="237.87"/>
				<line class="st3" x1="41.24" y1="242.24" x2="41.24" y2="246.38"/>
				<line class="st3" x1="43.34" y1="246.42" x2="43.34" y2="242.08"/>
				<line class="st3" x1="42.32" y1="237.66" x2="42.32" y2="237.04"/>
			</g>
			<g>
				<path class="st4" d="M41.88,248.08h0.9c0,0,0-0.98,0-1.52c0-0.54,0.67-1.49,0.67-2.26c0-0.77,0-1.22,0-1.61s0.3-0.91,1-0.91
					c0.41,0,0.41-0.19,0.41-0.41s-0.18-0.45-0.6-0.56c-0.64-0.16-3.17-0.2-3.87,0.05c-0.35,0.12-0.62,0.16-0.62,0.45
					c0,0.39,0,0.49,0.71,0.49c0.7,0,0.85,0.45,0.85,0.85s0,1.15,0,1.64c0,0.49,0.56,1.8,0.56,2.29S41.88,248.08,41.88,248.08z"/>
				<path class="st3" d="M39.76,241.46c0.51-0.16,1.04-0.14,1.39-0.14c0.51,0,0.71,0.32,0.74,0.83c0.02,0.42,0.25,3.21,0.25,5.94"/>
				<path class="st3" d="M44.85,241.4c-0.51-0.16-1.04-0.14-1.39-0.14c-0.51,0-0.71,0.32-0.74,0.83c-0.02,0.42-0.25,3.21-0.25,5.94"
					/>
				<path class="st3" d="M41.59,241.44c0.27-0.09,1.13-0.11,1.36,0"/>
				<line class="st3" x1="41.89" y1="242.14" x2="42.72" y2="242.14"/>
				<line class="st3" x1="42" y1="243.81" x2="42.61" y2="243.81"/>
				<line class="st3" x1="42.05" y1="244.7" x2="42.57" y2="244.7"/>
				<path class="st3" d="M43.8,241.26c-0.59,0.36-0.59,0.19-0.59,4"/>
				<path class="st3" d="M40.95,241.31c0.64,0.42,0.59,0.19,0.59,4"/>
				<path class="st3" d="M41.79,240.68c-0.63,0.04-1.3,0.4-1.3,0.64"/>
				<path class="st3" d="M42.85,240.68c0.71,0.05,1.26,0.34,1.26,0.59"/>
			</g>
			<g>
				<path class="st4" d="M39.65,237.24c-0.36,0-1.01,0.09-1.01,0.36s0,11.06,0,11.28c0,0.23,0.4,0.38,1.01,0.38s0.88-0.16,0.88-0.33
					s0-11.13,0-11.34S40.07,237.24,39.65,237.24z"/>
				<line class="st3" x1="38.89" y1="237.33" x2="38.89" y2="249.15"/>
				<line class="st3" x1="40.25" y1="249.18" x2="40.25" y2="237.33"/>
			</g>
			<g>
				<path class="st4" d="M45.16,237.24c-0.36,0-1.01,0.09-1.01,0.36s0,11.06,0,11.28c0,0.23,0.4,0.38,1.01,0.38s0.88-0.16,0.88-0.33
					s0-11.13,0-11.34S45.58,237.24,45.16,237.24z"/>
				<line class="st3" x1="44.4" y1="237.33" x2="44.4" y2="249.15"/>
				<line class="st3" x1="45.76" y1="249.18" x2="45.76" y2="237.33"/>
			</g>
		</g>
		<g>
			<rect x="61.03" y="234.22" class="st4" width="2.43" height="0.28"/>
			<path class="st4" d="M61.03,234.5c-0.19,0.1-0.14,0.25-0.14,0.92h2.73c0-0.47,0.08-0.92-0.15-0.92"/>
			<g>
				<path class="st4" d="M60.89,235.43c0,0-0.61,0-0.78,0s-0.25,0.13-0.25,0.31s0,1.47,0,1.47h4.8c0,0,0-1.29,0-1.47
					c0-0.17-0.03-0.31-0.33-0.31s-0.72,0-0.72,0H60.89z"/>
				<line class="st3" x1="59.85" y1="236.4" x2="64.65" y2="236.4"/>
				<line class="st3" x1="62.27" y1="236.4" x2="62.27" y2="236.85"/>
			</g>
			<g>
				<path class="st2" d="M60.19,237.31c0.49-0.39,1.42-0.46,2.01-0.46s1.65,0.13,2.13,0.46v10.74c-0.42-0.38-0.81-0.81-0.97-1.61
					c-0.1-0.51-0.64-0.72-1.1-0.72s-1.06,0.06-1.14,0.67c-0.11,0.78-0.35,1.21-0.75,1.67L60.19,237.31z"/>
				<path class="st3" d="M60.21,238.34c0.08,0,4.12,0,4.12,0"/>
				<path class="st3" d="M60.75,238.34c0.09-0.49,0.36-0.87,1.51-0.87s1.39,0.36,1.46,0.87"/>
				<path class="st3" d="M61.25,238.34c0.43,0.38,0.85,0.9,0.85,2.32h0.29c0.01-0.83,0.37-2.13,0.89-2.32"/>
				<path class="st3" d="M64.11,238.34c-0.29,0.29-0.83,1.38-0.83,3.07"/>
				<path class="st3" d="M60.34,238.34c0.29,0.29,0.83,1.38,0.83,3.07"/>
				<line class="st3" x1="60.92" y1="237.91" x2="60.19" y2="237.31"/>
				<line class="st3" x1="60.7" y1="237.05" x2="61.17" y2="237.68"/>
				<line class="st3" x1="63.6" y1="237.9" x2="64.33" y2="237.31"/>
				<line class="st3" x1="63.82" y1="237.04" x2="63.35" y2="237.68"/>
				<line class="st3" x1="61.17" y1="242.05" x2="61.17" y2="246.19"/>
				<line class="st3" x1="63.28" y1="246.23" x2="63.28" y2="241.89"/>
				<line class="st3" x1="62.26" y1="237.47" x2="62.26" y2="236.85"/>
			</g>
			<g>
				<path class="st4" d="M61.81,247.88h0.9c0,0,0-0.98,0-1.52s0.67-1.49,0.67-2.26c0-0.77,0-1.22,0-1.61s0.3-0.91,1-0.91
					c0.41,0,0.41-0.19,0.41-0.41s-0.18-0.45-0.6-0.56c-0.64-0.16-3.17-0.2-3.87,0.05c-0.35,0.12-0.62,0.16-0.62,0.45
					c0,0.39,0,0.49,0.71,0.49c0.7,0,0.85,0.45,0.85,0.85s0,1.15,0,1.64c0,0.49,0.56,1.8,0.56,2.29
					C61.82,246.87,61.81,247.88,61.81,247.88z"/>
				<path class="st3" d="M59.7,241.26c0.51-0.16,1.04-0.14,1.39-0.14c0.51,0,0.71,0.32,0.74,0.83c0.02,0.42,0.25,3.21,0.25,5.94"/>
				<path class="st3" d="M64.79,241.21c-0.51-0.16-1.04-0.14-1.39-0.14c-0.51,0-0.71,0.32-0.74,0.83c-0.02,0.42-0.25,3.21-0.25,5.94
					"/>
				<path class="st3" d="M61.53,241.24c0.27-0.09,1.13-0.11,1.36,0"/>
				<line class="st3" x1="61.83" y1="241.95" x2="62.66" y2="241.95"/>
				<line class="st3" x1="61.93" y1="243.61" x2="62.55" y2="243.61"/>
				<line class="st3" x1="61.98" y1="244.5" x2="62.5" y2="244.5"/>
				<path class="st3" d="M63.74,241.06c-0.59,0.36-0.59,0.19-0.59,4"/>
				<path class="st3" d="M60.89,241.12c0.64,0.42,0.59,0.19,0.59,4"/>
				<path class="st3" d="M61.73,240.48c-0.63,0.04-1.3,0.4-1.3,0.64"/>
				<path class="st3" d="M62.78,240.48c0.71,0.05,1.26,0.34,1.26,0.59"/>
			</g>
			<g>
				<path class="st4" d="M59.58,237.04c-0.36,0-1.01,0.09-1.01,0.36s0,11.06,0,11.28s0.4,0.38,1.01,0.38s0.88-0.16,0.88-0.33
					c0-0.16,0-11.13,0-11.34C60.46,237.2,60,237.04,59.58,237.04z"/>
				<line class="st3" x1="58.82" y1="237.14" x2="58.82" y2="248.96"/>
				<line class="st3" x1="60.18" y1="248.99" x2="60.18" y2="237.14"/>
			</g>
			<g>
				<path class="st4" d="M65.09,237.04c-0.36,0-1.01,0.09-1.01,0.36s0,11.06,0,11.28s0.4,0.38,1.01,0.38s0.88-0.16,0.88-0.33
					c0-0.16,0-11.13,0-11.34C65.97,237.2,65.52,237.04,65.09,237.04z"/>
				<line class="st3" x1="64.33" y1="237.14" x2="64.33" y2="248.96"/>
				<line class="st3" x1="65.69" y1="248.99" x2="65.69" y2="237.14"/>
			</g>
		</g>
		<g>
			<rect x="73.18" y="234.33" class="st4" width="2.43" height="0.28"/>
			<path class="st4" d="M73.18,234.61c-0.19,0.1-0.14,0.25-0.14,0.92h2.73c0-0.47,0.08-0.92-0.15-0.92"/>
			<g>
				<path class="st4" d="M73.04,235.53c0,0-0.61,0-0.78,0s-0.25,0.13-0.25,0.31s0,1.47,0,1.47h4.8c0,0,0-1.29,0-1.47
					s-0.03-0.31-0.33-0.31s-0.72,0-0.72,0H73.04z"/>
				<line class="st3" x1="72.01" y1="236.51" x2="76.81" y2="236.51"/>
				<line class="st3" x1="74.42" y1="236.51" x2="74.42" y2="236.96"/>
			</g>
			<g>
				<path class="st2" d="M72.34,237.42c0.49-0.39,1.42-0.46,2.01-0.46s1.65,0.13,2.13,0.46v10.74c-0.42-0.38-0.81-0.81-0.97-1.61
					c-0.1-0.51-0.64-0.72-1.1-0.72s-1.06,0.06-1.14,0.67c-0.11,0.78-0.35,1.21-0.75,1.67L72.34,237.42z"/>
				<path class="st3" d="M72.36,238.45c0.08,0,4.12,0,4.12,0"/>
				<path class="st3" d="M72.91,238.45c0.09-0.49,0.36-0.87,1.51-0.87s1.39,0.36,1.46,0.87"/>
				<path class="st3" d="M73.4,238.45c0.43,0.38,0.85,0.9,0.85,2.32h0.29c0.01-0.83,0.37-2.13,0.89-2.32"/>
				<path class="st3" d="M76.27,238.45c-0.29,0.29-0.83,1.38-0.83,3.07"/>
				<path class="st3" d="M72.49,238.45c0.29,0.29,0.83,1.38,0.83,3.07"/>
				<line class="st3" x1="73.08" y1="238.01" x2="72.34" y2="237.42"/>
				<line class="st3" x1="72.85" y1="237.16" x2="73.32" y2="237.79"/>
				<line class="st3" x1="75.75" y1="238.01" x2="76.48" y2="237.41"/>
				<line class="st3" x1="75.97" y1="237.15" x2="75.5" y2="237.79"/>
				<line class="st3" x1="73.32" y1="242.16" x2="73.32" y2="246.3"/>
				<line class="st3" x1="75.43" y1="246.34" x2="75.43" y2="242"/>
				<line class="st3" x1="74.41" y1="237.58" x2="74.41" y2="236.96"/>
			</g>
			<g>
				<path class="st4" d="M73.96,247.99h0.9c0,0,0-0.98,0-1.52s0.67-1.49,0.67-2.26s0-1.22,0-1.61s0.3-0.91,1-0.91
					c0.41,0,0.41-0.19,0.41-0.41s-0.18-0.45-0.6-0.56c-0.64-0.16-3.17-0.2-3.87,0.05c-0.35,0.12-0.62,0.16-0.62,0.45
					c0,0.39,0,0.49,0.71,0.49c0.7,0,0.85,0.45,0.85,0.85s0,1.15,0,1.64c0,0.49,0.56,1.8,0.56,2.29
					C73.97,246.98,73.96,247.99,73.96,247.99z"/>
				<path class="st3" d="M71.85,241.37c0.51-0.16,1.04-0.14,1.39-0.14c0.51,0,0.71,0.32,0.74,0.83c0.02,0.42,0.25,3.21,0.25,5.94"/>
				<path class="st3" d="M76.94,241.31c-0.51-0.16-1.04-0.14-1.39-0.14c-0.51,0-0.71,0.32-0.74,0.83c-0.02,0.42-0.25,3.21-0.25,5.94
					"/>
				<path class="st3" d="M73.68,241.35c0.27-0.09,1.13-0.11,1.36,0"/>
				<line class="st3" x1="73.98" y1="242.05" x2="74.81" y2="242.05"/>
				<line class="st3" x1="74.09" y1="243.72" x2="74.7" y2="243.72"/>
				<line class="st3" x1="74.13" y1="244.61" x2="74.65" y2="244.61"/>
				<path class="st3" d="M75.89,241.17c-0.59,0.36-0.59,0.19-0.59,4"/>
				<path class="st3" d="M73.04,241.23c0.64,0.42,0.59,0.19,0.59,4"/>
				<path class="st3" d="M73.88,240.59c-0.63,0.04-1.3,0.4-1.3,0.64"/>
				<path class="st3" d="M74.93,240.59c0.71,0.05,1.26,0.34,1.26,0.59"/>
			</g>
			<g>
				<path class="st4" d="M71.73,237.15c-0.36,0-1.01,0.09-1.01,0.36s0,11.06,0,11.28s0.4,0.38,1.01,0.38s0.88-0.16,0.88-0.33
					c0-0.16,0-11.13,0-11.34S72.16,237.15,71.73,237.15z"/>
				<line class="st3" x1="70.97" y1="237.25" x2="70.97" y2="249.07"/>
				<line class="st3" x1="72.33" y1="249.1" x2="72.33" y2="237.25"/>
			</g>
			<g>
				<path class="st4" d="M77.25,237.15c-0.36,0-1.01,0.09-1.01,0.36s0,11.06,0,11.28s0.4,0.38,1.01,0.38s0.88-0.16,0.88-0.33
					c0-0.16,0-11.13,0-11.34S77.67,237.15,77.25,237.15z"/>
				<line class="st3" x1="76.49" y1="237.25" x2="76.49" y2="249.07"/>
				<line class="st3" x1="77.85" y1="249.1" x2="77.85" y2="237.25"/>
			</g>
		</g>
		<path class="st4" d="M59.54,117.68H25.1c-1.1,0-2-0.9-2-2V87.74c0-1.1,0.9-2,2-2h34.44c1.1,0,2,0.9,2,2v27.94
			C61.54,116.78,60.64,117.68,59.54,117.68z"/>
		<path class="st3" d="M59.14,117.29H25.53c-1.1,0-2-0.9-2-2V88.12c0-1.1,0.9-2,2-2h33.61c1.1,0,2,0.9,2,2v27.17
			C61.14,116.39,60.24,117.29,59.14,117.29z"/>
		<path class="st3" d="M61.01,85.74c-0.21,0.16-0.19,0.31-0.21,0.43"/>
		<path class="st3" d="M61.54,86.27c-0.14,0.17-0.28,0.2-0.41,0.21"/>
		<path class="st3" d="M61.54,117.14c-0.17-0.17-0.29-0.23-0.42-0.25"/>
		<path class="st3" d="M61.01,117.68c-0.13-0.14-0.19-0.32-0.18-0.43"/>
		<path class="st3" d="M23.95,117.29c0,0.19-0.07,0.3-0.31,0.38"/>
		<path class="st3" d="M23.53,116.86c-0.2,0-0.32,0-0.43,0.1"/>
		<path class="st3" d="M24.06,86.13c0.02-0.13-0.05-0.29-0.09-0.39"/>
		<path class="st3" d="M23.53,86.66c-0.15,0.01-0.32-0.06-0.43-0.13"/>
		<g>
			<path class="st4" d="M21.59,92.3c-0.74,0-3.87,0.17-3.87,4.43s0,8.21,0,9.91c0,2.91,1.26,4.74,3.65,4.74c1.48,0,7.6,0,9.17,0
				c1.32,0,1.4-0.26,1.4-1.01c0-0.83-0.14-1.03-1.4-1.03s-8.02,0-8.81,0c-1.48,0-2.23-0.7-2.23-2.59c0-1.3,0.03-9.04,0-10.08
				c-0.04-1.41,0.48-2.45,1.95-2.41c1.3,0.04,8.17,0,9.08,0c1.17,0,1.4-0.22,1.4-0.96s-0.1-1-1.4-1
				C29.58,92.3,22.85,92.3,21.59,92.3z"/>
			<path class="st3" d="M21.52,109.33c0.51,0.51,0.52,1.43-0.14,2.04"/>
			<path class="st3" d="M19.5,106.75c-0.32-0.34-1.46-0.43-1.78-0.04"/>
			<path class="st3" d="M21.52,92.3c0.51,0.51,0.52,1.43-0.14,2.04"/>
			<path class="st3" d="M19.5,96.87c-0.32-0.34-1.46-0.43-1.78-0.04"/>
		</g>
		<g>
			<path class="st4" d="M63.14,111.44c0.74,0,3.87-0.17,3.87-4.43s0-8.21,0-9.91c0-2.91-1.26-4.74-3.65-4.74c-1.48,0-7.6,0-9.17,0
				c-1.32,0-1.4,0.26-1.4,1.01c0,0.83,0.14,1.03,1.4,1.03s8.02,0,8.81,0c1.48,0,2.23,0.7,2.23,2.59c0,1.3-0.03,9.04,0,10.08
				c0.04,1.41-0.48,2.45-1.95,2.41c-1.3-0.04-8.17,0-9.08,0c-1.17,0-1.4,0.22-1.4,0.96s0.1,1,1.4,1
				C55.14,111.44,61.88,111.44,63.14,111.44z"/>
			<path class="st3" d="M63.21,94.41c-0.51-0.51-0.52-1.43,0.14-2.04"/>
			<path class="st3" d="M65.22,96.99c0.32,0.34,1.46,0.43,1.78,0.04"/>
			<path class="st3" d="M63.21,111.44c-0.51-0.51-0.52-1.43,0.14-2.04"/>
			<path class="st3" d="M65.22,106.87c0.32,0.34,1.46,0.43,1.78,0.04"/>
		</g>
		<rect x="34.94" y="96.58" class="st4" width="14.61" height="12.76"/>
		<g>
			<path class="st4" d="M63.71,152.21c0,0,0.14-0.11,0,0.51c-0.7,3.03-4.46,3.66-6.57,4.03c-6.36,1.09-23.81,0.82-29.64,0
				c-2.89-0.41-5.87-1.54-6.47-3.88c-0.09-0.37-0.06-0.77-0.1-1.03l1.9-0.33c0.21,0.49-0.08,0.46,0.53,1.01
				c1.5,1.37,2.96,1.6,4.59,1.82c9.64,1.26,24.38,0.67,28.77,0.03c2.3-0.34,3.61-0.81,4.45-1.94c0.8-1.07,0.39-0.55,1.06-0.63
				S63.71,152.01,63.71,152.21z"/>
			<path class="st3" d="M63.75,152.53c-0.34,0.47-0.76,0.8-1.26,0.79c-0.5-0.01-1.08-0.36-1.31-0.9"/>
			<path class="st3" d="M57.14,156.75c-0.4-0.32-0.42-1.5-0.42-1.77s0.01-0.61,0.01-0.61"/>
			<path class="st3" d="M27.5,156.75c0.29-0.19,0.47-1.36,0.47-1.75s-0.01-0.66-0.01-0.66"/>
			<path class="st3" d="M20.99,152.63c0.26,0.45,0.67,0.67,1.16,0.67c0.5,0,0.92-0.22,1.22-0.78"/>
			<line class="st3" x1="22.15" y1="153.3" x2="22.15" y2="152.46"/>
			<path class="st3" d="M23.31,152.64c1.42,1.91,3.14,2.13,4.67,2.36c5.37,0.83,23.34,0.77,28.75-0.02
				c1.79-0.26,3.82-0.67,4.52-2.44"/>
		</g>
		<g>
			<path class="st4" d="M22.15,152.46c-0.87,0-1.98-0.19-1.98-1.98s0.92-1.69,1.94-1.69s39.31,0.02,40.35,0.02s1.96,0.2,1.96,1.69
				s-0.6,1.95-1.94,1.94C61.05,152.44,23.78,152.46,22.15,152.46z"/>
			<path class="st3" d="M20.53,150.51c0,0.54,0.13,1.5,1.1,1.5c0.67,0,41.01,0,41.47,0c0.61,0,1.01-0.7,1.01-1.5
				c0-0.65-0.41-1.46-0.96-1.46s-40.75,0-41.42,0C20.71,149.05,20.53,149.6,20.53,150.51z"/>
			<line class="st3" x1="63.02" y1="152.43" x2="63.02" y2="152"/>
			<line class="st5" x1="64.43" y1="150.51" x2="20.18" y2="150.51"/>
			<line class="st3" x1="21.63" y1="152.43" x2="21.63" y2="152"/>
			<line class="st3" x1="21.63" y1="148.8" x2="21.63" y2="149.05"/>
			<line class="st3" x1="63.02" y1="148.6" x2="63.02" y2="149.05"/>
		</g>
		<g>
			<path class="st4" d="M28.41,208.3v18.42c-0.26,0-0.72,0.35-0.72,0.67s-0.15,0.65-0.46,0.65c-9.04,0.02-16.99,1.28-17.99,1.5
				s-1.72,0.54-1.78,1.28c-0.07,0.74-0.13,3.35-0.13,3.35h69.99c0-0.39-0.15-3-0.17-3.41s-0.65-1.02-1.61-1.19
				c-2.95-0.54-9.1-1.24-17.88-1.54c-0.46-0.02-0.67-0.17-0.67-0.37s0.04-0.85-0.89-0.85V208.3H28.41z"/>
			<path class="st3" d="M7.47,230.82c0.54-0.02,1.15-0.09,1.5-0.11s6.69-1.11,12.06-1.26"/>
			<path class="st3" d="M9.25,229.54c-0.24,0.33-0.28,0.7-0.28,1.17s-0.09,3.45-0.09,3.45"/>
			<g>
				<path class="st5" d="M65.23,234.17c0,0-0.3-3.32-0.35-3.71s-0.41-0.73-1.22-1c-1.02-0.34-4.17-1.17-6.95-1.17
					c-1.35,0-3.95,0-4.69,0s-1.3,0.52-1.3,1.09s-0.13,4.8-0.13,4.8"/>
				<path class="st3" d="M52.02,227.66v0.63c2.24,0,7.47,0.88,8.91,1.17c2.22,0.46,3.24,0.24,2.74,0"/>
				<path class="st3" d="M64.9,230.68c-0.09,0.23-2.43,0.38-4.63,0c-2.19-0.38-7.49-1.31-9.56-1.31H50.1"/>
				<path class="st3" d="M57.03,227.66c0,0-3.58,0-4.01,0s-0.72,0-1,0c-1.35,0-1.89,0.94-1.91,1.71c-0.02,0.78-0.09,4.8-0.09,4.8"/>
				<path class="st3" d="M60.93,229.46c-0.37,0.41-0.61,0.71-0.65,1.22s-0.11,3.49-0.11,3.49"/>
			</g>
			<path class="st3" d="M77.15,230.82c-0.54-0.02-1.15-0.09-1.5-0.11s-6.69-1.11-12.06-1.26"/>
			<path class="st3" d="M75.37,229.54c0.24,0.33,0.28,0.7,0.28,1.17s0.09,3.45,0.09,3.45"/>
			<line class="st3" x1="27.69" y1="227.39" x2="56.98" y2="227.39"/>
			<line class="st3" x1="56.1" y1="226.81" x2="28.41" y2="226.81"/>
			<path class="st3" d="M52.74,208.3v18.51c0.26,0.16,0.25,0.46,0.25,0.59s-0.01,0.73,0.16,0.89"/>
			<path class="st3" d="M31.97,208.3v18.51c-0.26,0.16-0.25,0.46-0.25,0.59s0.01,0.73-0.16,0.89"/>
			<g>
				<path class="st5" d="M19.46,234.17c0,0,0.3-3.32,0.35-3.71c0.04-0.39,0.41-0.73,1.22-1c1.02-0.34,4.17-1.17,6.95-1.17
					c1.35,0,3.95,0,4.69,0c0.74,0,1.3,0.52,1.3,1.09s0.13,4.8,0.13,4.8"/>
				<path class="st3" d="M32.67,227.66v0.63c-2.24,0-7.47,0.88-8.91,1.17c-2.22,0.46-3.24,0.24-2.74,0"/>
				<path class="st3" d="M19.78,230.68c0.09,0.23,2.43,0.38,4.63,0c2.19-0.38,7.49-1.31,9.56-1.31h0.61"/>
				<path class="st3" d="M27.66,227.66c0,0,3.58,0,4.01,0c0.43,0,0.72,0,1,0c1.35,0,1.89,0.94,1.91,1.71
					c0.02,0.78,0.09,4.8,0.09,4.8"/>
				<path class="st3" d="M23.76,229.46c0.37,0.41,0.61,0.71,0.65,1.22s0.11,3.49,0.11,3.49"/>
			</g>
		</g>
		<g>
			<path class="st4" d="M19.46,208.21h45.76c0,0-0.2-4.23-0.23-4.52s-0.2-0.43-0.52-0.43s-1.56,0-1.56,0s-40.87,0-41.21,0
				s-1.19,0-1.48,0s-0.46,0.17-0.49,0.41S19.46,208.21,19.46,208.21z"/>
			<path class="st3" d="M19.72,203.66c0,0,11.67,0,11.87,0s0.46,0.12,0.64,0.23s3.16,1.85,3.33,1.97s0.55,0.23,0.84,0.23
				c0.29,0,11.7,0,11.87,0s0.45,0,0.81-0.2c0.28-0.16,3.21-1.94,3.39-2.03s0.35-0.2,0.61-0.2s9.64,0,9.93,0s1.97-0.03,1.97,0"/>
			<path class="st3" d="M62.9,203.26c0.05,0.09,0.12,0.3,0.12,0.41s0.22,4.55,0.22,4.55"/>
			<path class="st3" d="M21.69,203.26c-0.04,0.12-0.07,0.28-0.07,0.41s-0.17,4.55-0.17,4.55"/>
			<line class="st3" x1="31.62" y1="203.26" x2="31.62" y2="203.66"/>
			<path class="st3" d="M53.09,203.26c0.01,0,0,0.41,0,0.41"/>
			<path class="st3" d="M52.8,203.26c-0.17,0-0.42,0.19-0.56,0.28s-2.81,1.68-2.95,1.77c-0.21,0.13-0.48,0.35-0.98,0.35
				c-0.29,0-11.57,0-11.81,0c-0.47,0-0.66-0.16-0.88-0.28s-3.02-1.75-3.17-1.86s-0.45-0.25-0.82-0.25"/>
			<line class="st3" x1="35.61" y1="205.37" x2="49.18" y2="205.37"/>
			<path class="st3" d="M48.47,205.65c-0.15,0.11-0.19,0.29-0.19,0.45"/>
			<path class="st3" d="M48.93,205.51c0.07,0.08,0.16,0.21,0.16,0.39"/>
			<path class="st3" d="M36.27,205.65c0.07,0.07,0.13,0.22,0.13,0.45"/>
			<path class="st3" d="M35.83,205.49c-0.12,0.06-0.23,0.2-0.26,0.38"/>
			<path class="st3" d="M32.03,203.78c0.1-0.11,0.23-0.27,0.41-0.27s19.62,0,19.79,0s0.38,0.04,0.47,0.24"/>
			<path class="st3" d="M58.53,208.21c0,0,0,0.31,0,0.41s0.09,0.21,0.2,0.21s0.72,0,0.83,0s0.21-0.05,0.21-0.17s0-0.45,0-0.45"/>
			<path class="st3" d="M24.93,208.21c0,0,0,0.31,0,0.41s0.09,0.21,0.2,0.21s0.72,0,0.83,0s0.21-0.05,0.21-0.17s0-0.45,0-0.45"/>
			<path class="st5" d="M32.56,208.21c0.1,0.14,0.31,0.26,0.48,0.26c0.16,0,0.34-0.1,0.48-0.26"/>
			<path class="st5" d="M39.89,208.21c0.1,0.14,0.31,0.26,0.48,0.26c0.16,0,0.34-0.1,0.48-0.26"/>
			<path class="st5" d="M43.89,208.21c0.1,0.14,0.31,0.26,0.48,0.26s0.34-0.1,0.48-0.26"/>
			<path class="st5" d="M51.15,208.21c0.1,0.14,0.31,0.26,0.48,0.26c0.16,0,0.34-0.1,0.48-0.26"/>
		</g>
		<g>
			<g>
				<rect x="31.88" y="133.49" class="st4" width="20.91" height="69.74"/>
				<line class="st3" x1="33.22" y1="133.49" x2="33.22" y2="203.23"/>
				<line class="st3" x1="51.41" y1="203.23" x2="51.41" y2="133.49"/>
			</g>
			<g>
				<path class="st4" d="M33.3,133.58c0.61,0,17.79,0,18.09,0s1.26,0,1.56,0c0.45,0,0.41-0.2,0.41-0.41s0-0.43,0-0.61
					c0-0.29-0.12-0.35-0.66-0.35c-0.3,0-0.73,0-1.14,0s-17.99,0-18.27,0s-1.24,0-1.39,0c-0.34,0-0.47,0.11-0.47,0.31s0,0.51,0,0.62
					s-0.06,0.43,0.34,0.43C32.12,133.58,32.86,133.58,33.3,133.58z"/>
				<line class="st3" x1="31.44" y1="132.52" x2="53.37" y2="132.52"/>
				<line class="st3" x1="53.37" y1="133.16" x2="31.44" y2="133.16"/>
				<path class="st3" d="M33.3,132.21c-0.11,0.14-0.14,0.17-0.14,0.31c0,0.14,0,0.55,0,0.64c0,0.09-0.01,0.28,0.14,0.41"/>
				<path class="st3" d="M51.39,132.21c0.13,0.15,0.14,0.17,0.14,0.31c0,0.14,0,0.52,0,0.64c0,0.12-0.01,0.25-0.14,0.41"/>
			</g>
		</g>
		<g>
			<rect x="40.57" y="107.6" class="st4" width="3.35" height="20.98"/>
			<line class="st3" x1="40.96" y1="128.58" x2="40.96" y2="107.6"/>
			<line class="st3" x1="43.53" y1="107.6" x2="43.53" y2="128.58"/>
			<rect x="39.84" y="122.41" class="st4" width="4.82" height="9.73"/>
		</g>
		<g>
			<polygon class="st4" points="50.12,132.14 50.14,130.84 46.71,130.78 46.69,132.15 			"/>
			<line class="st3" x1="48.7" y1="130.81" x2="48.7" y2="132.11"/>
		</g>
		<g>
			<rect x="40.96" y="103.17" class="st8" width="2.56" height="4.43"/>
			<rect x="41.4" y="101.17" class="st8" width="1.61" height="2"/>
		</g>
		<path class="st4" d="M29.19,160.11h26.3c0,0,0-5.71,0-6.6s0.12-1.25-0.49-1.25s-24.79,0-25.28,0s-0.52,0.2-0.52,1.16
			S29.19,160.11,29.19,160.11z"/>
		<g>
			<path class="st4" d="M52.8,168.71c0,0,3.01,0.87,3.24,0.96s0.29,0.17,0.29,0.35c0,0.17,0,6.46,0,6.46H52.8V168.71z"/>
			<polyline class="st3" points="56.04,169.66 56.04,176.21 52.8,176.21 			"/>
			<line class="st3" x1="56.04" y1="176.21" x2="56.33" y2="176.47"/>
		</g>
		<g>
			<path class="st20" d="M49.33,225.92H35.69c-1.1,0-2-0.9-2-2v-12.16c0-1.1,0.9-2,2-2h13.64c1.1,0,2,0.9,2,2v12.16
				C51.33,225.02,50.43,225.92,49.33,225.92z"/>
			<path class="st21" d="M37.83,215.6h-0.21c-0.55,0-1-0.45-1-1v-2.12c0-0.55,0.45-1,1-1h0.21c0.55,0,1,0.45,1,1v2.12
				C38.83,215.15,38.38,215.6,37.83,215.6z"/>
			<rect x="36.76" y="220.48" class="st21" width="1.92" height="0.88"/>
			<path class="st21" d="M42.61,215.63H42.4c-0.55,0-1-0.45-1-1v-2.12c0-0.55,0.45-1,1-1h0.21c0.55,0,1,0.45,1,1v2.12
				C43.61,215.18,43.16,215.63,42.61,215.63z"/>
			<path class="st21" d="M38.32,221.19c-0.03,0.03-0.02,0.05-0.09,0.05s-0.96,0-1.03,0c-0.06,0-0.07-0.04-0.07-0.04
				c-0.04-0.05-0.1-0.09-0.18-0.11c-0.09-0.02-0.08-0.1-0.08-0.1v-0.33c0-0.04,0.03-0.08,0.08-0.08h1.56c0.04,0,0.08,0.03,0.08,0.08
				c0,0,0,0.29,0,0.34s-0.02,0.06-0.06,0.07C38.44,221.1,38.36,221.14,38.32,221.19z"/>
			<path class="st21" d="M37.13,220.85h1.18c-0.04,0.02-0.1,0.06-0.1,0.06h-0.98L37.13,220.85z"/>
			<circle class="st21" cx="37.72" cy="223.79" r="1.27"/>
			<path class="st21" d="M42.58,225.14L42.58,225.14c-1.01,0-1.84-0.83-1.84-1.84v-3.02c0-1.01,0.83-1.84,1.84-1.84l0,0
				c1.01,0,1.84,0.83,1.84,1.84v3.02C44.42,224.31,43.59,225.14,42.58,225.14z"/>
		</g>
		<g>
			<path class="st4" d="M20.94,150.55c0,0.43,0.32,1.25,1.22,1.25s1.27-0.75,1.27-1.27s0-0.75,0-1.27c0-0.94,0.75-1.84,4.29-2.43
				c7.43-1.25,21.81-1.16,29.19-0.06c2.02,0.3,4.37,1.16,4.37,2.41c0,0.95,0,0.89,0,1.38s0.23,1.25,1.19,1.25
				c0.9,0,1.25-0.72,1.25-1.25c0-0.52,0-0.94,0-1.38c0-3.28-3.31-4.35-6.46-4.73c-10.72-1.3-20.45-1.25-29.92,0
				c-2.55,0.34-6.4,1.54-6.4,4.78C20.94,150,20.94,149.74,20.94,150.55z"/>
			<path class="st3" d="M61.28,150.12c0.41,0.52,0.58,0.72,1.22,0.72s0.87-0.17,1.22-0.72"/>
			<path class="st3" d="M61.28,149.24c0.41,0.52,0.58,0.72,1.22,0.72s0.87-0.17,1.22-0.72"/>
			<line class="st3" x1="62.47" y1="151.8" x2="62.47" y2="149.96"/>
			<path class="st3" d="M56.91,146.76c0.49-0.67,0.58-1.48,0.35-2.32"/>
			<path class="st3" d="M27.71,146.82c-0.35-0.41-0.52-1.48-0.38-2.37"/>
			<path class="st3" d="M20.94,150.12c0.41,0.52,0.58,0.72,1.22,0.72s0.87-0.17,1.22-0.72"/>
			<path class="st3" d="M20.94,149.24c0.41,0.52,0.58,0.72,1.22,0.72s0.87-0.17,1.22-0.72"/>
			<line class="st3" x1="22.12" y1="151.8" x2="22.12" y2="149.96"/>
			<path class="st3" d="M21.03,148.36c0.86-1.6,2.13-2.7,6.25-3.28c7.49-1.06,21.51-1.4,30.08-0.03c4.17,0.67,5.68,1.9,6.35,3.31"/>
		</g>
	</g>
</g>
<g id="Layer_4">
	<g class="st0">
		<g class="st1">
			<g>
				<path class="st22" d="M6.27,237.99h1.88v-1.35c0.47-0.44,0.76-0.87,0.76-2.31H6.27H3.63c0,1.44,0.29,1.88,0.76,2.31v1.35H6.27z"
					/>
				<path class="st23" d="M3.63,234.58c1.49,1.18,3.51,1.22,5.28,0"/>
				<path class="st23" d="M3.73,235.42c1.49,1.18,3.34,1.2,5.1-0.02"/>
			</g>
			<g>
				<path class="st24" d="M3.23,250.14h6.25v-12.02H7.9v-1.88c-0.69-0.33-2.82-0.31-3.26,0v1.8h-1.4v10.47L3.23,250.14L3.23,250.14z
					"/>
				<line class="st23" x1="9.38" y1="248.5" x2="3.23" y2="248.5"/>
				<polyline class="st23" points="3.76,248.5 6.09,244.45 8.42,248.5 				"/>
			</g>
			<g>
				<path class="st25" d="M2.51,250.37h-0.9c-0.45,0-0.82-0.37-0.82-0.82v-12.24c0-0.45,0.37-0.82,0.82-0.82h0.9
					c0.45,0,0.82,0.37,0.82,0.82v12.24C3.33,250,2.96,250.37,2.51,250.37z"/>
				<path class="st23" d="M1.61,236.5c-0.16,0.35-0.24,0.51-0.24,0.84s0,11.98,0,12.31s0.11,0.6,0.24,0.73"/>
				<path class="st23" d="M2.58,236.5c0.16,0.35,0.24,0.51,0.24,0.84s0,11.98,0,12.31s-0.11,0.6-0.24,0.73"/>
				<path class="st23" d="M0.84,237.19c0.17,0.14,0.17,0.14,0.53,0.14s1.18,0,1.44,0s0.37-0.07,0.52-0.14"/>
				<path class="st23" d="M0.84,249.66c0.17-0.14,0.17-0.14,0.53-0.14s1.18,0,1.44,0s0.37,0.07,0.52,0.14"/>
			</g>
			<g>
				<path class="st25" d="M10.29,250.37h-0.9c-0.45,0-0.82-0.37-0.82-0.82v-12.24c0-0.45,0.37-0.82,0.82-0.82h0.9
					c0.45,0,0.82,0.37,0.82,0.82v12.24C11.11,250,10.74,250.37,10.29,250.37z"/>
				<path class="st23" d="M9.39,236.5c-0.16,0.35-0.24,0.51-0.24,0.84s0,11.98,0,12.31s0.11,0.6,0.24,0.73"/>
				<path class="st23" d="M10.35,236.5c0.16,0.35,0.24,0.51,0.24,0.84s0,11.98,0,12.31s-0.11,0.6-0.24,0.73"/>
				<path class="st23" d="M8.61,237.19c0.17,0.14,0.17,0.14,0.53,0.14s1.18,0,1.44,0s0.37-0.07,0.52-0.14"/>
				<path class="st23" d="M8.61,249.66c0.17-0.14,0.17-0.14,0.53-0.14s1.18,0,1.44,0s0.37,0.07,0.52,0.14"/>
			</g>
			<path class="st22" d="M5.86,242.45c1.18,0,2.22,0.02,2.6,0.16c0.38,0.15,0.84,0.58,0.87,0.89c0.04,0.31,0.16,0.51-0.4,0.55
				c-0.56,0.04-1.62,0-1.62,0s-0.76,1.77-0.93,2.13c-0.16,0.36-0.36,0.89-0.36,1.68s0.04,2.06-0.16,2.06H5.8
				c-0.2,0-0.16-1.27-0.16-2.06s-0.2-1.31-0.36-1.68s-0.93-2.13-0.93-2.13s-1.06,0.04-1.62,0c-0.56-0.04-0.44-0.24-0.4-0.55
				s0.49-0.75,0.87-0.89c0.38-0.15,1.42-0.16,2.6-0.16"/>
		</g>
		<g class="st1">
			<g>
				<path class="st22" d="M83.51,238.09h1.88v-1.35c0.47-0.44,0.76-0.87,0.76-2.31h-2.64h-2.64c0,1.44,0.29,1.88,0.76,2.31v1.35
					H83.51z"/>
				<path class="st23" d="M80.87,234.68c1.49,1.18,3.51,1.22,5.28,0"/>
				<path class="st23" d="M80.97,235.52c1.49,1.18,3.34,1.2,5.1-0.02"/>
			</g>
			<g>
				<path class="st24" d="M80.47,250.24h6.25v-12.02h-1.58v-1.88c-0.69-0.33-2.82-0.31-3.26,0v1.8h-1.4v10.47v1.63H80.47z"/>
				<line class="st23" x1="86.62" y1="248.6" x2="80.47" y2="248.6"/>
				<polyline class="st23" points="81,248.6 83.33,244.56 85.66,248.6 				"/>
			</g>
			<g>
				<path class="st25" d="M79.75,250.47h-0.9c-0.45,0-0.82-0.37-0.82-0.82v-12.24c0-0.45,0.37-0.82,0.82-0.82h0.9
					c0.45,0,0.82,0.37,0.82,0.82v12.24C80.57,250.11,80.2,250.47,79.75,250.47z"/>
				<path class="st23" d="M78.85,236.6c-0.16,0.35-0.24,0.51-0.24,0.84s0,11.98,0,12.31s0.11,0.6,0.24,0.73"/>
				<path class="st23" d="M79.82,236.6c0.16,0.35,0.24,0.51,0.24,0.84s0,11.98,0,12.31s-0.11,0.6-0.24,0.73"/>
				<path class="st23" d="M78.08,237.29c0.17,0.14,0.17,0.14,0.53,0.14s1.18,0,1.44,0s0.37-0.07,0.52-0.14"/>
				<path class="st23" d="M78.08,249.76c0.17-0.14,0.17-0.14,0.53-0.14s1.18,0,1.44,0s0.37,0.07,0.52,0.14"/>
			</g>
			<g>
				<path class="st25" d="M87.53,250.47h-0.9c-0.45,0-0.82-0.37-0.82-0.82v-12.24c0-0.45,0.37-0.82,0.82-0.82h0.9
					c0.45,0,0.82,0.37,0.82,0.82v12.24C88.35,250.11,87.98,250.47,87.53,250.47z"/>
				<path class="st23" d="M86.63,236.6c-0.16,0.35-0.24,0.51-0.24,0.84s0,11.98,0,12.31s0.11,0.6,0.24,0.73"/>
				<path class="st23" d="M87.59,236.6c0.16,0.35,0.24,0.51,0.24,0.84s0,11.98,0,12.31s-0.11,0.6-0.24,0.73"/>
				<path class="st23" d="M85.85,237.29c0.17,0.14,0.17,0.14,0.53,0.14s1.18,0,1.44,0s0.37-0.07,0.52-0.14"/>
				<path class="st23" d="M85.85,249.76c0.17-0.14,0.17-0.14,0.53-0.14s1.18,0,1.44,0s0.37,0.07,0.52,0.14"/>
			</g>
			<path class="st22" d="M83.1,242.55c1.18,0,2.22,0.02,2.6,0.16s0.84,0.58,0.87,0.89s0.16,0.51-0.4,0.55c-0.56,0.04-1.62,0-1.62,0
				s-0.76,1.77-0.93,2.13c-0.16,0.36-0.36,0.89-0.36,1.68c0,0.78,0.04,2.06-0.16,2.06h-0.07c-0.2,0-0.16-1.27-0.16-2.06
				c0-0.78-0.2-1.31-0.36-1.68s-0.93-2.13-0.93-2.13s-1.06,0.04-1.62,0s-0.44-0.24-0.4-0.55c0.04-0.31,0.49-0.75,0.87-0.89
				s1.42-0.16,2.6-0.16"/>
		</g>
		<g class="st1">
			<path class="st26" d="M44.57,231.75c15.08,0,34.96,2.29,37.26,2.62c2.29,0.33,3.39,0.22,4.15,0s0.87-0.76,0.76-1.31
				s-0.11-1.42-0.44-2.62c-0.33-1.2-0.76-1.64-2.62-2.19s-25.79-5.57-39.12-5.57s-37.26,5.03-39.12,5.57
				c-1.86,0.55-2.29,0.98-2.62,2.19s-0.33,2.08-0.44,2.62c-0.11,0.55,0,1.09,0.76,1.31s1.86,0.33,4.15,0
				C9.61,234.04,29.5,231.75,44.57,231.75z"/>
			<path class="st27" d="M5.46,228.25c-0.79,1.75-1.87,4.89-1.53,6.27"/>
			<path class="st27" d="M83.69,228.25c0.76,1.31,1.65,4.24,1.53,6.27"/>
			<path class="st27" d="M85.89,229.45c0.31,0.63-0.61,0.94-1.4,0.83c-0.8-0.11-24.4-4.37-39.91-4.37s-39.12,4.26-39.91,4.37
				c-0.8,0.11-1.71-0.2-1.4-0.83"/>
		</g>
		<g class="st1">
			<rect x="38.14" y="231.91" class="st22" width="13.11" height="5.11"/>
			<g>
				<g>
					<g>
						<g>
							<path class="st15" d="M46.3,234.79c0.05-0.05,0.1-0.15,0.1-0.22v-0.28c0-0.07-0.06-0.13-0.13-0.13H42.9
								c-0.07,0-0.13,0.06-0.13,0.13v0.28c0,0.07,0.04,0.17,0.1,0.22l0.43,0.37c0.05,0.05,0.16,0.09,0.23,0.09h2.14
								c0.07,0,0.17-0.04,0.23-0.09L46.3,234.79z"/>
							<path class="st28" d="M46.3,234.79c0.05-0.05,0.1-0.15,0.1-0.22v-0.28c0-0.07-0.06-0.13-0.13-0.13H42.9
								c-0.07,0-0.13,0.06-0.13,0.13v0.28c0,0.07,0.04,0.17,0.1,0.22l0.43,0.37c0.05,0.05,0.16,0.09,0.23,0.09h2.14
								c0.07,0,0.17-0.04,0.23-0.09L46.3,234.79z"/>
						</g>
					</g>
				</g>
				<rect x="43.28" y="234.54" class="st17" width="2.57" height="0.21"/>
				<rect x="43.47" y="234.52" class="st29" width="0.1" height="0.04"/>
				<rect x="43.71" y="234.52" class="st29" width="0.1" height="0.04"/>
				<rect x="43.94" y="234.52" class="st29" width="0.1" height="0.04"/>
				<rect x="44.18" y="234.52" class="st29" width="0.1" height="0.04"/>
				<rect x="44.41" y="234.52" class="st29" width="0.1" height="0.04"/>
				<rect x="44.65" y="234.52" class="st29" width="0.1" height="0.04"/>
				<rect x="44.88" y="234.52" class="st29" width="0.1" height="0.04"/>
				<rect x="45.12" y="234.52" class="st29" width="0.1" height="0.04"/>
				<rect x="45.35" y="234.52" class="st29" width="0.1" height="0.04"/>
				<rect x="45.59" y="234.52" class="st29" width="0.1" height="0.04"/>
				<rect x="45.47" y="234.73" class="st30" width="0.11" height="0.04"/>
				<rect x="45.24" y="234.73" class="st30" width="0.11" height="0.04"/>
				<rect x="45" y="234.73" class="st30" width="0.11" height="0.04"/>
				<rect x="44.77" y="234.73" class="st30" width="0.11" height="0.04"/>
				<rect x="44.54" y="234.73" class="st30" width="0.11" height="0.04"/>
				<rect x="44.3" y="234.73" class="st30" width="0.11" height="0.04"/>
				<rect x="44.06" y="234.73" class="st30" width="0.11" height="0.04"/>
				<rect x="43.83" y="234.73" class="st30" width="0.11" height="0.04"/>
				<rect x="43.59" y="234.73" class="st30" width="0.11" height="0.04"/>
			</g>
			<path class="st23" d="M46.77,235.78h-4.3c-0.3,0-0.55-0.24-0.55-0.55v-1.27c0-0.3,0.24-0.55,0.55-0.55h4.3
				c0.3,0,0.55,0.24,0.55,0.55v1.27C47.31,235.54,47.07,235.78,46.77,235.78z"/>
			<g>
				<circle class="st23" cx="40.7" cy="234.69" r="0.71"/>
				<line class="st31" x1="40.7" y1="234.29" x2="40.7" y2="235.09"/>
				<line class="st31" x1="40.3" y1="234.69" x2="41.1" y2="234.69"/>
			</g>
			<g>
				<circle class="st23" cx="48.5" cy="234.69" r="0.71"/>
				<line class="st31" x1="48.5" y1="234.29" x2="48.5" y2="235.09"/>
				<line class="st31" x1="48.1" y1="234.69" x2="48.9" y2="234.69"/>
			</g>
		</g>
		<g class="st1">
			<path class="st26" d="M71.6,90.11H16.31c-0.9,0-1.64-0.74-1.64-1.64V42.36c0-0.9,0.74-1.64,1.64-1.64H71.6
				c0.9,0,1.64,0.74,1.64,1.64v46.11C73.24,89.37,72.5,90.11,71.6,90.11z"/>
			<g>
				<path class="st32" d="M6.09,48.54c-1.28-0.24-2.57-0.51-3.87-0.83c-2.19,7.14-2.4,25.28,0,35.91c1.32-0.29,2.71-0.58,4.15-0.86
					C3.93,71.81,4.47,57.97,6.09,48.54z"/>
				<path class="st33" d="M2.22,47.72c-2.19,7.14-2.4,25.28,0,35.91c6.92-1.53,15.95-3.06,22.51-3.06V50.2
					C20.14,50.19,11.25,49.9,2.22,47.72z"/>
				<path class="st34" d="M6.23,82.79C3.45,71.39,4.11,58.2,5.89,48.51"/>
				<line class="st35" x1="21.23" y1="50.14" x2="21.23" y2="80.72"/>
				<g>
					<circle class="st23" cx="23.12" cy="77.95" r="0.71"/>
					<line class="st31" x1="23.12" y1="77.55" x2="23.12" y2="78.35"/>
					<line class="st31" x1="22.72" y1="77.95" x2="23.52" y2="77.95"/>
				</g>
				<g>
					<circle class="st23" cx="23.12" cy="52.98" r="0.71"/>
					<line class="st31" x1="23.12" y1="52.58" x2="23.12" y2="53.38"/>
					<line class="st31" x1="22.72" y1="52.98" x2="23.52" y2="52.98"/>
				</g>
			</g>
			<g>
				<path class="st32" d="M81.98,82.55c1.28,0.24,2.57,0.51,3.87,0.83c2.19-7.14,2.4-25.28,0-35.91c-1.32,0.29-2.71,0.58-4.15,0.86
					C84.14,59.28,83.6,73.12,81.98,82.55z"/>
				<path class="st33" d="M85.71,47.46c2.19,7.14,2.4,25.28,0,35.91c-6.92-1.53-15.95-3.06-22.51-3.06V49.94
					C67.79,49.94,76.68,49.65,85.71,47.46z"/>
				<path class="st34" d="M82.04,48.25c1.78,9.7,2.43,22.88-0.34,34.28"/>
				<line class="st35" x1="66.69" y1="49.88" x2="66.69" y2="80.46"/>
				<g>
					<circle class="st23" cx="64.81" cy="77.69" r="0.71"/>
					<line class="st31" x1="64.81" y1="77.29" x2="64.81" y2="78.09"/>
					<line class="st31" x1="65.21" y1="77.69" x2="64.41" y2="77.69"/>
				</g>
				<g>
					<circle class="st23" cx="64.81" cy="52.73" r="0.71"/>
					<line class="st31" x1="64.81" y1="52.32" x2="64.81" y2="53.13"/>
					<line class="st31" x1="65.21" y1="52.73" x2="64.41" y2="52.73"/>
				</g>
			</g>
		</g>
		<g class="st1">
			<path class="st36" d="M43.86,100.53c0.08,0,0.17,0.01,0.25,0.01s0.16-0.01,0.25-0.01H43.86z"/>
			<path class="st36" d="M63.18,104.77c-3.75-2.17-8.69-3.78-19.08-4.24c-10.39,0.45-15.33,2.07-19.08,4.24
				c-4.49,2.6-5.26,7.12-2.74,9.52c2.51,2.4,10.27,4.7,14.97,5.14h6.6h0.5h6.6c4.7-0.44,12.46-2.73,14.97-5.14
				C68.44,111.89,67.68,107.37,63.18,104.77z M58.24,114c-3.61,0.91-12.4,1.75-14.14,1.75s-10.53-0.84-14.14-1.75
				s-5.5-1.89-5.5-3.68c0-1.78,3.5-2.95,5.43-3.5s7.94-2.7,14.21-2.7s12.28,2.15,14.21,2.7c1.93,0.55,5.43,1.71,5.43,3.5
				S61.85,113.09,58.24,114z"/>
		</g>
		<g class="st1">
			<polygon class="st26" points="58.01,223.56 58.01,54.86 30.26,54.86 30.48,223.56 			"/>
			<line class="st27" x1="37.25" y1="223.56" x2="37.25" y2="54.86"/>
			<line class="st27" x1="51.24" y1="223.56" x2="51.24" y2="54.86"/>
			<path class="st27" d="M37.25,140.74c2.84,0.66,11.8,0.66,13.99,0"/>
			<path class="st35" d="M40.39,126.67h8.3c0,0,0-2.33,0-5.24s-2.15-4.66-4.04-4.66s-4.33,0.95-4.33,4.66S40.39,126.67,40.39,126.67
				z"/>
		</g>
	</g>
	<g>
		<g>
			<g>
				<path class="st37" d="M6.84,238.05h1.88v-1.35c0.47-0.44,0.77-0.87,0.77-2.31H6.85H4.21c0,1.44,0.29,1.88,0.77,2.31v1.35H6.84z"
					/>
				<path class="st23" d="M4.19,234.64c1.49,1.18,3.52,1.22,5.28,0"/>
				<path class="st23" d="M4.29,235.48c1.49,1.18,3.34,1.2,5.11-0.02"/>
			</g>
			<g>
				<path class="st24" d="M3.79,250.2h6.25v-12.03H8.45v-1.88c-0.69-0.33-2.82-0.31-3.26,0v1.8h-1.4v10.48V250.2z"/>
				<line class="st23" x1="9.94" y1="248.56" x2="3.79" y2="248.56"/>
				<polyline class="st23" points="4.32,248.56 6.65,244.52 8.98,248.56 				"/>
			</g>
			<g>
				<path class="st38" d="M3.07,250.44h-0.9c-0.45,0-0.82-0.37-0.82-0.82v-12.24c0-0.45,0.37-0.82,0.82-0.82h0.9
					c0.45,0,0.82,0.37,0.82,0.82v12.24C3.89,250.07,3.52,250.44,3.07,250.44z"/>
				<path class="st23" d="M2.17,236.56c-0.16,0.35-0.24,0.51-0.24,0.84s0,11.99,0,12.32c0,0.33,0.11,0.6,0.24,0.73"/>
				<path class="st23" d="M3.13,236.56c0.16,0.35,0.24,0.51,0.24,0.84s0,11.99,0,12.32c0,0.33-0.11,0.6-0.24,0.73"/>
				<path class="st23" d="M1.4,237.25c0.17,0.14,0.17,0.14,0.53,0.14s1.18,0,1.44,0s0.37-0.07,0.52-0.14"/>
				<path class="st23" d="M1.4,249.73c0.17-0.14,0.17-0.14,0.53-0.14s1.18,0,1.44,0s0.37,0.07,0.52,0.14"/>
			</g>
			<g>
				<path class="st38" d="M10.85,250.44h-0.9c-0.45,0-0.82-0.37-0.82-0.82v-12.24c0-0.45,0.37-0.82,0.82-0.82h0.9
					c0.45,0,0.82,0.37,0.82,0.82v12.24C11.67,250.07,11.3,250.44,10.85,250.44z"/>
				<path class="st23" d="M9.95,236.56c-0.16,0.35-0.24,0.51-0.24,0.84s0,11.99,0,12.32c0,0.33,0.11,0.6,0.24,0.73"/>
				<path class="st23" d="M10.91,236.56c0.16,0.35,0.24,0.51,0.24,0.84s0,11.99,0,12.32c0,0.33-0.11,0.6-0.24,0.73"/>
				<path class="st23" d="M9.18,237.25c0.17,0.14,0.17,0.14,0.53,0.14s1.18,0,1.44,0s0.37-0.07,0.52-0.14"/>
				<path class="st23" d="M9.18,249.73c0.17-0.14,0.17-0.14,0.53-0.14s1.18,0,1.44,0s0.37,0.07,0.52,0.14"/>
			</g>
			<path class="st37" d="M6.42,242.51c1.18,0,2.22,0.02,2.61,0.16c0.38,0.15,0.84,0.58,0.87,0.89c0.04,0.31,0.16,0.51-0.4,0.55
				c-0.56,0.04-1.62,0-1.62,0s-0.77,1.77-0.93,2.13c-0.16,0.36-0.36,0.89-0.36,1.68s0.04,2.06-0.16,2.06H6.36
				c-0.2,0-0.16-1.28-0.16-2.06s-0.2-1.31-0.36-1.68c-0.16-0.36-0.93-2.13-0.93-2.13s-1.06,0.04-1.62,0s-0.44-0.24-0.4-0.55
				s0.49-0.75,0.87-0.89c0.38-0.15,1.42-0.16,2.61-0.16"/>
		</g>
		<g>
			<g>
				<path class="st37" d="M84.12,238.15H86v-1.35c0.47-0.44,0.77-0.87,0.77-2.31h-2.64h-2.64c0,1.44,0.29,1.88,0.77,2.31v1.35H84.12
					z"/>
				<path class="st23" d="M81.47,234.74c1.49,1.18,3.52,1.22,5.28,0"/>
				<path class="st23" d="M81.57,235.58c1.49,1.18,3.34,1.2,5.11-0.02"/>
			</g>
			<g>
				<path class="st24" d="M81.07,250.31h6.25v-12.03h-1.59v-1.88c-0.69-0.33-2.82-0.31-3.26,0v1.8h-1.4v10.48L81.07,250.31
					L81.07,250.31z"/>
				<line class="st23" x1="87.22" y1="248.67" x2="81.07" y2="248.67"/>
				<polyline class="st23" points="81.6,248.67 83.93,244.62 86.26,248.67 				"/>
			</g>
			<g>
				<path class="st38" d="M80.35,250.54h-0.9c-0.45,0-0.82-0.37-0.82-0.82v-12.24c0-0.45,0.37-0.82,0.82-0.82h0.9
					c0.45,0,0.82,0.37,0.82,0.82v12.24C81.17,250.17,80.8,250.54,80.35,250.54z"/>
				<path class="st23" d="M79.45,236.66c-0.16,0.35-0.24,0.51-0.24,0.84s0,11.99,0,12.32c0,0.33,0.11,0.6,0.24,0.73"/>
				<path class="st23" d="M80.41,236.66c0.16,0.35,0.24,0.51,0.24,0.84s0,11.99,0,12.32c0,0.33-0.11,0.6-0.24,0.73"/>
				<path class="st23" d="M78.68,237.35c0.17,0.14,0.17,0.14,0.53,0.14s1.18,0,1.44,0c0.26,0,0.37-0.07,0.52-0.14"/>
				<path class="st23" d="M78.68,249.83c0.17-0.14,0.17-0.14,0.53-0.14s1.18,0,1.44,0c0.26,0,0.37,0.07,0.52,0.14"/>
			</g>
			<g>
				<path class="st38" d="M88.13,250.54h-0.9c-0.45,0-0.82-0.37-0.82-0.82v-12.24c0-0.45,0.37-0.82,0.82-0.82h0.9
					c0.45,0,0.82,0.37,0.82,0.82v12.24C88.95,250.17,88.58,250.54,88.13,250.54z"/>
				<path class="st23" d="M87.23,236.66c-0.16,0.35-0.24,0.51-0.24,0.84s0,11.99,0,12.32c0,0.33,0.11,0.6,0.24,0.73"/>
				<path class="st23" d="M88.19,236.66c0.16,0.35,0.24,0.51,0.24,0.84s0,11.99,0,12.32c0,0.33-0.11,0.6-0.24,0.73"/>
				<path class="st23" d="M86.46,237.35c0.17,0.14,0.17,0.14,0.53,0.14s1.18,0,1.44,0c0.26,0,0.37-0.07,0.52-0.14"/>
				<path class="st23" d="M86.46,249.83c0.17-0.14,0.17-0.14,0.53-0.14s1.18,0,1.44,0c0.26,0,0.37,0.07,0.52,0.14"/>
			</g>
			<path class="st37" d="M83.7,242.62c1.18,0,2.22,0.02,2.61,0.16s0.84,0.58,0.87,0.89c0.04,0.31,0.16,0.51-0.4,0.55
				c-0.56,0.04-1.62,0-1.62,0s-0.77,1.77-0.93,2.13c-0.16,0.36-0.36,0.89-0.36,1.68s0.04,2.06-0.16,2.06h-0.07
				c-0.2,0-0.16-1.28-0.16-2.06s-0.2-1.31-0.36-1.68c-0.16-0.36-0.93-2.13-0.93-2.13s-1.06,0.04-1.62,0s-0.44-0.24-0.4-0.55
				c0.04-0.31,0.49-0.75,0.87-0.89s1.42-0.16,2.61-0.16"/>
		</g>
		<g>
			<rect x="38.71" y="231.97" class="st37" width="13.12" height="5.11"/>
			<g>
				<g>
					<g>
						<g>
							<path class="st15" d="M46.88,234.85c0.05-0.05,0.1-0.15,0.1-0.22v-0.28c0-0.07-0.06-0.13-0.13-0.13h-3.36
								c-0.07,0-0.13,0.06-0.13,0.13v0.28c0,0.07,0.04,0.17,0.1,0.22l0.43,0.37c0.05,0.05,0.16,0.09,0.23,0.09h2.14
								c0.07,0,0.17-0.04,0.23-0.09L46.88,234.85z"/>
							<path class="st39" d="M46.88,234.85c0.05-0.05,0.1-0.15,0.1-0.22v-0.28c0-0.07-0.06-0.13-0.13-0.13h-3.36
								c-0.07,0-0.13,0.06-0.13,0.13v0.28c0,0.07,0.04,0.17,0.1,0.22l0.43,0.37c0.05,0.05,0.16,0.09,0.23,0.09h2.14
								c0.07,0,0.17-0.04,0.23-0.09L46.88,234.85z"/>
						</g>
					</g>
				</g>
				<rect x="43.86" y="234.6" class="st17" width="2.57" height="0.21"/>
				<rect x="44.05" y="234.58" class="st29" width="0.1" height="0.04"/>
				<rect x="44.29" y="234.58" class="st29" width="0.1" height="0.04"/>
				<rect x="44.52" y="234.58" class="st29" width="0.1" height="0.04"/>
				<rect x="44.76" y="234.58" class="st29" width="0.1" height="0.04"/>
				<rect x="44.99" y="234.58" class="st29" width="0.1" height="0.04"/>
				<rect x="45.23" y="234.58" class="st29" width="0.1" height="0.04"/>
				<rect x="45.46" y="234.58" class="st29" width="0.1" height="0.04"/>
				<rect x="45.7" y="234.58" class="st29" width="0.1" height="0.04"/>
				<rect x="45.93" y="234.58" class="st29" width="0.1" height="0.04"/>
				<rect x="46.17" y="234.58" class="st29" width="0.1" height="0.04"/>
				<rect x="46.05" y="234.79" class="st30" width="0.11" height="0.04"/>
				<rect x="45.82" y="234.79" class="st30" width="0.11" height="0.04"/>
				<rect x="45.58" y="234.79" class="st30" width="0.11" height="0.04"/>
				<rect x="45.35" y="234.79" class="st30" width="0.11" height="0.04"/>
				<rect x="45.12" y="234.79" class="st30" width="0.11" height="0.04"/>
				<rect x="44.88" y="234.79" class="st30" width="0.11" height="0.04"/>
				<rect x="44.64" y="234.79" class="st30" width="0.11" height="0.04"/>
				<rect x="44.41" y="234.79" class="st30" width="0.11" height="0.04"/>
				<rect x="44.17" y="234.79" class="st30" width="0.11" height="0.04"/>
			</g>
			<path class="st23" d="M47.35,235.84h-4.3c-0.3,0-0.55-0.24-0.55-0.55v-1.28c0-0.3,0.24-0.55,0.55-0.55h4.3
				c0.3,0,0.55,0.24,0.55,0.55v1.28C47.9,235.6,47.65,235.84,47.35,235.84z"/>
			<g>
				<circle class="st23" cx="41.28" cy="234.75" r="0.71"/>
				<line class="st40" x1="41.28" y1="234.35" x2="41.28" y2="235.15"/>
				<line class="st40" x1="40.88" y1="234.75" x2="41.68" y2="234.75"/>
			</g>
			<g>
				<circle class="st23" cx="49.09" cy="234.75" r="0.71"/>
				<line class="st40" x1="49.09" y1="234.35" x2="49.09" y2="235.15"/>
				<line class="st40" x1="48.68" y1="234.75" x2="49.49" y2="234.75"/>
			</g>
		</g>
		<g>
			<path class="st41" d="M73.5,225.8H16.59c-0.9,0-1.64-0.74-1.64-1.64v-13.65c0-0.9,0.74-1.64,1.64-1.64H73.5
				c0.9,0,1.64,0.74,1.64,1.64v13.65C75.14,225.06,74.4,225.8,73.5,225.8z"/>
			<path class="st42" d="M14.95,213.05c9.71,1.87,49.86,2.31,60.19,0"/>
			<g>
				<circle class="st43" cx="62.36" cy="220.39" r="2.58"/>
				<circle class="st42" cx="62.36" cy="220.39" r="1.2"/>
			</g>
			<circle class="st42" cx="27.77" cy="220.35" r="1.74"/>
			<path class="st44" d="M22.65,217.33c0,0,0,3.33,0,3.69s0.21,0.67,0.59,0.67c0.31,0,1.1,0,1.46,0s0.62-0.18,0.62-0.53
				c0-0.36,0-3.82,0-3.82"/>
			<path class="st44" d="M24.77,221.68h-1.58c-0.3,0-0.55-0.24-0.55-0.55v-2.57c0-0.3,0.24-0.55,0.55-0.55h1.58
				c0.3,0,0.55,0.24,0.55,0.55v2.57C25.32,221.44,25.07,221.68,24.77,221.68z"/>
			<path class="st45" d="M24.14,208.89c-0.38,3.25-0.6,7.68-0.6,10.88c0,0.8,0.85,0.73,0.85,0c0-1.16,0.02-1.6,0.62-10.88H24.14z"/>
		</g>
		<g>
			<path class="st26" d="M45.15,231.81c15.09,0,34.98,2.3,37.28,2.62c2.3,0.33,3.39,0.22,4.15,0c0.77-0.22,0.87-0.77,0.77-1.31
				c-0.11-0.55-0.11-1.42-0.44-2.62c-0.33-1.2-0.77-1.64-2.62-2.19s-25.8-5.58-39.14-5.58s-37.28,5.03-39.14,5.58
				s-2.3,0.98-2.62,2.19c-0.33,1.2-0.33,2.08-0.44,2.62c-0.11,0.55,0,1.09,0.77,1.31s1.86,0.33,4.15,0
				C10.17,234.1,30.07,231.81,45.15,231.81z"/>
			<path class="st27" d="M6.02,228.31c-0.79,1.75-1.87,4.89-1.54,6.27"/>
			<path class="st27" d="M84.29,228.31c0.77,1.31,1.65,4.24,1.54,6.27"/>
			<path class="st27" d="M86.49,229.51c0.31,0.63-0.61,0.94-1.4,0.83s-24.41-4.38-39.94-4.38s-39.14,4.26-39.94,4.38
				c-0.8,0.11-1.72-0.2-1.4-0.83"/>
		</g>
		<g>
			<polygon class="st26" points="58.6,223.61 58.6,54.82 30.83,54.82 31.05,223.61 			"/>
			<line class="st27" x1="37.83" y1="223.61" x2="37.83" y2="54.82"/>
			<line class="st27" x1="51.82" y1="223.61" x2="51.82" y2="54.82"/>
			<path class="st27" d="M37.83,140.75c2.84,0.66,11.81,0.66,13.99,0"/>
			<circle class="st46" cx="45.1" cy="153.54" r="4.39"/>
			<circle class="st46" cx="45.23" cy="216.36" r="4.39"/>
		</g>
		<g>
			<g>
				<path class="st41" d="M45.34,100.47c-13.18,0-23.92,4.81-23.92,9.68c0,7,12.29,9.5,23.92,9.5s23.92-2.49,23.92-9.5
					C69.26,105.28,58.51,100.47,45.34,100.47z M45.34,116.2c-8.67,0-20.36-2.61-20.36-5.82s13.59-6.17,20.36-6.17
					s20.36,2.97,20.36,6.17C65.7,113.59,54,116.2,45.34,116.2z"/>
				<path class="st43" d="M64.82,108.94c1.65,1.32,4.47,3.56,1.99,5.94"/>
				<path class="st43" d="M23.87,114.89c-1.7-1.67-0.08-4.44,2.18-6.09"/>
				<path class="st43" d="M34.2,101.68c-0.73,1.34-0.5,2.99,0.57,3.89"/>
				<path class="st43" d="M54.98,101.36c0.81,1.19,0.52,3.09-0.25,3.95"/>
			</g>
			<g>
				<path class="st47" d="M51.2,121.72H38.46c-0.3,0-0.55-0.25-0.55-0.55v-8.29c0-0.3,0.25-0.55,0.55-0.55H51.2
					c0.3,0,0.55,0.25,0.55,0.55v8.29C51.75,121.48,51.5,121.72,51.2,121.72z"/>
				<line class="st42" x1="37.92" y1="114.89" x2="51.75" y2="114.89"/>
				<line class="st43" x1="37.92" y1="119.65" x2="51.75" y2="119.65"/>
				<line class="st42" x1="37.92" y1="121.18" x2="51.75" y2="121.18"/>
				<line class="st42" x1="37.92" y1="112.89" x2="51.75" y2="112.89"/>
			</g>
		</g>
		<g>
			<g>
				<path class="st48" d="M6.65,48.51C5.37,48.27,4.07,48,2.77,47.68c-2.19,7.14-2.4,25.29,0,35.93c1.32-0.29,2.72-0.58,4.16-0.86
					C4.48,71.79,5.03,57.94,6.65,48.51z"/>
				<path class="st49" d="M2.78,47.68c-2.19,7.14-2.41,25.29,0,35.93c6.92-1.53,15.96-3.06,22.52-3.06V50.16
					C20.7,50.16,11.81,49.87,2.78,47.68z"/>
				<path class="st49" d="M6.79,82.77c-2.78-11.41-2.12-24.6-0.34-34.3"/>
				<line class="st46" x1="21.8" y1="50.1" x2="21.8" y2="80.7"/>
				<g>
					<circle class="st23" cx="23.69" cy="77.92" r="0.71"/>
					<line class="st40" x1="23.69" y1="77.52" x2="23.69" y2="78.33"/>
					<line class="st40" x1="23.29" y1="77.92" x2="24.09" y2="77.92"/>
				</g>
				<g>
					<circle class="st23" cx="23.69" cy="52.95" r="0.71"/>
					<line class="st40" x1="23.69" y1="52.54" x2="23.69" y2="53.35"/>
					<line class="st40" x1="23.29" y1="52.95" x2="24.09" y2="52.95"/>
				</g>
			</g>
			<g>
				<path class="st48" d="M82.58,82.53c1.28,0.24,2.58,0.51,3.88,0.83c2.19-7.14,2.4-25.29,0-35.93c-1.32,0.29-2.72,0.58-4.16,0.86
					C84.75,59.24,84.2,73.09,82.58,82.53z"/>
				<path class="st49" d="M86.32,47.42c2.19,7.14,2.41,25.29,0,35.93c-6.92-1.53-15.96-3.06-22.52-3.06V49.9
					C68.39,49.9,77.28,49.61,86.32,47.42z"/>
				<path class="st49" d="M82.64,48.22c1.78,9.7,2.43,22.89-0.34,34.3"/>
				<line class="st46" x1="67.29" y1="49.85" x2="67.29" y2="80.44"/>
				<g>
					<circle class="st23" cx="65.4" cy="77.67" r="0.71"/>
					<line class="st40" x1="65.4" y1="77.27" x2="65.4" y2="78.07"/>
					<line class="st40" x1="65.8" y1="77.67" x2="65" y2="77.67"/>
				</g>
				<g>
					<circle class="st23" cx="65.4" cy="52.69" r="0.71"/>
					<line class="st40" x1="65.4" y1="52.29" x2="65.4" y2="53.09"/>
					<line class="st40" x1="65.8" y1="52.69" x2="65" y2="52.69"/>
				</g>
			</g>
			<path class="st26" d="M72.19,90.1H16.88c-0.9,0-1.64-0.74-1.64-1.64V42.33c0-0.9,0.74-1.64,1.64-1.64H72.2
				c0.9,0,1.64,0.74,1.64,1.64v46.13C73.83,89.36,73.09,90.1,72.19,90.1z"/>
			<rect x="19.34" y="45.15" class="st46" width="50.81" height="40.96"/>
		</g>
	</g>
</g>
<g id="Layer_3">
	<g>
		<polyline class="st50" points="49.21,234.47 193.89,234.47 193.89,120.22 338.28,120.22 		"/>
		<polyline class="st51" points="49.21,234.47 193.89,234.47 193.89,120.22 338.28,120.22 		"/>
	</g>
	<g>
		<path d="M208.03,178.36h-0.5v-2.02h-2.26v2.02h-0.5v-4.28h0.5v1.82h2.26v-1.82h0.5V178.36z"/>
		<path d="M212.62,176.18c0,0.71-0.19,1.25-0.58,1.62s-0.94,0.56-1.66,0.56h-1.19v-4.28h1.31c0.67,0,1.18,0.18,1.55,0.55
			S212.62,175.51,212.62,176.18z M212.09,176.19c0-0.56-0.14-0.98-0.42-1.26s-0.7-0.42-1.25-0.42h-0.72v3.42h0.61
			c0.59,0,1.04-0.15,1.34-0.44S212.09,176.76,212.09,176.19z"/>
		<path d="M215.47,178.36l-1.45-3.8H214c0.03,0.3,0.04,0.66,0.04,1.07v2.72h-0.46v-4.28h0.75l1.36,3.53h0.02l1.37-3.53h0.74v4.28
			h-0.5v-2.76c0-0.32,0.01-0.66,0.04-1.03h-0.02l-1.46,3.79L215.47,178.36L215.47,178.36z"/>
		<path d="M218.99,178.36v-4.28h0.5v4.28H218.99z"/>
	</g>
	<polygon class="st52" points="193.77,166.99 186.59,181.95 200.96,181.95 	"/>
</g>
</svg>
