<?xml version="1.0" encoding="utf-8"?>
<!-- Generator: Adobe Illustrator 24.0.3, SVG Export Plug-In . SVG Version: 6.00 Build 0)  -->
<svg version="1.1" id="Layer_1" xmlns="http://www.w3.org/2000/svg" xmlns:xlink="http://www.w3.org/1999/xlink" x="0px" y="0px"
	 viewBox="0 0 391.77 251" style="enable-background:new 0 0 391.77 251;" xml:space="preserve">
<style type="text/css">
	.st0{fill:#FFFFFF;stroke:#000000;stroke-width:0.5;stroke-linecap:round;stroke-linejoin:round;stroke-miterlimit:10;}
	.st1{fill:none;stroke:#000000;stroke-width:0.25;stroke-linecap:round;stroke-linejoin:round;stroke-miterlimit:10;}
	.st2{fill:none;stroke:#000000;stroke-width:0.9259;stroke-linecap:round;stroke-linejoin:round;stroke-miterlimit:10;}
	.st3{fill:#FFFFFF;stroke:#000000;stroke-width:0.463;stroke-linecap:round;stroke-linejoin:round;stroke-miterlimit:10;}
	.st4{fill:none;stroke:#000000;stroke-width:0.2315;stroke-linecap:round;stroke-linejoin:round;stroke-miterlimit:10;}
	.st5{display:none;}
	
		.st6{display:inline;fill:#FFFFFF;stroke:#000000;stroke-width:0.5;stroke-linecap:round;stroke-linejoin:round;stroke-miterlimit:10;}
	.st7{display:inline;}
	.st8{fill:#FFFFFF;stroke:#000000;stroke-width:0.2315;stroke-linecap:round;stroke-linejoin:round;stroke-miterlimit:10;}
	.st9{fill:#FFFFFF;stroke:#000000;stroke-width:0.25;stroke-linecap:round;stroke-linejoin:round;stroke-miterlimit:10;}
	
		.st10{display:inline;fill:#FFFFFF;stroke:#000000;stroke-width:0.2315;stroke-linecap:round;stroke-linejoin:round;stroke-miterlimit:10;}
	.st11{fill:none;stroke:#000000;stroke-width:0.5;stroke-linecap:round;stroke-linejoin:round;stroke-miterlimit:10;}
	.st12{fill:#FFFFFF;stroke:#000000;stroke-width:0.9259;stroke-linecap:round;stroke-linejoin:round;stroke-miterlimit:10;}
	.st13{fill:none;stroke:#000000;stroke-width:0.463;stroke-linecap:round;stroke-linejoin:round;stroke-miterlimit:10;}
	.st14{fill:#FFFFFF;stroke:#231F20;stroke-width:0.463;stroke-miterlimit:10;}
	.st15{fill:none;stroke:#231F20;stroke-width:0.2315;stroke-linecap:round;stroke-linejoin:round;stroke-miterlimit:10;}
	.st16{fill:none;stroke:#231F20;stroke-width:0.2315;stroke-miterlimit:10;}
	.st17{fill:#FFFFFF;stroke:#000000;stroke-width:0.463;stroke-linecap:round;stroke-linejoin:round;stroke-miterlimit:10.0005;}
	.st18{fill:none;stroke:#000000;stroke-width:0.4795;stroke-linecap:round;stroke-linejoin:round;stroke-miterlimit:10;}
	.st19{fill:#FFFFFF;stroke:#000000;stroke-width:0.9589;stroke-linecap:round;stroke-linejoin:round;stroke-miterlimit:10;}
	.st20{fill:#FFFFFF;stroke:#231F20;stroke-width:0.9589;stroke-miterlimit:10;}
	.st21{fill:none;stroke:#231F20;stroke-width:0.4795;stroke-linecap:round;stroke-linejoin:round;stroke-miterlimit:10;}
	.st22{fill:none;stroke:#231F20;stroke-width:0.4795;stroke-miterlimit:10;}
	.st23{fill:none;stroke:#000000;stroke-width:2.9341;stroke-linecap:round;stroke-linejoin:round;stroke-miterlimit:10;}
	.st24{fill:none;stroke:#000000;stroke-width:2;stroke-linecap:round;stroke-linejoin:round;stroke-miterlimit:10;}
	.st25{fill:#FFFFFF;stroke:#000000;stroke-width:2;stroke-linecap:round;stroke-linejoin:round;stroke-miterlimit:10;}
	.st26{fill:#FFFFFF;stroke:#000000;stroke-width:0.6413;stroke-linecap:round;stroke-linejoin:round;stroke-miterlimit:10;}
	.st27{fill:none;stroke:#000000;stroke-width:0.3207;stroke-linecap:round;stroke-linejoin:round;stroke-miterlimit:10;}
	.st28{fill:#FFFFFF;stroke:#000000;stroke-linecap:round;stroke-linejoin:round;stroke-miterlimit:10;}
	.st29{fill:none;stroke:#000000;stroke-width:0.6413;stroke-linecap:round;stroke-linejoin:round;stroke-miterlimit:10;}
	.st30{fill:none;stroke:#000000;stroke-linecap:round;stroke-linejoin:round;stroke-miterlimit:10;}
	.st31{fill:#FFFFFF;stroke:#000000;stroke-width:0.1378;stroke-linecap:round;stroke-linejoin:round;stroke-miterlimit:10;}
	.st32{fill:#FFFFFF;}
	.st33{fill:none;stroke:#010101;stroke-width:0.0533;stroke-linecap:round;stroke-linejoin:round;stroke-miterlimit:10;}
	.st34{fill:#010101;}
	.st35{fill:#FFFFFF;stroke:#010101;stroke-width:8.683735e-03;stroke-miterlimit:10;}
	.st36{fill:#FFFFFF;stroke:#010101;stroke-width:9.609092e-03;stroke-miterlimit:10;}
	.st37{fill:none;stroke:#FFFFFF;stroke-width:6;stroke-linecap:round;stroke-linejoin:round;stroke-miterlimit:10;}
	.st38{fill:none;stroke:#007481;stroke-width:3;stroke-linecap:round;stroke-linejoin:round;stroke-miterlimit:10;}
	.st39{fill:#007481;}
</style>
<g id="Layer_1_1_">
	<g>
		<path class="st0" d="M79.62,236.43h16.15c0,0,0-159.4,0-160.51s-1.44-1.83-2.56-1.83v-2.74h-2.23c0,0,0-8.52,0-9.84
			s-0.25-1.78-1.17-1.78s-0.94,0.94-0.94,1.68s0,9.94,0,9.94h-1.84l-0.02,2.54c-1.12,0-2.84,0.44-2.84,1.86s0.02,68.39,0.02,72.33
			s-0.1,13.17-2.94,22.3s-4.46,25.67-4.46,31.55c0,5.88,1.32,19.38,2.03,23.54C79.52,229.64,79.62,236.43,79.62,236.43z"/>
		<path class="st1" d="M84.17,75.76c2.32,0.98,10,0.84,11.6,0.16"/>
		<path class="st2" d="M87.01,73.9c1.13,0.48,5.36,0.44,6.21,0.2"/>
		<line class="st2" x1="88.87" y1="71.35" x2="90.99" y2="71.35"/>
		<path class="st3" d="M88.31,63.54h3.21c0,0,0.1,6.32,0,6.32s-3.21,0-3.21,0V63.54z"/>
		<path class="st1" d="M89.93,74.27c0,0,0.03,1.1,0.19,2.19s0.67,32.34,0.67,53.34s0.1,35.31-3.86,50.53s-3.04,24.05-3.04,31.86
			c0,7.81,0,24.25,0,24.25"/>
		<path class="st1" d="M92.34,74.4c0.8,0.45,1.19,0.8,1.19,1.92s0,45.86,0,53.71s0.46,30.71-1.19,53.3s-3.55,33.14-4.5,38.56
			s-0.55,8.61-0.55,12.46"/>
		<path class="st4" d="M94.22,74.27c0.9,0.71,0.9,0.71,0.9,1.84s0,160.33,0,160.33"/>
		<path class="st4" d="M95.12,162.42c0,8.73-2.17,42.63-4.72,53.05c-2.56,10.42-2.01,9.23-2.01,18.89"/>
		<line class="st4" x1="93.48" y1="191.18" x2="93.48" y2="236.43"/>
		<line class="st4" x1="90.78" y1="230.41" x2="90.78" y2="236.43"/>
		<path class="st1" d="M78.81,208.02c0-6.29,0.91-18.87,2.74-27.5c1.83-8.62,4.73-19.99,4.73-26.58c0-6.6,0-76.48,0-77.71
			c0-1.23,0.07-1.93,0.31-2.34"/>
		<path class="st1" d="M89.36,74.4v2.05c0,0,0,63.38,0,68.56c0,2,0.22,22.14-3.65,35.61c-5.11,17.76-2.44,44.24-2.44,47.69"/>
		<line class="st4" x1="90.78" y1="129.8" x2="95.77" y2="129.8"/>
		<line class="st4" x1="78.97" y1="180.44" x2="86.93" y2="180.44"/>
		<path class="st0" d="M90.99,72c-0.44-0.34-0.95-0.24-1.18,0c-0.24,0.24-0.35,0.74,0.31,1.15s6.79,3.79,7.53,4.3
			c0.74,0.51,1.15,0.54,1.35,0.27s0.27-0.76-0.61-1.26S90.99,72,90.99,72z"/>
		<g class="st5">
			<path class="st6" d="M21.48,236.33H5.8c0,0,0-144.43,0-145.09s0.03-0.96,0.42-1.57c0.39-0.61,1.2-1.93,1.56-2.38
				c0.36-0.46,0.59-0.71,1.28-0.71s4.04,0,4.58,0s0.79,0.05,1.14,0.71c0.36,0.66,1.01,1.67,1.37,2.23s0.41,0.66,0.41,1.57
				s0,15.37,0,15.37l-0.66,0.86v0.61l1.12,0.81c0,0,0,28.99,0,40.83s1.98,15.13,4.92,30.91c2.94,15.78,2.99,31,2.89,35.06
				s-3.31,7.34-3.31,10.48S21.48,236.33,21.48,236.33z"/>
			<g class="st7">
				<path class="st8" d="M6.66,128.65h9.17c0,0,0-4.19,0-5.24s-2.65-1.79-4.42-1.79s-4.78,0.91-4.78,1.69
					C6.64,124.08,6.66,128.65,6.66,128.65z"/>
				<line class="st4" x1="9.75" y1="121.8" x2="9.75" y2="128.65"/>
				<line class="st4" x1="12.79" y1="121.73" x2="12.79" y2="128.65"/>
				<path class="st4" d="M6.64,123.3c0.36,0.2,3.22,0.46,4.47,0.46s3.98-0.08,4.73-0.46"/>
			</g>
			<g class="st7">
				<path class="st1" d="M10.59,121.65c0,0,0,21.62,0,27.92s1.39,20.7,3.92,31.06c2.54,10.38,3.19,21.21,3.01,29.93
					c-0.16,8.05,0.23,16.94,0.23,16.94v8.83"/>
				<path class="st1" d="M15.33,128.65c0,0,0,15.76,0,22.46s1.48,16.23,4.43,29.42c2.94,13.19,2.84,33.2,2.84,37.64"/>
				<path class="st1" d="M11.54,129.8c0,8.22,0,12.66,0,20.5s2.22,23.2,3.96,30.34c2.01,8.29,3.71,21.82,2.74,28.71
					c-0.97,6.9-0.06,16.54,0.14,17.65v9.33"/>
				<path class="st1" d="M10.59,131.45c-0.61-0.95-3.75-1.56-4.79,0.95"/>
				<path class="st1" d="M5.81,164.73c0,10.96,3.02,38.56,4.79,50.8"/>
				<path class="st1" d="M7.61,130.75c0,0,0,17.7,0,33.98s3.68,44.85,4.75,52.29"/>
				<line class="st1" x1="7.87" y1="192.95" x2="7.87" y2="228.11"/>
				<line class="st1" x1="6.87" y1="230.41" x2="6.87" y2="236.33"/>
				<line class="st1" x1="10.32" y1="230.41" x2="10.32" y2="236.33"/>
				<line class="st1" x1="14.52" y1="180.63" x2="21.94" y2="180.63"/>
			</g>
			<g class="st7">
				<path class="st9" d="M5.81,112.18l2.28-3.86h6.36l2.57,3.86v8.93c-0.54,0.81-2.15,1.29-5.61,1.29s-4.71-0.59-5.61-1.07v-9.15
					H5.81z"/>
				<line class="st1" x1="11.11" y1="108.32" x2="11.11" y2="122.39"/>
				<line class="st1" x1="5.81" y1="112.18" x2="16.87" y2="112.18"/>
				<line class="st1" x1="5.81" y1="112.9" x2="17.02" y2="112.9"/>
				<line class="st1" x1="5.81" y1="121.32" x2="16.87" y2="121.32"/>
				<circle class="st1" cx="7.48" cy="114.27" r="0.56"/>
				<circle class="st1" cx="15.2" cy="114.27" r="0.56"/>
				<polyline class="st1" points="6.06,112.18 8.19,108.95 14.28,108.95 16.61,112.18 				"/>
			</g>
			<g class="st7">
				<polyline class="st1" points="15.75,110.28 15.75,90.73 13.74,87.39 8.75,87.39 6.57,90.58 6.57,110.89 				"/>
				<line class="st1" x1="8.09" y1="108.32" x2="8.09" y2="88.43"/>
				<line class="st1" x1="8.5" y1="108.32" x2="8.5" y2="87.76"/>
				<line class="st1" x1="14.09" y1="108.32" x2="14.09" y2="87.96"/>
				<line class="st1" x1="14.45" y1="108.32" x2="14.45" y2="88.57"/>
			</g>
			<path class="st10" d="M7.3,128.65c0.23,0.52,1.34,1.76,2.92,1.76c1.57,0,3.32,0,3.32,0v-1.76H7.3z"/>
			<g class="st7">
				<path class="st0" d="M5.81,103.86c-1.91,0-3.3,0-4.04,0s-1.52,0.34-1.52,1.89s0,39.13,0,40.35s0.47,1.76,1.86,1.76s3.7,0,3.7,0
					V103.86z"/>
				<line class="st4" x1="0.24" y1="112.35" x2="5.81" y2="112.35"/>
				<line class="st4" x1="0.24" y1="139.57" x2="5.81" y2="139.57"/>
				<path class="st4" d="M1.22,103.93c0.55-0.08,1.16,0.36,1.16,1.92c0,1.56,0,37.91,0,39.3s-0.34,2.77-1.46,2.48"/>
				<path class="st4" d="M0.24,145.73c0,0.91,0.91,0.88,0.91,0s0-38.79,0-39.5s-0.91-0.68-0.91,0"/>
				<path class="st0" d="M3.49,103.86c0,0,0-1.08,0-1.76c0-0.68,0.47-0.95,1.15-0.95s1.04,0.46,1.04,1.04s0,1.66,0,1.66H3.49V103.86
					z"/>
				<path class="st0" d="M5.81,147.86c0,0,0,1.08,0,1.76s-0.47,0.95-1.15,0.95s-1.04-0.46-1.04-1.04c0-0.58,0-1.66,0-1.66h2.19
					V147.86z"/>
			</g>
		</g>
		<g>
			<g>
				<path class="st0" d="M5.55,230.63h9.02c0,0,0,5.53-1.03,5.53s-7.05,0-7.05,0S5.55,235.34,5.55,230.63z"/>
				<path class="st11" d="M6.25,230.63c0,0.91,0.08,3.09,0.2,4.19"/>
				<path class="st11" d="M14,230.63c0,0.99-0.13,3.53-0.43,4.19"/>
				<line class="st11" x1="10.43" y1="230.63" x2="10.43" y2="236.16"/>
				<path class="st11" d="M8.14,234.72c0.34,0.56,4.03,0.7,4.67,0"/>
			</g>
			<g>
				<path class="st0" d="M7.22,249.73H6.69c-0.51,0-0.93-0.42-0.93-0.93v-13.77c0-0.51,0.42-0.93,0.93-0.93h0.53
					c0.51,0,0.93,0.42,0.93,0.93v13.77C8.14,249.31,7.72,249.73,7.22,249.73z"/>
				<path class="st11" d="M7.52,234.1c0.17,0.14,0.14,0.58,0.14,1.01c0,0.43,0,13.65,0,14c0,0.36,0,0.41-0.14,0.61"/>
				<path class="st11" d="M6.35,234.1c-0.17,0.14-0.14,0.58-0.14,1.01c0,0.43,0,13.65,0,14c0,0.36,0,0.41,0.14,0.61"/>
				<path class="st11" d="M5.76,234.7c0.3-0.2,1.95-0.23,2.38,0"/>
				<path class="st11" d="M8.14,249.19c-0.3,0.2-1.95,0.23-2.38,0"/>
			</g>
			<g>
				<path class="st0" d="M14.27,249.73h-0.53c-0.51,0-0.93-0.42-0.93-0.93v-13.77c0-0.51,0.42-0.93,0.93-0.93h0.53
					c0.51,0,0.93,0.42,0.93,0.93v13.77C15.2,249.31,14.78,249.73,14.27,249.73z"/>
				<path class="st11" d="M14.57,234.1c0.17,0.14,0.14,0.58,0.14,1.01c0,0.43,0,13.65,0,14c0,0.36,0,0.41-0.14,0.61"/>
				<path class="st11" d="M13.41,234.1c-0.17,0.14-0.14,0.58-0.14,1.01c0,0.43,0,13.65,0,14c0,0.36,0,0.41,0.14,0.61"/>
				<path class="st11" d="M12.81,234.7c0.3-0.2,1.95-0.23,2.38,0"/>
				<path class="st11" d="M15.2,249.19c-0.3,0.2-1.95,0.23-2.38,0"/>
			</g>
			<path class="st11" d="M12.81,248c-0.16-1.04-1.07-2.38-2.03-2.89v-4.26h-0.61v4.31c-0.96,0.41-1.83,1.7-2.03,2.84v-11.69
				c0.81-0.81,3.63-0.81,4.57,0L12.81,248z"/>
			<path class="st4" d="M8.14,236.66c0.1,0.1,2.18,2.84,2.18,2.84l2.39-2.84"/>
			<line class="st11" x1="9.07" y1="237.86" x2="9.07" y2="246.04"/>
			<line class="st4" x1="11.7" y1="237.86" x2="11.7" y2="245.7"/>
		</g>
		<g>
			<g>
				<path class="st0" d="M95.25,230.63h-9.02c0,0,0,5.53,1.03,5.53s7.05,0,7.05,0S95.25,235.34,95.25,230.63z"/>
				<path class="st11" d="M94.56,230.63c0,0.91-0.08,3.09-0.2,4.19"/>
				<path class="st11" d="M86.8,230.63c0,0.99,0.13,3.53,0.43,4.19"/>
				<line class="st11" x1="90.38" y1="230.63" x2="90.38" y2="236.16"/>
				<path class="st11" d="M92.66,234.72c-0.34,0.56-4.03,0.7-4.67,0"/>
			</g>
			<g>
				<path class="st0" d="M93.59,249.73h0.53c0.51,0,0.93-0.42,0.93-0.93v-13.77c0-0.51-0.42-0.93-0.93-0.93h-0.53
					c-0.51,0-0.93,0.42-0.93,0.93v13.77C92.66,249.31,93.08,249.73,93.59,249.73z"/>
				<path class="st11" d="M93.29,234.1c-0.17,0.14-0.14,0.58-0.14,1.01c0,0.43,0,13.65,0,14c0,0.36,0,0.41,0.14,0.61"/>
				<path class="st11" d="M94.45,234.1c0.17,0.14,0.14,0.58,0.14,1.01c0,0.43,0,13.65,0,14c0,0.36,0,0.41-0.14,0.61"/>
				<path class="st11" d="M95.05,234.7c-0.3-0.2-1.95-0.23-2.38,0"/>
				<path class="st11" d="M92.66,249.19c0.3,0.2,1.95,0.23,2.38,0"/>
			</g>
			<g>
				<path class="st0" d="M86.53,249.73h0.53c0.51,0,0.93-0.42,0.93-0.93v-13.77c0-0.51-0.42-0.93-0.93-0.93h-0.53
					c-0.51,0-0.93,0.42-0.93,0.93v13.77C85.61,249.31,86.03,249.73,86.53,249.73z"/>
				<path class="st11" d="M86.23,234.1c-0.17,0.14-0.14,0.58-0.14,1.01c0,0.43,0,13.65,0,14c0,0.36,0,0.41,0.14,0.61"/>
				<path class="st11" d="M87.4,234.1c0.17,0.14,0.14,0.58,0.14,1.01c0,0.43,0,13.65,0,14c0,0.36,0,0.41-0.14,0.61"/>
				<path class="st11" d="M87.99,234.7c-0.3-0.2-1.95-0.23-2.38,0"/>
				<path class="st11" d="M85.61,249.19c0.3,0.2,1.95,0.23,2.38,0"/>
			</g>
			<path class="st11" d="M87.99,248c0.16-1.04,1.07-2.38,2.03-2.89v-4.26h0.61v4.31c0.96,0.41,1.83,1.7,2.03,2.84v-11.69
				c-0.81-0.81-3.63-0.81-4.57,0L87.99,248z"/>
			<path class="st4" d="M92.66,236.66c-0.1,0.1-2.18,2.84-2.18,2.84l-2.39-2.84"/>
			<line class="st4" x1="91.73" y1="237.86" x2="91.73" y2="246.04"/>
			<line class="st4" x1="89.1" y1="237.86" x2="89.1" y2="245.7"/>
		</g>
		<g>
			<path class="st12" d="M23.38,70.94c-0.07-5.37,0.95-14.57,1.15-16.6c0.2-2.03,0.68-4.26,3.86-4.46s42.61-0.2,44.64,0
				s3.25,1.35,3.59,4.46s1.51,11.59,1.31,16.6H23.38z"/>
			<path class="st4" d="M24.92,70.94c0.36-7.33,1.51-15.24,1.78-16.87c0.27-1.62,1.29-2.37,4.19-2.52
				c2.86-0.15,33.28-0.5,40.45-0.05c2.74,0.17,2.91,0.74,3.25,2.23s1.69,13.1,1.76,17.21"/>
			<path class="st13" d="M24.53,54.34c1.62,1.01,4.46,2.57,4.46,10.55"/>
			<path class="st13" d="M76.68,54.34c-1.62,1.01-4.46,2.57-4.46,10.55"/>
		</g>
		<path class="st12" d="M3.9,230.78h93.66c-1.11-6.98-6.21-20.31-17.67-25.16c-1-4.24-2.87-6.85-3.99-8.1
			c-0.5-5.73-1.87-12.96-0.87-18.19s7.6-26.04,7.6-38.12s0-9.47,0-10.46c0-1,0.25-2.08-1.04-2.08s-61.21,0-62.33,0
			s-1.1,1.1-1.1,2.08s0.32,8.26,0.48,11.75c0.5,10.71,2.48,18.68,6.98,34.55c1.58,5.56-0.33,20.51-0.33,20.51
			c-1.58,1.08-3.16,4.59-3.82,7.32C18.15,206.37,6.1,214.17,3.9,230.78z"/>
		<g>
			<path class="st12" d="M23.5,69.86c0.76-2.8,1.79-4.69,4.93-5.03s14.96,0,22.14,0s20.84,0.14,23.41,0.14s3.42,2.79,3.69,4.52"/>
			<g>
				<path class="st12" d="M17.15,127.88c0,0,0.25-29.07,0.91-36.79s3.74-17.55,4.9-20.15s2.08-3.35,4.48-3.68
					c2.41-0.33,43.6-0.39,46.59,0c3.52,0.46,3.82,2.57,4.57,4.73s4.65,11.29,4.65,19.6c0,8.3,0.75,33.55,0.83,36.29L17.15,127.88z"
					/>
				<polyline class="st4" points="50.56,64.83 50.56,66.99 50.56,125.89 				"/>
				<path class="st4" d="M22.96,70.94c2.41-1.11,5.4-1.85,27.32-1.85S77.1,69.51,78.6,72"/>
				<path class="st4" d="M22.62,71.99c-2.78,7.63-1.74,32.39-1.74,53.9"/>
				<path class="st4" d="M78.28,71.99c2.78,7.63,1.74,32.39,1.74,53.9"/>
				<line class="st4" x1="17.17" y1="125.89" x2="84.03" y2="125.89"/>
				<path class="st4" d="M26.96,69.86c-1.09,1.06-1.75,7.69-1.92,10.73c-0.17,2.99-0.5,10.84-0.5,13.33s-0.5,31.97-0.5,31.97"/>
				<path class="st4" d="M28.42,69.86c-1.09,1.06-1.75,7.69-1.92,10.73C26.33,83.58,26,91.43,26,93.92s-0.5,31.97-0.5,31.97"/>
				<path class="st4" d="M74.46,69.86c1.09,1.06,1.75,7.69,1.92,10.73c0.17,2.99,0.5,10.84,0.5,13.33s0.5,31.97,0.5,31.97"/>
				<path class="st4" d="M73,69.86c1.09,1.06,1.75,7.69,1.92,10.73c0.17,2.99,0.5,10.84,0.5,13.33s0.5,31.97,0.5,31.97"/>
				<rect x="42.23" y="112.19" class="st13" width="19.85" height="13.7"/>
				<rect x="39.24" y="73.57" class="st3" width="19.35" height="5.9"/>
				<g>
					<circle class="st4" cx="40.94" cy="104.51" r="0.93"/>
					<circle class="st13" cx="40.94" cy="104.51" r="1.99"/>
				</g>
				<g>
					<circle class="st13" cx="29.32" cy="120.79" r="2.78"/>
					<circle class="st4" cx="29.32" cy="120.79" r="1.52"/>
					<circle class="st4" cx="29.32" cy="120.79" r="0.55"/>
				</g>
				<rect x="36.98" y="118.17" class="st4" width="3.36" height="6.45"/>
				<rect x="63.41" y="116.13" class="st4" width="5.27" height="8.81"/>
				<path class="st4" d="M18.06,91.09c0.75,1.49,1.76,2.41,2.63,2.82h59.53c1.05-0.17,2.36-1.8,3.04-2.82"/>
				<polyline class="st4" points="26.5,80.63 21.18,80.63 20.23,79.47 				"/>
				<path class="st4" d="M74.93,80.59h4.8c0,0,1-0.62,1.48-1.12"/>
			</g>
		</g>
		<rect x="18.73" y="127.88" class="st12" width="62.87" height="0.79"/>
		<g>
			<path class="st14" d="M62.63,89.68H39.95c-0.51,0-0.93-0.42-0.93-0.93v-5.79c0-0.51,0.42-0.93,0.93-0.93h22.68
				c0.51,0,0.93,0.42,0.93,0.93v5.79C63.56,89.26,63.14,89.68,62.63,89.68z"/>
			<g>
				<path class="st15" d="M41.23,84.14h1.89c0,0,0,0.32,0,0.38c0,0.08-0.02,0.1-0.08,0.17c-0.04,0.04-0.05,0.05-0.09,0.09
					s-0.06,0.08-0.25,0.08c-0.09,0-1.06,0-1.14,0s-0.11-0.03-0.15-0.07s-0.09-0.08-0.13-0.12c-0.04-0.04-0.06-0.06-0.06-0.11
					C41.23,84.47,41.23,84.14,41.23,84.14z"/>
				<line class="st15" x1="41.55" y1="84.47" x2="42.81" y2="84.47"/>
			</g>
			<g>
				<rect x="45.6" y="83.06" class="st15" width="2.21" height="1.92"/>
				<polygon class="st15" points="47.48,83.51 45.92,83.51 45.92,84.58 46.25,84.58 46.25,84.72 46.4,84.72 46.4,84.84 47.04,84.84 
					47.04,84.72 47.21,84.72 47.21,84.58 47.48,84.58 				"/>
			</g>
			<rect x="49.18" y="83.89" class="st15" width="1.82" height="0.86"/>
			<rect x="49.39" y="84.47" class="st15" width="1.44" height="0.17"/>
			<circle class="st16" cx="52.95" cy="84.13" r="0.7"/>
			<g>
				<g>
					<path class="st15" d="M55.56,83.78h1.89c0,0,0,0.32,0,0.38c0,0.08-0.02,0.1-0.08,0.17c-0.04,0.04-0.05,0.05-0.09,0.09
						s-0.06,0.08-0.25,0.08c-0.09,0-1.06,0-1.14,0s-0.11-0.03-0.15-0.07s-0.09-0.08-0.13-0.12c-0.04-0.04-0.06-0.06-0.06-0.11
						C55.56,84.11,55.56,83.78,55.56,83.78z"/>
					<line class="st15" x1="55.87" y1="84.11" x2="57.13" y2="84.11"/>
				</g>
				<circle class="st15" cx="54.91" cy="84.11" r="0.3"/>
				<circle class="st15" cx="58.14" cy="84.11" r="0.3"/>
			</g>
			<circle class="st15" cx="48.74" cy="84.34" r="0.19"/>
			<circle class="st15" cx="51.48" cy="84.34" r="0.19"/>
			<g>
				<path class="st15" d="M41.23,87.02c-0.2,0-0.41,0.2-0.34,0.48c0.12,0.48,0.15,0.58,0.19,0.7c0.04,0.12,0.11,0.26,0.29,0.26
					s1.58,0,1.75,0c0.16,0,0.2-0.08,0.26-0.21s0.15-0.56,0.21-0.75c0.06-0.19-0.06-0.47-0.29-0.47
					C42.91,87.02,41.56,87.02,41.23,87.02z"/>
				<path class="st15" d="M41.48,87.31c-0.14,0-0.35-0.02-0.26,0.27c0.09,0.31,0.09,0.29,0.12,0.4c0.02,0.1,0.05,0.13,0.2,0.13
					s1.18,0,1.33,0c0.15,0,0.18-0.04,0.22-0.16c0.04-0.14,0.07-0.27,0.1-0.37c0.05-0.18,0.04-0.27-0.21-0.27
					C42.74,87.31,41.68,87.31,41.48,87.31z"/>
				<g>
					<circle class="st15" cx="41.53" cy="87.53" r="0.08"/>
					<circle class="st15" cx="41.88" cy="87.53" r="0.08"/>
					<circle class="st15" cx="42.23" cy="87.53" r="0.08"/>
					<circle class="st15" cx="42.58" cy="87.53" r="0.08"/>
					<circle class="st15" cx="42.93" cy="87.53" r="0.08"/>
				</g>
				<g>
					<circle class="st15" cx="41.65" cy="87.89" r="0.08"/>
					<circle class="st15" cx="42.01" cy="87.89" r="0.08"/>
					<circle class="st15" cx="42.37" cy="87.89" r="0.08"/>
					<circle class="st15" cx="42.73" cy="87.89" r="0.08"/>
				</g>
				<g>
					<circle class="st15" cx="40.55" cy="87.73" r="0.29"/>
					<circle class="st15" cx="40.55" cy="87.74" r="0.13"/>
				</g>
				<g>
					<circle class="st15" cx="43.9" cy="87.73" r="0.29"/>
					<circle class="st15" cx="43.9" cy="87.74" r="0.13"/>
				</g>
			</g>
			<g>
				<path class="st15" d="M50.35,87.11c-0.2,0-0.41,0.2-0.34,0.48c0.12,0.48,0.15,0.58,0.19,0.7c0.04,0.12,0.11,0.26,0.29,0.26
					s1.58,0,1.75,0s0.2-0.08,0.26-0.21s0.15-0.56,0.21-0.75c0.06-0.19-0.06-0.47-0.29-0.47C52.02,87.11,50.68,87.11,50.35,87.11z"/>
				<path class="st15" d="M50.6,87.4c-0.14,0-0.35-0.02-0.26,0.27c0.09,0.31,0.09,0.29,0.12,0.4c0.02,0.1,0.05,0.13,0.2,0.13
					s1.18,0,1.33,0c0.15,0,0.18-0.04,0.22-0.16c0.04-0.14,0.07-0.27,0.1-0.37c0.05-0.18,0.04-0.27-0.21-0.27S50.79,87.4,50.6,87.4z"
					/>
				<g>
					<circle class="st15" cx="50.64" cy="87.62" r="0.08"/>
					<circle class="st15" cx="50.99" cy="87.62" r="0.08"/>
					<circle class="st15" cx="51.34" cy="87.62" r="0.08"/>
					<circle class="st15" cx="51.69" cy="87.62" r="0.08"/>
					<circle class="st15" cx="52.04" cy="87.62" r="0.08"/>
				</g>
				<g>
					<circle class="st15" cx="50.77" cy="87.98" r="0.08"/>
					<circle class="st15" cx="51.13" cy="87.98" r="0.08"/>
					<circle class="st15" cx="51.48" cy="87.98" r="0.08"/>
					<circle class="st15" cx="51.84" cy="87.98" r="0.08"/>
				</g>
				<g>
					<circle class="st15" cx="49.67" cy="87.82" r="0.29"/>
					<circle class="st15" cx="49.67" cy="87.83" r="0.13"/>
				</g>
				<g>
					<circle class="st15" cx="53.01" cy="87.82" r="0.29"/>
					<circle class="st15" cx="53.01" cy="87.83" r="0.13"/>
				</g>
			</g>
			<g>
				<g>
					<path class="st15" d="M55.55,87.46h1.89c0,0,0,0.32,0,0.38c0,0.08-0.02,0.1-0.08,0.17c-0.04,0.04-0.05,0.05-0.09,0.09
						s-0.06,0.08-0.25,0.08c-0.09,0-1.06,0-1.14,0s-0.11-0.03-0.15-0.07s-0.09-0.08-0.13-0.12c-0.04-0.04-0.06-0.06-0.06-0.12
						C55.55,87.79,55.55,87.46,55.55,87.46z"/>
					<line class="st15" x1="55.86" y1="87.79" x2="57.12" y2="87.79"/>
				</g>
				<circle class="st15" cx="54.89" cy="87.79" r="0.3"/>
				<circle class="st15" cx="58.12" cy="87.79" r="0.3"/>
			</g>
			<g>
				<circle class="st15" cx="61.67" cy="87.69" r="0.42"/>
				<circle class="st15" cx="61.67" cy="87.69" r="0.24"/>
			</g>
			<rect x="59.69" y="83.78" class="st15" width="1.99" height="1.54"/>
			<rect x="59.01" y="83.89" class="st15" width="0.68" height="1.31"/>
			<rect x="61.67" y="83.89" class="st15" width="0.68" height="1.31"/>
			<circle class="st15" cx="59.34" cy="84.53" r="0.18"/>
			<circle class="st15" cx="62.02" cy="84.54" r="0.18"/>
			<rect x="60.09" y="84.13" class="st15" width="1.35" height="0.21"/>
			<rect x="60.09" y="84.64" class="st15" width="1.35" height="0.21"/>
			<g>
				<rect x="45.6" y="86.66" class="st15" width="2.21" height="1.92"/>
				<polygon class="st15" points="47.48,87.11 45.92,87.11 45.92,88.18 46.25,88.18 46.25,88.32 46.4,88.32 46.4,88.44 47.04,88.44 
					47.04,88.32 47.21,88.32 47.21,88.18 47.48,88.18 				"/>
			</g>
		</g>
		<g>
			<path class="st1" d="M93.23,230.78c-0.62-5.11-4.86-16.47-9.84-21.55c-1.85-1.89-0.68-2.17,0.15-1.5"/>
			<path class="st1" d="M83.09,208.7c-1.33-1.28-4.57-4.36-5.2-3.09s-1.87,10.34,1.25,25.16"/>
			<path class="st1" d="M77.9,205.62c-0.48-2.24-1.42-6.66-3.47-8.97"/>
			<path class="st1" d="M73.91,136.14c0,0-0.91,37.42-0.5,45.73c0.42,8.3,1.04,10.38,0.83,12c-0.21,1.62,0.04,4.36-3.86,4.53
				s-3.03,0.17-3.57,0.29c-0.54,0.12-3.07,0.54-3.2,3.53c-0.12,2.99,0,28.57,0,28.57"/>
			<path class="st1" d="M62.4,230.78c0,0-0.04-27.32-0.04-28.53c0-1.2,0.54-4.4,4.4-4.65s5.89,0.21,6.19-1.7
				c0.42-2.66-1.28-10.89-1.7-15.07"/>
			<path class="st1" d="M72.24,180.83c0,1.54,2.37,14.08,1.38,15.97"/>
			<polyline class="st1" points="69.5,197.5 70.38,198.39 73.95,230.78 			"/>
			<path class="st1" d="M63.6,202.38l-1.24-0.12l-2.78-8.18l6.89,3.56c0,0,0.66,0.95,0.71,0.94"/>
			<polyline class="st1" points="74.24,193.87 59.58,193.87 57.5,230.78 			"/>
			<line class="st1" x1="62.27" y1="201.99" x2="60.33" y2="230.78"/>
			<line class="st1" x1="74.24" y1="194.28" x2="75.86" y2="230.78"/>
			<line class="st1" x1="73.27" y1="197.3" x2="73.95" y2="230.78"/>
			<path class="st9" d="M74.53,200.93c-1.2-0.46-6.4-1.04-7.64-0.96s-1,0.71-1.02,0.96s0.15,0.6,0.93,0.67c0.79,0.07,5.52,0,5.52,0
				c0.17,0.37,0.59,0.78,1.04,0.78s1.22-0.13,1.2-0.58C74.55,201.35,74.53,200.93,74.53,200.93z"/>
			<line class="st1" x1="68.6" y1="200.03" x2="68.6" y2="201.6"/>
			<path class="st9" d="M74.74,205.35c-1.2,0.46-6.4,1.04-7.64,0.96c-1.25-0.08-1-0.71-1.02-0.96s0.15-0.6,0.93-0.67
				c0.79-0.07,5.52,0,5.52,0c0.17-0.37,0.59-0.78,1.04-0.78s1.09,0,1.11,0.54C74.71,204.89,74.74,205.35,74.74,205.35z"/>
			<line class="st1" x1="68.81" y1="206.24" x2="68.81" y2="204.68"/>
		</g>
		<g>
			<path class="st1" d="M7.27,230.78c0.62-5.11,4.86-16.47,9.84-21.55c1.85-1.89,0.68-2.17-0.15-1.5"/>
			<path class="st1" d="M17.58,208.7c1.33-1.28,4.57-4.36,5.2-3.09c0.62,1.28,1.87,10.34-1.25,25.16"/>
			<path class="st1" d="M23.05,206.55c0.48-2.24,1.66-7.59,3.71-9.9"/>
			<path class="st1" d="M27.28,136.14c0,0,0.91,37.42,0.5,45.73c-0.42,8.3-1.04,10.38-0.83,12s-0.04,4.36,3.86,4.53
				c3.9,0.17,3.03,0.17,3.57,0.29s3.07,0.54,3.2,3.53c0.12,2.99,0,28.57,0,28.57"/>
			<path class="st1" d="M38.78,230.78c0,0,0.04-27.32,0.04-28.53c0-1.2-0.54-4.4-4.4-4.65s-5.89,0.21-6.19-1.7
				c-0.42-2.66,1.28-10.89,1.7-15.07"/>
			<path class="st1" d="M28.94,180.83c0,1.54-2.37,14.08-1.38,15.97"/>
			<polyline class="st1" points="31.69,197.5 30.81,198.39 28.86,217.04 			"/>
			<path class="st1" d="M37.59,202.38l1.24-0.12l2.78-8.18l-6.89,3.56c0,0-0.66,0.95-0.71,0.94"/>
			<polyline class="st1" points="26.95,193.87 41.61,193.87 43.68,230.78 			"/>
			<line class="st1" x1="38.91" y1="201.99" x2="40.86" y2="230.78"/>
			<line class="st1" x1="26.95" y1="194.28" x2="25.33" y2="230.78"/>
			<line class="st1" x1="27.92" y1="197.3" x2="27.24" y2="230.78"/>
			<path class="st9" d="M26.65,200.93c1.2-0.46,6.4-1.04,7.64-0.96c1.25,0.08,1,0.71,1.02,0.96s-0.15,0.6-0.93,0.67
				c-0.79,0.07-5.52,0-5.52,0c-0.17,0.37-0.59,0.78-1.04,0.78s-1.22-0.13-1.2-0.58C26.64,201.35,26.65,200.93,26.65,200.93z"/>
			<line class="st1" x1="32.59" y1="200.03" x2="32.59" y2="201.6"/>
			<path class="st9" d="M26.45,205.35c1.2,0.46,6.4,1.04,7.64,0.96c1.25-0.08,1-0.71,1.02-0.96s-0.15-0.6-0.93-0.67
				c-0.79-0.07-5.52,0-5.52,0c-0.17-0.37-0.59-0.78-1.04-0.78s-1.09,0-1.11,0.54C26.48,204.89,26.45,205.35,26.45,205.35z"/>
			<line class="st1" x1="32.38" y1="206.24" x2="32.38" y2="204.68"/>
			<g>
				<rect x="28.86" y="217.04" class="st1" width="7.97" height="7.35"/>
				<path class="st1" d="M34.3,223.64L34.3,223.64c-0.8,0-1.45-0.65-1.45-1.45v-2.68c0-0.8,0.65-1.45,1.45-1.45l0,0
					c0.8,0,1.45,0.65,1.45,1.45v2.68C35.75,222.99,35.1,223.64,34.3,223.64z"/>
				<rect x="33.5" y="219.74" class="st1" width="1.62" height="2.66"/>
			</g>
		</g>
		<g>
			<path class="st4" d="M79.45,130.03c0.2,14.89-2.3,28.48-3.11,33.62c-0.81,5.14-1.76,12.78-1.76,17.51"/>
			<g>
				<g>
					<circle class="st13" cx="39.08" cy="136.14" r="2.78"/>
					<circle class="st4" cx="39.08" cy="136.14" r="1.52"/>
					<circle class="st4" cx="39.08" cy="136.14" r="0.55"/>
				</g>
				<line class="st13" x1="50.56" y1="128.67" x2="50.56" y2="175.97"/>
				<path class="st8" d="M23.45,130.03c0.74,1.49,1.29,6.66,4.4,6.66s4.12-5.72,4.43-6.66"/>
				<path class="st8" d="M68.92,130.03c0.74,1.49,1.29,6.66,4.4,6.66s4.12-5.72,4.43-6.66"/>
				<path class="st4" d="M21.75,130.03c-0.2,14.89,2.3,28.48,3.11,33.62c0.81,5.14,1.42,7.59,1.42,12.32"/>
				<polyline class="st4" points="47.42,130.03 47.42,154.15 27.66,154.15 				"/>
				<polyline class="st4" points="53.66,130.03 53.66,154.15 73.53,154.15 				"/>
				<path class="st4" d="M27.66,153c0.03,2.78,3.27,16,3.27,21.04"/>
				<path class="st4" d="M73.53,153c-0.61,3.69-3.77,17.59-3.77,23.52"/>
				<path class="st4" d="M29.29,178.09c2.64-1.42,4.48-2.64,21.27-2.64s19.01,1.13,19.99,1.78c1.31,0.86,1.37,1.52,1.69,2.23H29.29
					C29.29,179.46,29.29,178.09,29.29,178.09z"/>
				<path class="st4" d="M29.29,178.09c3.28-1.41,12.32-2.12,21.27-2.12c5.32,0,17.13,0.55,19.2,1.34c1.3,0.49,1.72,1.65,1.88,2.16"
					/>
				<path class="st13" d="M64.78,142.68h-6.02c-1.02,0-1.85-0.83-1.85-1.85v-6.75c0-1.02,0.83-1.85,1.85-1.85h6.02
					c1.02,0,1.85,0.83,1.85,1.85v6.75C66.63,141.85,65.8,142.68,64.78,142.68z"/>
				<path class="st8" d="M68.7,174.74H51.73c-1.02,0-1.85-0.83-1.85-1.85v-14.76c0-1.02,0.83-1.85,1.85-1.85H68.7
					c1.02,0,1.85,0.83,1.85,1.85v14.76C70.55,173.91,69.72,174.74,68.7,174.74z"/>
				<line class="st4" x1="18.18" y1="130.03" x2="82.65" y2="130.03"/>
			</g>
			<g>
				<path class="st8" d="M53.34,162.57h13.62c-0.33,1.12-1.55,1.78-2.41,1.78s-8.43,0-9.34,0S53.6,163.53,53.34,162.57z"/>
				<path class="st4" d="M53.34,162.57c0.61,1.16,1,1.19,1.96,1.2c0.97,0.01,8.49,0,9.23,0s2-0.37,2.43-1.2"/>
				<line class="st4" x1="55.29" y1="162.57" x2="55.29" y2="164.34"/>
				<line class="st4" x1="64.54" y1="162.57" x2="64.54" y2="164.34"/>
			</g>
			<g>
				<g>
					<path class="st8" d="M56.12,146.43c0.97,0.01,8.49,0,9.23,0c0.74,0,2-0.37,2.43-1.2H56.1v1.78c0.91,0,8.4,0,9.27,0
						c0.86,0,2.08-0.66,2.41-1.78"/>
					<line class="st4" x1="65.35" y1="145.23" x2="65.35" y2="147"/>
				</g>
				<g>
					<path class="st8" d="M56.12,148.96c0.97,0.01,8.49,0,9.23,0c0.74,0,2-0.37,2.43-1.2H56.1v1.78c0.91,0,8.4,0,9.27,0
						c0.86,0,2.08-0.66,2.41-1.78"/>
					<line class="st4" x1="65.35" y1="147.76" x2="65.35" y2="149.53"/>
				</g>
				<g>
					<path class="st8" d="M56.12,151.48c0.97,0.01,8.49,0,9.23,0c0.74,0,2-0.37,2.43-1.2H56.1v1.78c0.91,0,8.4,0,9.27,0
						c0.86,0,2.08-0.66,2.41-1.78"/>
					<line class="st4" x1="65.35" y1="150.28" x2="65.35" y2="152.06"/>
				</g>
			</g>
			<g>
				<g>
					<path class="st8" d="M45.24,144.02c-0.97,0.01-8.49,0-9.23,0s-2-0.37-2.43-1.2h11.68v1.78c-0.91,0-8.4,0-9.27,0
						c-0.86,0-2.08-0.66-2.41-1.78"/>
					<line class="st4" x1="36.01" y1="142.82" x2="36.01" y2="144.59"/>
				</g>
				<g>
					<path class="st8" d="M45.24,146.59c-0.97,0.01-8.49,0-9.23,0s-2-0.37-2.43-1.2h11.68v1.78c-0.91,0-8.4,0-9.27,0
						c-0.86,0-2.08-0.66-2.41-1.78"/>
					<line class="st4" x1="36.01" y1="145.39" x2="36.01" y2="147.17"/>
				</g>
				<g>
					<path class="st8" d="M45.24,149.17c-0.97,0.01-8.49,0-9.23,0s-2-0.37-2.43-1.2h11.68v1.78c-0.91,0-8.4,0-9.27,0
						c-0.86,0-2.08-0.66-2.41-1.78"/>
					<line class="st4" x1="36.01" y1="147.97" x2="36.01" y2="149.75"/>
				</g>
				<g>
					<path class="st8" d="M45.24,151.75c-0.97,0.01-8.49,0-9.23,0s-2-0.37-2.43-1.2h11.68v1.78c-0.91,0-8.4,0-9.27,0
						c-0.86,0-2.08-0.66-2.41-1.78"/>
					<line class="st4" x1="36.01" y1="150.55" x2="36.01" y2="152.32"/>
				</g>
			</g>
			<g>
				<g>
					<path class="st8" d="M45.16,166.14c-0.97,0.01-8.49,0-9.23,0c-0.74,0-2-0.37-2.43-1.2h11.68v1.78c-0.91,0-8.4,0-9.27,0
						c-0.86,0-2.08-0.66-2.41-1.78"/>
					<line class="st4" x1="35.93" y1="164.94" x2="35.93" y2="166.71"/>
				</g>
				<g>
					<path class="st8" d="M45.16,168.71c-0.97,0.01-8.49,0-9.23,0c-0.74,0-2-0.37-2.43-1.2h11.68v1.78c-0.91,0-8.4,0-9.27,0
						c-0.86,0-2.08-0.66-2.41-1.78"/>
					<line class="st4" x1="35.93" y1="167.51" x2="35.93" y2="169.29"/>
				</g>
				<g>
					<path class="st8" d="M45.16,171.29c-0.97,0.01-8.49,0-9.23,0c-0.74,0-2-0.37-2.43-1.2h11.68v1.78c-0.91,0-8.4,0-9.27,0
						c-0.86,0-2.08-0.66-2.41-1.78"/>
					<line class="st4" x1="35.93" y1="170.09" x2="35.93" y2="171.86"/>
				</g>
				<g>
					<path class="st8" d="M45.16,173.86c-0.97,0.01-8.49,0-9.23,0c-0.74,0-2-0.37-2.43-1.2h11.68v1.78c-0.91,0-8.4,0-9.27,0
						c-0.86,0-2.08-0.66-2.41-1.78"/>
					<line class="st4" x1="35.93" y1="172.66" x2="35.93" y2="174.44"/>
				</g>
			</g>
		</g>
		<g>
			<g>
				<path class="st3" d="M35.69,184.43v1.01h1.73v-0.35h3.6v0.62c0,0,0.9,0,1.28,0s0.81-0.37,0.81-0.62h1.21v-0.7v0.05v-0.7h-1.21
					c0-0.25-0.44-0.62-0.81-0.62s-1.28,0-1.28,0v0.62h-3.6v-0.35h-1.73v1.01"/>
				<line class="st4" x1="41.03" y1="183.72" x2="41.03" y2="185.08"/>
				<line class="st4" x1="43.11" y1="183.72" x2="43.11" y2="185.19"/>
				<path class="st4" d="M42.5,183.13c-0.16,0.46-0.21,2.17,0,2.54"/>
				<line class="st4" x1="37.42" y1="183.72" x2="37.42" y2="185.08"/>
			</g>
			<g>
				<path class="st3" d="M30.78,183.6c0,0-3.24,0-3.95,0s-1.59,0.25-1.59,0.69s0.4,0.84,1.65,0.84s4.04,0.03,4.04,0.03L30.78,183.6z
					"/>
				
					<rect x="30.89" y="179.11" transform="matrix(0.8244 -0.5661 0.5661 0.8244 -96.9618 49.6412)" class="st17" width="1.25" height="3.92"/>
				
					<rect x="33.02" y="180.69" transform="matrix(0.5661 -0.8244 0.8244 0.5661 -134.2879 107.5086)" class="st17" width="3.92" height="1.25"/>
				
					<rect x="33.75" y="184.45" transform="matrix(0.8244 -0.5661 0.5661 0.8244 -99.4825 52.2024)" class="st17" width="1.25" height="3.92"/>
				
					<rect x="34.83" y="187.7" transform="matrix(0.8244 -0.5661 0.5661 0.8244 -100.4918 53.4836)" class="st17" width="2.22" height="1.96"/>
				<circle class="st3" cx="33.35" cy="184.43" r="2.57"/>
				
					<ellipse transform="matrix(0.9951 -0.0985 0.0985 0.9951 -17.3407 3.7556)" class="st3" cx="29.35" cy="177.43" rx="3.39" ry="3.39"/>
				<circle class="st3" cx="37.42" cy="177.43" r="3.39"/>
			</g>
			<g>
				<path class="st3" d="M70.55,185.13c0,0,3.24,0,3.95,0c0.72,0,1.59-0.25,1.59-0.69s-0.4-0.84-1.65-0.84s-4.04-0.03-4.04-0.03
					L70.55,185.13z"/>
				
					<rect x="69.2" y="185.71" transform="matrix(0.8244 -0.5661 0.5661 0.8244 -93.9702 72.4873)" class="st17" width="1.25" height="3.92"/>
				
					<rect x="64.4" y="186.79" transform="matrix(0.5661 -0.8244 0.8244 0.5661 -125.7033 136.0341)" class="st17" width="3.92" height="1.25"/>
				
					<rect x="66.32" y="180.36" transform="matrix(0.8244 -0.5661 0.5661 0.8244 -91.4467 69.9188)" class="st17" width="1.25" height="3.92"/>
				
					<rect x="64.28" y="179.08" transform="matrix(0.8244 -0.5661 0.5661 0.8244 -90.4381 68.6435)" class="st17" width="2.22" height="1.96"/>
				<circle class="st3" cx="67.98" cy="184.31" r="2.57"/>
				<circle class="st3" cx="71.98" cy="191.3" r="3.39"/>
				<circle class="st3" cx="63.91" cy="191.3" r="3.39"/>
			</g>
			<g>
				<path class="st3" d="M44.14,188.3v-7.1c-0.16-0.72-0.75-1.12-1.81-1.12c0-0.87,0.03-2.52,1.99-2.52s1.69,0,2.94,0
					c1.57,0,1.8,1.15,1.8,2.52c-0.75,0-1.71,0.34-1.71,0.97s0.07,7.33,0.07,7.33l1.5,1.63l-0.07,13.24h-6.26v-13.24L44.14,188.3z"/>
				<line class="st4" x1="44.14" y1="181.2" x2="47.35" y2="181.2"/>
				<line class="st4" x1="44.14" y1="182.66" x2="47.35" y2="182.66"/>
				<path class="st4" d="M42.58,190.01c0.72,0.49,5.39,0.65,6.33,0"/>
				<path class="st4" d="M44.14,188.3c0.3,0.32,2.91,0.41,3.27,0.08"/>
			</g>
			<g>
				<path class="st3" d="M53.66,188.3v-7.1c-0.16-0.72-0.75-1.12-1.81-1.12c0-0.87,0.03-2.52,1.99-2.52s1.69,0,2.94,0
					c1.57,0,1.8,1.15,1.8,2.52c-0.75,0-1.71,0.34-1.71,0.97s0.07,7.33,0.07,7.33l1.5,1.63l-0.08,38.22H52.1v-38.21L53.66,188.3z"/>
				<line class="st4" x1="53.66" y1="181.2" x2="56.87" y2="181.2"/>
				<line class="st4" x1="53.66" y1="182.66" x2="56.87" y2="182.66"/>
				<path class="st4" d="M52.1,190.01c0.72,0.49,5.39,0.65,6.33,0"/>
				<path class="st4" d="M53.66,188.3c0.3,0.32,2.91,0.41,3.27,0.08"/>
			</g>
			<g>
				<path class="st3" d="M65.57,184.36v-1.01h-1.73v0.35h-3.6v-0.62c0,0-0.9,0-1.28,0s-0.81,0.37-0.81,0.62h-1.21v0.7v-0.05v0.7
					h1.21c0,0.25,0.44,0.62,0.81,0.62s1.28,0,1.28,0v-0.62h3.6v0.35h1.73v-1.01"/>
				<line class="st4" x1="60.24" y1="185.06" x2="60.24" y2="183.7"/>
				<line class="st4" x1="58.15" y1="185.06" x2="58.15" y2="183.59"/>
				<path class="st4" d="M58.76,185.65c0.16-0.46,0.21-2.17,0-2.54"/>
				<line class="st4" x1="63.84" y1="185.06" x2="63.84" y2="183.7"/>
			</g>
			<path class="st3" d="M42.02,187.91h17.19c0-0.54-0.34-1.72-1.46-1.72c-1.12,0-13.39,0-14.14,0S42.02,186.73,42.02,187.91z"/>
		</g>
		<g>
			<polygon class="st0" points="27.92,230.78 27.92,234 25.03,234 25.03,236.89 75.56,236.89 75.56,234.15 71.96,234.15 
				71.96,230.78 			"/>
			<g>
				<path class="st4" d="M30.46,230.78c0.41,0.58,0.66,1.19,0.66,2s0,4.11,0,4.11"/>
				<path class="st4" d="M40.55,230.78c-0.41,0.58-0.66,1.19-0.66,2s0,4.11,0,4.11"/>
				<line class="st4" x1="31.12" y1="232.78" x2="39.89" y2="232.78"/>
			</g>
			<line class="st4" x1="29.3" y1="230.78" x2="29.3" y2="236.89"/>
			<g>
				<path class="st4" d="M60.33,230.78c0.41,0.58,0.66,1.19,0.66,2s0,4.11,0,4.11"/>
				<path class="st4" d="M70.41,230.78c-0.41,0.58-0.66,1.19-0.66,2s0,4.11,0,4.11"/>
				<line class="st4" x1="60.99" y1="232.78" x2="69.75" y2="232.78"/>
			</g>
			<line class="st4" x1="39.89" y1="233.29" x2="60.99" y2="233.29"/>
			<line class="st4" x1="71.96" y1="234.15" x2="71.96" y2="236.89"/>
			<line class="st4" x1="27.92" y1="234" x2="27.92" y2="236.89"/>
		</g>
		<g>
			<path class="st12" d="M9.02,131.17c-0.91,0-1.87,0.76-1.87,2.36c0,1.6,0.43,2.41,1.95,2.41s17.71,0,17.71,0
				c0.15,0.76,3.3,1.57,3.3-2.38c0-3.96-3.21-3.15-3.21-2.38C26.9,131.17,10.34,131.17,9.02,131.17z"/>
			<path class="st4" d="M26.9,131.17c1.13,0,1.94,0.98,1.94,2.38s-1.13,2.38-2.03,2.38"/>
			<line class="st4" x1="7.15" y1="133.53" x2="30.11" y2="133.53"/>
		</g>
		<g>
			<path class="st12" d="M92.41,135.94c0.91,0,1.87-0.76,1.87-2.36c0-1.6-0.43-2.41-1.95-2.41s-17.71,0-17.71,0
				c-0.15-0.76-3.3-1.57-3.3,2.38c0,3.96,3.21,3.15,3.21,2.38C74.54,135.94,91.09,135.94,92.41,135.94z"/>
			<path class="st4" d="M74.54,135.94c-1.13,0-1.94-0.98-1.94-2.38s1.13-2.38,2.03-2.38"/>
			<line class="st4" x1="94.28" y1="133.58" x2="71.32" y2="133.58"/>
		</g>
	</g>
	<line class="st18" x1="121.12" y1="5.67" x2="121.12" y2="73.99"/>
	<path class="st18" d="M120.56,4.75"/>
	<rect x="97.68" y="14.04" class="st19" width="40.08" height="12.21"/>
	<line class="st18" x1="91.59" y1="56.18" x2="151.76" y2="56.18"/>
	<g>
		<path class="st20" d="M146.13,47.41H99.15c-1.05,0-1.92-0.86-1.92-1.92V33.5c0-1.05,0.86-1.92,1.92-1.92h46.98
			c1.05,0,1.92,0.86,1.92,1.92v11.99C148.05,46.55,147.18,47.41,146.13,47.41z"/>
		<g>
			<path class="st21" d="M101.81,35.92h3.92c0,0,0,0.66,0,0.79c0,0.16-0.03,0.22-0.16,0.34c-0.08,0.08-0.1,0.1-0.18,0.18
				c-0.08,0.08-0.12,0.16-0.51,0.16c-0.19,0-2.2,0-2.36,0s-0.22-0.06-0.31-0.14c-0.08-0.07-0.19-0.17-0.27-0.25
				s-0.13-0.12-0.13-0.24C101.81,36.61,101.81,35.92,101.81,35.92z"/>
			<line class="st21" x1="102.46" y1="36.61" x2="105.07" y2="36.61"/>
		</g>
		<g>
			<rect x="110.86" y="33.7" class="st21" width="4.58" height="3.97"/>
			<polygon class="st21" points="114.74,34.63 111.52,34.63 111.52,36.84 112.2,36.84 112.2,37.13 112.51,37.13 112.51,37.38 
				113.82,37.38 113.82,37.13 114.2,37.13 114.2,36.84 114.74,36.84 			"/>
		</g>
		<rect x="118.26" y="35.41" class="st21" width="3.77" height="1.79"/>
		<rect x="118.69" y="36.61" class="st21" width="2.98" height="0.35"/>
		<circle class="st22" cx="126.07" cy="35.92" r="1.46"/>
		<g>
			<g>
				<path class="st21" d="M131.48,35.18h3.92c0,0,0,0.66,0,0.79c0,0.16-0.03,0.22-0.16,0.34c-0.08,0.08-0.1,0.1-0.18,0.18
					c-0.08,0.08-0.12,0.16-0.51,0.16c-0.19,0-2.2,0-2.36,0s-0.22-0.06-0.31-0.14c-0.08-0.07-0.19-0.17-0.27-0.25
					s-0.13-0.12-0.13-0.24C131.48,35.87,131.48,35.18,131.48,35.18z"/>
				<line class="st21" x1="132.13" y1="35.87" x2="134.74" y2="35.87"/>
			</g>
			<circle class="st21" cx="130.13" cy="35.87" r="0.62"/>
			<circle class="st21" cx="136.82" cy="35.87" r="0.62"/>
		</g>
		<circle class="st21" cx="117.36" cy="36.36" r="0.39"/>
		<circle class="st21" cx="123.04" cy="36.36" r="0.39"/>
		<g>
			<path class="st21" d="M101.81,41.9c-0.41,0-0.84,0.42-0.7,0.99c0.26,1,0.3,1.19,0.39,1.45s0.22,0.54,0.61,0.54s3.28,0,3.61,0
				s0.41-0.17,0.53-0.44s0.32-1.17,0.44-1.56c0.12-0.39-0.12-0.97-0.61-0.97C105.28,41.9,102.49,41.9,101.81,41.9z"/>
			<path class="st21" d="M102.32,42.49c-0.29,0-0.72-0.04-0.54,0.56c0.19,0.64,0.19,0.6,0.25,0.83c0.05,0.2,0.11,0.28,0.42,0.28
				s2.45,0,2.75,0s0.38-0.09,0.45-0.34c0.08-0.28,0.15-0.56,0.21-0.77c0.1-0.37,0.08-0.55-0.43-0.55S102.73,42.49,102.32,42.49z"/>
			<g>
				<circle class="st21" cx="102.41" cy="42.96" r="0.16"/>
				<circle class="st21" cx="103.14" cy="42.96" r="0.16"/>
				<circle class="st21" cx="103.86" cy="42.96" r="0.16"/>
				<circle class="st21" cx="104.59" cy="42.96" r="0.16"/>
				<circle class="st21" cx="105.32" cy="42.96" r="0.16"/>
			</g>
			<g>
				<circle class="st21" cx="102.68" cy="43.7" r="0.16"/>
				<circle class="st21" cx="103.42" cy="43.7" r="0.16"/>
				<circle class="st21" cx="104.16" cy="43.7" r="0.16"/>
				<circle class="st21" cx="104.91" cy="43.7" r="0.16"/>
			</g>
			<g>
				<circle class="st21" cx="100.4" cy="43.37" r="0.6"/>
				<circle class="st21" cx="100.4" cy="43.39" r="0.27"/>
			</g>
			<g>
				<circle class="st21" cx="107.32" cy="43.37" r="0.6"/>
				<circle class="st21" cx="107.32" cy="43.39" r="0.27"/>
			</g>
		</g>
		<g>
			<path class="st21" d="M120.68,42.09c-0.41,0-0.84,0.42-0.7,0.99c0.26,1,0.3,1.19,0.39,1.45s0.22,0.54,0.61,0.54s3.28,0,3.61,0
				s0.41-0.17,0.53-0.44s0.32-1.17,0.44-1.56c0.12-0.39-0.12-0.97-0.61-0.97C124.15,42.09,121.37,42.09,120.68,42.09z"/>
			<path class="st21" d="M121.2,42.68c-0.29,0-0.72-0.04-0.54,0.56c0.19,0.64,0.19,0.6,0.25,0.83c0.05,0.2,0.11,0.28,0.42,0.28
				s2.45,0,2.75,0s0.38-0.09,0.45-0.34c0.08-0.28,0.15-0.56,0.21-0.77c0.1-0.37,0.08-0.55-0.43-0.55S121.6,42.68,121.2,42.68z"/>
			<g>
				<circle class="st21" cx="121.29" cy="43.14" r="0.16"/>
				<circle class="st21" cx="122.01" cy="43.14" r="0.16"/>
				<circle class="st21" cx="122.74" cy="43.14" r="0.16"/>
				<circle class="st21" cx="123.46" cy="43.14" r="0.16"/>
				<circle class="st21" cx="124.19" cy="43.14" r="0.16"/>
			</g>
			<g>
				<circle class="st21" cx="121.55" cy="43.88" r="0.16"/>
				<circle class="st21" cx="122.3" cy="43.88" r="0.16"/>
				<circle class="st21" cx="123.04" cy="43.88" r="0.16"/>
				<circle class="st21" cx="123.78" cy="43.88" r="0.16"/>
			</g>
			<g>
				<circle class="st21" cx="119.27" cy="43.56" r="0.6"/>
				<circle class="st21" cx="119.27" cy="43.58" r="0.27"/>
			</g>
			<g>
				<circle class="st21" cx="126.19" cy="43.56" r="0.6"/>
				<circle class="st21" cx="126.19" cy="43.58" r="0.27"/>
			</g>
		</g>
		<g>
			<g>
				<path class="st21" d="M131.45,42.8h3.92c0,0,0,0.66,0,0.79c0,0.16-0.03,0.22-0.16,0.34c-0.08,0.08-0.1,0.1-0.18,0.18
					c-0.08,0.08-0.12,0.16-0.51,0.16c-0.19,0-2.2,0-2.36,0s-0.22-0.06-0.31-0.14c-0.08-0.07-0.19-0.18-0.27-0.25
					c-0.08-0.08-0.13-0.12-0.13-0.24C131.45,43.49,131.45,42.8,131.45,42.8z"/>
				<line class="st21" x1="132.1" y1="43.49" x2="134.71" y2="43.49"/>
			</g>
			<circle class="st21" cx="130.09" cy="43.49" r="0.62"/>
			<circle class="st21" cx="136.79" cy="43.49" r="0.62"/>
		</g>
		<g>
			<circle class="st21" cx="144.15" cy="43.28" r="0.88"/>
			<circle class="st21" cx="144.15" cy="43.28" r="0.5"/>
		</g>
		<rect x="140.03" y="35.18" class="st21" width="4.11" height="3.19"/>
		<rect x="138.62" y="35.41" class="st21" width="1.41" height="2.72"/>
		<rect x="144.15" y="35.42" class="st21" width="1.41" height="2.72"/>
		<circle class="st21" cx="139.31" cy="36.74" r="0.38"/>
		<circle class="st21" cx="144.85" cy="36.77" r="0.38"/>
		<rect x="140.86" y="35.92" class="st21" width="2.79" height="0.44"/>
		<rect x="140.86" y="36.98" class="st21" width="2.79" height="0.44"/>
		<g>
			<rect x="110.86" y="41.16" class="st21" width="4.58" height="3.97"/>
			<polygon class="st21" points="114.74,42.09 111.52,42.09 111.52,44.3 112.2,44.3 112.2,44.59 112.51,44.59 112.51,44.84 
				113.82,44.84 113.82,44.59 114.2,44.59 114.2,44.3 114.74,44.3 			"/>
		</g>
	</g>
	<circle class="st23" cx="121.68" cy="40.78" r="35.11"/>
	<circle class="st24" cx="50.98" cy="87.1" r="15.99"/>
	<path class="st25" d="M42.73,73.4c5.21-4.73,53.59-57.58,53.59-57.58"/>
	<line class="st24" x1="57.13" y1="101.86" x2="134.76" y2="73.99"/>
	<g>
		<g>
			<g>
				<path class="st26" d="M351.46,233.2c-0.42,0-1.56-0.15-1.56,1.09s0,14.58,0,15.08s0.46,0.91,1.46,0.91s1.23-0.49,1.23-0.94
					s0-16.14,0-16.14L351.46,233.2L351.46,233.2z"/>
				<path class="st26" d="M358.73,233.21c0.42,0,1.56-0.15,1.56,1.09s0,14.58,0,15.08s-0.46,0.91-1.46,0.91s-1.23-0.49-1.23-0.94
					s0-16.14,0-16.14L358.73,233.21L358.73,233.21z"/>
				<path class="st26" d="M352.59,248.09c0.39-0.14,0.77-0.94,0.85-1.53s0.49-1.05,0.85-1.11v2.49l0.67,0.67l0.59-0.61v-2.62
					c0.46,0.27,0.94,0.61,1.11,1.52c0.09,0.51,0.41,1.02,0.96,1.34v-7.63h-5.02v7.48H352.59z"/>
				<rect x="353.27" y="228.58" class="st26" width="4.05" height="0.62"/>
				<rect x="350.89" y="228.08" class="st26" width="8.95" height="0.5"/>
				<g>
					<path class="st26" d="M352.86,229.2c-0.79,0-1.4,0.33-1.4,1.4s0,3.61,0,4.48c0,0.86,0.47,1.96,0.7,2.46
						c0.23,0.5,0.3,2.38,0.3,2.93s0.93,1.62,1.79,1.62c0.86,0,1.59,0,2.09,0c0.77,0,1.4-0.77,1.4-1.64c0-0.86,0.47-2.23,0.7-2.96
						c0.23-0.73,0.46-1.46,0.46-2.32c0-0.86,0-3.82,0-4.42c0-0.59-0.14-1.55-0.96-1.55C357.12,229.2,354.1,229.2,352.86,229.2z"/>
					<path class="st27" d="M351.46,230.59c1.06,0.52,2.59,0.56,3.72,0.56s2.94-0.09,3.72-0.41"/>
				</g>
				<path class="st28" d="M348.61,250.5L348.61,250.5c-0.6,0-1.09-0.49-1.09-1.09v-14.02c0-0.6,0.49-1.09,1.09-1.09l0,0
					c0.6,0,1.09,0.49,1.09,1.09v14.02C349.7,250.01,349.21,250.5,348.61,250.5z"/>
				<path class="st28" d="M361.63,250.5L361.63,250.5c-0.6,0-1.09-0.49-1.09-1.09v-14.02c0-0.6,0.49-1.09,1.09-1.09l0,0
					c0.6,0,1.09,0.49,1.09,1.09v14.02C362.72,250.01,362.23,250.5,361.63,250.5z"/>
			</g>
			<g>
				<path class="st26" d="M362.04,226.56c0.55,0,0.58,0.06,0.58,0.36s-0.02,0.24-0.02,0.52c0,0.27,0.12,0.42-0.29,0.42
					c-0.41,0-15.77,0-15.77,0c-0.53,0.21-0.76,1.02-0.76,1.64c0,0.61,0,7.52,0,8.55s-0.09,2.25-2.82,2.25c-2.73,0-32.33,0-32.33,0
					v-1.49c0,0,22.44,0,23.17,0c1.24,0,1.7-0.61,1.7-1.7c0-1.95,0-5.61,0-7.56c0-2.55,1.12-3,3.66-3
					C340.86,226.56,362.04,226.56,362.04,226.56z"/>
				<path class="st29" d="M346.55,227.86c0,0-6.33,0-7.54,0c-1.68,0-2.14,0.71-2.14,1.93c0,0.82,0,6.96,0,8.03s-0.36,2.49-3.07,2.49
					"/>
			</g>
			<g>
				<path class="st26" d="M259.23,226.56c-0.55,0-0.58,0.06-0.58,0.36s0.02,0.24,0.02,0.52c0,0.27-0.12,0.42,0.29,0.42
					c0.41,0,15.77,0,15.77,0c0.53,0.21,0.76,1.02,0.76,1.64c0,0.61,0,7.52,0,8.55s0.09,2.25,2.82,2.25c2.73,0,32.33,0,32.33,0v-1.49
					c0,0-22.44,0-23.17,0c-1.24,0-1.7-0.61-1.7-1.7c0-1.95,0-5.61,0-7.56c0-2.55-1.12-3-3.66-3
					C280.41,226.56,259.23,226.56,259.23,226.56z"/>
				<path class="st29" d="M274.72,227.86c0,0,6.33,0,7.54,0c1.68,0,2.14,0.71,2.14,1.93c0,0.82,0,6.96,0,8.03s0.36,2.49,3.07,2.49"
					/>
			</g>
			<g>
				<path class="st26" d="M262.09,233.2c-0.42,0-1.56-0.15-1.56,1.09s0,14.58,0,15.08s0.46,0.91,1.46,0.91s1.23-0.49,1.23-0.94
					s0-16.14,0-16.14L262.09,233.2L262.09,233.2z"/>
				<path class="st26" d="M269.35,233.21c0.42,0,1.56-0.15,1.56,1.09s0,14.58,0,15.08s-0.46,0.91-1.46,0.91s-1.23-0.49-1.23-0.94
					s0-16.14,0-16.14L269.35,233.21L269.35,233.21z"/>
				<path class="st26" d="M263.21,248.09c0.39-0.14,0.77-0.94,0.85-1.53s0.49-1.05,0.85-1.11v2.49l0.67,0.67l0.59-0.61v-2.62
					c0.46,0.27,0.94,0.61,1.11,1.52c0.09,0.51,0.41,1.02,0.96,1.34v-7.63h-5.02v7.48H263.21z"/>
				<rect x="263.89" y="228.58" class="st26" width="4.05" height="0.62"/>
				<rect x="261.51" y="228.08" class="st26" width="8.95" height="0.5"/>
				<g>
					<path class="st26" d="M263.48,229.2c-0.79,0-1.4,0.33-1.4,1.4s0,3.61,0,4.48c0,0.86,0.47,1.96,0.7,2.46
						c0.23,0.5,0.3,2.38,0.3,2.93s0.93,1.62,1.79,1.62s1.59,0,2.09,0c0.77,0,1.4-0.77,1.4-1.64c0-0.86,0.47-2.23,0.7-2.96
						c0.23-0.73,0.46-1.46,0.46-2.32c0-0.86,0-3.82,0-4.42c0-0.59-0.14-1.55-0.96-1.55C267.75,229.2,264.73,229.2,263.48,229.2z"/>
					<path class="st27" d="M262.09,230.59c1.06,0.52,2.59,0.56,3.72,0.56c1.12,0,2.94-0.09,3.72-0.41"/>
				</g>
				<path class="st28" d="M259.23,250.5L259.23,250.5c-0.6,0-1.09-0.49-1.09-1.09v-14.02c0-0.6,0.49-1.09,1.09-1.09l0,0
					c0.6,0,1.09,0.49,1.09,1.09v14.02C260.33,250.01,259.83,250.5,259.23,250.5z"/>
				<path class="st28" d="M272.25,250.5L272.25,250.5c-0.6,0-1.09-0.49-1.09-1.09v-14.02c0-0.6,0.49-1.09,1.09-1.09l0,0
					c0.6,0,1.09,0.49,1.09,1.09v14.02C273.34,250.01,272.85,250.5,272.25,250.5z"/>
			</g>
			<g>
				<path class="st28" d="M350.12,105.03h-79.38c-1.54,0-2.79,1.26-2.79,2.79v92.95c0,1.54,1.26,2.79,2.79,2.79c0,0,9.31,0,13.2,0
					c2.03,0,3.67,1.28,3.67,3.76c0,1.59,0,28.4,0,28.4c0,1.54,1.26,2.79,2.79,2.79h40.57c1.54,0,2.79-1.26,2.79-2.79
					c0,0,0-26.06,0-28.86c0-2.03,1.26-3.3,3.72-3.31c1.84-0.01,12.63,0,12.63,0c1.54,0,2.79-1.26,2.79-2.79v-92.95
					C352.92,106.29,351.66,105.03,350.12,105.03z"/>
				<path class="st0" d="M346.83,108.66h-72.8c-2.68,0-2.56,0-2.56,2.56v86.09c0,2.56,0,2.56,2.56,2.56c0,0,6.95,0,10.52,0
					c4.01,0,6.31,2.55,6.31,6.61c0,1.46,0,25.87,0,25.87c0,2.56,0,2.56,2.56,2.56h34.39c2.56,0,2.56,0,2.56-2.56
					c0,0,0-23.24,0-25.81c0-4.16,2.91-6.68,6.55-6.68c1.69,0,9.91,0,9.91,0c2.56,0,2.56-0.03,2.56-2.56v-86.09
					C349.4,108.66,349.4,108.66,346.83,108.66z"/>
				<line class="st27" x1="287.61" y1="227.12" x2="333.77" y2="227.12"/>
				<line class="st1" x1="267.95" y1="126.49" x2="352.92" y2="126.49"/>
				<g>
					<path class="st26" d="M352.92,141.42c0.6,0,0.94,0.55,0.94,1.12h-0.94V141.42z"/>
					<path class="st26" d="M352.92,148.66c0.6,0,0.94,0.55,0.94,1.12h-0.94V148.66z"/>
					<path class="st26" d="M352.92,155.91c0.6,0,0.94,0.55,0.94,1.12h-0.94V155.91z"/>
					<path class="st26" d="M352.92,163.15c0.6,0,0.94,0.55,0.94,1.12h-0.94V163.15z"/>
					<path class="st26" d="M352.92,170.39c0.6,0,0.94,0.55,0.94,1.12h-0.94V170.39z"/>
					<path class="st26" d="M352.92,177.64c0.6,0,0.94,0.55,0.94,1.12h-0.94V177.64z"/>
					<path class="st26" d="M352.92,184.88c0.6,0,0.94,0.55,0.94,1.12h-0.94V184.88z"/>
				</g>
				<g>
					<path class="st26" d="M267.95,141.71c-0.6,0-0.94,0.55-0.94,1.12h0.94V141.71z"/>
					<path class="st26" d="M267.95,148.95c-0.6,0-0.94,0.55-0.94,1.12h0.94V148.95z"/>
					<path class="st26" d="M267.95,156.2c-0.6,0-0.94,0.55-0.94,1.12h0.94V156.2z"/>
					<path class="st26" d="M267.95,163.44c-0.6,0-0.94,0.55-0.94,1.12h0.94V163.44z"/>
					<path class="st26" d="M267.95,170.68c-0.6,0-0.94,0.55-0.94,1.12h0.94V170.68z"/>
					<path class="st26" d="M267.95,177.93c-0.6,0-0.94,0.55-0.94,1.12h0.94V177.93z"/>
					<path class="st26" d="M267.95,185.17c-0.6,0-0.94,0.55-0.94,1.12h0.94V185.17z"/>
				</g>
				<path class="st26" d="M329.06,120.85L329.06,120.85c0,1-0.82,1.82-1.82,1.82h-4.25c-1,0-1.82-0.82-1.82-1.82l0,0
					c0-1,0.82-1.82,1.82-1.82h4.25C328.24,119.02,329.06,119.84,329.06,120.85z"/>
			</g>
			<rect x="302.91" y="95.54" class="st28" width="15.05" height="145"/>
			<line class="st27" x1="302.91" y1="205.51" x2="317.96" y2="205.51"/>
			<line class="st27" x1="302.91" y1="226.88" x2="317.96" y2="226.88"/>
			<g>
				<polygon class="st28" points="317.96,224.39 320.54,224.57 320.69,225.72 320.69,235.16 320.69,240.53 317.96,240.53 				"/>
				<line class="st27" x1="320.69" y1="225.72" x2="317.96" y2="225.94"/>
				<line class="st27" x1="320.69" y1="235.16" x2="317.96" y2="235.31"/>
			</g>
			<g>
				<polygon class="st28" points="302.91,224.39 300.33,224.57 300.17,225.72 300.17,235.16 300.17,240.53 302.91,240.53 				"/>
				<line class="st27" x1="300.17" y1="225.72" x2="302.91" y2="225.94"/>
				<line class="st27" x1="300.17" y1="235.16" x2="302.91" y2="235.31"/>
			</g>
			<circle class="st27" cx="307.5" cy="234.99" r="0.53"/>
			<circle class="st27" cx="314.31" cy="234.99" r="0.53"/>
			<g>
				<path class="st28" d="M319.26,111.65c0,0,39.33,0,40.69,0c1.36,0,2.37,0.55,2.37,1.55s-1.09,2.18-2.73,2.18
					c-0.91,0-6.37,0-6.37,0v-0.58h-33.96V111.65z"/>
				<line class="st30" x1="353.22" y1="114.81" x2="361.26" y2="114.81"/>
				<path class="st1" d="M319.26,112.47c0,0,39.91,0,40.76,0c0.85,0,1.55-0.02,2.2,0.2"/>
				<path class="st1" d="M319.26,114.06c0,0,39.91,0,40.76,0c0.85,0,1.55,0.02,2.2-0.2"/>
				<path class="st1" d="M359.96,111.65c0.39,0.27,0.42,0.64,0.46,0.82c0.05,0.27,0.11,1.3,0,1.59c-0.11,0.28-0.2,0.52-0.46,0.75"/>
				<rect x="318.2" y="102.03" class="st28" width="1.06" height="21.67"/>
			</g>
			<g>
				<path class="st28" d="M302.06,111.65c0,0-39.33,0-40.69,0c-1.37,0-2.37,0.55-2.37,1.55s1.09,2.18,2.73,2.18
					c0.91,0,6.37,0,6.37,0v-0.58h33.96V111.65z"/>
				<line class="st30" x1="268.1" y1="114.81" x2="260.06" y2="114.81"/>
				<path class="st1" d="M302.06,112.47c0,0-39.91,0-40.76,0c-0.85,0-1.55-0.02-2.2,0.2"/>
				<path class="st1" d="M302.06,114.06c0,0-39.91,0-40.76,0c-0.85,0-1.55,0.02-2.2-0.2"/>
				<path class="st1" d="M261.36,111.65c-0.39,0.27-0.42,0.64-0.46,0.82c-0.05,0.27-0.11,1.3,0,1.59c0.11,0.28,0.2,0.52,0.46,0.75"
					/>
				<rect x="302.06" y="102.03" class="st28" width="1.06" height="21.67"/>
			</g>
			<path class="st28" d="M389.99,96.26H229.78c-0.71,0-1.28-0.58-1.28-1.28V1.78c0-0.71,0.58-1.28,1.28-1.28h160.21
				c0.71,0,1.28,0.58,1.28,1.28v93.2C391.27,95.69,390.7,96.26,389.99,96.26z"/>
			<rect x="230.56" y="2.8" class="st11" width="158.53" height="89.34"/>
			<circle class="st27" cx="387" cy="94.29" r="0.39"/>
		</g>
		<g>
			<rect x="339.14" y="119.15" class="st9" width="0.95" height="2.15"/>
			<rect x="340.74" y="119.15" class="st9" width="0.95" height="2.15"/>
			<g>
				<polygon class="st31" points="340.97,122.18 340.14,122.18 339.55,122.76 339.55,123.59 340.14,124.18 340.97,124.18 
					341.55,123.59 341.55,122.76 				"/>
				<circle class="st9" cx="340.53" cy="123.17" r="0.69"/>
			</g>
			<g>
				<g>
					<g>
						<g>
							<path class="st32" d="M341.93,125.55c0.04-0.04,0.08-0.12,0.08-0.18v-0.23c0-0.06-0.05-0.11-0.11-0.11h-2.73
								c-0.06,0-0.11,0.05-0.11,0.11v0.23c0,0.06,0.04,0.14,0.08,0.18l0.35,0.3c0.04,0.04,0.13,0.07,0.19,0.07h1.74
								c0.06,0,0.14-0.03,0.19-0.07L341.93,125.55z"/>
							<path class="st33" d="M341.93,125.55c0.04-0.04,0.08-0.12,0.08-0.18v-0.23c0-0.06-0.05-0.11-0.11-0.11h-2.73
								c-0.06,0-0.11,0.05-0.11,0.11v0.23c0,0.06,0.04,0.14,0.08,0.18l0.35,0.3c0.04,0.04,0.13,0.07,0.19,0.07h1.74
								c0.06,0,0.14-0.03,0.19-0.07L341.93,125.55z"/>
						</g>
					</g>
				</g>
				<rect x="339.48" y="125.35" class="st34" width="2.09" height="0.17"/>
				<rect x="339.63" y="125.33" class="st35" width="0.08" height="0.03"/>
				<rect x="339.82" y="125.33" class="st35" width="0.08" height="0.03"/>
				<rect x="340.01" y="125.33" class="st35" width="0.08" height="0.03"/>
				<rect x="340.2" y="125.33" class="st35" width="0.08" height="0.03"/>
				<rect x="340.39" y="125.33" class="st35" width="0.08" height="0.03"/>
				<rect x="340.59" y="125.33" class="st35" width="0.08" height="0.03"/>
				<rect x="340.78" y="125.33" class="st35" width="0.08" height="0.03"/>
				<rect x="340.97" y="125.33" class="st35" width="0.08" height="0.03"/>
				<rect x="341.16" y="125.33" class="st35" width="0.08" height="0.03"/>
				<rect x="341.35" y="125.33" class="st35" width="0.08" height="0.03"/>
				<rect x="341.26" y="125.5" class="st36" width="0.09" height="0.04"/>
				<rect x="341.07" y="125.5" class="st36" width="0.09" height="0.04"/>
				<rect x="340.88" y="125.5" class="st36" width="0.09" height="0.04"/>
				<rect x="340.68" y="125.5" class="st36" width="0.09" height="0.04"/>
				<rect x="340.49" y="125.5" class="st36" width="0.09" height="0.04"/>
				<rect x="340.3" y="125.5" class="st36" width="0.09" height="0.04"/>
				<rect x="340.11" y="125.5" class="st36" width="0.09" height="0.04"/>
				<rect x="339.92" y="125.5" class="st36" width="0.09" height="0.04"/>
				<rect x="339.72" y="125.5" class="st36" width="0.09" height="0.04"/>
			</g>
		</g>
	</g>
</g>
<g id="Layer_2_1_">
	<g>
		<polyline class="st37" points="322.03,120.54 175.11,120.54 175.01,35.69 117.72,35.69 		"/>
		<polyline class="st38" points="322.03,120.54 175.11,120.54 175.01,35.69 117.72,35.69 		"/>
	</g>
	<polygon class="st39" points="175.11,88.11 182.3,73.14 167.92,73.14 	"/>
	<g>
		<path d="M188.29,81.76h-2.39v-4.28h2.39v0.44h-1.89v1.38h1.78v0.44h-1.78v1.58h1.89V81.76z"/>
		<path d="M190.21,81.41c0.09,0,0.17-0.01,0.25-0.02s0.14-0.03,0.19-0.04v0.37c-0.05,0.03-0.13,0.05-0.23,0.06s-0.19,0.02-0.28,0.02
			c-0.62,0-0.93-0.33-0.93-0.98v-1.91h-0.46v-0.23l0.46-0.2l0.21-0.69h0.28v0.74h0.93v0.38h-0.93v1.89c0,0.19,0.05,0.34,0.14,0.45
			S190.05,81.41,190.21,81.41z"/>
		<path d="M193.48,81.76v-2.08c0-0.26-0.06-0.46-0.18-0.59s-0.31-0.19-0.56-0.19c-0.34,0-0.58,0.09-0.74,0.28s-0.23,0.48-0.23,0.9
			v1.68h-0.49V77.2h0.49v1.38c0,0.17-0.01,0.3-0.02,0.41h0.03c0.1-0.15,0.23-0.28,0.41-0.36s0.38-0.13,0.6-0.13
			c0.39,0,0.69,0.09,0.88,0.28s0.29,0.48,0.29,0.89v2.09L193.48,81.76L193.48,81.76z"/>
		<path d="M196.33,81.82c-0.47,0-0.85-0.14-1.12-0.43s-0.41-0.69-0.41-1.2c0-0.52,0.13-0.93,0.38-1.23s0.6-0.46,1.03-0.46
			c0.4,0,0.72,0.13,0.96,0.4s0.35,0.61,0.35,1.05v0.31h-2.21c0.01,0.38,0.1,0.66,0.29,0.86s0.44,0.29,0.76,0.29
			c0.35,0,0.69-0.07,1.03-0.22v0.43c-0.17,0.07-0.33,0.13-0.49,0.16S196.54,81.82,196.33,81.82z M196.19,78.89
			c-0.26,0-0.46,0.08-0.62,0.25s-0.24,0.4-0.27,0.7h1.68c0-0.31-0.07-0.54-0.21-0.7S196.45,78.89,196.19,78.89z"/>
		<path d="M199.8,78.49c0.14,0,0.27,0.01,0.38,0.04l-0.07,0.45c-0.13-0.03-0.25-0.04-0.35-0.04c-0.26,0-0.48,0.11-0.67,0.32
			c-0.19,0.21-0.28,0.47-0.28,0.79v1.72h-0.49v-3.21h0.4l0.06,0.59h0.02c0.12-0.21,0.26-0.37,0.43-0.48S199.6,78.49,199.8,78.49z"/>
		<path d="M202.98,81.76v-2.08c0-0.26-0.06-0.46-0.18-0.59s-0.31-0.19-0.56-0.19c-0.34,0-0.58,0.09-0.74,0.27s-0.23,0.48-0.23,0.9
			v1.68h-0.49v-3.21h0.4l0.08,0.44h0.02c0.1-0.16,0.24-0.28,0.42-0.37s0.38-0.13,0.6-0.13c0.39,0,0.68,0.09,0.87,0.28
			s0.29,0.48,0.29,0.9v2.09h-0.48V81.76z"/>
		<path d="M205.82,81.82c-0.47,0-0.85-0.14-1.12-0.43s-0.41-0.69-0.41-1.2c0-0.52,0.13-0.93,0.38-1.23c0.26-0.3,0.6-0.46,1.03-0.46
			c0.4,0,0.72,0.13,0.96,0.4s0.35,0.61,0.35,1.05v0.31h-2.21c0.01,0.38,0.1,0.66,0.29,0.86c0.18,0.2,0.43,0.29,0.76,0.29
			c0.35,0,0.69-0.07,1.03-0.22v0.43c-0.17,0.07-0.33,0.13-0.49,0.16C206.23,81.8,206.04,81.82,205.82,81.82z M205.69,78.89
			c-0.26,0-0.46,0.08-0.62,0.25s-0.24,0.4-0.27,0.7h1.68c0-0.31-0.07-0.54-0.21-0.7S205.95,78.89,205.69,78.89z"/>
		<path d="M208.87,81.41c0.09,0,0.17-0.01,0.25-0.02s0.14-0.03,0.19-0.04v0.37c-0.05,0.03-0.13,0.05-0.23,0.06
			c-0.1,0.02-0.2,0.02-0.28,0.02c-0.62,0-0.93-0.33-0.93-0.98v-1.91h-0.46v-0.23l0.46-0.2l0.21-0.69h0.28v0.74h0.93v0.38h-0.93v1.89
			c0,0.19,0.05,0.34,0.14,0.45S208.71,81.41,208.87,81.41z"/>
	</g>
</g>
</svg>
