<?xml version="1.0" encoding="utf-8"?>
<!-- Generator: Adobe Illustrator 24.0.3, SVG Export Plug-In . SVG Version: 6.00 Build 0)  -->
<svg version="1.1" id="Layer_1" xmlns="http://www.w3.org/2000/svg" xmlns:xlink="http://www.w3.org/1999/xlink" x="0px" y="0px"
	 viewBox="0 0 17.05 14.04" style="enable-background:new 0 0 17.05 14.04;" xml:space="preserve">
<style type="text/css">
	.st0{fill:#FFD478;stroke:#000000;stroke-linecap:round;stroke-linejoin:round;}
</style>
<g>
	<g>
		<polygon class="st0" points="8.52,0.5 0.5,13.54 16.55,13.54 		"/>
	</g>
	<path d="M7.82,5.24C7.78,4.93,7.78,4.72,7.78,4.62c0-0.37,0.13-0.87,0.82-0.87c0.67,0,0.78,0.59,0.78,0.99
		c0,0.19-0.03,0.45-0.03,0.5L8.83,9.7C8.82,9.81,8.78,9.99,8.64,9.99c-0.19,0-0.21-0.17-0.21-0.25L7.82,5.24z M8.58,12.33
		c-0.4,0-0.71-0.32-0.71-0.68c0-0.35,0.28-0.68,0.7-0.68c0.4,0,0.71,0.32,0.71,0.7C9.27,12.01,8.98,12.33,8.58,12.33z"/>
</g>
</svg>
