<?xml version="1.0" encoding="utf-8"?>
<!-- Generator: Adobe Illustrator 24.0.3, SVG Export Plug-In . SVG Version: 6.00 Build 0)  -->
<svg version="1.1" id="Layer_1" xmlns="http://www.w3.org/2000/svg" xmlns:xlink="http://www.w3.org/1999/xlink" x="0px" y="0px"
	 viewBox="0 0 343.88 251" style="enable-background:new 0 0 343.88 251;" xml:space="preserve">
<style type="text/css">
	.st0{fill:#FFFFFF;stroke:#000000;stroke-width:0.6413;stroke-linecap:round;stroke-linejoin:round;stroke-miterlimit:10;}
	.st1{fill:none;stroke:#000000;stroke-width:0.3207;stroke-linecap:round;stroke-linejoin:round;stroke-miterlimit:10;}
	.st2{fill:#FFFFFF;stroke:#000000;stroke-linecap:round;stroke-linejoin:round;stroke-miterlimit:10;}
	.st3{fill:none;stroke:#000000;stroke-width:0.6413;stroke-linecap:round;stroke-linejoin:round;stroke-miterlimit:10;}
	.st4{fill:#FFFFFF;stroke:#000000;stroke-width:0.5;stroke-linecap:round;stroke-linejoin:round;stroke-miterlimit:10;}
	.st5{fill:none;stroke:#000000;stroke-width:0.25;stroke-linecap:round;stroke-linejoin:round;stroke-miterlimit:10;}
	.st6{fill:none;stroke:#000000;stroke-linecap:round;stroke-linejoin:round;stroke-miterlimit:10;}
	.st7{fill:none;stroke:#000000;stroke-width:0.5;stroke-linecap:round;stroke-linejoin:round;stroke-miterlimit:10;}
	.st8{fill:#FFFFFF;stroke:#000000;stroke-width:0.25;stroke-linecap:round;stroke-linejoin:round;stroke-miterlimit:10;}
	.st9{fill:#FFFFFF;stroke:#000000;stroke-width:0.1378;stroke-linecap:round;stroke-linejoin:round;stroke-miterlimit:10;}
	.st10{fill:#FFFFFF;}
	.st11{fill:none;stroke:#010101;stroke-width:0.0533;stroke-linecap:round;stroke-linejoin:round;stroke-miterlimit:10;}
	.st12{fill:#010101;}
	.st13{fill:#FFFFFF;stroke:#010101;stroke-width:8.683735e-03;stroke-miterlimit:10;}
	.st14{fill:#FFFFFF;stroke:#010101;stroke-width:9.609092e-03;stroke-miterlimit:10;}
	.st15{fill:none;stroke:#FFFFFF;stroke-width:6;stroke-linecap:round;stroke-linejoin:round;stroke-miterlimit:10;}
	.st16{fill:none;stroke:#007481;stroke-width:3;stroke-linecap:round;stroke-linejoin:round;stroke-miterlimit:10;}
	.st17{fill:#007481;}
</style>
<g id="Layer_3">
	<g>
		<g>
			<g>
				<path class="st0" d="M123.46,233.2c-0.42,0-1.56-0.15-1.56,1.09s0,14.58,0,15.08s0.46,0.91,1.46,0.91s1.23-0.49,1.23-0.94
					s0-16.14,0-16.14H123.46z"/>
				<path class="st0" d="M130.73,233.21c0.42,0,1.56-0.15,1.56,1.09s0,14.58,0,15.08s-0.46,0.91-1.46,0.91c-1,0-1.23-0.49-1.23-0.94
					s0-16.14,0-16.14H130.73z"/>
				<path class="st0" d="M124.59,248.08c0.39-0.14,0.77-0.94,0.85-1.53s0.49-1.05,0.85-1.11v2.49l0.67,0.67l0.59-0.61v-2.62
					c0.46,0.27,0.94,0.61,1.11,1.52c0.09,0.51,0.41,1.02,0.96,1.34v-7.63h-5.02v7.48H124.59z"/>
				<rect x="125.27" y="228.57" class="st0" width="4.05" height="0.62"/>
				<rect x="122.89" y="228.07" class="st0" width="8.95" height="0.5"/>
				<g>
					<path class="st0" d="M124.86,229.19c-0.79,0-1.4,0.33-1.4,1.4s0,3.61,0,4.48s0.47,1.96,0.7,2.46s0.3,2.38,0.3,2.93
						s0.93,1.62,1.79,1.62s1.59,0,2.09,0c0.77,0,1.4-0.77,1.4-1.64s0.47-2.23,0.7-2.96c0.23-0.73,0.46-1.46,0.46-2.32s0-3.82,0-4.42
						c0-0.59-0.14-1.55-0.96-1.55C129.12,229.19,126.1,229.19,124.86,229.19z"/>
					<path class="st1" d="M123.46,230.59c1.06,0.52,2.59,0.56,3.72,0.56s2.94-0.09,3.72-0.41"/>
				</g>
				<path class="st2" d="M120.61,250.5L120.61,250.5c-0.6,0-1.09-0.49-1.09-1.09v-14.02c0-0.6,0.49-1.09,1.09-1.09l0,0
					c0.6,0,1.09,0.49,1.09,1.09v14.02C121.7,250.01,121.21,250.5,120.61,250.5z"/>
				<path class="st2" d="M133.63,250.5L133.63,250.5c-0.6,0-1.09-0.49-1.09-1.09v-14.02c0-0.6,0.49-1.09,1.09-1.09l0,0
					c0.6,0,1.09,0.49,1.09,1.09v14.02C134.72,250.01,134.23,250.5,133.63,250.5z"/>
			</g>
			<g>
				<path class="st0" d="M134.04,226.55c0.55,0,0.58,0.06,0.58,0.36s-0.02,0.24-0.02,0.52s0.12,0.42-0.29,0.42s-15.77,0-15.77,0
					c-0.53,0.21-0.76,1.02-0.76,1.64s0,7.52,0,8.55s-0.09,2.25-2.82,2.25c-2.73,0-32.33,0-32.33,0v-1.49c0,0,22.44,0,23.17,0
					c1.24,0,1.7-0.61,1.7-1.7c0-1.95,0-5.61,0-7.56c0-2.55,1.12-3,3.66-3C112.86,226.55,134.04,226.55,134.04,226.55z"/>
				<path class="st3" d="M118.55,227.86c0,0-6.33,0-7.54,0c-1.68,0-2.14,0.71-2.14,1.93c0,0.82,0,6.96,0,8.03s-0.36,2.49-3.07,2.49"
					/>
			</g>
			<g>
				<path class="st0" d="M31.23,226.55c-0.55,0-0.58,0.06-0.58,0.36s0.02,0.24,0.02,0.52s-0.12,0.42,0.29,0.42
					c0.41,0,15.77,0,15.77,0c0.53,0.21,0.76,1.02,0.76,1.64s0,7.52,0,8.55s0.09,2.25,2.82,2.25c2.73,0,32.33,0,32.33,0v-1.49
					c0,0-22.44,0-23.17,0c-1.24,0-1.7-0.61-1.7-1.7c0-1.95,0-5.61,0-7.56c0-2.55-1.12-3-3.66-3
					C52.41,226.55,31.23,226.55,31.23,226.55z"/>
				<path class="st3" d="M46.72,227.86c0,0,6.33,0,7.54,0c1.68,0,2.14,0.71,2.14,1.93c0,0.82,0,6.96,0,8.03s0.36,2.49,3.07,2.49"/>
			</g>
			<g>
				<path class="st0" d="M34.09,233.2c-0.42,0-1.56-0.15-1.56,1.09s0,14.58,0,15.08s0.46,0.91,1.46,0.91s1.23-0.49,1.23-0.94
					s0-16.14,0-16.14H34.09z"/>
				<path class="st0" d="M41.35,233.21c0.42,0,1.56-0.15,1.56,1.09s0,14.58,0,15.08s-0.46,0.91-1.46,0.91s-1.23-0.49-1.23-0.94
					s0-16.14,0-16.14H41.35z"/>
				<path class="st0" d="M35.21,248.08c0.39-0.14,0.77-0.94,0.85-1.53s0.49-1.05,0.85-1.11v2.49l0.67,0.67l0.59-0.61v-2.62
					c0.46,0.27,0.94,0.61,1.11,1.52c0.09,0.51,0.41,1.02,0.96,1.34v-7.63h-5.02v7.48H35.21z"/>
				<rect x="35.89" y="228.57" class="st0" width="4.05" height="0.62"/>
				<rect x="33.51" y="228.07" class="st0" width="8.95" height="0.5"/>
				<g>
					<path class="st0" d="M35.48,229.19c-0.79,0-1.4,0.33-1.4,1.4s0,3.61,0,4.48s0.47,1.96,0.7,2.46s0.3,2.38,0.3,2.93
						s0.93,1.62,1.79,1.62s1.59,0,2.09,0c0.77,0,1.4-0.77,1.4-1.64s0.47-2.23,0.7-2.96c0.23-0.73,0.46-1.46,0.46-2.32s0-3.82,0-4.42
						c0-0.59-0.14-1.55-0.96-1.55C39.75,229.19,36.73,229.19,35.48,229.19z"/>
					<path class="st1" d="M34.09,230.59c1.06,0.52,2.59,0.56,3.72,0.56c1.12,0,2.94-0.09,3.72-0.41"/>
				</g>
				<path class="st2" d="M31.23,250.5L31.23,250.5c-0.6,0-1.09-0.49-1.09-1.09v-14.02c0-0.6,0.49-1.09,1.09-1.09l0,0
					c0.6,0,1.09,0.49,1.09,1.09v14.02C32.33,250.01,31.83,250.5,31.23,250.5z"/>
				<path class="st2" d="M44.25,250.5L44.25,250.5c-0.6,0-1.09-0.49-1.09-1.09v-14.02c0-0.6,0.49-1.09,1.09-1.09l0,0
					c0.6,0,1.09,0.49,1.09,1.09v14.02C45.34,250.01,44.85,250.5,44.25,250.5z"/>
			</g>
			<g>
				<path class="st2" d="M122.12,105.02H42.74c-1.54,0-2.79,1.26-2.79,2.79v92.95c0,1.54,1.26,2.79,2.79,2.79c0,0,9.31,0,13.2,0
					c2.03,0,3.67,1.28,3.67,3.76c0,1.59,0,28.4,0,28.4c0,1.54,1.26,2.79,2.79,2.79h40.57c1.54,0,2.79-1.26,2.79-2.79
					c0,0,0-26.06,0-28.86c0-2.03,1.26-3.3,3.72-3.31c1.84-0.01,12.63,0,12.63,0c1.54,0,2.79-1.26,2.79-2.79V107.8
					C124.92,106.28,123.66,105.02,122.12,105.02z"/>
				<path class="st4" d="M118.83,108.65h-72.8c-2.68,0-2.56,0-2.56,2.56v86.09c0,2.56,0,2.56,2.56,2.56c0,0,6.95,0,10.52,0
					c4.01,0,6.31,2.55,6.31,6.61c0,1.46,0,25.87,0,25.87c0,2.56,0,2.56,2.56,2.56h34.39c2.56,0,2.56,0,2.56-2.56
					c0,0,0-23.24,0-25.81c0-4.16,2.91-6.68,6.55-6.68c1.69,0,9.91,0,9.91,0c2.56,0,2.56-0.03,2.56-2.56V111.2
					C121.4,108.65,121.4,108.65,118.83,108.65z"/>
				<line class="st1" x1="59.61" y1="227.11" x2="105.77" y2="227.11"/>
				<line class="st5" x1="39.95" y1="126.49" x2="124.92" y2="126.49"/>
				<g>
					<path class="st0" d="M124.92,141.42c0.6,0,0.94,0.55,0.94,1.12h-0.94V141.42z"/>
					<path class="st0" d="M124.92,148.66c0.6,0,0.94,0.55,0.94,1.12h-0.94V148.66z"/>
					<path class="st0" d="M124.92,155.9c0.6,0,0.94,0.55,0.94,1.12h-0.94V155.9z"/>
					<path class="st0" d="M124.92,163.15c0.6,0,0.94,0.55,0.94,1.12h-0.94V163.15z"/>
					<path class="st0" d="M124.92,170.39c0.6,0,0.94,0.55,0.94,1.12h-0.94V170.39z"/>
					<path class="st0" d="M124.92,177.63c0.6,0,0.94,0.55,0.94,1.12h-0.94V177.63z"/>
					<path class="st0" d="M124.92,184.88c0.6,0,0.94,0.55,0.94,1.12h-0.94V184.88z"/>
				</g>
				<g>
					<path class="st0" d="M39.95,141.71c-0.6,0-0.94,0.55-0.94,1.12h0.94V141.71z"/>
					<path class="st0" d="M39.95,148.95c-0.6,0-0.94,0.55-0.94,1.12h0.94V148.95z"/>
					<path class="st0" d="M39.95,156.19c-0.6,0-0.94,0.55-0.94,1.12h0.94V156.19z"/>
					<path class="st0" d="M39.95,163.44c-0.6,0-0.94,0.55-0.94,1.12h0.94V163.44z"/>
					<path class="st0" d="M39.95,170.68c-0.6,0-0.94,0.55-0.94,1.12h0.94V170.68z"/>
					<path class="st0" d="M39.95,177.92c-0.6,0-0.94,0.55-0.94,1.12h0.94V177.92z"/>
					<path class="st0" d="M39.95,185.17c-0.6,0-0.94,0.55-0.94,1.12h0.94V185.17z"/>
				</g>
				<path class="st0" d="M101.06,120.84L101.06,120.84c0,1-0.82,1.82-1.82,1.82h-4.25c-1,0-1.82-0.82-1.82-1.82l0,0
					c0-1,0.82-1.82,1.82-1.82h4.25C100.25,119.02,101.06,119.84,101.06,120.84z"/>
			</g>
			<rect x="74.91" y="95.53" class="st2" width="15.05" height="145"/>
			<line class="st1" x1="74.91" y1="205.51" x2="89.96" y2="205.51"/>
			<line class="st1" x1="74.91" y1="226.87" x2="89.96" y2="226.87"/>
			<g>
				<polygon class="st2" points="89.96,224.38 92.54,224.57 92.69,225.72 92.69,235.16 92.69,240.53 89.96,240.53 				"/>
				<line class="st1" x1="92.69" y1="225.72" x2="89.96" y2="225.93"/>
				<line class="st1" x1="92.69" y1="235.16" x2="89.96" y2="235.31"/>
			</g>
			<g>
				<polygon class="st2" points="74.91,224.38 72.33,224.57 72.18,225.72 72.18,235.16 72.18,240.53 74.91,240.53 				"/>
				<line class="st1" x1="72.18" y1="225.72" x2="74.91" y2="225.93"/>
				<line class="st1" x1="72.18" y1="235.16" x2="74.91" y2="235.31"/>
			</g>
			<circle class="st1" cx="79.5" cy="234.99" r="0.53"/>
			<circle class="st1" cx="86.31" cy="234.99" r="0.53"/>
			<g>
				<path class="st2" d="M91.26,111.65c0,0,39.33,0,40.69,0c1.37,0,2.37,0.55,2.37,1.55s-1.09,2.18-2.73,2.18c-0.91,0-6.37,0-6.37,0
					v-0.58H91.26V111.65z"/>
				<line class="st6" x1="125.22" y1="114.8" x2="133.26" y2="114.8"/>
				<path class="st5" d="M91.26,112.47c0,0,39.91,0,40.76,0s1.55-0.02,2.2,0.2"/>
				<path class="st5" d="M91.26,114.05c0,0,39.91,0,40.76,0s1.55,0.02,2.2-0.2"/>
				<path class="st5" d="M131.96,111.65c0.39,0.27,0.42,0.64,0.46,0.82c0.05,0.27,0.11,1.3,0,1.59c-0.11,0.28-0.2,0.52-0.46,0.75"/>
				<rect x="90.2" y="102.03" class="st2" width="1.06" height="21.67"/>
			</g>
			<g>
				<path class="st2" d="M74.06,111.65c0,0-39.33,0-40.69,0S31,112.2,31,113.2s1.09,2.18,2.73,2.18c0.91,0,6.37,0,6.37,0v-0.58
					h33.96L74.06,111.65L74.06,111.65z"/>
				<line class="st6" x1="40.1" y1="114.8" x2="32.06" y2="114.8"/>
				<path class="st5" d="M74.06,112.47c0,0-39.91,0-40.76,0c-0.85,0-1.55-0.02-2.2,0.2"/>
				<path class="st5" d="M74.06,114.05c0,0-39.91,0-40.76,0c-0.85,0-1.55,0.02-2.2-0.2"/>
				<path class="st5" d="M33.36,111.65c-0.39,0.27-0.42,0.64-0.46,0.82c-0.05,0.27-0.11,1.3,0,1.59c0.11,0.28,0.2,0.52,0.46,0.75"/>
				<rect x="74.06" y="102.02" class="st2" width="1.06" height="21.67"/>
			</g>
			<path class="st2" d="M161.99,96.26H1.78c-0.71,0-1.28-0.58-1.28-1.28V1.78c0-0.71,0.58-1.28,1.28-1.28h160.21
				c0.71,0,1.28,0.58,1.28,1.28v93.2C163.28,95.68,162.7,96.26,161.99,96.26z"/>
			<rect x="2.56" y="2.79" class="st7" width="158.53" height="89.34"/>
			<circle class="st1" cx="159" cy="94.29" r="0.39"/>
		</g>
		<g>
			<rect x="111.14" y="119.15" class="st8" width="0.95" height="2.15"/>
			<rect x="112.74" y="119.15" class="st8" width="0.95" height="2.15"/>
			<g>
				<polygon class="st9" points="112.97,122.17 112.14,122.17 111.55,122.76 111.55,123.59 112.14,124.17 112.97,124.17 
					113.55,123.59 113.55,122.76 				"/>
				<circle class="st8" cx="112.53" cy="123.17" r="0.69"/>
			</g>
			<g>
				<g>
					<g>
						<g>
							<path class="st10" d="M113.93,125.55c0.04-0.04,0.08-0.12,0.08-0.18v-0.23c0-0.06-0.05-0.11-0.11-0.11h-2.73
								c-0.06,0-0.11,0.05-0.11,0.11v0.23c0,0.06,0.04,0.14,0.08,0.18l0.35,0.3c0.04,0.04,0.13,0.07,0.19,0.07h1.74
								c0.06,0,0.14-0.03,0.19-0.07L113.93,125.55z"/>
							<path class="st11" d="M113.93,125.55c0.04-0.04,0.08-0.12,0.08-0.18v-0.23c0-0.06-0.05-0.11-0.11-0.11h-2.73
								c-0.06,0-0.11,0.05-0.11,0.11v0.23c0,0.06,0.04,0.14,0.08,0.18l0.35,0.3c0.04,0.04,0.13,0.07,0.19,0.07h1.74
								c0.06,0,0.14-0.03,0.19-0.07L113.93,125.55z"/>
						</g>
					</g>
				</g>
				<rect x="111.48" y="125.34" class="st12" width="2.09" height="0.17"/>
				<rect x="111.63" y="125.33" class="st13" width="0.08" height="0.03"/>
				<rect x="111.82" y="125.33" class="st13" width="0.08" height="0.03"/>
				<rect x="112.01" y="125.33" class="st13" width="0.08" height="0.03"/>
				<rect x="112.2" y="125.33" class="st13" width="0.08" height="0.03"/>
				<rect x="112.4" y="125.33" class="st13" width="0.08" height="0.03"/>
				<rect x="112.59" y="125.33" class="st13" width="0.08" height="0.03"/>
				<rect x="112.78" y="125.33" class="st13" width="0.08" height="0.03"/>
				<rect x="112.97" y="125.33" class="st13" width="0.08" height="0.03"/>
				<rect x="113.16" y="125.33" class="st13" width="0.08" height="0.03"/>
				<rect x="113.35" y="125.33" class="st13" width="0.08" height="0.03"/>
				<rect x="113.26" y="125.5" class="st14" width="0.09" height="0.04"/>
				<rect x="113.07" y="125.5" class="st14" width="0.09" height="0.04"/>
				<rect x="112.88" y="125.49" class="st14" width="0.09" height="0.04"/>
				<rect x="112.69" y="125.49" class="st14" width="0.09" height="0.04"/>
				<rect x="112.5" y="125.49" class="st14" width="0.09" height="0.04"/>
				<rect x="112.3" y="125.49" class="st14" width="0.09" height="0.04"/>
				<rect x="112.11" y="125.5" class="st14" width="0.09" height="0.04"/>
				<rect x="111.92" y="125.49" class="st14" width="0.09" height="0.04"/>
				<rect x="111.72" y="125.5" class="st14" width="0.09" height="0.04"/>
			</g>
		</g>
	</g>
</g>
<g id="Layer_2_1_">
	<g>
		<polyline class="st15" points="114.01,125.53 181.45,125.53 180.92,53.3 215.93,53.3 		"/>
		<polyline class="st16" points="114.01,125.53 181.45,125.53 180.92,53.3 215.93,53.3 		"/>
	</g>
	<polygon class="st17" points="181.45,83.15 174.26,98.12 188.64,98.12 	"/>
	<g>
		<path d="M194.67,95h-0.5v-2.02h-2.26V95h-0.5v-4.28h0.5v1.82h2.26v-1.82h0.5V95z"/>
		<path d="M199.27,92.81c0,0.71-0.19,1.25-0.58,1.62c-0.38,0.37-0.94,0.56-1.66,0.56h-1.19v-4.28h1.31c0.67,0,1.18,0.18,1.55,0.55
			S199.27,92.15,199.27,92.81z M198.74,92.83c0-0.56-0.14-0.98-0.42-1.26s-0.7-0.42-1.25-0.42h-0.72v3.42h0.61
			c0.59,0,1.04-0.15,1.34-0.44S198.74,93.4,198.74,92.83z"/>
		<path d="M202.12,95l-1.45-3.8h-0.02c0.03,0.3,0.04,0.66,0.04,1.07v2.72h-0.46v-4.28h0.75l1.36,3.53h0.02l1.37-3.53h0.74v4.28h-0.5
			v-2.76c0-0.32,0.01-0.66,0.04-1.03h-0.02l-1.46,3.79L202.12,95L202.12,95z"/>
		<path d="M205.64,95v-4.28h0.5V95H205.64z"/>
	</g>
</g>
<g id="Layer_1_1_">
	<g>
		<path class="st2" d="M342.37,90.63h-124.9c-0.55,0-1-0.45-1-1V16.97c0-0.55,0.45-1,1-1h124.91c0.55,0,1,0.45,1,1v72.66
			C343.37,90.18,342.92,90.63,342.37,90.63z"/>
		<rect x="218.08" y="17.76" class="st6" width="123.6" height="69.65"/>
		<circle class="st5" cx="340.04" cy="89.09" r="0.31"/>
		<polygon class="st2" points="271.63,90.63 271.63,94 259.9,94 259.9,96.39 294.65,96.39 294.65,93.51 282.8,93.51 282.83,90.63 		
			"/>
	</g>
</g>
</svg>
