<?xml version="1.0" encoding="utf-8"?>
<!-- Generator: Adobe Illustrator 24.0.3, SVG Export Plug-In . SVG Version: 6.00 Build 0)  -->
<svg version="1.1" id="Layer_1" xmlns="http://www.w3.org/2000/svg" xmlns:xlink="http://www.w3.org/1999/xlink" x="0px" y="0px"
	 viewBox="0 0 223.03 318.89" style="enable-background:new 0 0 223.03 318.89;" xml:space="preserve">
<style type="text/css">
	.st0{display:none;}
	.st1{display:inline;opacity:0.3;}
	.st2{fill:none;stroke:#6ABD45;stroke-miterlimit:10;}
	.st3{display:inline;}
	.st4{fill:#FFFFFF;stroke:#000000;stroke-linecap:round;stroke-linejoin:round;stroke-miterlimit:10;}
	.st5{fill:none;stroke:#000000;stroke-width:0.5;stroke-linecap:round;stroke-linejoin:round;stroke-miterlimit:10;}
	.st6{fill:none;stroke:#000000;stroke-width:0.25;stroke-linecap:round;stroke-linejoin:round;stroke-miterlimit:10;}
	.st7{display:inline;fill:#FFFFFF;stroke:#000000;stroke-linecap:round;stroke-linejoin:round;stroke-miterlimit:10;}
	
		.st8{display:inline;fill:none;stroke:#000000;stroke-width:0.25;stroke-linecap:round;stroke-linejoin:round;stroke-miterlimit:10;}
	.st9{fill:none;stroke:#000000;stroke-linecap:round;stroke-linejoin:round;stroke-miterlimit:10;}
	.st10{fill:#FFFFFF;stroke:#000000;stroke-width:0.9664;stroke-linecap:round;stroke-linejoin:round;stroke-miterlimit:10;}
	.st11{fill:none;stroke:#000000;stroke-width:0.4832;stroke-linecap:round;stroke-linejoin:round;stroke-miterlimit:10;}
	.st12{fill:none;stroke:#000000;stroke-width:0.2416;stroke-linecap:round;stroke-linejoin:round;stroke-miterlimit:10;}
	.st13{fill:#FFFFFF;stroke:#000000;stroke-width:0.1623;stroke-linecap:round;stroke-linejoin:round;stroke-miterlimit:10;}
	.st14{fill:none;stroke:#000000;stroke-width:0.1623;stroke-linecap:round;stroke-linejoin:round;stroke-miterlimit:10;}
	.st15{fill:none;stroke:#000000;stroke-width:0.0406;stroke-linecap:round;stroke-linejoin:round;stroke-miterlimit:10;}
	.st16{fill:#FFFFFF;stroke:#000000;stroke-width:0.0406;stroke-linecap:round;stroke-linejoin:round;stroke-miterlimit:10;}
	.st17{fill:none;stroke:#000000;stroke-width:0.0812;stroke-linecap:round;stroke-linejoin:round;stroke-miterlimit:10;}
	.st18{fill:#FFFFFF;stroke:#000000;stroke-width:0.0812;stroke-linecap:round;stroke-linejoin:round;stroke-miterlimit:9.9998;}
	.st19{fill:#FFFFFF;stroke:#000000;stroke-width:0.1623;stroke-miterlimit:10;}
	.st20{fill:none;stroke:#000000;stroke-width:0.0812;stroke-miterlimit:10;}
	.st21{fill:none;stroke:#000000;stroke-width:0.0812;stroke-linecap:round;stroke-linejoin:round;stroke-miterlimit:10.0006;}
	.st22{fill:#FFFFFF;stroke:#000000;stroke-width:0.25;stroke-linecap:round;stroke-linejoin:round;stroke-miterlimit:10;}
	.st23{fill:none;stroke:#000000;stroke-width:0.1915;stroke-linecap:round;stroke-linejoin:round;stroke-miterlimit:10;}
	.st24{fill:none;stroke:#000000;stroke-width:0.1915;stroke-linecap:round;stroke-linejoin:round;stroke-miterlimit:10.0004;}
	.st25{fill:#FFFFFF;stroke:#000000;stroke-width:0.7658;stroke-linecap:round;stroke-linejoin:round;stroke-miterlimit:10;}
	.st26{fill:#FFFFFF;stroke:#000000;stroke-width:0.3829;stroke-linecap:round;stroke-linejoin:round;stroke-miterlimit:10;}
	.st27{fill:none;stroke:#000000;stroke-width:0.3829;stroke-linecap:round;stroke-linejoin:round;stroke-miterlimit:10;}
	.st28{fill:#FFFFFF;stroke:#000000;stroke-width:0.1915;stroke-linecap:round;stroke-linejoin:round;stroke-miterlimit:10.0005;}
	.st29{fill:#FFFFFF;stroke:#000000;stroke-width:0.8556;stroke-linecap:round;stroke-linejoin:round;stroke-miterlimit:10;}
	.st30{fill:none;stroke:#000000;stroke-width:0.8556;stroke-linecap:round;stroke-linejoin:round;stroke-miterlimit:10;}
	.st31{fill:none;stroke:#000000;stroke-width:0.2139;stroke-linecap:round;stroke-linejoin:round;stroke-miterlimit:10;}
	.st32{fill:none;stroke:#000000;stroke-width:0.7658;stroke-linecap:round;stroke-linejoin:round;stroke-miterlimit:10;}
	.st33{fill:#FFFFFF;stroke:#000000;stroke-width:0.1915;stroke-linecap:round;stroke-linejoin:round;stroke-miterlimit:10;}
	.st34{fill:none;stroke:#000000;stroke-width:0.1915;stroke-linecap:round;stroke-linejoin:round;stroke-miterlimit:9.9995;}
	.st35{fill:none;stroke:#000000;stroke-width:0.5744;stroke-linecap:round;stroke-linejoin:round;stroke-miterlimit:10;}
	.st36{fill:#FFFFFF;stroke:#000000;stroke-width:0.5;stroke-linecap:round;stroke-linejoin:round;stroke-miterlimit:10;}
	.st37{fill:none;stroke:#000000;stroke-width:3;stroke-linecap:round;stroke-linejoin:round;stroke-miterlimit:10;}
	.st38{fill:#FFFFFF;stroke:#000000;stroke-miterlimit:10;}
	.st39{fill:none;stroke:#000000;stroke-width:0.5;stroke-miterlimit:10;}
	.st40{fill:none;stroke:#000000;stroke-width:0.25;stroke-miterlimit:10;}
	.st41{fill:none;}
	.st42{fill:none;stroke:#FFFFFF;stroke-width:4;stroke-linecap:round;stroke-linejoin:round;stroke-miterlimit:10;}
	.st43{fill:none;stroke:#007481;stroke-linecap:round;stroke-linejoin:round;}
	.st44{fill:none;stroke:#007481;stroke-linecap:round;stroke-linejoin:round;stroke-dasharray:2.9293,2.9293;}
</style>
<g id="Grid" class="st0">
	<g class="st1">
		<polygon class="st2" points="81.95,-30.2 514.96,219.8 81.95,469.8 -351.06,219.8 		"/>
		<line class="st2" x1="-337.09" y1="211.74" x2="95.92" y2="461.74"/>
		<line class="st2" x1="-323.13" y1="203.67" x2="109.89" y2="453.67"/>
		<line class="st2" x1="-309.16" y1="195.61" x2="123.86" y2="445.61"/>
		<line class="st2" x1="-295.19" y1="187.54" x2="137.82" y2="437.54"/>
		<line class="st2" x1="-281.22" y1="179.48" x2="151.79" y2="429.48"/>
		<line class="st2" x1="-267.25" y1="171.41" x2="165.76" y2="421.41"/>
		<line class="st2" x1="-253.29" y1="163.35" x2="179.73" y2="413.35"/>
		<line class="st2" x1="-239.32" y1="155.29" x2="193.7" y2="405.29"/>
		<line class="st2" x1="-225.35" y1="147.22" x2="207.66" y2="397.22"/>
		<line class="st2" x1="-211.38" y1="139.16" x2="221.63" y2="389.16"/>
		<line class="st2" x1="-197.41" y1="131.09" x2="235.6" y2="381.09"/>
		<line class="st2" x1="-183.44" y1="123.03" x2="249.57" y2="373.03"/>
		<line class="st2" x1="-169.48" y1="114.96" x2="263.54" y2="364.96"/>
		<line class="st2" x1="-155.51" y1="106.9" x2="277.5" y2="356.9"/>
		<line class="st2" x1="-141.54" y1="98.83" x2="291.47" y2="348.83"/>
		<line class="st2" x1="-127.57" y1="90.77" x2="305.44" y2="340.77"/>
		<line class="st2" x1="-113.6" y1="82.71" x2="319.41" y2="332.71"/>
		<line class="st2" x1="-99.64" y1="74.64" x2="333.38" y2="324.64"/>
		<line class="st2" x1="-85.67" y1="66.58" x2="347.34" y2="316.58"/>
		<line class="st2" x1="-71.7" y1="58.51" x2="361.31" y2="308.51"/>
		<line class="st2" x1="-57.73" y1="50.45" x2="375.28" y2="300.45"/>
		<line class="st2" x1="-43.76" y1="42.38" x2="389.25" y2="292.38"/>
		<line class="st2" x1="-29.8" y1="34.32" x2="403.22" y2="284.32"/>
		<line class="st2" x1="-15.83" y1="26.25" x2="417.18" y2="276.25"/>
		<line class="st2" x1="-1.86" y1="18.19" x2="431.15" y2="268.19"/>
		<line class="st2" x1="12.11" y1="10.12" x2="445.12" y2="260.12"/>
		<line class="st2" x1="26.08" y1="2.06" x2="459.09" y2="252.06"/>
		<line class="st2" x1="40.04" y1="-6" x2="473.06" y2="244"/>
		<line class="st2" x1="54.01" y1="-14.07" x2="487.03" y2="235.93"/>
		<line class="st2" x1="67.98" y1="-22.13" x2="500.99" y2="227.87"/>
		<line class="st2" x1="500.99" y1="211.74" x2="67.98" y2="461.74"/>
		<line class="st2" x1="487.02" y1="203.67" x2="54.01" y2="453.67"/>
		<line class="st2" x1="473.06" y1="195.61" x2="40.05" y2="445.61"/>
		<line class="st2" x1="459.09" y1="187.54" x2="26.08" y2="437.54"/>
		<line class="st2" x1="445.12" y1="179.48" x2="12.11" y2="429.48"/>
		<line class="st2" x1="431.15" y1="171.42" x2="-1.86" y2="421.41"/>
		<line class="st2" x1="417.18" y1="163.35" x2="-15.83" y2="413.35"/>
		<line class="st2" x1="403.22" y1="155.29" x2="-29.79" y2="405.28"/>
		<line class="st2" x1="389.25" y1="147.22" x2="-43.76" y2="397.22"/>
		<line class="st2" x1="375.28" y1="139.16" x2="-57.73" y2="389.16"/>
		<line class="st2" x1="361.31" y1="131.09" x2="-71.7" y2="381.09"/>
		<line class="st2" x1="347.34" y1="123.03" x2="-85.67" y2="373.03"/>
		<line class="st2" x1="333.38" y1="114.96" x2="-99.63" y2="364.96"/>
		<line class="st2" x1="319.41" y1="106.9" x2="-113.6" y2="356.9"/>
		<line class="st2" x1="305.44" y1="98.83" x2="-127.57" y2="348.83"/>
		<line class="st2" x1="291.47" y1="90.77" x2="-141.54" y2="340.77"/>
		<line class="st2" x1="277.5" y1="82.71" x2="-155.51" y2="332.7"/>
		<line class="st2" x1="263.53" y1="74.64" x2="-169.48" y2="324.64"/>
		<line class="st2" x1="249.57" y1="66.58" x2="-183.44" y2="316.58"/>
		<line class="st2" x1="235.6" y1="58.51" x2="-197.41" y2="308.51"/>
		<line class="st2" x1="221.63" y1="50.45" x2="-211.38" y2="300.45"/>
		<line class="st2" x1="207.66" y1="42.38" x2="-225.35" y2="292.38"/>
		<line class="st2" x1="193.69" y1="34.32" x2="-239.32" y2="284.32"/>
		<line class="st2" x1="179.73" y1="26.25" x2="-253.28" y2="276.25"/>
		<line class="st2" x1="165.76" y1="18.19" x2="-267.25" y2="268.19"/>
		<line class="st2" x1="151.79" y1="10.13" x2="-281.22" y2="260.12"/>
		<line class="st2" x1="137.82" y1="2.06" x2="-295.19" y2="252.06"/>
		<line class="st2" x1="123.85" y1="-6" x2="-309.16" y2="243.99"/>
		<line class="st2" x1="109.88" y1="-14.07" x2="-323.13" y2="235.93"/>
		<line class="st2" x1="95.92" y1="-22.13" x2="-337.09" y2="227.87"/>
	</g>
</g>
<g id="Layer_1_1_" class="st0">
	<g class="st3">
		<path class="st4" d="M176.38,66.12c4.02,2.31,7.5,4,7.5,8.63s0,85.79,0,87.37s0.28,3.24-2.06,4.49c-2.33,1.25-2.01,1.06-3.44,1.75
			s-2.17,1.16-5.34-0.65c-2.45-1.4-134-77.33-135.58-78.33s-4.08-2.42-4.08-5.75s0-86.33,0-89.17c0-2.83,0.03-2.99,1.5-3.92
			c1.51-0.95,3.59-2.06,4.25-2.42c1.22-0.66,1.81-0.59,3.17,0.17C43.15-11.24,176.38,66.12,176.38,66.12z"/>
		<path class="st5" d="M33.74-7.91c1.14-0.6,1.27-1.22,4.02,0.53s134.38,77.63,136.5,78.88s2.88,2.3,2.88,5.28
			c0,2.97,0,87.72,0,89.85s-2.58,1.95-4.08,1.08"/>
		<line class="st6" x1="183.86" y1="163.75" x2="176.92" y2="167.5"/>
		<line class="st5" x1="183.89" y1="74.75" x2="177.13" y2="78.32"/>
		<line class="st5" x1="180.4" y1="68.56" x2="174.26" y2="71.49"/>
		<line class="st5" x1="42.3" y1="-11.71" x2="36.19" y2="-8.26"/>
		<polygon class="st5" points="174.26,74.75 174.26,163.75 37.38,84.83 37.38,-4.13 		"/>
	</g>
	<polygon class="st7" points="133.56,68.69 133.56,144.02 128.81,141.66 128.81,65.95 	"/>
	<polygon class="st7" points="86.7,41.83 86.7,117.16 81.95,114.79 81.95,39.08 	"/>
	<g class="st3">
		<polygon class="st4" points="153.38,89.32 153.38,133.61 57.49,78.25 57.49,33.96 		"/>
		<g>
			<polygon class="st4" points="143.79,87.77 149.27,90.94 149.27,128.07 143.79,124.86 			"/>
			<polygon class="st4" points="133.39,81.74 138.87,84.9 138.87,122.04 133.39,118.83 			"/>
			<polygon class="st4" points="123,75.71 128.47,78.87 128.47,116 123,112.79 			"/>
			<polygon class="st4" points="112.6,69.67 118.08,72.84 118.08,109.97 112.6,106.76 			"/>
			<polygon class="st4" points="102.2,63.64 107.68,66.8 107.68,103.93 102.2,100.72 			"/>
			<polygon class="st4" points="91.8,57.6 97.28,60.77 97.28,97.9 91.8,94.69 			"/>
			<polygon class="st4" points="81.41,51.57 86.89,54.73 86.89,91.86 81.41,88.65 			"/>
			<polygon class="st4" points="71.01,45.53 76.49,48.7 76.49,85.83 71.01,82.62 			"/>
			<polygon class="st4" points="60.61,39.5 66.09,42.66 66.09,79.8 60.61,76.58 			"/>
		</g>
	</g>
	<polygon class="st7" points="122.61,78.61 122.61,95.85 94.67,79.73 94.67,63.6 	"/>
	<g class="st3">
		<path class="st4" d="M1.3,256.59v10.15h1.57c-0.83,2.75-0.33,7.17,0.33,8.25c-0.83,1.33-0.75,3.17-0.42,4.08s3.58,0.92,4.67,0.58
			c1.08-0.33,1.08-0.18,2.33,0.2s4.85,0.51,6.08,0s2.42-0.62,3.17-0.2s3.05,0.31,3.65-0.18c0.6-0.49,1.32-2.16,0-4.16
			c0.85-1.92,1.77-6.33,0.18-8.5c2-0.92,4.67-1.5,4.67-3.5s0.28-3.42-1.92-3.42s-2.25,0.25-2.75,0.92l-0.08-4"/>
		<ellipse class="st5" cx="12.8" cy="271.62" rx="9.1" ry="7.29"/>
		<path class="st5" d="M22.87,266.82c-4.29-5.84-14.25-6.92-20-0.08"/>
		<path class="st5" d="M12.54,256.82c-1.25,1.83-4.7,5-6.72,6s-2.36,0.17-2.61,0.75s-0.92,1.33-1,3.17"/>
		<path class="st5" d="M27.2,264.42c-2.17-0.09-4.33-0.96-4.33,2.4"/>
		<line class="st6" x1="25.62" y1="259.91" x2="25.62" y2="264.26"/>
		<line class="st6" x1="24.29" y1="260.4" x2="24.29" y2="264.42"/>
		<path class="st6" d="M22.87,266.23v-5.41c-1.75-1.5-3.94-3.4-6.42-4.24"/>
		<path class="st6" d="M22.87,264.26c-1.29-1.54-6.75-8.14-11.54-5.95"/>
		<path class="st6" d="M22.87,265.07c-1.83-1.58-6.58-6.49-15.26-3.4"/>
		<path class="st6" d="M22.87,262.87c-0.92-1.55-6-6.05-10.33-6.05"/>
		<path class="st6" d="M21.48,276.22c-0.23,0.4-1.11,1.41-1.69,1.67c0.73,0.21,1.73,0.19,1.96,0
			C21.98,277.7,21.58,276.53,21.48,276.22z"/>
		<path class="st6" d="M6.03,278.01c-0.4-0.23-1.41-1.11-1.67-1.69c-0.21,0.73-0.19,1.73,0,1.96
			C4.55,278.51,5.72,278.11,6.03,278.01z"/>
	</g>
	<g class="st3">
		<path class="st4" d="M164.38,256.69v10.15h-1.57c0.83,2.75,0.33,7.17-0.33,8.25c0.83,1.33,0.75,3.17,0.42,4.08
			c-0.33,0.92-3.58,0.92-4.67,0.58c-1.08-0.33-1.08-0.18-2.33,0.2s-4.85,0.51-6.08,0c-1.23-0.51-2.42-0.62-3.17-0.2
			s-3.05,0.31-3.65-0.18s-1.32-2.16,0-4.16c-0.85-1.92-1.77-6.33-0.18-8.5c-2-0.92-4.67-1.5-4.67-3.5s-0.28-3.42,1.92-3.42
			s2.25,0.25,2.75,0.92l0.08-4"/>
		<ellipse class="st5" cx="152.89" cy="271.72" rx="9.1" ry="7.29"/>
		<path class="st5" d="M142.81,266.92c4.29-5.84,14.25-6.92,20-0.08"/>
		<path class="st5" d="M153.15,256.92c1.25,1.83,4.7,5,6.72,6s2.36,0.17,2.61,0.75s0.92,1.33,1,3.17"/>
		<path class="st5" d="M138.48,264.52c2.17-0.09,4.33-0.96,4.33,2.4"/>
		<line class="st6" x1="140.06" y1="260.01" x2="140.06" y2="264.35"/>
		<line class="st6" x1="141.4" y1="260.5" x2="141.4" y2="264.52"/>
		<path class="st6" d="M142.81,266.33v-5.41c1.75-1.5,3.94-3.4,6.42-4.24"/>
		<path class="st6" d="M142.81,264.35c1.29-1.54,6.75-8.14,11.54-5.95"/>
		<path class="st6" d="M142.81,265.17c1.83-1.58,6.58-6.49,15.26-3.4"/>
		<path class="st6" d="M142.81,262.97c0.92-1.55,6-6.05,10.33-6.05"/>
		<path class="st6" d="M144.21,276.32c0.23,0.4,1.11,1.41,1.69,1.67c-0.73,0.21-1.73,0.19-1.96,0S144.11,276.63,144.21,276.32z"/>
		<path class="st6" d="M159.66,278.11c0.4-0.23,1.41-1.11,1.67-1.69c0.21,0.73,0.19,1.73,0,1.96
			C161.13,278.61,159.97,278.21,159.66,278.11z"/>
	</g>
	<g class="st3">
		<path class="st4" d="M91.79,293.93c1,1.52,1,2.47,1,3.68s0,20.89,0,22.05s-2.5,1.05-2.5,0c0-1.04,0-3.22,0-3.22
			c-0.22,1.68-3.59,1.53-3.83,0.25c-0.28-1.5-0.79-4-0.79-4h-4.68c0,0-0.41,3.2-0.66,4.2s-3.53,1.25-4.16,0c0,0-0.06-0.07,0,2.68
			c0.03,1.31-2.25,1.13-2.25,0c0-1.42,0-20.42,0-21.96c0-1.54,0.6-3.34,0.88-3.68S91.79,293.93,91.79,293.93z"/>
		<line class="st6" x1="90.29" y1="316.45" x2="90.29" y2="299.55"/>
		<path class="st6" d="M87.85,300.97c0.06,2.02-1.31,10.1-2.18,11.73"/>
		<path class="st6" d="M78.04,301.32c0.08,2.25,1.72,9.33,2.94,11.37"/>
		<path class="st6" d="M85.66,301.32c-1.46,0.92-3.21,0.92-5.04,0"/>
		<line class="st6" x1="83.14" y1="302.01" x2="83.14" y2="312.7"/>
		<line class="st6" x1="76.16" y1="316.89" x2="76.16" y2="299.91"/>
		<path class="st6" d="M79.51,317.54c-0.22-0.47,0-9.14,0-9.14"/>
		<line class="st6" x1="77.2" y1="317.54" x2="77.2" y2="301.32"/>
		<line class="st6" x1="89.24" y1="317.54" x2="89.24" y2="300.37"/>
		<line class="st6" x1="86.76" y1="308.8" x2="86.76" y2="317.42"/>
	</g>
	<path class="st7" d="M163.62,245.55c-4.16,0-20.33,0-22.33,0s-6.33,1.12-6.33,4.03s0,6.74,0,9.08s-1.15,3.49-4.24,3.49
		s-93.09,0-95.42,0s-3.67-0.99-3.67-2.82c0-1.83,0-6.17,0-8.5s-1.83-5.28-6.83-5.28s-18.17,0-21.17,0s-6.08,1.47-6.08,3.29
		s0,2.66,0,4.16s1.24,3.83,6.24,3.83s18.98,0,21.17,0s4.33,1.83,4.33,3.5s0,5,0,7.17s1.47,5.92,5.92,5.92s92.25,0,95.25,0
		c4.09,0,6.33-1.32,6.33-5.15c0-3,0-5.52,0-7.67s1.85-3.44,4.01-3.44s18.83,0,21.83,0s6.5-1.16,6.5-4.49
		S169.53,245.55,163.62,245.55z"/>
	<path class="st7" d="M102.29,273.41l-10.5,6.42c0,0,0,12.5,0,15.5s-1.5,6-6.67,6s-2.33,0-4.5,0s-5.83,0.17-5.83-5.67
		c0-5.83,0-12,0-12l-19.45-10.25"/>
	<path class="st8" d="M169.04,249.58c0,3.08-1.42,5.74-6.42,5.74s-18.17,0-21.33,0c-4,0-6.25,1.83-6.25,5.26c0,2.86,0,5.57,0,7.24
		c0,1.67-1.08,3.5-4.58,3.5c-3.33,0-91.71,0-95,0c-2.17,0-3.64-1.45-3.64-3.64s0-5.03,0-7.28s-1.69-5.58-7.03-5.58s-17.68,0-21.09,0
		s-6.15-0.67-6.15-4.17"/>
	<line class="st8" x1="24.79" y1="245.55" x2="24.79" y2="256.82"/>
	<line class="st8" x1="3.7" y1="254.82" x2="3.7" y2="256.82"/>
	<line class="st8" x1="35.29" y1="262.15" x2="35.29" y2="273.41"/>
	<line class="st8" x1="31.81" y1="267.68" x2="29.29" y2="267.68"/>
	<line class="st8" x1="31.81" y1="260.4" x2="29.29" y2="260.4"/>
	<line class="st8" x1="130.71" y1="262.15" x2="130.71" y2="273.41"/>
	<line class="st8" x1="135.04" y1="267.82" x2="137.29" y2="267.82"/>
	<line class="st8" x1="135.04" y1="260.59" x2="136.79" y2="260.59"/>
	<line class="st8" x1="141.29" y1="245.55" x2="141.29" y2="257.15"/>
	<line class="st8" x1="162.62" y1="255.32" x2="162.62" y2="257.15"/>
	<path class="st8" d="M100.12,273.41c-1.17,0-15.59,9.52-15.59,9.52h-9.75l-17.83-9.52"/>
	<path class="st8" d="M91.79,279.82c-0.83,0.5-5.33,3.11-5.33,3.11"/>
	<line class="st8" x1="91.79" y1="282.93" x2="73.41" y2="282.93"/>
	<line class="st8" x1="91.79" y1="284.62" x2="74.79" y2="284.62"/>
	<path class="st8" d="M91.79,295.32c0,2.71-2.83,4.58-6.75,4.58s-2.33,0-3.92,0s-6.33-0.17-6.33-4.25"/>
	<line class="st8" x1="26.77" y1="260.12" x2="26.77" y2="264.34"/>
	<path class="st8" d="M91.79,320.48"/>
	<g class="st3">
		<path class="st4" d="M28.16,115.61c0,4.62-0.11,90.66,0,94.6s1.46,5.18,3.38,6.38c2.56,1.59,7.78,4.76,11.89,7.26
			c2.24,1.36,2.36,1.55,2.36,4.36c0,4.83,0.06,19.46,0.06,25.74c0,6.57,0.1,7.26,3.94,9.45c3.93,2.25,33.25,19.68,34.38,20.16
			c1.12,0.48,1.25,0.02,2.75-0.61s31.12-17.38,32-18s0.88-1,0.88-2.62s0-14.25,0-14.25s14.38-8.12,15.62-8.87
			c1.25-0.75,1.5-1.5,1.5-2.88s0-90.62,0-93.9c0-3.27-1-4.6-3.25-6.1S66.6,97.63,66.6,97.63c-5.68-3.25-7.8-3.41-13.67,0
			c-6.3,3.67-17.73,10.1-20.23,11.6S28.16,113.05,28.16,115.61z"/>
		<path class="st9" d="M119.79,248.09c-2.38,1.38-14.5,8.25-15.5,8.88s-2.31,0.79-3.62,0c-2.73-1.65-8.82-5.3-10.29-6.03
			c-1.46-0.72-3.04-0.18-3.03,1.75c0.02,2.53,0,27.01,0,28.41s-1.22,2.48-2.3,2.67"/>
		<line class="st6" x1="119.79" y1="262.34" x2="87.34" y2="281.09"/>
		<path class="st6" d="M119.79,254.26c0,0-29.97,17.67-31.21,18.33s-2.17,0.33-2.83,0s-1.5-0.83-1.5-0.83"/>
		<path class="st6" d="M133.66,136.34"/>
		<line class="st6" x1="133.66" y1="136.34" x2="101.75" y2="153.81"/>
		<line class="st6" x1="136.91" y1="142.44" x2="104.79" y2="160.35"/>
		<path class="st6" d="M102.41,257.49c1.04-0.46,1.42-1.26,1.42-2.14c0-0.88,0-94.52,0-94.52c0-3.24-1.12-5.05-2.97-6.17
			c-3.14-1.89-66.74-39.57-67.91-40.32c-2.95-1.89-4.78-0.66-4.78,4.03"/>
		<path class="st6" d="M103.15,257.43c1.52-0.29,1.64-1.84,1.64-2.46s0-94.61,0-94.61c0-2.57-0.72-5.22-2.98-6.5
			c-2.77-1.57-67.69-40.47-69.73-41.57c-1.91-1.04-3.92,0.92-3.92,4.46"/>
		<path class="st6" d="M136.91,236.67c0,0-31.58,17.96-32.12,18.29c-0.54,0.33-0.71,0.38-0.96,0.38"/>
		<path class="st6" d="M31.13,121.82c0,0,0,87.55,0,89.17c0,2.29,0.15,2.91,2.34,4.15c1.1,0.62,10.31,5.92,13.03,7.47
			c1.83,1.04,1.93,1.33,1.93,3.87c0,2.19,0,28.56,0,30.69c0,2.13,0.44,3.04,1.94,3.92s29.5,16.8,31.48,17.94
			c1.98,1.14,2.39-0.19,2.39-1.36s0-24.33,0-28s2.98-3.66,5.17-2.39c1.3,0.75,9.43,5.29,10.25,5.73c0.69,0.36,1.75,0.61,1.75-1.69
			c0-1.11,0-84.56,0-84.56c0-3.92,0.26-5.14-2.23-6.62c-2.49-1.48-64.73-38.91-65.82-39.49C32.29,120.07,31.13,120.38,31.13,121.82z
			"/>
		<path class="st6" d="M31.7,122.61c0,0,0,86.07,0,87.41c0,2.14,0.04,3.37,1.56,4.27c1.58,0.93,12.28,7.01,13.69,7.81
			c1.79,1.02,2.09,1.56,2.09,3.14c0,1.27,0,29.73,0,31.5c0,2.11,0.37,2.89,2,3.83c0.73,0.42,28.17,16.27,30.15,17.41
			c1.98,1.14,2.39,0.94,2.39-1.36c0-1.17,0-23.73,0-27.39c0-2.5,2.49-4.41,5.52-2.79c1.32,0.71,9.51,5.34,10.35,5.75
			c0.83,0.42,1.3,0.54,1.3-1.93c0-1.11,0-84.88,0-84.88c0-2.86,0.13-3.4-2.46-4.95c-2.59-1.55-60.37-36.37-62.86-37.83
			C32.95,121.15,31.7,120.56,31.7,122.61z"/>
		<path class="st5" d="M136.91,160.59c-0.94,0.44-30.96,17.75-31.92,18.32"/>
		<g>
			<g>
				<path class="st6" d="M116.04,187.69c1.81-1.06,8.57-4.78,9.13-5.1c1.06-0.62,3.09,0.56,1.06,1.79c-3.17,1.91-8,4.56-9.06,5.12
					s-1.75,0.56-2.38,0.38C114.98,189.06,115.31,188.12,116.04,187.69z"/>
				<path class="st6" d="M116.04,187.69c0.62,0.31,1,1.06,1.12,1.81"/>
				<path class="st6" d="M125.17,182.58c0.84,0.55,0.94,0.85,1.06,1.79"/>
			</g>
			<g>
				<path class="st6" d="M116.04,195.31c1.81-1.06,8.57-4.78,9.13-5.1c1.06-0.62,3.09,0.56,1.06,1.79c-3.17,1.91-8,4.56-9.06,5.12
					s-1.75,0.56-2.38,0.38C114.98,196.69,115.31,195.74,116.04,195.31z"/>
				<path class="st6" d="M116.04,195.31c0.62,0.31,1,1.06,1.12,1.81"/>
				<path class="st6" d="M125.17,190.21c0.84,0.55,0.94,0.85,1.06,1.79"/>
			</g>
			<g>
				<path class="st6" d="M116.04,202.93c1.81-1.06,8.57-4.78,9.13-5.1c1.06-0.62,3.09,0.56,1.06,1.79c-3.17,1.91-8,4.56-9.06,5.12
					s-1.75,0.56-2.38,0.38C114.98,204.31,115.31,203.36,116.04,202.93z"/>
				<path class="st6" d="M116.04,202.93c0.62,0.31,1,1.06,1.12,1.81"/>
				<path class="st6" d="M125.17,197.83c0.84,0.55,0.94,0.85,1.06,1.79"/>
			</g>
			<g>
				<path class="st6" d="M116.04,210.56c1.81-1.06,8.57-4.78,9.13-5.1c1.06-0.62,3.09,0.56,1.06,1.79c-3.17,1.91-8,4.56-9.06,5.12
					s-1.75,0.56-2.38,0.38C114.98,211.93,115.31,210.99,116.04,210.56z"/>
				<path class="st6" d="M116.04,210.56c0.62,0.31,1,1.06,1.12,1.81"/>
				<path class="st6" d="M125.17,205.45c0.84,0.55,0.94,0.85,1.06,1.79"/>
			</g>
			<g>
				<path class="st6" d="M116.04,218.18c1.81-1.06,8.57-4.78,9.13-5.1c1.06-0.62,3.09,0.56,1.06,1.79c-3.17,1.91-8,4.56-9.06,5.12
					s-1.75,0.56-2.38,0.38C114.98,219.56,115.31,218.61,116.04,218.18z"/>
				<path class="st6" d="M116.04,218.18c0.62,0.31,1,1.06,1.12,1.81"/>
				<path class="st6" d="M125.17,213.08c0.84,0.55,0.94,0.85,1.06,1.79"/>
			</g>
			<g>
				<path class="st6" d="M116.04,225.8c1.81-1.06,8.57-4.78,9.13-5.1c1.06-0.62,3.09,0.56,1.06,1.79c-3.17,1.91-8,4.56-9.06,5.12
					s-1.75,0.56-2.38,0.38C114.98,227.18,115.31,226.23,116.04,225.8z"/>
				<path class="st6" d="M116.04,225.8c0.62,0.31,1,1.06,1.12,1.81"/>
				<path class="st6" d="M125.17,220.7c0.84,0.55,0.94,0.85,1.06,1.79"/>
			</g>
			<g>
				<path class="st6" d="M116.04,233.43c1.81-1.06,8.57-4.78,9.13-5.1c1.06-0.62,3.09,0.56,1.06,1.79c-3.17,1.91-8,4.56-9.06,5.12
					s-1.75,0.56-2.38,0.38C114.98,234.8,115.31,233.86,116.04,233.43z"/>
				<path class="st6" d="M116.04,233.43c0.62,0.31,1,1.06,1.12,1.81"/>
				<path class="st6" d="M125.17,228.32c0.84,0.55,0.94,0.85,1.06,1.79"/>
			</g>
		</g>
		<path class="st5" d="M107.47,145.04c0,0,11.99-6.88,14.44-8.3c2.46-1.42,1.08-2.92,0.29-3.42c-0.79-0.5-55.67-32.71-55.67-32.71
			c-2.07-1.19-4.95-2.25-7.25-0.92s-12.87,7.55-14.91,8.73s-1.59,2.85,0,3.92c2.21,1.49,53.79,31.03,56.69,32.69
			C103.37,146.37,104.6,146.67,107.47,145.04z"/>
		<g>
			<path class="st5" d="M66.38,227.27L66.38,227.27c-4.61-1.06-8.38-5.82-8.42-12.29l-0.35-50.14c-0.04-6.47,2.97-11.81,8.12-9.93
				l0,0c5.41,1.99,8.15,10.69,8.19,17.16l0.54,44.71C74.46,226.4,70.99,227.72,66.38,227.27z"/>
			<path class="st5" d="M65.27,220.79L65.27,220.79c-3.45-1.7-3.78-5.57-3.82-10.6l-0.2-41.9c0.08-3.62,1.06-6.12,3.64-5.3l0,0
				c3.65,1.53,4.65,6.1,4.68,11.13l0.19,42.38C69.68,220.12,68.18,222.22,65.27,220.79z"/>
			<path class="st5" d="M62.13,216.7l1.24-0.7c1.39,2.65,4.66,4.97,5.98,3.18"/>
		</g>
		<path class="st5" d="M58.44,236.44c1.58-3.08,3.79-4.36,6.03-3.96l0.07,2.83l0.98,0.57l-0.07-3.12c1.76,0.7,3.49,2.41,4.93,5.15
			c3.54,6.74,3.94,17.01,0.89,22.94c-3.05,5.93-8.4,5.27-11.94-1.47C55.79,252.64,55.39,242.37,58.44,236.44z"/>
		<path class="st5" d="M64.47,232.48l0.45-0.3c-0.59-0.09-2.92-0.17-4.69,1.76"/>
		<path class="st5" d="M59.58,232.81"/>
		<polyline class="st5" points="64.54,235.31 64.92,234.96 65.51,235.3 		"/>
		<path class="st5" d="M65.45,232.76l0.26-0.29c3.05,1.08,7.77,7.55,7.77,17.08c0,6.94-0.86,9.94-3.64,13.42"/>
		<line class="st5" x1="64.92" y1="232.18" x2="64.92" y2="234.92"/>
	</g>
	<g class="st3">
		<path class="st4" d="M90.94,110.96V78.12l22.23,0.07c0,0,0.3,0.38,0.3,1.46c0,0.78,0,44.38,0,44.38"/>
		<path class="st6" d="M103.35,83.79c0.45,0.36,0.45,1.33,0.45,1.33v33.91"/>
		<path class="st6" d="M104.13,83.34c0.48,0.38,0.48,1.32,0.48,1.32v34.84"/>
		<path class="st6" d="M108.64,80.73c0.48,0.42,0.48,1.34,0.48,1.34v40.01"/>
		<path class="st6" d="M110.87,79.45c0.44,0.28,0.44,1.33,0.44,1.33v42.57"/>
		<path class="st6" d="M110.38,79.73c0.48,0.26,0.48,1.31,0.48,1.31v42.06"/>
		<polygon class="st4" points="102.04,71.56 112.97,77.87 102.04,84.18 95.13,85.07 92.02,83.28 91.11,77.87 		"/>
		<path class="st6" d="M95.43,85.01c-0.44,0.35-0.35,2.02-0.35,2.02v26.98"/>
		<path class="st6" d="M101.9,84.56c0.31,0.26,0.31,1.47,0.31,1.47v32.34"/>
		<path class="st6" d="M113.47,79.39c0,0.26-11.27,6.64-11.27,6.64l-7.12,1l-4.15-2.25"/>
		<path class="st6" d="M91.99,83.12c-0.45,0.52-0.33,1.51-0.33,1.99c0,0.48,0,26.38,0,26.93"/>
	</g>
	<g class="st3">
		<polyline class="st4" points="139.21,156.52 136.86,155.08 136.86,150.83 141.63,153.52 		"/>
		<g>
			<path class="st4" d="M27.68,129.21c-3.46,2.09-4.84,3.74-1.28,5.95c5.01,3.11,68.83,43.04,73.64,45.61
				c1.71,0.91,3.93,1.67,7.59-0.42c3.66-2.08,30.99-18,32.49-19.08s2.83-2.75-0.92-4.75c-0.17-1.33,0.93-2.92,2.42-3
				c1.65,0.92,9.72,6.15,0.5,11.58c-10.58,6.23-30.42,17.75-32.67,19s-4.83,3.33-9.42,1.17c-6.48-3.56-73.74-44.57-77.01-46.72
				c-3.8-2.5-5.52-8.71-0.94-11.78c2.34-1.57,2.39-1.58,5.54-3.59"/>
			<path class="st6" d="M140.13,161.27c1.5,0.42,2.45,2.14,2,3.83"/>
			<path class="st6" d="M107.63,180.35c1.08,0.5,1.99,2.33,1.83,3.75"/>
		</g>
		<path class="st6" d="M100.04,180.77c-0.98,1.19-1.68,2.16-1.45,3.67"/>
		<path class="st6" d="M26.4,135.16c-1.75,1.04-2.56,2.55-1.86,4.34"/>
		<path class="st6" d="M25.34,130.94c-0.36-1.4-1.65-3.86-3.26-4.17"/>
	</g>
	<path class="st8" d="M132.41,198.66c1.01-0.64,2-1.01,2,0.5c0,1.75,0,33,0,34.17s-0.17,1.97-1,2.57s-22.92,13.27-23.67,13.68
		s-2.25,0.42-2.25-0.83s0-32.84,0-34s0.92-2.62,1.83-3.1C110.25,211.16,132.41,198.66,132.41,198.66z"/>
	<path class="st8" d="M129.8,230.96c0.65-0.38,1.28-0.47,1.28,0.28s0,2.75,0,3.22s0.16,1-0.88,1.56s-17.59,10.09-18.03,10.38
		s-1.31,0.59-1.31-0.44s0-3.16,0-3.59s0.28-0.81,0.91-1.16S129.8,230.96,129.8,230.96z"/>
	<polyline class="st8" points="130.77,235.61 128.77,234.43 128.77,231.8 	"/>
	<line class="st8" x1="128.77" y1="234.43" x2="110.86" y2="244.55"/>
	<line class="st8" x1="129.71" y1="234.98" x2="110.86" y2="245.96"/>
	<path class="st8" d="M89.31,256.85c0,0.74,0,3.4,0,3.84c0,0.75,0.29,0.9,0.8,0.64c0.36-0.18,2.9-1.67,3.45-1.99
		c0.55-0.32,0.7-0.47,0.7-1.31s0-3.22,0-3.78s-0.22-0.91-0.75-0.6s-2.87,1.66-3.44,1.99C89.5,255.96,89.31,256.11,89.31,256.85z"/>
</g>
<g id="Layer_5">
	<g>
		<g>
			<path class="st10" d="M172.29,67.45c3.43,1.97,6.39,3.41,6.39,7.35s0,73.06,0,74.41s0.24,2.76-1.75,3.82s-1.71,0.9-2.93,1.49
				c-1.22,0.58-1.85,0.99-4.55-0.55c-2.09-1.19-114.12-65.86-115.47-66.71s-3.48-2.06-3.48-4.9s0-73.53,0-75.94s0.03-2.55,1.28-3.34
				c1.28-0.81,3.06-1.76,3.62-2.06c1.04-0.56,1.54-0.51,2.7,0.14C58.82,1.57,172.29,67.45,172.29,67.45z"/>
			<path class="st11" d="M50.81,4.41c0.97-0.51,1.08-1.04,3.42,0.45c2.34,1.49,114.44,66.11,116.25,67.17s2.45,1.96,2.45,4.49
				s0,74.71,0,76.52s-2.2,1.66-3.48,0.92"/>
			<line class="st12" x1="178.66" y1="150.6" x2="172.75" y2="153.8"/>
			<line class="st11" x1="178.68" y1="74.8" x2="172.93" y2="77.84"/>
			<line class="st11" x1="175.72" y1="69.53" x2="170.48" y2="72.03"/>
			<line class="st11" x1="58.1" y1="1.17" x2="52.9" y2="4.11"/>
			<polygon class="st11" points="170.48,74.8 170.48,150.6 53.91,83.39 53.91,7.63 			"/>
		</g>
		<g>
			<path class="st10" d="M3.8,261.33v8.65h1.33c-0.71,2.34-0.28,6.1,0.28,7.03c-0.71,1.14-0.64,2.7-0.35,3.48
				c0.28,0.78,3.05,0.78,3.97,0.5s0.92-0.15,1.99,0.17s4.13,0.43,5.18,0s2.06-0.53,2.7-0.17s2.6,0.27,3.11-0.15
				c0.51-0.42,1.12-1.84,0-3.54c0.72-1.63,1.5-5.39,0.16-7.24c1.7-0.78,3.97-1.28,3.97-2.98s0.24-2.91-1.63-2.91
				c-1.87,0-1.92,0.21-2.34,0.78l-0.07-3.41"/>
			<ellipse class="st11" cx="13.59" cy="274.13" rx="7.75" ry="6.21"/>
			<path class="st11" d="M22.17,270.05c-3.66-4.98-12.14-5.89-17.03-0.07"/>
			<path class="st11" d="M13.37,261.53c-1.06,1.56-4,4.26-5.73,5.11c-1.73,0.85-2.01,0.14-2.22,0.64s-0.78,1.14-0.85,2.7"/>
			<path class="st11" d="M25.86,268c-1.84-0.07-3.69-0.82-3.69,2.05"/>
			<line class="st12" x1="24.51" y1="264.15" x2="24.51" y2="267.86"/>
			<line class="st12" x1="23.38" y1="264.58" x2="23.38" y2="268"/>
			<path class="st12" d="M22.17,269.54v-4.61c-1.49-1.28-3.35-2.9-5.46-3.61"/>
			<path class="st12" d="M22.17,267.86c-1.1-1.32-5.75-6.94-9.83-5.07"/>
			<path class="st12" d="M22.17,268.55c-1.56-1.35-5.6-5.53-13-2.89"/>
			<path class="st12" d="M22.17,266.68c-0.78-1.32-5.11-5.15-8.8-5.15"/>
			<path class="st12" d="M20.98,278.05c-0.2,0.34-0.94,1.2-1.44,1.42c0.62,0.18,1.48,0.16,1.67,0S21.07,278.31,20.98,278.05z"/>
			<path class="st12" d="M7.83,279.57c-0.34-0.2-1.2-0.94-1.42-1.44c-0.18,0.62-0.16,1.48,0,1.67S7.56,279.66,7.83,279.57z"/>
		</g>
		<g>
			<path class="st10" d="M142.69,261.41v8.65h-1.33c0.71,2.34,0.28,6.1-0.28,7.03c0.71,1.14,0.64,2.7,0.35,3.48
				c-0.28,0.78-3.05,0.78-3.97,0.5s-0.92-0.15-1.99,0.17c-1.06,0.32-4.13,0.43-5.18,0s-2.06-0.53-2.7-0.17s-2.6,0.27-3.11-0.15
				s-1.12-1.84,0-3.54c-0.72-1.63-1.5-5.39-0.16-7.24c-1.7-0.78-3.97-1.28-3.97-2.98s-0.24-2.91,1.63-2.91s1.92,0.21,2.34,0.78
				l0.07-3.41"/>
			<ellipse class="st11" cx="132.9" cy="274.22" rx="7.75" ry="6.21"/>
			<path class="st11" d="M124.32,270.13c3.66-4.98,12.14-5.89,17.03-0.07"/>
			<path class="st11" d="M133.12,261.61c1.06,1.56,4,4.26,5.73,5.11c1.73,0.85,2.01,0.14,2.22,0.64s0.78,1.14,0.85,2.7"/>
			<path class="st11" d="M120.63,268.08c1.84-0.07,3.69-0.82,3.69,2.05"/>
			<line class="st12" x1="121.98" y1="264.24" x2="121.98" y2="267.94"/>
			<line class="st12" x1="123.11" y1="264.66" x2="123.11" y2="268.08"/>
			<path class="st12" d="M124.32,269.63v-4.61c1.49-1.28,3.35-2.9,5.46-3.61"/>
			<path class="st12" d="M124.32,267.94c1.1-1.32,5.75-6.94,9.83-5.07"/>
			<path class="st12" d="M124.32,268.64c1.56-1.35,5.6-5.53,13-2.89"/>
			<path class="st12" d="M124.32,266.77c0.78-1.32,5.11-5.15,8.8-5.15"/>
			<path class="st12" d="M125.51,278.13c0.2,0.34,0.94,1.2,1.44,1.42c-0.62,0.18-1.48,0.16-1.67,0
				C125.08,279.39,125.42,278.4,125.51,278.13z"/>
			<path class="st12" d="M138.66,279.66c0.34-0.2,1.2-0.94,1.42-1.44c0.18,0.62,0.16,1.48,0,1.67S138.93,279.74,138.66,279.66z"/>
		</g>
		<g>
			<path class="st10" d="M80.86,293.13c0.85,1.29,0.85,2.11,0.85,3.14s0,17.79,0,18.78c0,0.99-2.13,0.89-2.13,0s0-2.74,0-2.74
				c-0.19,1.43-3.06,1.3-3.26,0.21c-0.24-1.28-0.67-3.41-0.67-3.41h-3.99c0,0-0.35,2.72-0.57,3.57c-0.21,0.85-3.01,1.06-3.54,0
				c0,0-0.05-0.06,0,2.28c0.03,1.12-1.92,0.97-1.92,0c0-1.21,0-17.39,0-18.7s0.51-2.84,0.75-3.14S80.86,293.13,80.86,293.13z"/>
			<line class="st12" x1="79.58" y1="312.31" x2="79.58" y2="297.92"/>
			<path class="st12" d="M77.5,299.13c0.05,1.72-1.11,8.6-1.86,9.99"/>
			<path class="st12" d="M69.15,299.43c0.07,1.92,1.47,7.95,2.51,9.69"/>
			<path class="st12" d="M75.65,299.43c-1.24,0.78-2.73,0.78-4.29,0"/>
			<line class="st12" x1="73.5" y1="300.01" x2="73.5" y2="309.11"/>
			<line class="st12" x1="67.55" y1="312.69" x2="67.55" y2="298.22"/>
			<path class="st12" d="M70.41,313.24c-0.19-0.4,0-7.78,0-7.78"/>
			<line class="st12" x1="68.44" y1="313.24" x2="68.44" y2="299.43"/>
			<line class="st12" x1="78.69" y1="313.24" x2="78.69" y2="298.61"/>
			<line class="st12" x1="76.58" y1="305.79" x2="76.58" y2="313.14"/>
		</g>
		<path class="st10" d="M142.04,251.92c-3.54,0-17.32,0-19.02,0c-1.7,0-5.39,0.95-5.39,3.43c0,2.48,0,5.74,0,7.73
			c0,1.99-0.98,2.97-3.61,2.97s-79.28,0-81.27,0s-3.12-0.84-3.12-2.4s0-5.25,0-7.24c0-1.99-1.56-4.49-5.82-4.49
			c-4.26,0-15.47,0-18.03,0s-5.18,1.25-5.18,2.8c0,1.55,0,2.26,0,3.54s1.06,3.26,5.32,3.26s16.17,0,18.03,0s3.69,1.56,3.69,2.98
			s0,4.26,0,6.1c0,1.85,1.25,5.04,5.04,5.04s78.56,0,81.12,0c3.48,0,5.39-1.13,5.39-4.39c0-2.55,0-4.7,0-6.53s1.57-2.93,3.41-2.93
			s16.03,0,18.59,0s5.54-0.99,5.54-3.83C146.72,255.14,147.07,251.92,142.04,251.92z"/>
		<path class="st10" d="M89.8,275.65l-8.94,5.46c0,0,0,10.65,0,13.2s-1.28,5.11-5.68,5.11s-1.99,0-3.83,0
			c-1.85,0-4.97,0.14-4.97-4.83c0-4.97,0-10.22,0-10.22l-16.57-8.73"/>
		<path class="st12" d="M146.65,255.36c0,2.62-1.21,4.89-5.47,4.89s-15.47,0-18.17,0c-3.41,0-5.32,1.56-5.32,4.48
			c0,2.44,0,4.75,0,6.16c0,1.42-0.92,2.98-3.9,2.98c-2.84,0-78.1,0-80.91,0c-1.85,0-3.1-1.23-3.1-3.1s0-4.29,0-6.2
			s-1.44-4.75-5.98-4.75s-15.06,0-17.96,0s-5.24-0.57-5.24-3.55"/>
		<line class="st12" x1="23.8" y1="251.92" x2="23.8" y2="261.53"/>
		<line class="st12" x1="5.84" y1="259.83" x2="5.84" y2="261.53"/>
		<line class="st12" x1="32.74" y1="266.06" x2="32.74" y2="275.65"/>
		<line class="st12" x1="29.78" y1="270.78" x2="27.63" y2="270.78"/>
		<line class="st12" x1="29.78" y1="264.58" x2="27.63" y2="264.58"/>
		<line class="st12" x1="114.01" y1="266.06" x2="114.01" y2="275.65"/>
		<line class="st12" x1="117.7" y1="270.9" x2="119.61" y2="270.9"/>
		<line class="st12" x1="117.7" y1="264.73" x2="119.19" y2="264.73"/>
		<line class="st12" x1="123.02" y1="251.92" x2="123.02" y2="261.81"/>
		<line class="st12" x1="141.19" y1="260.25" x2="141.19" y2="261.81"/>
		<path class="st12" d="M87.96,275.65c-0.99,0-13.27,8.11-13.27,8.11h-8.3l-15.19-8.11"/>
		<path class="st12" d="M80.86,281.12c-0.71,0.43-4.54,2.65-4.54,2.65"/>
		<line class="st12" x1="80.86" y1="283.76" x2="65.21" y2="283.76"/>
		<line class="st12" x1="80.86" y1="285.2" x2="66.38" y2="285.2"/>
		<path class="st12" d="M80.86,294.32c0,2.31-2.41,3.9-5.75,3.9s-1.99,0-3.34,0s-5.39-0.14-5.39-3.62"/>
		<line class="st12" x1="25.49" y1="264.33" x2="25.49" y2="267.93"/>
		<path class="st12" d="M80.86,315.74"/>
		<g>
			<g>
				<path class="st13" d="M128.54,116.14l-0.91,0.51c0,0-0.2-0.1-0.27-0.15c-0.04-0.02-0.04-0.03-0.04-0.1c0-0.03,0-49.95,0-50.08
					s0.04-0.19,0.15-0.26c0.11-0.06,0.86-0.49,0.93-0.54c0.08-0.05,0.18-0.07,0.3,0s3.41,1.96,3.49,2.01
					c0.08,0.05,0.06,0.11,0.06,0.17c0,0.06,0,50.26,0,50.33s0,0.07-0.06,0.11c-0.06,0.04-0.9,0.51-0.93,0.54
					c-0.04,0.03-0.07,0.02-0.12,0s-0.19-0.1-0.23-0.13s-0.04-0.04-0.04-0.1s0-0.99,0-0.99L128.54,116.14z"/>
				<line class="st14" x1="128.54" y1="116.14" x2="128.54" y2="65.72"/>
				<path class="st14" d="M130.85,117.47c0,0,0-49.02,0-49.11s0.04-0.2,0.15-0.26c0.1-0.06,0.84-0.49,0.84-0.49l-3.3-1.9
					c0,0-0.72,0.41-0.84,0.49s-0.15,0.09-0.15,0.26s0,50.13,0,50.13"/>
				<line class="st15" x1="127.46" y1="66.07" x2="127.7" y2="66.21"/>
				<line class="st15" x1="127.31" y1="66.32" x2="127.56" y2="66.46"/>
				<path class="st14" d="M132.24,67.71c0,0-0.9,0.49-1,0.54c-0.1,0.05-0.15,0.15-0.15,0.26c0,0.16,0,50.13,0,50.13"/>
				<line class="st15" x1="131" y1="68.11" x2="131.24" y2="68.25"/>
				<line class="st15" x1="130.85" y1="68.37" x2="131.1" y2="68.5"/>
				<g>
					<path class="st16" d="M130.06,102.61c-0.13-0.02-0.22,0.05-0.24,0.2c-0.03,0.22,0.12,0.53,0.32,0.68
						c0.21,0.15,0.39,0.1,0.42-0.12v-0.01c-0.06-0.01-0.12-0.03-0.18-0.08C130.19,103.12,130.04,102.83,130.06,102.61z"/>
					<path class="st16" d="M130.24,102.69c-0.06-0.05-0.12-0.07-0.18-0.08c-0.02,0.22,0.12,0.52,0.32,0.67
						c0.06,0.05,0.12,0.07,0.18,0.08C130.59,103.14,130.45,102.84,130.24,102.69z"/>
				</g>
				<g>
					<path class="st16" d="M130.06,84.83c-0.13-0.02-0.22,0.05-0.24,0.2c-0.03,0.22,0.12,0.53,0.32,0.68
						c0.21,0.15,0.39,0.1,0.42-0.12v-0.01c-0.06-0.01-0.12-0.03-0.18-0.08C130.19,85.35,130.04,85.05,130.06,84.83z"/>
					<path class="st16" d="M130.25,84.91c-0.06-0.05-0.12-0.07-0.18-0.08c-0.02,0.22,0.12,0.52,0.32,0.67
						c0.06,0.05,0.12,0.07,0.18,0.08C130.59,85.36,130.45,85.06,130.25,84.91z"/>
				</g>
				<g>
					<path class="st16" d="M130.08,80.21c-0.13-0.02-0.22,0.05-0.24,0.2c-0.03,0.22,0.12,0.53,0.32,0.68s0.39,0.1,0.42-0.12v-0.01
						c-0.06-0.01-0.12-0.03-0.18-0.08C130.2,80.73,130.06,80.43,130.08,80.21z"/>
					<path class="st16" d="M130.26,80.3c-0.06-0.05-0.12-0.07-0.18-0.08c-0.02,0.22,0.12,0.52,0.32,0.67
						c0.06,0.05,0.12,0.07,0.18,0.08C130.6,80.74,130.46,80.45,130.26,80.3z"/>
				</g>
				<g>
					<path class="st16" d="M129.96,99.95c-0.13-0.02-0.22,0.05-0.24,0.2c-0.03,0.22,0.12,0.53,0.32,0.68s0.39,0.1,0.42-0.12v-0.01
						c-0.06-0.01-0.12-0.03-0.18-0.08C130.08,100.47,129.94,100.17,129.96,99.95z"/>
					<path class="st16" d="M130.14,100.03c-0.06-0.05-0.12-0.07-0.18-0.08c-0.02,0.22,0.12,0.52,0.32,0.67
						c0.06,0.05,0.12,0.07,0.18,0.08C130.49,100.48,130.34,100.18,130.14,100.03z"/>
				</g>
			</g>
			<g>
				<path class="st13" d="M89.71,93.77l-0.91,0.5c0,0-0.2-0.1-0.27-0.15c-0.04-0.02-0.04-0.03-0.04-0.1c0-0.03,0-49.95,0-50.08
					s0.04-0.19,0.15-0.26c0.11-0.06,0.86-0.49,0.93-0.54c0.08-0.05,0.18-0.07,0.3,0s3.41,1.96,3.49,2.01
					c0.08,0.05,0.06,0.11,0.06,0.17s0,50.26,0,50.33s0,0.07-0.06,0.11s-0.9,0.51-0.93,0.54s-0.07,0.02-0.12,0s-0.19-0.1-0.23-0.13
					s-0.04-0.04-0.04-0.1s0-0.99,0-0.99L89.71,93.77z"/>
				<line class="st14" x1="89.71" y1="93.77" x2="89.71" y2="43.36"/>
				<path class="st14" d="M92.02,95.11c0,0,0-49.02,0-49.11c0-0.09,0.04-0.2,0.15-0.26c0.1-0.06,0.84-0.49,0.84-0.49l-3.3-1.9
					c0,0-0.72,0.41-0.84,0.49s-0.15,0.09-0.15,0.26s0,50.13,0,50.13"/>
				<line class="st15" x1="88.63" y1="43.7" x2="88.87" y2="43.84"/>
				<line class="st15" x1="88.48" y1="43.96" x2="88.72" y2="44.1"/>
				<path class="st14" d="M93.41,45.35c0,0-0.9,0.49-1,0.54c-0.1,0.05-0.15,0.15-0.15,0.26c0,0.16,0,50.13,0,50.13"/>
				<line class="st15" x1="92.17" y1="45.75" x2="92.41" y2="45.88"/>
				<line class="st15" x1="92.02" y1="46" x2="92.26" y2="46.14"/>
				<g>
					<path class="st16" d="M91.23,80.24c-0.13-0.02-0.22,0.05-0.24,0.2c-0.03,0.22,0.12,0.53,0.32,0.68s0.39,0.1,0.42-0.12v-0.01
						c-0.06-0.01-0.12-0.03-0.18-0.08C91.36,80.76,91.21,80.46,91.23,80.24z"/>
					<path class="st16" d="M91.41,80.32c-0.06-0.05-0.12-0.07-0.18-0.08c-0.02,0.22,0.12,0.52,0.32,0.67
						c0.06,0.05,0.12,0.07,0.18,0.08C91.76,80.77,91.62,80.48,91.41,80.32z"/>
				</g>
				<g>
					<path class="st16" d="M91.23,62.46c-0.13-0.02-0.22,0.05-0.24,0.2c-0.03,0.22,0.12,0.53,0.32,0.68s0.39,0.1,0.42-0.12v-0.01
						c-0.06-0.01-0.12-0.03-0.18-0.08C91.36,62.98,91.21,62.68,91.23,62.46z"/>
					<path class="st16" d="M91.41,62.55c-0.06-0.05-0.12-0.07-0.18-0.08c-0.02,0.22,0.12,0.52,0.32,0.67
						c0.06,0.05,0.12,0.07,0.18,0.08C91.76,63,91.62,62.7,91.41,62.55z"/>
				</g>
				<g>
					<path class="st16" d="M91.25,57.85c-0.13-0.02-0.22,0.05-0.24,0.2c-0.03,0.22,0.12,0.53,0.32,0.68
						c0.21,0.15,0.39,0.1,0.42-0.12V58.6c-0.06-0.01-0.12-0.03-0.18-0.08C91.37,58.36,91.22,58.07,91.25,57.85z"/>
					<path class="st16" d="M91.43,57.93c-0.06-0.05-0.12-0.07-0.18-0.08c-0.02,0.22,0.12,0.52,0.32,0.67
						c0.06,0.05,0.12,0.07,0.18,0.08C91.77,58.38,91.63,58.08,91.43,57.93z"/>
				</g>
				<g>
					<path class="st16" d="M91.13,77.58c-0.13-0.02-0.22,0.05-0.24,0.2c-0.03,0.22,0.12,0.53,0.32,0.68s0.39,0.1,0.42-0.12v-0.01
						c-0.06-0.01-0.12-0.03-0.18-0.08C91.25,78.1,91.11,77.8,91.13,77.58z"/>
					<path class="st16" d="M91.31,77.67c-0.06-0.05-0.12-0.07-0.18-0.08c-0.02,0.22,0.12,0.52,0.32,0.67
						c0.06,0.05,0.12,0.07,0.18,0.08C91.66,78.12,91.51,77.82,91.31,77.67z"/>
				</g>
			</g>
			<g>
				<g>
					<path class="st13" d="M141.11,92.22c-0.27-0.15-62.44-36.05-62.54-36.1c-0.1-0.06-0.15-0.05-0.31,0.06l-0.14-0.08
						c-0.2,0.07-0.19,0.15-0.19,0.24s0,0.87,0,0.98c0,0.11-0.04,0.19-0.15,0.26s-0.41,0.24-0.54,0.31s-0.15,0.15-0.15,0.26
						c0,0.11,0,11.31,0,11.31l0.88,0.51c0,0,0,0.21,0,0.29c0,0.08,0.02,0.11,0.08,0.14s62.88,36.3,62.95,36.34
						c0.08,0.04,0.15,0.02,0.15-0.03s0-0.17,0-0.17c0.08-0.05,0.2-0.07,0.2-0.24c0-0.16,0-13.52,0-13.63
						C141.35,92.53,141.37,92.38,141.11,92.22z M80.52,69.06c0,0-0.44-0.25-0.54-0.31c-0.08-0.05-0.15-0.15-0.15-0.27
						c0-0.16,0-7.8,0-7.8s0.4,0.23,0.54,0.31c0.08,0.04,0.15,0.15,0.15,0.27C80.52,61.37,80.52,69.06,80.52,69.06z M85.36,71.87
						c0,0-0.44-0.25-0.54-0.31c-0.08-0.05-0.15-0.15-0.15-0.27c0-0.16,0-7.8,0-7.8s0.4,0.23,0.54,0.31
						c0.08,0.04,0.15,0.15,0.15,0.27S85.36,71.87,85.36,71.87z M90.21,74.63c0,0-0.44-0.25-0.54-0.31
						c-0.08-0.05-0.15-0.15-0.15-0.27c0-0.16,0-7.8,0-7.8s0.4,0.23,0.54,0.31c0.08,0.04,0.15,0.15,0.15,0.27
						S90.21,74.63,90.21,74.63z M95.03,77.43c0,0-0.44-0.25-0.54-0.31c-0.08-0.05-0.15-0.15-0.15-0.27c0-0.16,0-7.8,0-7.8
						s0.4,0.23,0.54,0.31c0.08,0.04,0.15,0.15,0.15,0.27S95.03,77.43,95.03,77.43z M119.23,91.44c0,0-0.44-0.25-0.54-0.31
						c-0.08-0.05-0.15-0.15-0.15-0.27c0-0.16,0-7.8,0-7.8s0.4,0.23,0.54,0.31c0.08,0.04,0.15,0.15,0.15,0.27
						S119.23,91.44,119.23,91.44z M123.56,93.89c-0.08-0.05-0.15-0.15-0.15-0.27c0-0.16,0-7.8,0-7.8s0.4,0.23,0.54,0.31
						c0.08,0.04,0.15,0.15,0.15,0.27c0,0.11,0,7.8,0,7.8S123.66,93.95,123.56,93.89z M128.94,97c0,0-0.44-0.25-0.54-0.31
						c-0.08-0.05-0.15-0.15-0.15-0.27c0-0.16,0-7.8,0-7.8s0.4,0.23,0.54,0.31c0.08,0.04,0.15,0.15,0.15,0.27
						C128.94,89.32,128.94,97,128.94,97z M133.78,99.77c0,0-0.44-0.25-0.54-0.31c-0.08-0.05-0.15-0.15-0.15-0.27c0-0.16,0-7.8,0-7.8
						s0.4,0.23,0.54,0.31c0.08,0.04,0.15,0.15,0.15,0.27S133.78,99.77,133.78,99.77z M138.63,102.59c0,0-0.44-0.25-0.54-0.31
						c-0.08-0.05-0.15-0.15-0.15-0.27c0-0.16,0-7.8,0-7.8s0.4,0.23,0.54,0.31c0.08,0.04,0.15,0.15,0.15,0.27
						C138.63,94.91,138.63,102.59,138.63,102.59z"/>
					<line class="st17" x1="78.26" y1="56.18" x2="141.15" y2="92.54"/>
					<line class="st14" x1="77.97" y1="69.95" x2="140.17" y2="105.92"/>
					<path class="st14" d="M140.96,106.66c0,0,0-0.79,0-0.9s-0.03-0.23-0.15-0.16s-0.43,0.25-0.49,0.28s-0.2,0.15-0.2-0.16
						s0-11.05,0-11.2c0-0.15,0.06-0.21,0.15-0.26c0.08-0.05,0.48-0.26,0.54-0.31s0.15-0.13,0.15-0.26s0-0.82,0-0.94
						s0.04-0.17,0.19-0.22v0.23l0.2-0.12"/>
					<line class="st17" x1="140.96" y1="92.76" x2="77.93" y2="56.33"/>
					<line class="st17" x1="77.93" y1="57.31" x2="140.96" y2="93.7"/>
					<line class="st17" x1="140.81" y1="93.95" x2="77.78" y2="57.57"/>
					<line class="st17" x1="77.24" y1="57.88" x2="140.27" y2="94.27"/>
					<line class="st17" x1="140.12" y1="94.52" x2="77.09" y2="58.13"/>
					<path class="st14" d="M141.15,93.77v11.63c0-0.1-0.04-0.14-0.15-0.09c-0.1,0.06-0.51,0.29-0.58,0.33
						c-0.06,0.04-0.15,0.06-0.15-0.09s0-10.82,0-10.95s0.01-0.17,0.15-0.26c0.14-0.08,0.49-0.28,0.58-0.33
						C141.09,93.97,141.15,93.9,141.15,93.77z"/>
					<line class="st17" x1="141.08" y1="105.29" x2="140.27" y2="104.83"/>
					<path class="st17" d="M140.94,105.35c-0.02,0.01-0.67-0.39-0.67-0.39"/>
					<line class="st17" x1="140.42" y1="105.65" x2="140.28" y2="105.56"/>
					<g>
						<path class="st14" d="M137.94,94.22c0,0-1-0.57-1.09-0.63s-0.15-0.04-0.15,0.09s0,8.95,0,9.04s0.03,0.19,0.15,0.27
							c0.13,0.07,1.54,0.89,1.63,0.94s0.15,0.03,0.15-0.09s0-1.24,0-1.24"/>
						<path class="st17" d="M138.63,102.85c0,0-0.67-0.39-0.74-0.45c-0.07-0.07-0.15-0.12-0.15-0.27c0-0.14,0-8.02,0-8.02"/>
						<path class="st17" d="M138.63,103.83c0,0-1.54-0.89-1.63-0.94c-0.08-0.04-0.15-0.1-0.15-0.27c0-0.17,0-9.04,0-9.04"/>
						<path class="st17" d="M136.84,101.78c0.05,0.13,0.28,0.23,0.28,0s0-8.01,0-8.01"/>
						<path class="st15" d="M137.13,101.66c-0.09-0.04-0.13,0.02-0.13-0.19c0-0.2,0-7.77,0-7.77"/>
						<line class="st15" x1="136.9" y1="101.87" x2="137.13" y2="101.72"/>
						<line class="st15" x1="136.84" y1="101.62" x2="136.99" y2="101.56"/>
						<line class="st15" x1="137.94" y1="102.01" x2="137.73" y2="102.13"/>
						<path class="st15" d="M138.09,102.28c-0.07,0.04-0.2,0.12-0.2,0.12"/>
					</g>
					<g>
						<path class="st14" d="M133.09,91.39c0,0-1-0.57-1.09-0.63s-0.15-0.04-0.15,0.09s0,8.95,0,9.04s0.03,0.19,0.15,0.27
							s1.54,0.89,1.63,0.94s0.15,0.03,0.15-0.09s0-1.24,0-1.24"/>
						<path class="st17" d="M133.79,100.03c0,0-0.67-0.39-0.74-0.45c-0.07-0.07-0.15-0.12-0.15-0.27s0-8.02,0-8.02"/>
						<path class="st17" d="M133.78,101.01c0,0-1.54-0.89-1.63-0.94c-0.08-0.04-0.15-0.1-0.15-0.27c0-0.17,0-9.04,0-9.04"/>
						<path class="st17" d="M132,98.96c0.05,0.13,0.28,0.23,0.28,0s0-8.01,0-8.01"/>
						<path class="st15" d="M132.28,98.84c-0.09-0.04-0.13,0.02-0.13-0.19c0-0.2,0-7.77,0-7.77"/>
						<line class="st15" x1="132.05" y1="99.05" x2="132.28" y2="98.9"/>
						<line class="st15" x1="132" y1="98.8" x2="132.14" y2="98.74"/>
						<line class="st15" x1="133.09" y1="99.19" x2="132.89" y2="99.31"/>
						<path class="st15" d="M133.25,99.46c-0.07,0.04-0.2,0.12-0.2,0.12"/>
					</g>
					<g>
						<path class="st14" d="M128.25,88.63c0,0-1-0.57-1.09-0.63s-0.15-0.04-0.15,0.09s0,8.95,0,9.04s0.03,0.19,0.15,0.27
							s1.54,0.89,1.63,0.94s0.15,0.03,0.15-0.09s0-1.24,0-1.24"/>
						<path class="st17" d="M128.94,97.26c0,0-0.67-0.39-0.74-0.45s-0.15-0.12-0.15-0.27s0-8.02,0-8.02"/>
						<path class="st17" d="M128.94,98.24c0,0-1.54-0.89-1.63-0.94c-0.08-0.04-0.15-0.1-0.15-0.27s0-9.04,0-9.04"/>
						<path class="st17" d="M127.16,96.19c0.05,0.13,0.28,0.23,0.28,0s0-8.01,0-8.01"/>
						<path class="st15" d="M127.44,96.07c-0.09-0.04-0.13,0.02-0.13-0.19c0-0.2,0-7.77,0-7.77"/>
						<line class="st15" x1="127.21" y1="96.28" x2="127.44" y2="96.13"/>
						<line class="st15" x1="127.16" y1="96.04" x2="127.3" y2="95.98"/>
						<line class="st15" x1="128.25" y1="96.43" x2="128.05" y2="96.54"/>
						<path class="st15" d="M128.4,96.69c-0.07,0.04-0.2,0.12-0.2,0.12"/>
					</g>
					<g>
						<path class="st14" d="M123.41,85.83c0,0-1-0.57-1.09-0.63s-0.15-0.04-0.15,0.09s0,8.95,0,9.04s0.03,0.19,0.15,0.27
							c0.13,0.07,1.54,0.89,1.63,0.94s0.15,0.03,0.15-0.09s0-1.24,0-1.24"/>
						<path class="st17" d="M124.1,94.46c0,0-0.67-0.39-0.74-0.45s-0.15-0.12-0.15-0.27c0-0.14,0-8.02,0-8.02"/>
						<path class="st17" d="M124.1,95.44c0,0-1.54-0.89-1.63-0.94c-0.08-0.04-0.15-0.1-0.15-0.27c0-0.17,0-9.04,0-9.04"/>
						<path class="st17" d="M122.32,93.39c0.05,0.13,0.28,0.23,0.28,0s0-8.01,0-8.01"/>
						<path class="st15" d="M122.6,93.27c-0.09-0.04-0.13,0.02-0.13-0.19s0-7.77,0-7.77"/>
						<line class="st15" x1="122.37" y1="93.48" x2="122.6" y2="93.33"/>
						<line class="st15" x1="122.32" y1="93.24" x2="122.46" y2="93.17"/>
						<line class="st15" x1="123.41" y1="93.62" x2="123.2" y2="93.74"/>
						<path class="st15" d="M123.56,93.89c-0.07,0.04-0.2,0.12-0.2,0.12"/>
					</g>
					<g>
						<path class="st14" d="M118.54,83.06c0,0-1-0.57-1.09-0.63s-0.15-0.04-0.15,0.09s0,8.95,0,9.04s0.03,0.19,0.15,0.27
							c0.13,0.07,1.54,0.89,1.63,0.94s0.15,0.03,0.15-0.09s0-1.24,0-1.24"/>
						<path class="st17" d="M119.23,91.7c0,0-0.67-0.39-0.74-0.45c-0.07-0.07-0.15-0.12-0.15-0.27s0-8.02,0-8.02"/>
						<path class="st17" d="M119.23,92.68c0,0-1.54-0.89-1.63-0.94c-0.08-0.04-0.15-0.1-0.15-0.27c0-0.17,0-9.04,0-9.04"/>
						<path class="st17" d="M117.45,90.63c0.05,0.13,0.28,0.23,0.28,0s0-8.01,0-8.01"/>
						<path class="st15" d="M117.73,90.51c-0.09-0.04-0.13,0.02-0.13-0.19c0-0.2,0-7.77,0-7.77"/>
						<line class="st15" x1="117.5" y1="90.72" x2="117.73" y2="90.57"/>
						<line class="st15" x1="117.45" y1="90.47" x2="117.59" y2="90.41"/>
						<line class="st15" x1="118.54" y1="90.86" x2="118.33" y2="90.98"/>
						<path class="st15" d="M118.69,91.13c-0.07,0.04-0.2,0.12-0.2,0.12"/>
					</g>
					<g>
						<path class="st14" d="M94.34,69.06c0,0-1-0.57-1.09-0.63s-0.15-0.04-0.15,0.09s0,8.95,0,9.04s0.03,0.19,0.15,0.27
							c0.13,0.07,1.54,0.89,1.63,0.94s0.15,0.03,0.15-0.09s0-1.24,0-1.24"/>
						<path class="st17" d="M95.03,77.69c0,0-0.67-0.39-0.74-0.45c-0.07-0.07-0.15-0.12-0.15-0.27s0-8.02,0-8.02"/>
						<path class="st17" d="M95.03,78.67c0,0-1.54-0.89-1.63-0.94c-0.08-0.04-0.15-0.1-0.15-0.27c0-0.17,0-9.04,0-9.04"/>
						<path class="st17" d="M93.25,76.62c0.05,0.13,0.28,0.23,0.28,0s0-8.01,0-8.01"/>
						<path class="st15" d="M93.53,76.5c-0.09-0.04-0.13,0.02-0.13-0.19c0-0.2,0-7.77,0-7.77"/>
						<line class="st15" x1="93.3" y1="76.71" x2="93.53" y2="76.56"/>
						<line class="st15" x1="93.25" y1="76.47" x2="93.39" y2="76.4"/>
						<line class="st15" x1="94.34" y1="76.85" x2="94.13" y2="76.97"/>
						<path class="st15" d="M94.49,77.12c-0.07,0.04-0.2,0.12-0.2,0.12"/>
					</g>
					<g>
						<path class="st14" d="M89.51,66.26c0,0-1-0.57-1.09-0.63s-0.15-0.04-0.15,0.09s0,8.95,0,9.04s0.03,0.19,0.15,0.27
							c0.13,0.07,1.54,0.89,1.63,0.94S90.2,76,90.2,75.88s0-1.24,0-1.24"/>
						<path class="st17" d="M90.21,74.89c0,0-0.67-0.39-0.74-0.45c-0.07-0.07-0.15-0.12-0.15-0.27c0-0.14,0-8.02,0-8.02"/>
						<path class="st17" d="M90.21,75.88c0,0-1.54-0.89-1.63-0.94c-0.08-0.04-0.15-0.1-0.15-0.27c0-0.17,0-9.04,0-9.04"/>
						<path class="st17" d="M88.42,73.83c0.05,0.13,0.28,0.23,0.28,0s0-8.01,0-8.01"/>
						<path class="st15" d="M88.7,73.7c-0.09-0.04-0.13,0.02-0.13-0.19c0-0.2,0-7.77,0-7.77"/>
						<line class="st15" x1="88.47" y1="73.91" x2="88.7" y2="73.76"/>
						<line class="st15" x1="88.42" y1="73.67" x2="88.56" y2="73.61"/>
						<line class="st15" x1="89.51" y1="74.06" x2="89.31" y2="74.17"/>
						<path class="st15" d="M89.67,74.32c-0.07,0.04-0.2,0.12-0.2,0.12"/>
					</g>
					<g>
						<path class="st14" d="M84.67,63.5c0,0-1-0.57-1.09-0.63s-0.15-0.04-0.15,0.09s0,8.95,0,9.04s0.03,0.19,0.15,0.27
							c0.13,0.07,1.54,0.89,1.63,0.94s0.15,0.03,0.15-0.09s0-1.24,0-1.24"/>
						<path class="st17" d="M85.36,72.13c0,0-0.67-0.39-0.74-0.45c-0.07-0.07-0.15-0.12-0.15-0.27s0-8.02,0-8.02"/>
						<path class="st17" d="M85.36,73.11c0,0-1.54-0.89-1.63-0.94c-0.08-0.04-0.15-0.1-0.15-0.27s0-9.04,0-9.04"/>
						<path class="st17" d="M83.58,71.06c0.05,0.13,0.28,0.23,0.28,0s0-8.01,0-8.01"/>
						<path class="st15" d="M83.86,70.94c-0.09-0.04-0.13,0.02-0.13-0.19c0-0.2,0-7.77,0-7.77"/>
						<line class="st15" x1="83.63" y1="71.15" x2="83.86" y2="71"/>
						<line class="st15" x1="83.58" y1="70.91" x2="83.72" y2="70.85"/>
						<line class="st15" x1="84.67" y1="71.29" x2="84.47" y2="71.41"/>
						<path class="st15" d="M84.82,71.56c-0.07,0.04-0.2,0.12-0.2,0.12"/>
					</g>
					<g>
						<path class="st14" d="M79.83,60.68c0,0-1-0.57-1.09-0.63s-0.15-0.04-0.15,0.09s0,8.95,0,9.04s0.03,0.19,0.15,0.27
							s1.54,0.89,1.63,0.94s0.15,0.03,0.15-0.09s0-1.24,0-1.24"/>
						<path class="st17" d="M80.52,69.31c0,0-0.67-0.39-0.74-0.45c-0.07-0.07-0.15-0.12-0.15-0.27s0-8.02,0-8.02"/>
						<path class="st17" d="M80.52,70.3c0,0-1.54-0.89-1.63-0.94c-0.08-0.04-0.15-0.1-0.15-0.27s0-9.04,0-9.04"/>
						<path class="st17" d="M78.74,68.25c0.05,0.13,0.28,0.23,0.28,0s0-8.01,0-8.01"/>
						<path class="st15" d="M79.02,68.13c-0.09-0.04-0.13,0.02-0.13-0.19c0-0.2,0-7.77,0-7.77"/>
						<line class="st15" x1="78.79" y1="68.34" x2="79.02" y2="68.19"/>
						<line class="st15" x1="78.74" y1="68.09" x2="78.88" y2="68.03"/>
						<line class="st15" x1="79.83" y1="68.48" x2="79.62" y2="68.6"/>
						<path class="st15" d="M79.98,68.74c-0.07,0.04-0.2,0.12-0.2,0.12"/>
					</g>
					<line class="st15" x1="141.03" y1="92.48" x2="141.25" y2="92.36"/>
				</g>
				<g>
					<ellipse transform="matrix(0.866 -0.5 0.5 0.866 -27.3143 81.5411)" class="st18" cx="138.5" cy="91.74" rx="0.2" ry="0.36"/>
					<ellipse transform="matrix(0.866 -0.5 0.5 0.866 -26.5617 78.7392)" class="st18" cx="133.64" cy="88.93" rx="0.2" ry="0.36"/>
					<ellipse transform="matrix(0.866 -0.5 0.5 0.866 -26.1438 77.1909)" class="st18" cx="130.96" cy="87.38" rx="0.2" ry="0.36"/>
					<ellipse transform="matrix(0.866 -0.5 0.5 0.866 -25.8139 75.9464)" class="st18" cx="128.81" cy="86.14" rx="0.2" ry="0.36"/>
					<ellipse transform="matrix(0.866 -0.5 0.5 0.866 -25.0625 73.1499)" class="st18" cx="123.96" cy="83.34" rx="0.2" ry="0.36"/>
					<ellipse transform="matrix(0.866 -0.5 0.5 0.866 -24.3147 70.3571)" class="st18" cx="119.13" cy="80.55" rx="0.2" ry="0.36"/>
					<ellipse transform="matrix(0.866 -0.5 0.5 0.866 -20.5869 56.4095)" class="st18" cx="94.97" cy="66.62" rx="0.2" ry="0.36"/>
					<ellipse transform="matrix(0.866 -0.5 0.5 0.866 -19.8357 53.5822)" class="st18" cx="90.07" cy="63.8" rx="0.2" ry="0.36"/>
					<ellipse transform="matrix(0.866 -0.5 0.5 0.866 -19.5125 52.3433)" class="st18" cx="87.92" cy="62.58" rx="0.2" ry="0.36"/>
					<ellipse transform="matrix(0.866 -0.5 0.5 0.866 -19.073 50.7852)" class="st18" cx="85.23" cy="60.98" rx="0.2" ry="0.36"/>
					<ellipse transform="matrix(0.866 -0.5 0.5 0.866 -18.3365 47.9928)" class="st18" cx="80.39" cy="58.21" rx="0.2" ry="0.36"/>
				</g>
			</g>
			<g>
				<polygon class="st19" points="100.83,67.73 113.61,75.1 113.61,94.97 100.83,87.64 				"/>
				<line class="st20" x1="100.83" y1="68.11" x2="113.53" y2="75.44"/>
			</g>
			<g>
				<path class="st13" d="M118.8,102.32c0,0,0-27.92,0-27.98s0-0.12-0.06-0.15s-2.88-1.68-2.95-1.7c-0.08-0.03-0.18-0.07-0.3,0
					c-0.11,0.07-0.31,0.19-0.59,0.34s-0.94,0.69-1.21,1.83s-0.65,3.86-3.91,6.74c0,0-1.43,0.82-1.64,0.95
					c-0.19,0.11-0.31,0.33-0.31,0.53c0,0.23,0,0.98,0,1.03s-0.02,0.06,0.05,0.1c0.07,0.04,1.23,0.71,1.23,0.71v11.25
					c-0.12,0.12-0.29,0.95-0.24,1.25c0,0-0.62,0.36-0.73,0.42c-0.06,0.04-0.07,0.06-0.07,0.13s0,0.16,0,0.18
					c0,0.03,0.01,0.04,0.02,0.05c0.01,0.01,1.02,0.59,1.02,0.59s0,0.53,0,0.59s-0.01,0.14,0.09,0.2s2.65,1.54,2.76,1.59
					c0.1,0.05,0.15,0.02,0.22-0.02c0.07-0.04,1.17-0.67,1.23-0.71c0.06-0.04,0.21-0.13,0.25-0.29c-0.04,0.16,0,0.35,0.03,0.49
					c0.03,0.14,0.09,0.39,0.34,0.53c0.26,0.14,0.35,0.2,0.51,0.22c0.19,0.02,0.29-0.01,0.39-0.07s0.7-0.38,0.7-0.38l0.71,0.41
					c0.14,0.26,0.29,0.63,0.34,1.02c0.03,0.24,0.23,0.46,0.34,0.53c0.11,0.06,0.26,0.15,0.34,0.18c0.09,0.04,0.38,0.08,0.57-0.03
					C118.09,102.76,118.8,102.32,118.8,102.32z"/>
				<path class="st14" d="M117.36,102.88c-0.27-0.21-0.37-0.33-0.43-0.57c-0.06-0.24-0.25-0.91-0.42-1.16
					c-0.16-0.25-0.52-0.7-0.89-0.9c-0.36-0.2-0.89-0.5-1.98-0.31c-0.73,0.13-0.8,0.23-1.34-0.1c-0.13-0.08-0.27-0.21-0.37-0.46
					c-0.09-0.24-0.1-0.36-0.08-0.57c0.01-0.2,0.09-1.81,1.54-2.66c1.62-0.96,2.44-1.41,2.77-1.6c0.45-0.26,0.61-0.72,0.61-1.07
					c0-0.28,0-8.28,0-8.52s-0.07-0.39-0.37-0.21"/>
				<path class="st14" d="M112.57,99.94c-0.26-0.22-0.49-0.58-0.45-0.99c0.04-0.42,0.09-1.83,1.54-2.66c1.45-0.84,2.59-1.5,2.77-1.6
					c0.31-0.17,0.61-0.57,0.61-1.07s0-8.13,0-8.52c0-0.39-0.22-0.43-0.32-0.44s-0.46,0.18-1.08,0.54s-1.47,0.86-1.92,1.11
					s-0.78,0.32-1.15,0.14s-0.42-0.3-0.53-0.43s-0.19-0.49-0.17-0.75s0.15-1.54,1.17-2.4s2.15-2.38,2.59-3.36
					c0.44-0.97,0.96-2.18,1.06-3.13s0.84-1.62,1.21-1.83s0.49-0.28,0.49-0.28l-2.76-1.59c0,0-0.22,0.08-0.49,0.28
					s-0.93,0.66-1.21,1.83c-0.28,1.17-0.53,3.27-3.18,6.05"/>
				<path class="st14" d="M112.44,86.38c-0.25-0.42-0.36-0.55-0.33-0.92c0.03-0.37,0.15-1.59,1.17-2.44
					c1.02-0.84,3.13-3.33,3.65-6.49c0.2-1.26,0.99-1.71,1.21-1.83s0.65-0.36,0.65-0.36"/>
				<line class="st15" x1="111.87" y1="98.81" x2="112.12" y2="98.95"/>
				<line class="st15" x1="113.41" y1="96.14" x2="113.65" y2="96.29"/>
				<line class="st15" x1="116.18" y1="94.55" x2="116.42" y2="94.69"/>
				<line class="st15" x1="116.79" y1="93.48" x2="117.04" y2="93.62"/>
				<line class="st15" x1="116.79" y1="84.96" x2="117.04" y2="85.1"/>
				<line class="st15" x1="111.87" y1="85.28" x2="112.12" y2="85.46"/>
				<line class="st15" x1="113.04" y1="82.88" x2="113.29" y2="83.02"/>
				<line class="st15" x1="116.69" y1="76.39" x2="116.94" y2="76.53"/>
				<line class="st15" x1="117.9" y1="74.56" x2="118.14" y2="74.7"/>
				<line class="st15" x1="114.9" y1="72.82" x2="115.14" y2="72.97"/>
				<line class="st15" x1="113.69" y1="74.66" x2="113.94" y2="74.8"/>
				<path class="st14" d="M111.96,100.97c-0.12-0.09-0.1-0.23-0.1-0.33c0-0.1,0-16.01,0-16.17s-0.11-0.29-0.3-0.18
					c-0.19,0.11-0.29,0.15-0.33,0.22c-0.04,0.07-0.08,0.04-0.08,0.2s0,0.38,0,0.47s-0.07,0.22-0.15,0.27
					c-0.09,0.05-0.18,0.15-0.26,0.15s-0.12,0.01-0.26-0.07c-0.14-0.08-1.37-0.79-1.37-0.79"/>
				<path class="st14" d="M109.79,81.39c0,0,0.76-0.46,0.87-0.5c0.1-0.04,0.14-0.07,0.28,0.01c0.14,0.08,2.58,1.49,2.58,1.49"/>
				<path class="st14" d="M110.59,85.58c0,0,0-0.91,0-1.12s0.1-0.41,0.31-0.53s2.42-1.39,2.42-1.39"/>
				<line class="st15" x1="108.14" y1="82.34" x2="110.9" y2="83.93"/>
				<line class="st15" x1="107.84" y1="82.87" x2="110.59" y2="84.46"/>
				<path class="st14" d="M109.12,95.97c0,0,0,0.84,0,0.93s-0.07,0.22-0.24,0.32"/>
				<path class="st14" d="M111.87,99.39c0-0.1-0.12-0.3-0.3-0.19s-0.72,0.39-0.72,0.39l-1.73-1"/>
				<path class="st14" d="M110.85,99.59c0-0.09,0-0.15,0-0.23s0-0.1,0.05-0.13s0.76-0.43,0.82-0.47s0.15-0.11,0.15-0.36"/>
				<line class="st15" x1="108.14" y1="97.64" x2="110.9" y2="99.2"/>
				<line class="st15" x1="108.07" y1="97.76" x2="110.85" y2="99.35"/>
				<line class="st15" x1="108.96" y1="97.15" x2="111.72" y2="98.75"/>
				<line class="st15" x1="109.12" y1="96.9" x2="111.84" y2="98.47"/>
				<line class="st15" x1="109.12" y1="99.16" x2="111.86" y2="100.73"/>
				<line class="st17" x1="115.64" y1="72.68" x2="115.64" y2="79.52"/>
				<line class="st17" x1="115.64" y1="85.2" x2="115.64" y2="94.78"/>
				<line class="st17" x1="113.72" y1="86.31" x2="113.72" y2="95.93"/>
				<path class="st17" d="M114.03,86.12c0,0,0,5.51,0,5.77c0,0.26-0.11,0.61-0.27,0.81"/>
				<line class="st17" x1="113.69" y1="91.64" x2="114.03" y2="91.89"/>
				<path class="st17" d="M113.66,99.94c0.17,0.21,0.3,0.69,0.37,1.02"/>
				<line class="st17" x1="115.64" y1="100.25" x2="115.64" y2="100.73"/>
				<g>
					
						<ellipse transform="matrix(0.4659 -0.8849 0.8849 0.4659 -26.0801 152.9908)" class="st21" cx="113.68" cy="98.1" rx="0.89" ry="0.5"/>
					<path class="st17" d="M113.84,97.28c0.16,0,0.37,0.34-0.03,0.97c-0.39,0.63-0.72,0.54-0.75,0.37"/>
					<line class="st17" x1="113.72" y1="97.33" x2="113.72" y2="98.39"/>
				</g>
				<g>
					
						<ellipse transform="matrix(0.4659 -0.8849 0.8849 0.4659 -14.1094 145.7521)" class="st21" cx="113.67" cy="84.56" rx="0.89" ry="0.5"/>
					<path class="st17" d="M113.83,83.76c0.16,0,0.37,0.34-0.03,0.97c-0.39,0.63-0.72,0.54-0.75,0.37"/>
					<line class="st17" x1="113.71" y1="83.8" x2="113.71" y2="84.86"/>
				</g>
			</g>
			<g>
				<path class="st13" d="M100.82,91.99c0,0,0-27.92,0-27.98s0-0.12-0.06-0.15c-0.06-0.04-2.88-1.68-2.95-1.7
					c-0.08-0.03-0.18-0.07-0.3,0c-0.11,0.07-0.31,0.19-0.59,0.34s-0.94,0.69-1.21,1.83c-0.26,1.14-0.65,3.86-3.91,6.74
					c0,0-1.43,0.82-1.64,0.95c-0.19,0.11-0.31,0.33-0.31,0.53c0,0.23,0,0.98,0,1.03s-0.02,0.06,0.05,0.1
					c0.07,0.04,1.23,0.71,1.23,0.71v11.25c-0.12,0.12-0.29,0.95-0.24,1.25c0,0-0.62,0.36-0.73,0.42c-0.06,0.04-0.07,0.06-0.07,0.13
					s0,0.16,0,0.18s0.01,0.04,0.02,0.05c0.01,0.01,1.02,0.59,1.02,0.59s0,0.53,0,0.59s-0.01,0.14,0.09,0.2s2.65,1.54,2.76,1.59
					c0.1,0.05,0.15,0.02,0.22-0.02c0.07-0.04,1.17-0.67,1.23-0.71c0.06-0.04,0.21-0.13,0.25-0.29c-0.04,0.16,0,0.35,0.03,0.49
					c0.03,0.14,0.09,0.39,0.34,0.53c0.26,0.14,0.35,0.2,0.51,0.22c0.19,0.02,0.29-0.01,0.39-0.07c0.11-0.05,0.7-0.38,0.7-0.38
					l0.71,0.41c0.14,0.26,0.29,0.63,0.34,1.02c0.03,0.24,0.23,0.46,0.34,0.53c0.11,0.06,0.26,0.15,0.34,0.18
					c0.09,0.04,0.38,0.08,0.57-0.03C100.12,92.42,100.82,91.99,100.82,91.99z"/>
				<path class="st14" d="M99.39,92.54c-0.27-0.21-0.37-0.33-0.43-0.57c-0.06-0.24-0.25-0.91-0.42-1.16s-0.52-0.7-0.89-0.9
					c-0.36-0.2-0.89-0.5-1.98-0.31c-0.73,0.13-0.8,0.23-1.34-0.1c-0.13-0.08-0.27-0.21-0.37-0.46c-0.09-0.24-0.1-0.36-0.08-0.57
					c0.01-0.2,0.09-1.81,1.54-2.66c1.62-0.96,2.44-1.41,2.77-1.6c0.45-0.26,0.61-0.72,0.61-1.07c0-0.28,0-8.28,0-8.52
					s-0.07-0.39-0.37-0.21"/>
				<path class="st14" d="M94.6,89.61c-0.26-0.22-0.49-0.58-0.45-0.99c0.04-0.42,0.09-1.83,1.54-2.66c1.45-0.84,2.59-1.5,2.77-1.6
					c0.31-0.17,0.61-0.57,0.61-1.07c0-0.49,0-8.13,0-8.52c0-0.39-0.22-0.43-0.32-0.44c-0.11-0.01-0.46,0.18-1.08,0.54
					c-0.62,0.36-1.47,0.86-1.92,1.11s-0.78,0.32-1.15,0.14s-0.42-0.3-0.53-0.43s-0.19-0.49-0.17-0.75s0.15-1.54,1.17-2.4
					s2.15-2.38,2.59-3.36c0.44-0.97,0.96-2.18,1.06-3.13s0.84-1.62,1.21-1.83s0.49-0.28,0.49-0.28l-2.76-1.59
					c0,0-0.22,0.08-0.49,0.28s-0.93,0.66-1.21,1.83c-0.28,1.17-0.53,3.27-3.18,6.05"/>
				<path class="st14" d="M94.47,76.04c-0.25-0.42-0.36-0.55-0.33-0.92c0.03-0.37,0.15-1.59,1.17-2.44
					c1.02-0.84,3.13-3.33,3.65-6.49c0.2-1.26,0.99-1.71,1.21-1.83s0.65-0.36,0.65-0.36"/>
				<line class="st15" x1="93.9" y1="88.47" x2="94.15" y2="88.61"/>
				<line class="st15" x1="95.44" y1="85.81" x2="95.68" y2="85.95"/>
				<line class="st15" x1="98.21" y1="84.21" x2="98.45" y2="84.35"/>
				<line class="st15" x1="98.82" y1="83.14" x2="99.07" y2="83.29"/>
				<line class="st15" x1="98.82" y1="74.62" x2="99.07" y2="74.76"/>
				<line class="st15" x1="93.9" y1="74.94" x2="94.15" y2="75.12"/>
				<line class="st15" x1="95.07" y1="72.54" x2="95.32" y2="72.68"/>
				<line class="st15" x1="98.72" y1="66.05" x2="98.97" y2="66.19"/>
				<line class="st15" x1="99.93" y1="64.22" x2="100.17" y2="64.36"/>
				<line class="st15" x1="96.93" y1="62.49" x2="97.17" y2="62.63"/>
				<line class="st15" x1="95.72" y1="64.32" x2="95.97" y2="64.46"/>
				<path class="st14" d="M93.99,90.63c-0.12-0.09-0.1-0.23-0.1-0.33c0-0.1,0-16.01,0-16.17s-0.11-0.29-0.3-0.18
					c-0.19,0.11-0.29,0.15-0.33,0.22c-0.04,0.07-0.08,0.04-0.08,0.2s0,0.38,0,0.47s-0.07,0.22-0.15,0.27
					c-0.09,0.05-0.18,0.15-0.26,0.15s-0.12,0.01-0.26-0.07c-0.14-0.08-1.37-0.79-1.37-0.79"/>
				<path class="st14" d="M91.82,71.06c0,0,0.76-0.46,0.87-0.5c0.1-0.04,0.14-0.07,0.28,0.01s2.58,1.49,2.58,1.49"/>
				<path class="st14" d="M92.62,75.24c0,0,0-0.91,0-1.12s0.1-0.41,0.31-0.53s2.42-1.39,2.42-1.39"/>
				<line class="st15" x1="90.17" y1="72" x2="92.93" y2="73.59"/>
				<line class="st15" x1="89.87" y1="72.54" x2="92.62" y2="74.13"/>
				<path class="st14" d="M91.15,85.63c0,0,0,0.84,0,0.93s-0.07,0.22-0.24,0.32"/>
				<path class="st14" d="M93.9,89.05c0-0.1-0.12-0.3-0.3-0.19c-0.18,0.1-0.72,0.39-0.72,0.39l-1.73-1"/>
				<path class="st14" d="M92.88,89.25c0-0.09,0-0.15,0-0.23c0-0.08,0-0.1,0.05-0.13s0.76-0.43,0.82-0.47s0.15-0.11,0.15-0.36"/>
				<line class="st15" x1="90.17" y1="87.3" x2="92.93" y2="88.86"/>
				<line class="st15" x1="90.1" y1="87.43" x2="92.88" y2="89.02"/>
				<line class="st15" x1="90.99" y1="86.82" x2="93.75" y2="88.42"/>
				<line class="st15" x1="91.15" y1="86.56" x2="93.86" y2="88.13"/>
				<line class="st15" x1="91.15" y1="88.82" x2="93.89" y2="90.4"/>
				<line class="st17" x1="97.66" y1="62.34" x2="97.66" y2="69.18"/>
				<line class="st17" x1="97.66" y1="74.86" x2="97.66" y2="84.44"/>
				<line class="st17" x1="95.75" y1="75.97" x2="95.75" y2="85.59"/>
				<path class="st17" d="M96.06,75.79c0,0,0,5.51,0,5.77s-0.11,0.61-0.27,0.81"/>
				<line class="st17" x1="95.72" y1="81.31" x2="96.06" y2="81.55"/>
				<path class="st17" d="M95.69,89.61c0.17,0.21,0.3,0.69,0.37,1.02"/>
				<line class="st17" x1="97.66" y1="89.92" x2="97.66" y2="90.4"/>
				<g>
					
						<ellipse transform="matrix(0.4659 -0.8849 0.8849 0.4659 -26.5327 131.5642)" class="st21" cx="95.71" cy="87.76" rx="0.89" ry="0.5"/>
					<path class="st17" d="M95.87,86.95c0.16,0,0.37,0.34-0.03,0.97c-0.39,0.63-0.72,0.54-0.75,0.37"/>
					<line class="st17" x1="95.75" y1="86.99" x2="95.75" y2="88.05"/>
				</g>
				<g>
					
						<ellipse transform="matrix(0.4659 -0.8849 0.8849 0.4659 -14.5615 124.3358)" class="st21" cx="95.71" cy="74.23" rx="0.89" ry="0.5"/>
					<path class="st17" d="M95.86,73.42c0.16,0,0.37,0.34-0.03,0.97c-0.39,0.63-0.72,0.54-0.75,0.37"/>
					<line class="st17" x1="95.74" y1="73.47" x2="95.74" y2="74.53"/>
				</g>
			</g>
		</g>
		<g>
			<g id="Mast_1_">
				<g>
					<path class="st22" d="M89.14,78.1c0.04-0.02,0.04-5.72,0.04-5.72l0.31-0.18l0.66,0.38v0.6l2.48,1.43v-0.18l0.38-0.2l1.18,0.67
						l1.51-0.89v-0.43l0.99-0.55c0,0,11.95,6.71,12.26,6.89c0.31,0.18,0.5,0.34,0.5,0.6s0,0.42,0,0.42c0.36,0,0.32,0.39,0.32,0.65
						s0,2.93,0,2.93l1.65,0.96v-0.42l0.31-0.14l0.66,0.52v15.7l-0.31,0.24l-4.49-2.62v-0.31h-0.7l-1.55,0.89l-2.01-1.16"/>
					<polyline class="st23" points="105.34,99.31 105.34,82.96 93.08,75.88 					"/>
					<polyline class="st23" points="93.08,77.12 93.08,75.88 94.18,75.23 					"/>
					<polyline class="st23" points="106.88,98.42 106.88,82.06 105.59,80.28 					"/>
					<polyline class="st23" points="95.69,73.57 98.68,78.59 107.92,80.64 109.13,80.01 					"/>
					<line class="st23" x1="94.63" y1="74.99" x2="96.85" y2="75.52"/>
					<line class="st23" x1="96.34" y1="74.66" x2="96.34" y2="75.37"/>
					<path class="st23" d="M109.32,80.19l-1.4,0.81l-9.24-2.04c-0.26-0.2-0.3-0.49-0.15-0.63"/>
					<path class="st23" d="M99.89,79.81c0.83,0.15,1.71,0.12,1.99-0.14"/>
					<polyline class="st23" points="102.48,82.55 102.91,82.3 105.03,83.52 105.03,99.13 					"/>
					<line class="st23" x1="104.95" y1="83.84" x2="102.71" y2="82.53"/>
					<polyline class="st23" points="93.08,76.43 95.51,77.91 95.51,78.53 					"/>
					<polyline class="st23" points="107.59,98.42 107.59,82.85 109.77,81.57 					"/>
					<polyline class="st23" points="109.69,81.09 107.36,82.42 107.28,98.42 					"/>
					<polyline class="st23" points="109.5,84.5 108.8,84.11 108.8,83.52 107.59,82.85 					"/>
					<line class="st23" x1="106.98" y1="80.85" x2="108.46" y2="81.79"/>
					<polyline class="st23" points="105.34,82.96 106.88,82.06 107.36,82.42 					"/>
					<ellipse class="st23" cx="100.82" cy="77.49" rx="1.88" ry="1.08"/>
					<path class="st23" d="M102.7,77.49v0.54c-0.38,0.49-0.68,0.85-1.93,0.85c-1.26,0-1.7-0.7-1.82-0.82v-0.61"/>
					
						<ellipse transform="matrix(0.7562 -0.6544 0.6544 0.7562 -30.1142 88.6528)" class="st24" cx="103.9" cy="84.74" rx="0.27" ry="0.48"/>
					
						<ellipse transform="matrix(0.7562 -0.6544 0.6544 0.7562 -36.9727 91.2386)" class="st24" cx="103.94" cy="95.23" rx="0.27" ry="0.48"/>
					
						<ellipse transform="matrix(0.7562 -0.6544 0.6544 0.7562 -37.8971 91.5803)" class="st24" cx="103.94" cy="96.64" rx="0.27" ry="0.48"/>
				</g>
				<g>
					<path class="st25" d="M103.27,151.1c0,0,0-66.75,0-67.36s-0.14-0.58-0.66-0.88s-9.53-5.75-9.84-5.92
						c-0.5-0.29-0.8-0.47-1.18-0.26c-0.37,0.21-6.74,3.95-7.08,4.17s-0.69,0.35-0.69,0.73s0,58.27,0,58.27L103.27,151.1z"/>
					<path class="st23" d="M84.52,80.85c0,0-0.21,3.72,0,3.93s4.12,2.4,4.12,2.4l6.56-0.03l7.41-4.28"/>
					<path class="st23" d="M103.27,83.74c0,0-7.32,4.18-7.56,4.28s-0.35,0.12-0.5,0.12s-6.34,0-6.56,0s-0.4-0.02-0.51-0.09
						c-0.12-0.07-4.3-2.46-4.3-2.46"/>
					<path class="st23" d="M84.52,84.78c-0.12,0.07-0.49,0.38-0.54,0.73"/>
					<path class="st23" d="M83.83,86.12c0.05,0.05,4.11,2.39,4.3,2.52c0.19,0.13,0.32,0.12,0.51,0.12s6.42,0,6.56,0
						c0.14,0,0.31,0.01,0.5-0.1c0.19-0.1,7.56-4.34,7.56-4.34"/>
					<path class="st23" d="M95.71,146.72c0,0,0-58.46,0-58.7c0-0.24-0.02-0.61-0.51-0.88c0,0.29,0,59.29,0,59.29"/>
					<path class="st23" d="M88.13,142.36c0,0,0-53.93,0-54.31s0.18-0.75,0.51-0.88v55.44"/>
					<line class="st23" x1="86.87" y1="87.95" x2="86.87" y2="141.58"/>
					<line class="st23" x1="85.54" y1="87.17" x2="85.54" y2="140.72"/>
					<line class="st23" x1="85.15" y1="140.64" x2="85.15" y2="86.97"/>
					<line class="st23" x1="97.65" y1="87.56" x2="97.65" y2="147.73"/>
					<line class="st23" x1="98.87" y1="86.86" x2="98.87" y2="148.49"/>
					<line class="st23" x1="99.24" y1="148.6" x2="99.24" y2="86.69"/>
				</g>
			</g>
			<g>
				<g>
					<g>
						<path class="st26" d="M101.67,155.87c0,0.4-0.28,0.91-0.64,1.12c-0.46,0.26-3.66,2.12-3.87,2.23
							c-0.19,0.1-0.32,0.11-0.46,0.05c-0.21-0.11-0.39-0.21-0.64-0.37c-0.15-0.1-0.19-0.2-0.19-0.42c0-0.21,0-17.62,0-17.87
							c0-0.45,0.31-0.93,0.64-1.12c0.33-0.19,3.6-2.08,3.87-2.23c0.19-0.11,0.28-0.14,0.46-0.05c0.13,0.07,0.4,0.23,0.61,0.35
							c0.19,0.11,0.22,0.17,0.22,0.44S101.67,155.21,101.67,155.87z"/>
						<path class="st27" d="M101.6,137.71c-0.12-0.22-0.34-0.22-0.58-0.08s-3.69,2.1-3.87,2.23c-0.18,0.14-0.64,0.44-0.64,1.12
							s0,17.73,0,17.87c-0.01,0.28,0.19,0.56,0.42,0.45"/>
						<line class="st23" x1="95.86" y1="158.38" x2="96.5" y2="158.74"/>
						<line class="st23" x1="95.86" y1="140.61" x2="96.51" y2="140.98"/>
						<line class="st23" x1="96.51" y1="139.49" x2="97.15" y2="139.87"/>
						<line class="st23" x1="100.38" y1="137.26" x2="101.02" y2="137.63"/>
						<g>
							
								<ellipse transform="matrix(0.5872 -0.8095 0.8095 0.5872 -73.2126 138.441)" class="st28" cx="99.12" cy="141" rx="0.71" ry="0.4"/>
							
								<ellipse transform="matrix(0.5872 -0.8095 0.8095 0.5872 -76.2199 139.969)" class="st28" cx="99.11" cy="144.71" rx="0.71" ry="0.4"/>
							
								<ellipse transform="matrix(0.5872 -0.8095 0.8095 0.5872 -79.2285 141.506)" class="st28" cx="99.12" cy="148.43" rx="0.71" ry="0.4"/>
							
								<ellipse transform="matrix(0.5872 -0.8095 0.8095 0.5872 -82.2372 143.0431)" class="st28" cx="99.12" cy="152.15" rx="0.71" ry="0.4"/>
							
								<ellipse transform="matrix(0.5872 -0.8095 0.8095 0.5872 -85.2445 144.5711)" class="st28" cx="99.11" cy="155.86" rx="0.71" ry="0.4"/>
						</g>
					</g>
					<g>
						<path class="st26" d="M99.03,150.5l24.94,14.39c-1.07-1.23,0.54-3.67,1.82-3.16l-24.94-14.39c0.11-0.74-0.48-1.14-0.8-1.19
							c-0.51-0.08-1.35,0.12-2.22,1.55c-0.88,1.44-0.54,2.53,0,2.9C98.38,150.97,98.69,150.72,99.03,150.5z"/>
						<path class="st23" d="M99.03,150.5c-0.7-0.41-1.13-1.05-0.39-2.29c0.73-1.24,1.48-1.29,2.22-0.87"/>
					</g>
				</g>
				<g>
					<path class="st26" d="M83.55,137.38c0,0-20.58-11.71-22.73-12.95c-2.53-1.46-9.02-2.99-14.23,0.05
						c-6.1,3.55-28.43,16.41-28.43,16.41c1.2-0.14,2.76,1.33,1.98,3.03c0,0,26.3-14.93,28.7-16.32s6.7-2.32,10.01-0.51
						s24.81,13.83,24.81,13.83L83.55,137.38z"/>
					<path class="st27" d="M46.58,124.47c2.22-0.07,2.25,3.12,2.25,3.12"/>
					<path class="st27" d="M60.82,124.43c-1.22,0.33-1.91,1.77-1.37,2.99"/>
				</g>
			</g>
			<g id="Cart_2_">
				<g>
					<g>
						<path class="st29" d="M57,124.39c0,0,56.62,32.66,58.72,33.92c1.99,1.19,2.78,2.42,2.78,5.22s0,79.16,0,80.34
							s-0.05,2.1-1.12,2.74c-1.07,0.64-13.37,7.59-13.37,7.59s-0.17,10.52-0.17,11.91s0.2,2.41-0.55,2.94s-26.43,15.04-27.64,15.68
							c-1.23,0.64-1.94,0.62-2.99-0.02c-0.89-0.55-32.35-20.19-32.35-20.19s0.21-15.46,0.21-21.65c0-5.71,0.35-7.62-3.07-9.76
							s-8.3-4.97-9.91-6.04c-1.6-1.07-2.3-2.29-2.4-5.66s0.01-76.17,0.01-80.13c0-1.36,0.57-1.82,1.27-2.24
							c2.44-1.48,20.1-11.42,26.07-14.87C53.95,123.34,54.9,123.3,57,124.39z"/>
						<path class="st30" d="M103.92,254.33c-2.03,1.18-11.95,7.18-12.82,7.69c-1.39,0.82-2.37,0.91-3.38,0.32
							c-2.41-1.42-8.09-4.76-9.34-5.46c-1.91-1.07-3.12-0.99-3.12,1.46c0,2.17,0.18,22.62,0.18,23.82c0,1.77-0.63,3.72-2.47,2.75"/>
						<line class="st31" x1="103.85" y1="267.35" x2="75.22" y2="283.8"/>
						<path class="st31" d="M103.85,260.04c0,0-25.65,15.12-26.7,15.69c-1.06,0.57-1.85,0.29-2.42,0s-1.5-0.9-1.5-0.9"/>
						<path class="st31" d="M115.72,158.31"/>
						<path class="st31" d="M87.92,262.34c2.23,0.54,2.21-1.44,2.21-2.2c0-0.75,0.06-81.1,0.06-81.1c0-1.01-0.59-3.07-2.4-4.11
							c-1.8-1.04-59.01-34.13-60.29-34.8c-1.27-0.67-2.18-0.42-2.27,0.37"/>
						<path class="st31" d="M118.5,244.8c0,0-26.98,15.59-27.49,15.9c-0.3,0.18-0.56,0.21-0.82,0.08"/>
						<path class="st31" d="M42.07,238.49c0-4.52-3.01-6.72-4.98-7.98c-0.88-0.56-7.66-4.42-8.89-5.19
							c-0.49-0.31-0.69-0.88-0.69-2.15c0-0.74,0-78.85,0-79.18s-0.14-0.56,0.19-0.78s0.89,0.11,1.31,0.34
							c0.42,0.24,56.57,32.66,57.66,33.29s1.29,1.55,1.29,2.23c0,0-0.03,78.11-0.03,79.06c0,1.48-0.99,0.85-1.58,0.53
							c-0.7-0.37-7.46-4.26-8.57-4.91c-1.87-1.09-4.64,0.23-4.64,2.34c0,3.14,0,22.96,0,23.96s-0.22,1.99-1.96,0.94
							c-1.68-1.01-13.43-7.75-13.43-7.75s-13.24-7.31-14.24-7.85s-1.29-1.27-1.29-2.23C42.21,262.19,42.07,238.49,42.07,238.49z"/>
						<path class="st31" d="M57.07,272.18c0,0,11.73,6.77,13.43,7.75c1.69,0.98,2.07,1.2,2.07-0.77c0-1,0-20.3,0-23.44
							c0-2.32,2.85-3.99,5.04-2.85c1.14,0.59,7.67,4.42,8.37,4.81c0.87,0.47,1.4,0.81,1.4,0c0-0.95,0.09-78.85,0.09-78.85
							c0-0.96-0.49-1.3-0.85-1.51c-0.36-0.21-57.4-33.14-57.61-33.26s-0.98-0.69-0.98,0.32S28,158.41,28,158.41s0,62.38,0,63.77
							c0,1.86,0,2.17,1.66,3.16c0.92,0.55,5.69,3.23,7.99,4.54s5.18,4.03,5.18,8.67c0,0,0,23.1,0,23.96s0.07,1.6,1.18,2.24
							C45.12,265.4,57.07,272.18,57.07,272.18z"/>
						<g>
							<g>
								<path class="st31" d="M100.9,202.58c1.55-0.91,7.33-4.09,7.81-4.37c0.91-0.53,2.65,0.48,0.91,1.53
									c-2.71,1.64-6.84,3.9-7.75,4.38s-1.5,0.48-2.03,0.32C99.99,203.76,100.28,202.95,100.9,202.58z"/>
								<path class="st31" d="M100.9,202.58c0.53,0.27,0.86,0.91,0.96,1.55"/>
								<path class="st31" d="M108.71,198.22c0.72,0.47,0.8,0.73,0.91,1.53"/>
							</g>
							<g>
								<path class="st31" d="M100.9,209.18c1.55-0.91,7.33-4.09,7.81-4.37c0.91-0.53,2.65,0.48,0.91,1.53
									c-2.71,1.64-6.84,3.9-7.75,4.38s-1.5,0.48-2.03,0.32C99.99,210.36,100.28,209.55,100.9,209.18z"/>
								<path class="st31" d="M100.9,209.18c0.53,0.27,0.86,0.91,0.96,1.55"/>
								<path class="st31" d="M108.71,204.82c0.72,0.47,0.8,0.73,0.91,1.53"/>
							</g>
							<g>
								<path class="st31" d="M100.9,215.78c1.55-0.91,7.33-4.09,7.81-4.37c0.91-0.53,2.65,0.48,0.91,1.53
									c-2.71,1.64-6.84,3.9-7.75,4.38s-1.5,0.48-2.03,0.32C99.99,216.96,100.28,216.15,100.9,215.78z"/>
								<path class="st31" d="M100.9,215.78c0.53,0.27,0.86,0.91,0.96,1.55"/>
								<path class="st31" d="M108.71,211.42c0.72,0.47,0.8,0.73,0.91,1.53"/>
							</g>
							<g>
								<path class="st31" d="M100.9,222.38c1.55-0.91,7.33-4.09,7.81-4.37c0.91-0.53,2.65,0.48,0.91,1.53
									c-2.71,1.64-6.84,3.9-7.75,4.38s-1.5,0.48-2.03,0.32C99.99,223.56,100.28,222.75,100.9,222.38z"/>
								<path class="st31" d="M100.9,222.38c0.53,0.27,0.86,0.91,0.96,1.55"/>
								<path class="st31" d="M108.71,218.01c0.72,0.47,0.8,0.73,0.91,1.53"/>
							</g>
							<g>
								<path class="st31" d="M100.9,228.98c1.55-0.91,7.33-4.09,7.81-4.37c0.91-0.53,2.65,0.48,0.91,1.53
									c-2.71,1.64-6.84,3.9-7.75,4.38s-1.5,0.48-2.03,0.32C99.99,230.16,100.28,229.35,100.9,228.98z"/>
								<path class="st31" d="M100.9,228.98c0.53,0.27,0.86,0.91,0.96,1.55"/>
								<path class="st31" d="M108.71,224.61c0.72,0.47,0.8,0.73,0.91,1.53"/>
							</g>
							<g>
								<path class="st31" d="M100.9,235.58c1.55-0.91,7.33-4.09,7.81-4.37c0.91-0.53,2.65,0.48,0.91,1.53
									c-2.71,1.64-6.84,3.9-7.75,4.38s-1.5,0.48-2.03,0.32C99.99,236.75,100.28,235.95,100.9,235.58z"/>
								<path class="st31" d="M100.9,235.58c0.53,0.27,0.86,0.91,0.96,1.55"/>
								<path class="st31" d="M108.71,231.21c0.72,0.47,0.8,0.73,0.91,1.53"/>
							</g>
							<g>
								<path class="st31" d="M100.9,242.18c1.55-0.91,7.33-4.09,7.81-4.37c0.91-0.53,2.65,0.48,0.91,1.53
									c-2.71,1.64-6.84,3.9-7.75,4.38s-1.5,0.48-2.03,0.32C99.99,243.35,100.28,242.55,100.9,242.18z"/>
								<path class="st31" d="M100.9,242.18c0.53,0.27,0.86,0.91,0.96,1.55"/>
								<path class="st31" d="M108.71,237.81c0.72,0.47,0.8,0.73,0.91,1.53"/>
							</g>
						</g>
						<path class="st31" d="M26.43,139.04c0.68-0.09,1.25,0.34,1.45,0.45c0.2,0.11,59.13,34.21,60.29,34.8s2.79,2.43,2.79,4.65
							s0,81.21,0,81.76s-0.14,1.37-0.85,1.8"/>
						<path class="st27" d="M93.28,225.33c0-0.44,0.31-1.67,1.16-2.16s20.2-11.49,20.63-11.76s1.29-0.41,1.29,0.59s0,28.93,0,29.78
							s-0.35,1.55-1.29,2.09s-19.99,11.59-20.63,11.91c-0.64,0.32-1.16,0.19-1.16-0.67C93.28,254.25,93.28,225.33,93.28,225.33z"/>
					</g>
					<path class="st31" d="M75.26,258.34c0.23,0.11,0.49,0.2,0.83,0s2.41-1.39,2.41-1.39"/>
					<path class="st31" d="M77.68,256.53c-0.81-0.07-1.59,0.38-1.59,1.81s0,24.6,0,24.97s-0.17,1.11-0.43,1.42"/>
					<path class="st27" d="M87.95,193.97c0,0,1.98,1.14,2.2,1.25s0.61,0.19,0.8,0.04s27.59-15.97,27.59-15.97"/>
					<path class="st23" d="M87.8,174.93c0-0.5,0.37-0.64,0.37-0.64l27.55-15.98"/>
					<path class="st23" d="M90.19,179.04c0.33,0.33,0.76-0.1,0.76-0.1l27.57-15.96"/>
					<path class="st23" d="M27.51,140.13c0-0.25,0.11-0.49,0.37-0.64c0.26-0.15,27.48-15.77,27.48-15.77"/>
					<path class="st32" d="M58.98,154.38c0,0,22.99,13.49,24.55,14.39c1.55,0.89,3.22,1.11,5.01,0.08s16.56-9.54,17.75-10.27
						s1.29-1.88-0.29-2.79c-1.58-0.91-44.92-25.9-45.53-26.25c-1.52-0.87-3.54-1.19-5.42-0.12c-0.97,0.55-16.95,9.49-17.5,9.88
						s-1.74,1.79,0,2.79C39.29,143.1,58.98,154.38,58.98,154.38z"/>
					<path class="st27" d="M65.77,158.58c0,0,0.84-0.48,1.17-0.67c0.34-0.2,0.54-0.67,0.04-0.97c-0.54-0.32-8-4.63-8.54-4.95
						c-0.55-0.32-1.29-0.38-1.93-0.02c-0.65,0.37-0.97,0.57-0.97,0.57"/>
					<path class="st27" d="M56.54,152.82c0.48-0.36,1.18-0.52,1.93-0.08c0.75,0.43,8.68,5,8.68,5"/>
					<line class="st23" x1="66.86" y1="156.98" x2="66.86" y2="157.55"/>
					<line class="st23" x1="58.44" y1="152" x2="58.44" y2="152.74"/>
					<line class="st23" x1="56.51" y1="151.99" x2="56.51" y2="152.77"/>
					<line class="st23" x1="62.78" y1="155.22" x2="61.74" y2="155.83"/>
				</g>
				<g>
					<polyline class="st23" points="97.58,251.1 97.58,251.5 96.05,252.41 					"/>
					<g>
						<path class="st23" d="M96.05,249.64c0-0.42,0.21-0.87,0.64-1.12c0.43-0.25,15.79-9.07,16.12-9.31s0.64-0.08,0.64,0.37
							c0,0.45,0,2.51,0,2.98c0,0.46-0.14,0.82-0.64,1.12c-0.51,0.29-15.66,9.03-16.12,9.31s-0.64,0.04-0.64-0.36
							C96.05,252.24,96.05,249.64,96.05,249.64z"/>
						<line class="st23" x1="96.19" y1="252.99" x2="113.31" y2="243.13"/>
						<polyline class="st23" points="96.05,251.1 111.42,242.24 111.42,240.06 						"/>
						<path class="st23" d="M111.7,239.88c0,0,0,1.86,0,2.09s0.04,0.45-0.35,0.67s-15.3,8.86-15.3,8.86"/>
						<path class="st33" d="M107.29,244.62c0,0,0.28,0.18,0.32,0.37s0.08,0.27-0.13,0.39c-0.21,0.12-9.9,5.72-9.9,5.72l-0.71-0.47
							L107.29,244.62z"/>
						<polyline class="st23" points="107.58,244.46 108.27,244.99 108.91,244.99 113.25,242.48 113.25,239.22 						"/>
						<g>
							<path class="st23" d="M101.01,246.07c0,0,0,0.56,0,0.77s0.03,0.52,0.23,0.4s0.93-0.54,1.21-0.7
								c0.29-0.16,0.25-0.27,0.25-0.44s0-1.03,0-1.03"/>
							<path class="st23" d="M101.01,246.84c0,0,0.84-0.48,1.03-0.59c0.13-0.07,0.2-0.16,0.2-0.35s0-0.55,0-0.55"/>
							<line class="st23" x1="102.03" y1="246.25" x2="102.53" y2="246.48"/>
							<line class="st23" x1="102.24" y1="245.89" x2="102.7" y2="246.04"/>
						</g>
						<g>
							<path class="st23" d="M103.27,244.78c0,0,0,0.56,0,0.77s0.03,0.52,0.23,0.4s0.93-0.54,1.21-0.7
								c0.29-0.16,0.25-0.27,0.25-0.44s0-1.03,0-1.03"/>
							<path class="st23" d="M103.27,245.54c0,0,0.84-0.48,1.03-0.59c0.13-0.07,0.2-0.16,0.2-0.35s0-0.55,0-0.55"/>
							<line class="st23" x1="104.29" y1="244.95" x2="104.78" y2="245.19"/>
							<line class="st23" x1="104.5" y1="244.6" x2="104.96" y2="244.74"/>
						</g>
						
							<ellipse transform="matrix(0.4632 -0.8862 0.8862 0.4632 -155.6096 227.0154)" class="st34" cx="109.6" cy="241.97" rx="0.61" ry="0.35"/>
						
							<ellipse transform="matrix(0.4632 -0.8862 0.8862 0.4632 -157.0231 226.235)" class="st34" cx="108.25" cy="242.74" rx="0.61" ry="0.35"/>
						
							<ellipse transform="matrix(0.4632 -0.8862 0.8862 0.4632 -158.5488 225.4079)" class="st34" cx="106.8" cy="243.59" rx="0.39" ry="0.22"/>
						
							<ellipse transform="matrix(0.4632 -0.8862 0.8862 0.4632 -157.8552 225.7739)" class="st34" cx="107.45" cy="243.2" rx="0.39" ry="0.22"/>
					</g>
				</g>
				<g>
					<path class="st23" d="M80.05,257.84c-0.74,0.42-1.35,0.9-1.52,1.49s-0.21,0.82-0.21,1.19s0,2.19,0,2.72s0.41,1.07,0.85,0.91
						s3.14-1.73,3.66-2.03c0.43-0.25,1.27-0.81,1.24-1.93"/>
					<path class="st23" d="M78.44,263.79c0.18,0.23,0.41,0.39,0.96,0.08s2.65-1.55,3.22-1.86c0.57-0.32,1.19-0.78,1.24-1.8"/>
					<path class="st23" d="M78.36,261.37c0.05,0.01,2.02-1.26,2.02-1.26l-0.2-2.03"/>
					<line class="st23" x1="78.53" y1="259.34" x2="78.85" y2="261"/>
					<line class="st23" x1="80.38" y1="260.11" x2="80.38" y2="258.2"/>
				</g>
				<g>
					<path class="st26" d="M45.54,255.95c0.97-6.26,5.74-6.39,9.62-4.16c3.53,2.04,7.3,6.37,8.45,11.08
						c0.82,3.37,0.93,5.65,0.49,7.63c-0.45,1.98-1.76,3.28-4.87,4.04"/>
					<path class="st26" d="M51.86,251.09c-5.69-0.66-6.38,4.51-6.32,6.4c0.07,1.89,1.02,9.17,6.87,14.2
						c5.85,5.02,9.5,2.32,10.55,0.36c1.11-2.08,1-8.59-2.01-13.36C57.35,253,53.57,251.29,51.86,251.09z"/>
				</g>
				<g>
					<path class="st27" d="M43.19,185.59c0-7.48,4.69-8.06,7.12-7.87c5.49,0.42,15.83,9.64,15.69,19.75c-0.18,13.24,0,35.72,0,39.37
						c0,2.8-3.62,8.48-10.74,4.9c-7.11-3.58-12.07-13.13-12.07-19.92S43.19,185.59,43.19,185.59z"/>
					<path class="st35" d="M61.14,242.72c2.74-0.57,5.28-3.02,5.28-6.53s0-35.91,0-38.71s-0.88-10.11-8.95-16.76
						c-5.62-4.62-9.39-3.12-10.9-2.36"/>
					<path class="st27" d="M59.95,195.13c0-3.63-2.8-8.27-5.72-9.15s-4.92,0.39-4.92,3.33s0,32.24,0,36.26
						c0,2.92,3.54,7.73,6.22,8.74c2.68,1.02,4.38-0.14,4.38-2.51C59.92,229.42,59.95,195.13,59.95,195.13z"/>
					<path class="st27" d="M52.94,185.76c-0.62,0.5-0.37,1.32-0.37,1.91s0,34.14,0,35.74s1.62,8.2,7.17,9.61"/>
					<line class="st27" x1="52.57" y1="187.67" x2="49.32" y2="189.56"/>
					<line class="st27" x1="52.57" y1="223.41" x2="49.34" y2="225.28"/>
				</g>
			</g>
			<g id="Front_Handle_1_">
				<path class="st26" d="M125.79,161.74c1.85,1.24,3.34,2.61,3.54,4.7c0.24,2.58-1.21,4.57-3.13,5.68
					c-2.1,1.21-25.85,14.95-28.78,16.63c-2.93,1.67-9.69,2.9-14.72,0s-62.55-36.27-64.89-37.47s-5.99-6.74,0.35-10.39
					c2.14-0.04,2.49,2.38,1.98,3.03c-1.18,0.88-3.6,2.43-0.16,4.41c3.44,1.99,62.17,36.02,64.21,37.17s7.38,2.36,10.94,0.33
					s27.43-15.78,28.97-16.68s2.77-2.55-0.14-4.25C123.03,163.73,124.26,161.45,125.79,161.74z"/>
				<path class="st27" d="M124.11,169.15c1.31-0.01,2.54,1.74,1.87,3.1"/>
				<path class="st27" d="M95.59,185.57c1.6-0.14,2.72,2.13,1.83,3.18"/>
				<path class="st27" d="M84.19,185.5c-0.98,0.05-2.26,1.66-1.49,3.24"/>
				<path class="st27" d="M19.98,148.33c-1.18-0.2-2.33,1.15-2.17,2.95"/>
			</g>
		</g>
		<g>
			<path class="st14" d="M92.79,70.52"/>
			<path class="st13" d="M93.9,74.13c0-0.16-0.11-0.29-0.3-0.18c-0.19,0.11-0.29,0.15-0.33,0.22c-0.04,0.07-0.08,0.04-0.08,0.2
				s0,0.38,0,0.47s-0.07,0.22-0.15,0.27c-0.09,0.05-0.18,0.15-0.26,0.15s-0.12,0.01-0.26-0.07c-0.14-0.08-1.37-0.79-1.37-0.79
				s-1.17-0.67-1.23-0.71c-0.07-0.04-0.05-0.05-0.05-0.1c0-0.05,0-0.8,0-1.03c0-0.21,0.12-0.42,0.31-0.53
				c0.21-0.13,1.64-0.95,1.64-0.95"/>
			<path class="st14" d="M91.82,71.06c0,0,0.76-0.46,0.87-0.5c0.1-0.04,0.14-0.07,0.28,0.01s2.58,1.49,2.58,1.49"/>
			<path class="st14" d="M92.62,75.24c0,0,0-0.91,0-1.12s0.1-0.41,0.31-0.53s2.42-1.39,2.42-1.39"/>
			<line class="st15" x1="90.17" y1="72" x2="92.93" y2="73.59"/>
			<line class="st15" x1="89.87" y1="72.54" x2="92.62" y2="74.13"/>
		</g>
		<g>
			<path class="st14" d="M110.78,80.91"/>
			<path class="st13" d="M113.44,82.4c0,0-2.35-1.36-2.49-1.44c-0.14-0.08-0.17-0.05-0.28-0.01c-0.1,0.04-0.87,0.5-0.87,0.5
				s-1.43,0.82-1.64,0.95c-0.19,0.11-0.31,0.33-0.31,0.53c0,0.23,0,0.98,0,1.03s-0.02,0.06,0.05,0.1c0.07,0.04,1.23,0.71,1.23,0.71
				s1.23,0.71,1.37,0.79c0.14,0.08,0.18,0.07,0.26,0.07c0.08,0,0.17-0.1,0.26-0.15s0.15-0.17,0.15-0.27s0-0.31,0-0.47
				s0.03-0.13,0.08-0.2c0.04-0.07,0.22-0.14,0.42-0.26c0.11-0.06,0.19-0.04,0.19,0.16h0.17c0.21-0.59,0.75-1.49,1.41-1.93"/>
			<path class="st14" d="M110.61,85.64c0,0,0-0.91,0-1.12s0.1-0.41,0.31-0.53s2.42-1.39,2.42-1.39"/>
			<line class="st15" x1="108.17" y1="82.4" x2="110.92" y2="83.99"/>
			<line class="st15" x1="107.86" y1="82.93" x2="110.61" y2="84.52"/>
		</g>
	</g>
</g>
<g id="Layer_2_1_">
	<g>
		<g>
			<polygon class="st36" points="165.61,282.21 168.07,283.63 168.07,284.12 166.04,285.29 163.6,283.88 163.6,283.37 			"/>
			<polyline class="st6" points="163.6,283.37 166.04,284.8 168.07,283.63 			"/>
			<line class="st6" x1="166.04" y1="285.28" x2="166.04" y2="284.8"/>
		</g>
		<g>
			<path class="st4" d="M173.25,289.48c-0.89,0.06-2.13,0.26-3.67-0.63s-4.62-2.71-4.62-2.71v-0.95l3.93-2.15
				c0,0,5.19,2.78,5.7,3.11c0.72,0.46,0.49,1.92,0,2.51L173.25,289.48z"/>
			<path class="st6" d="M164.96,285.2c0,0,5,2.76,5.54,3.03s1.36,0.69,2.71,0.26c1.35-0.42,1.49-1.38,1.18-2.2"/>
			<line class="st6" x1="171.12" y1="288.62" x2="171.12" y2="289.45"/>
			<line class="st6" x1="172.73" y1="288.62" x2="172.73" y2="289.45"/>
		</g>
		<line class="st37" x1="189.01" y1="297.06" x2="175.05" y2="288.99"/>
	</g>
	<g>
		<path class="st38" d="M199.25,293.89c-1.17-0.68-2.02-0.79-3.42,0.01c-1.4,0.81-8.95,5.06-10.94,6.28
			c-1.31,0.79-1.3,1.22-1.3,2.18s0,0.69,0,1.35s0.47,0.86,1.5,1.47c1.9,1.13,18.77,10.91,21.95,12.77c0.97,0.56,2.12,0.53,3.06-0.07
			c0.93-0.6,10.86-6.11,11.58-6.64s0.85-0.93,0.85-1.4s0-1.25,0-1.97c0-0.55-0.26-0.7-1.01-1.12
			C220.58,306.23,200.3,294.5,199.25,293.89z"/>
		<path class="st39" d="M183.8,301.1c0,0,22.71,13.11,23.4,13.51c0.7,0.4,1.74,0.6,2.74,0s11.17-6,11.17-6
			c0.53-0.31,1.55-1.17,0.39-1.86"/>
		<line class="st40" x1="209.95" y1="314.61" x2="209.95" y2="317.88"/>
		<line class="st40" x1="207.21" y1="314.61" x2="207.21" y2="318.13"/>
	</g>
</g>
<g id="Layer_4">
	<g>
		<line class="st41" x1="105.05" y1="248.33" x2="160.93" y2="280.59"/>
		<line class="st42" x1="105.05" y1="248.33" x2="160.93" y2="280.59"/>
		<g>
			<line class="st43" x1="105.05" y1="248.33" x2="106.35" y2="249.08"/>
			<line class="st44" x1="108.89" y1="250.55" x2="158.36" y2="279.11"/>
			<line class="st43" x1="159.63" y1="279.84" x2="160.93" y2="280.59"/>
		</g>
	</g>
</g>
</svg>
