<?xml version="1.0" encoding="utf-8"?>
<!-- Generator: Adobe Illustrator 24.0.3, SVG Export Plug-In . SVG Version: 6.00 Build 0)  -->
<svg version="1.1" id="Layer_1" xmlns="http://www.w3.org/2000/svg" xmlns:xlink="http://www.w3.org/1999/xlink" x="0px" y="0px"
	 viewBox="0 0 51.47 85.22" style="enable-background:new 0 0 51.47 85.22;" xml:space="preserve">
<style type="text/css">
	.st0{fill:none;stroke:#000000;stroke-width:0.5;}
	.st1{fill:none;stroke:#000000;}
	.st2{font-family:'Arial-BoldMT';}
	.st3{font-size:12px;}
</style>
<rect x="0.57" y="58.1" width="50.1" height="8.5"/>
<path class="st0" d="M35.86,12.72c0,0.25-0.2,0.46-0.46,0.46H14.67c-0.25,0-0.46-0.2-0.46-0.46v-0.37c0-0.25,0.2-0.46,0.46-0.46
	H35.4c0.25,0,0.46,0.2,0.46,0.46V12.72z"/>
<path class="st0" d="M15.68,11.71c0,0-0.23-1.36,1.74-1.33l6.03-0.33c0,0,9.51-0.26,11.69,0.95"/>
<path d="M18.78,11.39c0,0.25-0.2,0.46-0.46,0.46H17.9c-0.25,0-0.46-0.2-0.46-0.46v-1.6c0-0.25,0.2-0.46,0.46-0.46h0.42
	c0.25,0,0.46,0.2,0.46,0.46V11.39z"/>
<rect x="23.52" y="9.54" width="4.72" height="1.2"/>
<path d="M37.42,11.97c0,0.78-0.63,1.41-1.41,1.41s-1.41-0.63-1.41-1.41s0.63-1.41,1.41-1.41S37.42,11.19,37.42,11.97z"/>
<polyline class="st0" points="35.29,14.79 37.06,14.79 37.06,17.53 34.93,17.53 "/>
<rect x="23.68" y="20.12" width="6.31" height="1.51"/>
<path class="st0" d="M15.77,13.2l2.61,27.45c-0.01-0.23,0.05,1.26,1.22,1.21c1.52-0.06,10.11-0.07,10.11-0.07"/>
<line class="st0" x1="35.5" y1="13.12" x2="32.83" y2="39.11"/>
<line class="st1" x1="0.63" y1="0.35" x2="50.92" y2="51.78"/>
<line class="st1" x1="0.36" y1="51.71" x2="51.12" y2="0.35"/>
<path d="M32.95,41.29c0,0.64-0.51,1.15-1.15,1.15c-0.64,0-1.15-0.52-1.15-1.15s0.51-1.15,1.15-1.15S32.95,40.66,32.95,41.29z"/>
<path d="M34.45,41.29c0,1.45-1.18,2.63-2.63,2.63s-2.63-1.18-2.63-2.63s1.18-2.63,2.63-2.63C33.28,38.66,34.45,39.84,34.45,41.29z
	 M31.8,39.79c-0.83,0-1.5,0.67-1.5,1.5s0.67,1.5,1.5,1.5s1.5-0.67,1.5-1.5S32.63,39.79,31.8,39.79z"/>
<rect x="19.26" y="41.95" width="1.62" height="1.88"/>
<text transform="matrix(1 0 0 1 17.6129 80.702)" class="st2 st3">Pb</text>
</svg>
