<?xml version="1.0" encoding="utf-8"?>
<!-- Generator: Adobe Illustrator 24.0.3, SVG Export Plug-In . SVG Version: 6.00 Build 0)  -->
<svg version="1.1" id="Layer_1" xmlns="http://www.w3.org/2000/svg" xmlns:xlink="http://www.w3.org/1999/xlink" x="0px" y="0px"
	 viewBox="0 0 64.17 52.67" style="enable-background:new 0 0 64.17 52.67;" xml:space="preserve">
<style type="text/css">
	.st0{fill:#FFFFFF;stroke:#000000;stroke-width:2.5;}
</style>
<rect x="1.25" y="1.25" class="st0" width="61.67" height="50.17"/>
<g>
	<path d="M10.88,38.01V16.53h6.49l3.9,14.65l3.85-14.65h6.5V38h-4.03V21.1L23.33,38h-4.17l-4.25-16.9V38h-4.03V38.01z"/>
	<path d="M35.92,16.53h7.92c1.79,0,3.15,0.14,4.09,0.41c1.26,0.37,2.34,1.03,3.24,1.98s1.58,2.11,2.05,3.48s0.7,3.06,0.7,5.08
		c0,1.77-0.22,3.29-0.66,4.57c-0.54,1.56-1.3,2.83-2.3,3.79c-0.75,0.73-1.77,1.3-3.05,1.71c-0.96,0.3-2.24,0.45-3.84,0.45h-8.16
		L35.92,16.53L35.92,16.53z M40.25,20.17v14.22h3.24c1.21,0,2.08-0.07,2.62-0.21c0.7-0.18,1.29-0.47,1.75-0.89s0.84-1.11,1.14-2.07
		s0.44-2.27,0.44-3.93s-0.15-2.93-0.44-3.82s-0.7-1.58-1.23-2.08s-1.2-0.83-2.01-1.01c-0.61-0.14-1.79-0.21-3.56-0.21H40.25z"/>
</g>
</svg>
