<?xml version="1.0" encoding="utf-8"?>
<!-- Generator: Adobe Illustrator 24.0.3, SVG Export Plug-In . SVG Version: 6.00 Build 0)  -->
<svg version="1.1" id="Layer_1" xmlns="http://www.w3.org/2000/svg" xmlns:xlink="http://www.w3.org/1999/xlink" x="0px" y="0px"
	 viewBox="0 0 131.24 139.67" style="enable-background:new 0 0 131.24 139.67;" xml:space="preserve">
<style type="text/css">
	.st0{stroke:#000000;stroke-miterlimit:10;}
</style>
<path class="st0" d="M106.07,40.5H91.14c0,0,0-4.8,0-16.53C91.14,9.04,76.47,0.5,65.62,0.5C53,0.5,40.1,9.03,40.1,23.97
	c0,11.73,0,16.53,0,16.53H25.17L0.64,139.17h64.98h64.98L106.07,40.5z M78.87,40.23H52.2c0,0,0-8.53,0-15.2s4.8-12,13.42-12
	c9.52,0,13.25,5.6,13.25,12C78.87,31.43,78.87,40.23,78.87,40.23z"/>
</svg>
