<?xml version="1.0" encoding="utf-8"?>
<!-- Generator: Adobe Illustrator 24.0.3, SVG Export Plug-In . SVG Version: 6.00 Build 0)  -->
<svg version="1.1" id="Layer_1" xmlns="http://www.w3.org/2000/svg" xmlns:xlink="http://www.w3.org/1999/xlink" x="0px" y="0px"
	 viewBox="0 0 19.02 13.77" style="enable-background:new 0 0 19.02 13.77;" xml:space="preserve">
<style type="text/css">
	.st0{fill-rule:evenodd;clip-rule:evenodd;fill:#231F20;}
</style>
<path class="st0" d="M7.21,11.78c-0.1,0.01-0.2,0.01-0.3,0.01c-2.72,0-4.94-2.21-4.94-4.93c0-2.73,2.21-4.94,4.94-4.94
	c0.1,0,0.2,0.01,0.3,0.01V0.02C7.1,0.01,6.99,0.01,6.88,0.01C3.08,0.01,0,3.09,0,6.89c0,3.8,2.96,6.75,6.88,6.88
	c0.11,0.01,0.23,0,0.34-0.01L7.21,11.78z"/>
<path class="st0" d="M19,11.78c-0.1,0.01-0.2,0.01-0.3,0.01c-2.53,0-4.49-1.8-4.89-4.26h3.9V5.58c0,0-2.53,0-3.79,0
	c0.69-2.24,2.29-3.67,4.79-3.67c0.1,0,0.21,0.01,0.3,0.01V0.01C18.9,0,18.79,0,18.68,0c-3.8,0-6.88,3.08-6.88,6.88
	c0,3.8,3.08,6.88,6.88,6.88c0.11,0,0.23,0,0.34-0.01L19,11.78z"/>
</svg>
